<?xml version="1.0" encoding="utf-8"?>
<!-- Generator: Adobe Illustrator 24.1.1, SVG Export Plug-In . SVG Version: 6.00 Build 0)  -->
<svg version="1.1" id="Ebene_1" xmlns="http://www.w3.org/2000/svg" xmlns:xlink="http://www.w3.org/1999/xlink" x="0px" y="0px"
	 viewBox="0 0 30 30" style="enable-background:new 0 0 30 30;" xml:space="preserve">
<style type="text/css">
	.st0{fill:#50697D;}
	.st1{fill:#FFFFFF;}
	.st2{fill:none;}
</style>
<rect x="0.1" y="0.1" class="st0" width="29.9" height="29.9"/>
<g id="Ebene_1_1_">
	<g>
		<path class="st1" d="M11.3,9.3l1.8,2.7c0.5,0.7,0.9,1.4,1.3,2.1h0.1c0.4-0.8,0.8-1.4,1.2-2.1l1.8-2.7H20l-4.3,6.1l4.4,6.5h-2.6
			l-1.8-2.8c-0.5-0.7-0.9-1.4-1.4-2.2h-0.1c-0.4,0.8-0.9,1.4-1.3,2.2l-1.8,2.8H8.6l4.5-6.4L8.8,9.3H11.3z"/>
	</g>
	<g>
		<path class="st1" d="M24.5,17.4L24.5,17.4L23,18.2l-0.2-0.9l1.8-1h1v8.3h-1.1C24.5,24.6,24.5,17.4,24.5,17.4z"/>
	</g>
	<g id="_x3C_Slice_x3E__6_">
		<rect class="st2" width="30" height="30"/>
	</g>
</g>
</svg>
