<?xml version="1.0" encoding="utf-8"?>
<!-- Generator: Adobe Illustrator 24.1.1, SVG Export Plug-In . SVG Version: 6.00 Build 0)  -->
<svg version="1.1" id="Ebene_1" xmlns="http://www.w3.org/2000/svg" xmlns:xlink="http://www.w3.org/1999/xlink" x="0px" y="0px"
	 viewBox="0 0 30 30" style="enable-background:new 0 0 30 30;" xml:space="preserve">
<style type="text/css">
	.st0{fill:#50697D;}
	.st1{fill:#FFFFFF;}
	.st2{fill:none;}
</style>
<rect x="0" y="0" class="st0" width="30" height="30"/>
<g id="Ebene_1_1_">
	<g>
		<path class="st1" d="M11.1,9.3l1.8,2.7c0.5,0.7,0.9,1.4,1.3,2.1h0.1c0.4-0.8,0.8-1.4,1.2-2.1l1.8-2.7h2.5l-4.3,6.1l4.4,6.5h-2.6
			l-1.8-2.8c-0.5-0.7-0.9-1.4-1.4-2.2H14c-0.4,0.8-0.9,1.4-1.3,2.2l-1.8,2.8H8.4l4.5-6.4L8.6,9.3H11.1z"/>
		<path class="st1" d="M23.2,7.3L23.2,7.3l-1.5,0.8l-0.2-0.9l1.8-1h1v8.3h-1.1L23.2,7.3L23.2,7.3z"/>
	</g>
	<g id="_x3C_Slice_x3E__5_">
		<rect class="st2" width="30" height="30"/>
	</g>
</g>
</svg>
