<?xml version="1.0" encoding="utf-8"?>
<!-- Generator: Adobe Illustrator 24.1.1, SVG Export Plug-In . SVG Version: 6.00 Build 0)  -->
<svg version="1.1" id="Ebene_1" xmlns="http://www.w3.org/2000/svg" xmlns:xlink="http://www.w3.org/1999/xlink" x="0px" y="0px"
	 viewBox="0 0 292.7 60.9" style="enable-background:new 0 0 292.7 60.9;" xml:space="preserve">
<style type="text/css">
	.st0{fill:#FFFFFF;stroke:#50697D;stroke-miterlimit:10;}
	.st1{fill:#657A8B;}
	.st2{fill:#50697D;}
</style>
<g>
	<rect x="1.4" y="21.4" class="st0" width="288.3" height="38.2"/>
	<g>
		<path class="st1" d="M16.5,8.7h-3.6v3.8h-1.1V3.9h5.3v0.9h-4.2v2.9h3.6V8.7z"/>
		<path class="st1" d="M17.8,9.2c0-0.6,0.1-1.2,0.4-1.7s0.6-0.9,1-1.1S20.2,6,20.7,6c0.9,0,1.6,0.3,2.1,0.9s0.8,1.4,0.8,2.4v0.1
			c0,0.6-0.1,1.2-0.4,1.7s-0.6,0.9-1,1.1s-0.9,0.4-1.5,0.4c-0.9,0-1.6-0.3-2.1-0.9S17.8,10.3,17.8,9.2L17.8,9.2z M18.9,9.4
			c0,0.7,0.2,1.3,0.5,1.7s0.8,0.6,1.3,0.6c0.6,0,1-0.2,1.3-0.6s0.5-1,0.5-1.8c0-0.7-0.2-1.3-0.5-1.7s-0.8-0.6-1.3-0.6
			c-0.5,0-1,0.2-1.3,0.6S18.9,8.6,18.9,9.4z"/>
		<path class="st1" d="M26,6.1l0,0.8C26.5,6.3,27.1,6,27.9,6c1.3,0,2,0.8,2,2.3v4.2h-1.1V8.3c0-0.5-0.1-0.8-0.3-1s-0.5-0.3-1-0.3
			c-0.4,0-0.7,0.1-0.9,0.3S26.2,7.6,26,7.9v4.5H25V6.1H26z"/>
		<path class="st1" d="M33.1,4.6v1.5h1.2V7h-1.2v3.9c0,0.3,0.1,0.4,0.2,0.6c0.1,0.1,0.3,0.2,0.5,0.2c0.1,0,0.3,0,0.5-0.1v0.9
			c-0.3,0.1-0.6,0.1-0.8,0.1c-0.5,0-0.8-0.1-1.1-0.4S32,11.4,32,10.9V7h-1.2V6.1H32V4.6H33.1z"/>
	</g>
	<g>
		<path class="st2" d="M18.9,40.1l-1.2,1.3v3.4h-1.3v-10h1.3v4.9l4.4-4.9h1.6l-3.9,4.4l4.2,5.6h-1.6L18.9,40.1z"/>
		<path class="st2" d="M24.7,41c0-0.7,0.1-1.4,0.4-2c0.3-0.6,0.7-1,1.2-1.3c0.5-0.3,1.1-0.5,1.7-0.5c1,0,1.8,0.3,2.4,1
			c0.6,0.7,0.9,1.6,0.9,2.8v0.1c0,0.7-0.1,1.4-0.4,1.9c-0.3,0.6-0.7,1-1.2,1.3c-0.5,0.3-1.1,0.5-1.8,0.5c-1,0-1.8-0.3-2.4-1
			C25,43.1,24.7,42.2,24.7,41L24.7,41z M26,41.1c0,0.8,0.2,1.5,0.6,2c0.4,0.5,0.9,0.7,1.5,0.7c0.6,0,1.2-0.3,1.5-0.8
			c0.4-0.5,0.6-1.2,0.6-2.1c0-0.8-0.2-1.5-0.6-2c-0.4-0.5-0.9-0.8-1.5-0.8c-0.6,0-1.1,0.2-1.5,0.7C26.2,39.5,26,40.2,26,41.1z"/>
		<path class="st2" d="M34.5,37.3l0,0.8c0.5-0.6,1.3-1,2.2-1c1,0,1.7,0.4,2.1,1.2c0.2-0.4,0.6-0.6,1-0.9c0.4-0.2,0.9-0.3,1.4-0.3
			c1.6,0,2.4,0.9,2.5,2.6v5h-1.3v-4.9c0-0.5-0.1-0.9-0.4-1.2c-0.2-0.3-0.6-0.4-1.2-0.4c-0.5,0-0.9,0.1-1.2,0.4s-0.5,0.7-0.5,1.1v4.9
			h-1.3v-4.8c0-1.1-0.5-1.6-1.6-1.6c-0.8,0-1.4,0.4-1.7,1.1v5.4h-1.3v-7.4H34.5z"/>
		<path class="st2" d="M52.1,41.1c0,1.1-0.3,2-0.8,2.7c-0.5,0.7-1.2,1-2.1,1c-0.9,0-1.6-0.3-2.1-0.9v3.6h-1.3V37.3h1.2l0.1,0.8
			c0.5-0.6,1.2-1,2.1-1c0.9,0,1.6,0.3,2.1,1c0.5,0.7,0.8,1.6,0.8,2.8V41.1z M50.9,41c0-0.8-0.2-1.5-0.5-2c-0.4-0.5-0.8-0.7-1.5-0.7
			c-0.8,0-1.3,0.3-1.7,1v3.5c0.4,0.7,1,1,1.7,1c0.6,0,1.1-0.2,1.4-0.7C50.7,42.6,50.9,41.9,50.9,41z"/>
		<path class="st2" d="M55.4,44.7h-1.3V34.2h1.3V44.7z"/>
		<path class="st2" d="M60.8,44.9c-1,0-1.8-0.3-2.4-1c-0.6-0.7-0.9-1.5-0.9-2.6V41c0-0.7,0.1-1.4,0.4-2c0.3-0.6,0.7-1,1.2-1.4
			c0.5-0.3,1-0.5,1.6-0.5c1,0,1.7,0.3,2.2,1c0.5,0.6,0.8,1.5,0.8,2.7v0.5h-5c0,0.7,0.2,1.3,0.6,1.8c0.4,0.4,0.9,0.7,1.6,0.7
			c0.4,0,0.8-0.1,1.1-0.3c0.3-0.2,0.6-0.4,0.8-0.7l0.8,0.6C63,44.4,62.1,44.9,60.8,44.9z M60.7,38.2c-0.5,0-0.9,0.2-1.3,0.6
			c-0.3,0.4-0.6,0.9-0.6,1.6h3.7v-0.1c0-0.6-0.2-1.1-0.5-1.5C61.6,38.4,61.2,38.2,60.7,38.2z"/>
		<path class="st2" d="M67.2,35.6v1.8h1.4v1h-1.4v4.6c0,0.3,0.1,0.5,0.2,0.7c0.1,0.1,0.3,0.2,0.6,0.2c0.1,0,0.3,0,0.6-0.1v1
			c-0.3,0.1-0.7,0.1-1,0.1c-0.6,0-1-0.2-1.3-0.5s-0.4-0.8-0.4-1.5v-4.6h-1.3v-1h1.3v-1.8H67.2z"/>
		<path class="st2" d="M72.1,35.6v1.8h1.4v1h-1.4v4.6c0,0.3,0.1,0.5,0.2,0.7c0.1,0.1,0.3,0.2,0.6,0.2c0.1,0,0.3,0,0.6-0.1v1
			c-0.3,0.1-0.7,0.1-1,0.1c-0.6,0-1-0.2-1.3-0.5s-0.4-0.8-0.4-1.5v-4.6h-1.3v-1h1.3v-1.8H72.1z"/>
	</g>
	<g>
		<line class="st0" x1="250.9" y1="26.3" x2="250.9" y2="54"/>
		<polygon class="st2" points="271.6,44.6 265.3,38.3 277.9,38.3 		"/>
	</g>
</g>
</svg>
