<?xml version="1.0" encoding="utf-8"?>
<!-- Generator: Adobe Illustrator 24.1.1, SVG Export Plug-In . SVG Version: 6.00 Build 0)  -->
<svg version="1.1" id="Ebene_1" xmlns="http://www.w3.org/2000/svg" xmlns:xlink="http://www.w3.org/1999/xlink" x="0px" y="0px"
	 viewBox="0 0 167.3 41" style="enable-background:new 0 0 167.3 41;" xml:space="preserve">
<style type="text/css">
	.st0{fill:#50697D;}
</style>
<polygon class="st0" points="22.7,16.7 20.7,16.7 20.7,20.1 17.3,20.1 17.3,22.1 20.7,22.1 20.7,25.5 22.7,25.5 22.7,22.1 
	26.1,22.1 26.1,20.1 22.7,20.1 "/>
<path class="st0" d="M11.7,31.1h20v-20h-20C11.7,11.1,11.7,31.1,11.7,31.1z M13.7,13.1h16v16h-16C13.7,29.1,13.7,13.1,13.7,13.1z"/>
<g>
	<path class="st0" d="M37.2,26.2V15.4h1.5l3.5,5.5c0.8,1.3,1.4,2.4,1.9,3.5l0,0c-0.1-1.4-0.2-2.8-0.2-4.4v-4.5h1.3v10.8h-1.4
		l-3.4-5.5c-0.8-1.2-1.5-2.4-2-3.6l0,0c0.1,1.4,0.1,2.7,0.1,4.4v4.6H37.2z"/>
	<path class="st0" d="M53.3,21.1h-4.2V25h4.7v1.2h-6.1V15.4h5.8v1.2h-4.4v3.4h4.2V21.1z"/>
	<path class="st0" d="M57.5,26.2l-2.7-10.8h1.5l1.3,5.5c0.3,1.3,0.6,2.7,0.8,3.7h0c0.2-1.1,0.5-2.4,0.9-3.7l1.4-5.4h1.5l1.3,5.5
		c0.3,1.3,0.6,2.6,0.8,3.7h0c0.2-1.2,0.5-2.4,0.9-3.7l1.4-5.4h1.4l-3.1,10.8h-1.5L62,20.5c-0.3-1.4-0.6-2.4-0.7-3.5h0
		c-0.2,1.1-0.4,2.1-0.8,3.5l-1.5,5.6H57.5z"/>
	<path class="st0" d="M72.6,15.5c0.8-0.1,1.9-0.2,3-0.2c2,0,3.4,0.5,4.4,1.3c1,0.9,1.5,2.1,1.5,3.9c0,1.8-0.5,3.2-1.6,4.2
		c-1,1-2.7,1.6-4.8,1.6c-1,0-1.8,0-2.5-0.1V15.5z M74,25c0.4,0.1,0.9,0.1,1.4,0.1c3,0,4.6-1.7,4.6-4.6c0-2.5-1.4-4.2-4.4-4.2
		c-0.7,0-1.3,0.1-1.6,0.1V25z"/>
	<path class="st0" d="M84.7,15.4v10.8h-1.4V15.4H84.7z"/>
	<path class="st0" d="M94.6,25.8c-0.5,0.3-1.5,0.5-2.8,0.5c-3,0-5.3-1.9-5.3-5.5c0-3.4,2.3-5.7,5.6-5.7c1.3,0,2.2,0.3,2.6,0.5
		l-0.3,1.1c-0.5-0.3-1.3-0.4-2.2-0.4c-2.5,0-4.2,1.6-4.2,4.4c0,2.6,1.5,4.3,4.1,4.3c0.8,0,1.7-0.2,2.3-0.4L94.6,25.8z"/>
	<path class="st0" d="M98.9,16.6h-3.3v-1.2h8v1.2h-3.3v9.6h-1.4V16.6z"/>
	<path class="st0" d="M106.2,15.4v10.8h-1.4V15.4H106.2z"/>
	<path class="st0" d="M117.8,20.6c0,3.7-2.3,5.7-5,5.7c-2.8,0-4.8-2.2-4.8-5.5c0-3.4,2.1-5.7,5-5.7
		C115.9,15.2,117.8,17.4,117.8,20.6z M109.5,20.8c0,2.3,1.2,4.4,3.4,4.4c2.2,0,3.5-2,3.5-4.5c0-2.1-1.1-4.4-3.4-4.4
		C110.6,16.3,109.5,18.5,109.5,20.8z"/>
	<path class="st0" d="M119.6,26.2V15.4h1.5l3.5,5.5c0.8,1.3,1.4,2.4,1.9,3.5l0,0c-0.1-1.4-0.2-2.8-0.2-4.4v-4.5h1.3v10.8h-1.4
		l-3.4-5.5c-0.8-1.2-1.5-2.4-2-3.6l0,0c0.1,1.4,0.1,2.7,0.1,4.4v4.6H119.6z"/>
	<path class="st0" d="M131.9,22.8l-1.1,3.4h-1.4l3.7-10.8h1.7l3.7,10.8h-1.5l-1.2-3.4H131.9z M135.4,21.7l-1.1-3.1
		c-0.2-0.7-0.4-1.3-0.6-2h0c-0.2,0.6-0.3,1.3-0.5,2l-1.1,3.1H135.4z"/>
	<path class="st0" d="M140,15.5c0.7-0.1,1.7-0.2,2.7-0.2c1.5,0,2.4,0.3,3.1,0.9c0.5,0.5,0.8,1.2,0.8,2c0,1.4-0.9,2.4-2,2.8v0
		c0.8,0.3,1.3,1.1,1.6,2.2c0.4,1.5,0.6,2.5,0.8,3h-1.4c-0.2-0.3-0.4-1.2-0.7-2.6c-0.3-1.5-0.9-2-2.2-2.1h-1.3v4.7H140V15.5z
		 M141.3,20.4h1.4c1.5,0,2.4-0.8,2.4-2c0-1.4-1-2-2.5-2c-0.7,0-1.2,0.1-1.4,0.1V20.4z"/>
	<path class="st0" d="M150.8,26.2v-4.6l-3.4-6.2h1.6l1.5,3c0.4,0.8,0.7,1.5,1.1,2.2h0c0.3-0.7,0.7-1.4,1.1-2.2l1.6-3h1.6l-3.6,6.2
		v4.6H150.8z"/>
</g>
</svg>
