<?xml version="1.0" encoding="utf-8"?>
<!-- Generator: Adobe Illustrator 24.1.1, SVG Export Plug-In . SVG Version: 6.00 Build 0)  -->
<svg
  version="1.1"
  id="Ebene_1"
  xmlns="http://www.w3.org/2000/svg"
  xmlns:xlink="http://www.w3.org/1999/xlink"
  x="0px"
  y="0px"
  viewBox="0 0 196 41"
  style="enable-background: new 0 0 196 41"
  xml:space="preserve"
>
  <style type="text/css">
    .st0 {
      fill: #50697d;
    }
  </style>
  <g>
    <polygon
      class="st0"
      points="42.2,26 43.6,26 43.6,21.1 47.6,21.1 47.6,20 43.6,20 43.6,16.4 48,16.4 48,15.2 42.2,15.2 	"
    />
    <path
      class="st0"
      d="M54.3,15c-2.9,0-5,2.2-5,5.7c0,3.3,2,5.5,4.8,5.5c2.8,0,5-2,5-5.7C59.2,17.3,57.3,15,54.3,15z M54.2,25.1
		c-2.2,0-3.4-2.1-3.4-4.4c0-2.4,1.2-4.5,3.5-4.5c2.3,0,3.4,2.2,3.4,4.4C57.7,23,56.5,25.1,54.2,25.1z"
    />
    <path
      class="st0"
      d="M65.6,20.9L65.6,20.9c1.1-0.4,2-1.4,2-2.8c0-0.8-0.3-1.6-0.8-2c-0.7-0.6-1.6-0.9-3.1-0.9c-1,0-2,0.1-2.7,0.2
		V26h1.4v-4.7h1.3c1.3,0,1.8,0.6,2.2,2.1c0.3,1.3,0.5,2.3,0.7,2.6H68c-0.2-0.4-0.5-1.5-0.8-3C66.9,21.9,66.4,21.2,65.6,20.9z
		 M63.8,20.3h-1.4v-3.9c0.2-0.1,0.7-0.1,1.4-0.1c1.5,0,2.5,0.6,2.5,2C66.2,19.5,65.3,20.3,63.8,20.3z"
    />
    <path
      class="st0"
      d="M74.3,21.5h2.2v3.2c-0.3,0.2-0.9,0.3-1.9,0.3c-2.5,0-4.2-1.6-4.2-4.4c0-2.7,1.7-4.3,4.3-4.3
		c1.1,0,1.8,0.2,2.4,0.5l0.3-1.1c-0.5-0.2-1.4-0.5-2.7-0.5c-3.6,0-5.8,2.4-5.8,5.6c0,1.7,0.6,3.1,1.5,4c1.1,1,2.4,1.4,4,1.4
		c1.5,0,2.7-0.4,3.3-0.6v-5.2h-3.6V21.5z"
    />
    <path
      class="st0"
      d="M84.3,15c-2.9,0-5,2.2-5,5.7c0,3.3,2,5.5,4.8,5.5c2.8,0,5-2,5-5.7C89.2,17.3,87.3,15,84.3,15z M84.3,25.1
		c-2.2,0-3.4-2.1-3.4-4.4c0-2.4,1.2-4.5,3.5-4.5c2.3,0,3.4,2.2,3.4,4.4C87.7,23,86.5,25.1,84.3,25.1z"
    />
    <polygon
      class="st0"
      points="89.4,16.4 92.6,16.4 92.6,26 94.1,26 94.1,16.4 97.4,16.4 97.4,15.2 89.4,15.2 	"
    />
    <path
      class="st0"
      d="M107.6,16c-0.6-0.6-1.6-0.9-3-0.9c-1.1,0-2,0.1-2.7,0.2V26h1.4v-4.3c0.3,0.1,0.7,0.1,1.1,0.1
		c1.4,0,2.6-0.4,3.3-1.2c0.5-0.6,0.8-1.3,0.8-2.3C108.6,17.3,108.2,16.6,107.6,16z M104.5,20.7c-0.5,0-0.8,0-1.2-0.1v-4.2
		c0.2-0.1,0.7-0.1,1.3-0.1c1.5,0,2.5,0.7,2.5,2.1C107.2,19.8,106.2,20.7,104.5,20.7z"
    />
    <path
      class="st0"
      d="M112,15.2L108.3,26h1.4l1.1-3.4h3.8l1.2,3.4h1.5l-3.7-10.8H112z M111.1,21.5l1.1-3.1c0.2-0.7,0.4-1.3,0.5-2h0
		c0.2,0.6,0.3,1.3,0.6,2l1.1,3.1H111.1z"
    />
    <path
      class="st0"
      d="M122.1,19.9c-1.5-0.6-2.1-1.1-2.1-2.1c0-0.7,0.6-1.6,2-1.6c1,0,1.7,0.3,2,0.5l0.4-1.1
		c-0.5-0.3-1.3-0.5-2.4-0.5c-2.1,0-3.5,1.2-3.5,2.9c0,1.5,1.1,2.4,2.8,3.1c1.5,0.6,2,1.1,2,2.1c0,1.1-0.8,1.8-2.3,1.8
		c-1,0-1.9-0.3-2.5-0.7l-0.4,1.2c0.6,0.4,1.7,0.7,2.8,0.7c2.5,0,3.8-1.4,3.8-3.1C124.9,21.5,124,20.6,122.1,19.9z"
    />
    <path
      class="st0"
      d="M130,19.9c-1.5-0.6-2.1-1.1-2.1-2.1c0-0.7,0.6-1.6,2-1.6c1,0,1.7,0.3,2,0.5l0.4-1.1c-0.5-0.3-1.3-0.5-2.4-0.5
		c-2.1,0-3.5,1.2-3.5,2.9c0,1.5,1.1,2.4,2.8,3.1c1.5,0.6,2,1.1,2,2.1c0,1.1-0.8,1.8-2.3,1.8c-1,0-1.9-0.3-2.5-0.7l-0.4,1.2
		c0.6,0.4,1.7,0.7,2.8,0.7c2.5,0,3.8-1.4,3.8-3.1C132.8,21.5,131.8,20.6,130,19.9z"
    />
    <path
      class="st0"
      d="M144,20.7c-0.3,1.3-0.6,2.5-0.9,3.7h0c-0.2-1.1-0.4-2.4-0.8-3.7l-1.3-5.5h-1.5l-1.4,5.4
		c-0.4,1.4-0.7,2.7-0.9,3.7h0c-0.2-1-0.5-2.4-0.8-3.7l-1.3-5.5h-1.5l2.7,10.8h1.5l1.5-5.6c0.4-1.4,0.6-2.4,0.8-3.5h0
		c0.1,1.1,0.4,2.1,0.7,3.5l1.4,5.6h1.5l3.1-10.8h-1.4L144,20.7z"
    />
    <path
      class="st0"
      d="M152.6,15c-2.9,0-5,2.2-5,5.7c0,3.3,2,5.5,4.8,5.5c2.8,0,5-2,5-5.7C157.4,17.3,155.5,15,152.6,15z M152.5,25.1
		c-2.2,0-3.4-2.1-3.4-4.4c0-2.4,1.2-4.5,3.5-4.5c2.3,0,3.4,2.2,3.4,4.4C156,23,154.7,25.1,152.5,25.1z"
    />
    <path
      class="st0"
      d="M163.8,20.9L163.8,20.9c1.1-0.4,2-1.4,2-2.8c0-0.8-0.3-1.6-0.8-2c-0.7-0.6-1.6-0.9-3.1-0.9c-1,0-2,0.1-2.7,0.2
		V26h1.4v-4.7h1.3c1.3,0,1.8,0.6,2.2,2.1c0.3,1.3,0.5,2.3,0.7,2.6h1.4c-0.2-0.4-0.5-1.5-0.8-3C165.2,21.9,164.7,21.2,163.8,20.9z
		 M162.1,20.3h-1.4v-3.9c0.2-0.1,0.7-0.1,1.4-0.1c1.5,0,2.5,0.6,2.5,2C164.5,19.5,163.5,20.3,162.1,20.3z"
    />
    <path
      class="st0"
      d="M170.8,15.1c-1.1,0-2.1,0.1-3,0.2V26c0.7,0.1,1.5,0.1,2.5,0.1c2.1,0,3.8-0.5,4.8-1.6c1-1,1.6-2.4,1.6-4.2
		c0-1.7-0.6-3-1.5-3.9C174.2,15.6,172.8,15.1,170.8,15.1z M170.6,25c-0.5,0-1.1,0-1.4-0.1v-8.5c0.4-0.1,0.9-0.1,1.6-0.1
		c2.9,0,4.4,1.6,4.4,4.2C175.2,23.3,173.6,25,170.6,25z"
    />
    <path
      class="st0"
      d="M180.4,15c-0.8,0-1.8,0.3-2.3,0.6l0.4,1c0.4-0.3,1-0.5,1.6-0.5c1,0,1.5,0.6,1.5,1.4c0,0.7-0.4,1.3-1.1,2.2
		c-0.8,1-1.1,1.9-1,2.8l0,0.4h1.2l0-0.4c0-0.8,0.2-1.5,0.9-2.4c0.8-0.9,1.4-1.7,1.4-2.8C183.1,16.2,182.2,15,180.4,15z"
    />
    <path
      class="st0"
      d="M180.1,24.2c-0.6,0-1,0.4-1,1c0,0.6,0.4,1,0.9,1c0.6,0,1-0.4,1-1C181.1,24.6,180.7,24.2,180.1,24.2z"
    />
    <path
      class="st0"
      d="M31.3,14.5H29v0c0-2.9-1.9-4.6-5.1-4.6c-3.2,0-5.1,1.7-5.1,4.6v0h-2.3c-1.6,0-2.8,1.3-2.8,2.8v10.9
		c0,1.6,1.3,2.8,2.8,2.8h14.8c1.6,0,2.8-1.3,2.8-2.8V17.3C34.1,15.8,32.8,14.5,31.3,14.5z M20.3,14.5c0-2.6,2-3.1,3.6-3.1
		s3.6,0.5,3.6,3.1H20.3L20.3,14.5z M32.6,28.2c0,0.7-0.6,1.3-1.3,1.3H16.4c-0.7,0-1.3-0.6-1.3-1.3V17.3c0-0.7,0.6-1.3,1.3-1.3h2.3
		H29h2.3c0.7,0,1.3,0.6,1.3,1.3V28.2z"
    />
    <rect x="22.9" y="25.9" class="st0" width="1.6" height="1.6" />
    <path
      class="st0"
      d="M23.9,18.6c-1.6,0-2.5,0.8-2.8,2.4l0,0.2l1.3,0.3l0-0.3c0.2-1,0.6-1.4,1.4-1.4c0.4,0,0.6,0.1,0.9,0.3
		c0.2,0.2,0.4,0.4,0.4,0.8c0,0.2,0,0.3-0.1,0.5c-0.1,0.2-0.2,0.3-0.3,0.3c-0.1,0.1-0.3,0.2-0.6,0.4c-0.4,0.2-0.6,0.3-0.6,0.4
		c-0.1,0.1-0.2,0.2-0.3,0.4c-0.1,0.2-0.1,0.3-0.1,0.5c0,0.2,0,0.5,0,1.1l0,0.3h1.3l0-0.8c0-0.3,0.1-0.4,0.1-0.4c0,0,0.1-0.2,0.7-0.4
		c1-0.5,1.5-1.3,1.5-2.2c0-0.7-0.3-1.3-0.8-1.7C25.3,18.8,24.7,18.6,23.9,18.6z"
    />
  </g>
</svg>
