<?xml version="1.0" encoding="utf-8"?>
<!-- Generator: Adobe Illustrator 24.1.1, SVG Export Plug-In . SVG Version: 6.00 Build 0)  -->
<svg version="1.1" id="Ebene_1" xmlns="http://www.w3.org/2000/svg" xmlns:xlink="http://www.w3.org/1999/xlink" x="0px" y="0px"
	 viewBox="0 0 115.1 60" style="enable-background:new 0 0 115.1 60;" xml:space="preserve">
<style type="text/css">
	.st0{fill:#50697D;}
	.st1{fill:#FFFFFF;}
</style>
<g>
	<rect x="0.2" y="0.1" class="st0" width="114.9" height="60"/>
</g>
<g>
	<path class="st1" d="M34.8,29.1c1.3-0.9,2.2-2.4,2.2-4.1c0-2.7-2.2-4.9-4.9-4.9c-2.7,0-4.9,2.2-4.9,4.9c0,1.7,0.9,3.2,2.2,4.1
		C26.3,29.8,24,31.7,24,34v5.8h16.4V34C40.3,31.7,38,29.8,34.8,29.1z"/>
	<path class="st1" d="M32.2,14.2c-9.1,0-16.5,7.4-16.5,16.5s7.4,16.5,16.5,16.5c9.1,0,16.5-7.4,16.5-16.5S41.2,14.2,32.2,14.2z
		 M32.2,46.2c-8.5,0-15.5-6.9-15.5-15.5c0-8.5,6.9-15.5,15.5-15.5c8.5,0,15.5,6.9,15.5,15.5C47.6,39.2,40.7,46.2,32.2,46.2z"/>
	<path class="st1" d="M58.8,27c-1.1,0-2,0.1-2.7,0.2v10.7h1.4v-4.3c0.3,0.1,0.7,0.1,1.1,0.1c1.4,0,2.6-0.4,3.3-1.2
		c0.5-0.6,0.8-1.3,0.8-2.3c0-1-0.4-1.7-0.9-2.3C61.1,27.3,60.1,27,58.8,27z M58.6,32.5c-0.5,0-0.8,0-1.2-0.1v-4.2
		c0.2-0.1,0.7-0.1,1.3-0.1c1.5,0,2.5,0.7,2.5,2.1C61.3,31.7,60.3,32.5,58.6,32.5z"/>
	<path class="st1" d="M65.6,31.6L65.6,31.6l-0.1-1.5h-1.2c0,0.7,0.1,1.5,0.1,2.4v5.3h1.4v-4.1c0-0.2,0-0.5,0.1-0.7
		c0.2-1.1,0.9-1.8,1.9-1.8c0.2,0,0.3,0,0.5,0V30c-0.1,0-0.2,0-0.4,0C66.8,29.9,65.9,30.6,65.6,31.6z"/>
	<path class="st1" d="M72.6,29.9c-2.1,0-3.8,1.5-3.8,4.1c0,2.4,1.6,4,3.7,4c1.9,0,3.9-1.2,3.9-4.1C76.4,31.5,74.9,29.9,72.6,29.9z
		 M72.6,37c-1.4,0-2.4-1.3-2.4-3c0-1.5,0.7-3,2.4-3c1.7,0,2.3,1.7,2.3,3C74.9,35.7,73.9,37,72.6,37z"/>
	<path class="st1" d="M79.7,29.7c0-1.2,0.4-2.3,1.9-2.3c0.7,0,1.3,0.2,1.6,0.4l0.4-1.1c-0.4-0.3-1.2-0.5-2-0.5
		c-2.2,0-3.4,1.3-3.4,3.4v0.4h-1.1v1.1h1.1v6.7h1.4v-6.7h3.1v6.7h1.4v-7.7h-4.5V29.7z"/>
	<rect x="86.5" y="26.5" class="st1" width="1.4" height="11.4"/>
	<path class="st1" d="M96.6,33.6c0-1.4-0.7-3.6-3.2-3.6c-2.3,0-3.6,1.8-3.6,4.2s1.4,3.9,3.8,3.9c1.2,0,2.1-0.3,2.6-0.5l-0.2-1
		c-0.5,0.2-1.1,0.4-2.1,0.4c-1.4,0-2.6-0.8-2.7-2.7h5.4C96.5,34.1,96.6,33.8,96.6,33.6z M91.1,33.2c0.1-1,0.7-2.3,2.2-2.3
		c1.6,0,2,1.4,2,2.3H91.1z"/>
</g>
</svg>
