<?xml version="1.0" encoding="utf-8"?>
<!-- Generator: Adobe Illustrator 24.1.1, SVG Export Plug-In . SVG Version: 6.00 Build 0)  -->
<svg
  version="1.1"
  id="Ebene_1"
  xmlns="http://www.w3.org/2000/svg"
  xmlns:xlink="http://www.w3.org/1999/xlink"
  x="0px"
  y="0px"
  viewBox="0 0 846 707"
  style="enable-background: new 0 0 846 707"
  xml:space="preserve"
>
  <style type="text/css">
    .st0 {
      fill: #256443;
    }
    .st1 {
      fill: #020202;
    }
    .st2 {
      fill: #030303;
    }
    .st3 {
      fill: #040404;
    }
    .st4 {
      fill: #050505;
    }
    .st5 {
      fill: #060606;
    }
    .st6 {
      fill: #070707;
    }
    .st7 {
      fill: #080808;
    }
    .st8 {
      fill: #0f0f0f;
    }
    .st9 {
      fill: #141414;
    }
    .st10 {
      fill: #111111;
    }
    .st11 {
      fill: #4e4e4e;
    }
    .st12 {
      fill: #292929;
    }
    .st13 {
      fill: #606060;
    }
    .st14 {
      fill: #4d4d4d;
    }
    .st15 {
      fill: #0e0e0e;
    }
    .st16 {
      fill: #323232;
    }
    .st17 {
      fill: #5c5c5c;
    }
    .st18 {
      fill: #3f3f3f;
    }
    .st19 {
      fill: #010101;
    }
    .st20 {
      fill: #6f6f6f;
    }
    .st21 {
      fill: #246443;
    }
    .st22 {
      fill: #131313;
    }
    .st23 {
      fill: #1a1a1a;
    }
    .st24 {
      fill: #191919;
    }
  </style>
  <g>
    <path
      d="M704.5,261.5c-0.9-1-1.4-1.7-2-2.3c-2.1-2.3-4.2-2.4-5.7,0.4c-3.7,6.7-5.5,13.9-5,21.6c0.2,3.1,3,4.8,7.7,5.1
		c3.9,0.3,6.6-1.4,7.6-5.1c0.9-3.1,0.9-6.4,1-9.7c0.3-7.6-0.3-15.2,0.7-22.8c0.2-1.4-0.3-3.4,2-3.3c1.9,0.2,1.9,2.1,2,3.5
		c0.3,8.5,0.6,17,0.9,25.4c0.1,2.2,0.1,4.5,1.6,6.9c1.1-3.5,2-6.8,3.6-9.8s3.6-5.7,6.6-7.5c4.1-2.4,7.4-0.9,8.4,3.7
		c1,4.7,0.8,9.4,1.1,14.2c0.2,2.7,0.1,5.6,2.3,7.6c1,0.9,0.3,1.6-0.1,2.2c-0.8,1-1.9,1.1-3.1,0.6c-2.1-1-3-2.9-3.6-5
		c-1.2-4.5-0.4-9.2-0.9-13.8c-0.2-1.9,0.5-4.9-1.3-5.3c-1.9-0.4-3.2,2.4-4.3,4.2c-1.9,3.1-2.8,6.6-3.6,10.2c-0.6,2.7-0.3,6.3-4,6.8
		c-3.8,0.6-4.8-2.8-6.3-5.3c-5.9,7.9-13.3,8.7-21.3,2.2c-1.7,4.8-5,7.4-10.3,7.4c-4.7,0-9-0.9-11.6-5.3c-5.6,4.3-10.3,3.2-13.2-3.3
		c-0.8-1.9-1.6-4-1.7-6.1c-0.5-8.1-0.9-16.2-1.1-24.3c0-1.2-0.3-3.2,1.5-3.2c1.7,0,1.2,1.9,1.4,3c1.5,6.7,1.4,13.6,2.1,20.4
		c0.3,3.3,0.9,6.4,2.6,9.3c0.6,1.1,1.4,2.2,2.8,2.2c1.6,0,1.9-1.4,2.4-2.5c1.9-4.3,1-8.9,1.5-13.3c0.2-1.8-0.9-4.8,2-4.8
		c2.8,0,2,2.9,2.1,4.8c0.2,3.6,0,7.3,0.4,10.8c0.6,5.7,3.5,7.9,9.5,7.7c4.5-0.1,7.6-3.3,7.8-8.3c0.2-5.8,1.5-11.4,3.5-16.8
		c0.9-2.3,2-4.6,3.5-6.6c1.7-2.3,4-3,6.6-2.3C703.5,256.1,704.4,258.3,704.5,261.5z"
    />
    <path
      class="st0"
      d="M84.3,193.7c0,5.2,0,10.5,0,15.7c0,1.5,0,3-0.3,4.5c-0.6,2.5-2,4.5-4.9,4.2c-2.6-0.3-3.8-2.3-3.8-4.8
		c-0.1-3.2,0-6.5,0-9.7c0-1,0.4-2.5-1.6-2c-4.1,1-7.9-0.1-11.7-1.2c-2.2-0.7-2.6,0-2.5,2c0.1,3.2,0.2,6.5,0.2,9.7
		c0,1.2-0.1,2.5-0.5,3.7c-0.8,2.2-2.5,3.4-5,3.1c-2.4-0.3-3.4-2-3.4-4.2c0-10-0.6-19.9,0.8-29.9c0.8-5.8,0.4-11.7,0.7-17.6
		c0.1-2.8-0.3-6.6,3.6-6.8c3.7-0.2,3.7,3.5,4,6.1c1,7.3,0.9,14.7,0.2,22c-0.1,1.2-0.2,2.5-0.4,3.7c-0.3,2.1,0.4,2.8,2.6,2.8
		c3.8-0.1,7.7-0.6,11.6,0.2c2.4,0.5,1.5-1.5,1.5-2.5c0.3-7.9,0.4-15.7,0.7-23.6c0.1-2.6-0.6-6.5,2.9-6.8c3.9-0.4,3.2,3.8,3.7,6.2
		C84.2,176.8,84.1,185.3,84.3,193.7z"
    />
    <path
      class="st1"
      d="M200.6,378.1c-2.1,3.2-4.7,4.4-7.9,3.6c-3.3-0.9-4.8-3.4-5.5-6.5c-1.1-4.5-0.2-9.2-0.7-13.8
		c-0.2-1.9,0.3-5.1-1.5-5.4c-2.5-0.4-3.2,2.7-4,4.7c-1.9,5.2-2.5,10.7-3,16.1c-0.1,1,0,2-0.2,3c-0.3,1.8-0.8,3.6-3.1,3.5
		c-2,0-2.7-1.6-3-3.3c-0.4-2.6-0.7-5.2-0.9-7.8c-0.4-11.5,0-23-2.2-34.3c-0.2-1.2-0.8-3.1,0.9-3.5c1.9-0.5,1.8,1.5,2.2,2.7
		c2.4,7.4,2.9,15.1,3.4,23.5c1.4-2.5,2.4-4.5,3.6-6.2c1.8-2.6,4.3-4.3,7.6-3.6c3.4,0.6,3.9,3.5,4.5,6.2c0.9,4.2,0.6,8.5,0.9,12.7
		c0.1,1.7,0.3,3.5,0.8,5.1c0.6,2,2.2,2.6,4.2,2.1c1.9-0.5,3.5-1.4,3-3.9c-0.6-3-0.4-6-0.3-9c0.1-2.1,0.8-3.8,3.1-5.5
		c-0.4,2.6-0.4,4.7,0.3,7.4c1.3-2.6,2.2-4.8,4-6.4c3.8-3.3,7.8-2.3,9.3,2.5c1.8,5.9,1.3,12.1,3,18c0.3,1-0.3,2-1.4,2.3
		c-1.4,0.3-2.5-0.2-3.2-1.4c-1.2-1.9-1.2-4-1.4-6.1c-0.4-3.5-0.6-7-1-10.4c-0.1-0.8-0.1-1.9-1.1-2.1c-1-0.2-1.6,0.7-2,1.5
		c-1.8,2.9-2.6,6.2-2.9,9.6c-0.1,1.5,0,3,0,4.5c0,1.9,0.6,4.2-2.1,4.9C202.2,383.4,201.5,382.2,200.6,378.1z"
    />
    <path
      class="st0"
      d="M170.3,168.1c3.5-0.1,6.7,0.8,9.1,3.5c1.6,1.8,2.4,3.8,1.7,6.2c-0.5,1.8-1.4,2.8-3,0.8
		c-0.2-0.3-0.5-0.6-0.7-0.8c-2.2-2.1-6.6-2.8-8.6-1.2c-2.6,2.2-2.7,5-1.3,7.8c1.8,4,4,7.8,5.9,11.7c2.2,4.6,3.2,9.5,1.8,14.5
		c-1.8,6.8-8.3,9.9-14.7,7.1c-3.7-1.6-6.9-4.1-9.7-6.9c-1.8-1.9-3-4.2-1-6.7c1.9-2.5,4.3-1.4,6.4-0.3c2.2,1.2,4.2,2.7,6.2,4.1
		c0.9,0.6,1.9,1.5,3.1,0.7c1.1-0.7,1-1.9,1-3.1c-0.2-4.7-2.7-8.5-4.6-12.5c-2.1-4.3-4-8.5-3.5-13.5C159,172.9,164,168.1,170.3,168.1
		z"
    />
    <path
      class="st1"
      d="M135.1,380.3c1-2.7,1.1-5.3,1.2-7.8c0.1-5.2,0-10.5,0.2-15.7c0-1.3,0.3-2.7,0.6-4c0.4-1.4,1.4-2,2.9-1.8
		c1.3,0.2,2,1.2,1.9,2.4c-0.6,9,0.6,18-0.9,26.9c-0.4,2.6-1.4,5.2-4.6,5.7c-3.3,0.5-5.4-1.4-6.9-4c-1.7-3.1-2.5-6.5-3.8-10.8
		c-0.6,4.1-0.9,7.3-1.6,10.5c-0.9,4.6-4.5,5.7-7.9,2.5c-3.8-3.6-4.8-8.4-5.1-13.3c-0.5-7.2-0.6-14.4-0.8-21.7c0-0.9-0.4-2.2,1-2.4
		c1.5-0.2,1.8,1.1,2,2.2c1.3,6.1,1.3,12.4,1.7,18.6c0.3,4.5,0.8,8.9,4.2,13.3c0.8-5.7,1.3-10.6,2.2-15.4c0.5-2.8,0.2-6.8,4.3-6.8
		c3.9,0,3.4,4.1,4.1,6.6c0.9,3.6,1.3,7.4,2.6,10.9C133.1,377.5,133.5,379.1,135.1,380.3z"
    />
    <path
      d="M621,253.7c1.5,7.6,2.3,14.8,3.1,22.6c2-2.7,2.9-5.5,5-7.4c1.7-1.7,3.6-3.3,6.3-2.4c2.4,0.8,2.7,3.1,2.9,5.2
		c0.3,3,0.3,6,0.5,9s-0.7,6.7,3.2,8c3.8,1.2,5.5-1.9,7.4-4.3c0.5,5.1-1.3,8.2-5.4,8.9c-4.7,0.8-8.3-1.6-9.5-6.3
		c-0.9-3.6-0.4-7.2-0.4-10.8c0-1.7,0-3.4,0-5.5c-2.6,1.1-3.4,2.9-4.2,4.5c-2.1,4.3-3.4,8.8-3.7,13.6c-0.2,2.8-1.1,4.9-4.5,3
		c-1.2-0.7-1.5,0.2-2.1,0.6c-7.4,5.2-16.7,2-18.8-6.8c-1.4-6-1.1-12.2,1.9-17.8c2.5-4.7,6.7-5.5,10.5-1.8c-2.7,0-5.4-1.1-7.1,1.6
		c-1.4,2.2-2,4.5-2.2,7.1c-0.2,3-0.3,6,0.3,9c0.7,3.2,2.3,5.9,5.8,6.6c3.3,0.6,6.5,0.5,8.7-2.6c1.2-1.7,1.2-3.4,1.1-5.3
		c-0.4-7.8-0.7-15.7-0.9-23.6C619.1,257,618.8,255.2,621,253.7z"
    />
    <path
      class="st0"
      d="M134.2,199.9c1.2-3.4,1.4-6.6,1.7-9.8c0.3-3.1,0.4-6.2,0.8-9.3c0.3-1.9,1.4-3.5,3.6-3.7
		c2.5-0.1,3.9,1.4,4.1,3.5c1,8.4,0.8,16.8-2.5,24.6c-2.1,4.9-8.7,5.6-13.2,2c-2.5-2.1-3.9-4.9-4.6-8c-1.6-7.3-0.8-14.6,0.6-21.9
		c0.4-1.8,1.1-3.9,3.6-3.5c2.2,0.4,2.3,2.4,2.4,4.1c0.2,4.5,0.3,9,0.6,13.5C131.6,194.3,131.8,197.2,134.2,199.9z"
    />
    <path
      class="st2"
      d="M581.7,561.5c-2,0.1-3.4,1-3.7,3c-0.7,6.4-0.8,12.6,2.2,18.6c3.2,6.3,11.5,5.5,16.1,1.2
		c0.8-0.8,0.7-1.8,0.7-2.8c-0.1-7.1-0.1-14.2-0.3-21.3c-0.1-3.4,0.8-6.4,2.8-9.3c-0.6,8.8,2.2,17.1,2,25.8c1.5-2.5,2.9-5.2,4.7-7.5
		c2.2-2.9,4.4-7,8.8-5.4c3.9,1.4,2.9,5.6,3,8.8c0.3,5.6,0.1,11.2,0.4,16.8c0.1,1.4-0.1,2.2-1.4,2.4c-1.4,0.3-2.5-0.4-2.9-1.8
		c-0.3-1.3-0.4-2.7-0.4-4.1c0-6.1,0-12.1-0.5-18.3c-5.4,4.7-8.1,10.7-9.4,17.5c-0.3,1.6-0.1,3.5-2,4c-2.2,0.6-2.9-1.4-3.9-3.1
		c-2,3.1-4.7,4.9-8.3,5.4c-6.9,0.9-11.4-1.9-14-9c-2.2-5.9-1.8-12-0.6-18.1c0.4-2,1.4-3.7,3.6-4.4c1.8-0.3,3.7-0.4,5.5,0.1
		c0.2,0,0.4,0,0.6,0.1C584.4,562.2,582.5,560.6,581.7,561.5z"
    />
    <path
      class="st3"
      d="M555.3,569c-1.7,1.2-2.9,1.9-3.9,2.7c-5.3,4.2-5.9,8.5-1.8,13.9c3.6,4.8,8.3,7.5,14.5,6.6
		c3.8-0.5,5.5-2.3,5.6-6.1c0.2-9.1-4.1-16.3-9.5-23c-2.6-3.2-5.4-6.3-7.7-9.6c-4-5.6-2.3-10,4.3-11.7c5.3-1.3,10.7-0.9,16-0.2
		c3.6,0.5,6.6,2.8,8.4,7.4c-7.3-7.3-15.4-5.7-23.4-4.1c-4.3,0.9-4.9,2.9-2.3,6.4c2.3,3.1,4.9,5.9,7.4,8.9c6.2,7.6,11.1,15.7,11,25.9
		c0,5.7-2.6,9-8.3,10.2c-9.5,2-20-4.3-22.2-13.3c-1.7-6.9,0.7-11.1,7.5-13.1C552,569.7,553.2,569.5,555.3,569z"
    />
    <path
      d="M561.7,337c-0.3-2.9-0.6-5.3-0.7-7.7c-0.1-1.6-0.8-2.8-2.1-3.7c-3.8-2.7-6.3-1.9-7.2,2.6c-1.6,8-1,16.1-0.8,24.2
		c0.1,2.6-0.7,5.9,0.6,7.6c1.6,2,4.8-0.3,7.4-0.2c1.5,0.1,3-0.3,4.9-0.5c-2.6,3.4-6.2,3.7-9.6,4.1c-2.8,0.3-3.2,1.5-2.8,3.8
		c1.4,9.2,2.6,18.5,7.6,26.7c0.1,0.1,0.1,0.2,0.2,0.3c0.5,2,2.5,4.6-0.3,6c-3,1.5-4.1-1.3-5.1-3.4c-4.3-9.4-6.5-19.4-7.2-29.6
		c-0.2-2.6-0.7-4-3.6-3.6c-1,0.1-2.3-0.1-2.2-1.4c0.1-1.2,1.4-0.8,2.1-0.8c2.8,0.2,3.5-1.1,3.5-3.8c-0.1-8.4-0.1-16.7,0.7-25
		c0.3-2.5,0.7-4.9,1.5-7.3c1.6-4.1,3.3-5.1,7.4-4.4c3.8,0.7,7,3.8,7.1,7.1c0,1.5,0,3-0.2,4.5C562.6,333.9,562.2,335.2,561.7,337z"
    />
    <path
      d="M500.6,275.6c6.1-11.1,12.2-12.7,16.1-1.8c1.7-2.2,3.3-4.4,5.5-6c4.3-3.1,7.8-1.9,9.5,3c1,2.9,1.5,5.8,1.4,8.8
		c-0.1,4.1,1.2,8.1,1.4,12.2c0.1,1.5-0.2,2.9-1.9,3.1c-1.6,0.2-2.5-0.9-2.9-2.4c-1.3-5-0.6-10.2-1.3-15.2c-0.3-2.4,0.3-6-2.1-6.6
		c-2.6-0.7-4.1,2.7-5.6,4.8c-2.1,3-2.8,6.3-2.4,9.9c0.2,1.7,0.1,3.9-2.2,4c-2.4,0.1-2.5-2-2.5-3.8c-0.1-4.1-0.4-8.2-1.6-12.2
		c-0.4-1.2-0.6-2.8-1.9-3c-1.5-0.2-2.4,1.1-3.2,2.2c-2.9,4.4-4,9.3-4.2,14.5c-0.1,2,0,4-0.1,6c-0.1,1.4-0.2,3-2,3
		c-1.7,0-2.1-1.4-2.3-2.9s-0.5-3-0.6-4.4c0-7.7,0-15.5,0.1-23.2c0-1-0.4-2.8,1-2.8c1.8,0,1.1,1.8,1.2,2.9
		C500.3,268.9,500.4,271.8,500.6,275.6z"
    />
    <path
      class="st2"
      d="M251,276.1c0.8,3.5,1.1,6.9,1.1,10.9c2.4-3.9,3.3-8.9,8.8-8.7c3.7,0.1,3.9,3.6,5.3,6.3
		c1.7-2.4,2.9-4.9,4.9-6.7c5.5-5,11.1-3.4,12.6,3.9c0.9,4.3,1.3,8.6,1.9,12.9c0.2,1.5,0.6,2.9,1.7,4c0.6,0.6,2.8,0,1.6,2
		c-0.9,1.5-2.3,2-3.8,1.5c-2.6-0.8-3.6-3.1-4-5.5c-0.7-4-1.1-8.1-1.6-12.2c-0.3-1.8,0-4.3-2-4.8c-2.3-0.6-3.8,1.4-5,3.2
		c-2.7,4-3.7,8.4-3.6,13.1c0,1.8,0.3,4.1-2.3,4.3c-2.3,0.1-2.5-1.9-2.8-3.7c-0.7-3.9-1.4-7.9-2.1-11.8c-0.2-0.9-0.3-2.2-1.4-2.4
		c-1.3-0.2-1.9,1-2.4,2c-1.3,2.3-2,4.8-1.9,7.5c0,3,0,6,0,9c0,1-0.4,2-1.6,2.2c-1.3,0.3-2.1-0.5-2.7-1.5
		C248.8,296.4,248.2,281.6,251,276.1z"
    />
    <path
      class="st3"
      d="M261.3,588.1c4.6-1.6,9-3.2,13.6-4.5c1.9-0.5,1.8-1.8,1.9-3.1c0.7-8.7,1.4-17.4,2.1-26.1
		c0.2-2.2,0.4-4.5,1-6.6c0.9-3.1,1.5-6.5,5.8-6.7c4.5-0.2,8.9,2.5,10.2,6.2c2,5.8-1.9,13-8.1,14.8c3.7-3.3,6.2-7,5.6-12.1
		c-0.4-3.4-4-6.3-7.4-5.9c-1.6,0.2-2,1.4-2.4,2.5c-1.1,3-1.2,6.1-1.3,9.2c-0.5,8.2-1.4,16.5-1,24.7c0.1,2.9-0.5,5.4-0.7,8.1
		c-0.5,7.9,0.8,15.4,3.6,22.7c0.3,0.9,0.7,1.9,0.9,2.9c0.4,1.6,0.7,3.5-1.4,4c-1.9,0.5-2.6-1.1-3.1-2.5c-2.4-7.4-4.8-14.7-4.4-22.6
		c0.4-6.9,0.2-6.8-6.6-5.3C266.9,588.4,264.2,590,261.3,588.1z"
    />
    <path
      d="M511.7,360.5c1.8-1.2,1.9-2.6,2.4-3.6c1.5-3.1,3.2-5.9,5.6-8.4c2.6-2.7,5.5-5.2,9.4-4.1c3.9,1.1,3.9,5.1,4.6,8.3
		c0.4,1.9,0,4.1,0.6,5.9c0.8,2.6-2.1,6.2,2.2,8.1c0.8,0.3,0,3.5-1.8,4.3c-1.9,1-3.9,0.5-4.6-1.7c-0.6-1.7-0.7-3.7-0.8-5.5
		c-0.2-3.4-0.1-6.7-0.3-10.1c-0.1-1.8,0.2-4.3-1.8-4.9c-1.9-0.5-3.3,1.5-4.5,2.9c-3.7,4.2-5.7,9.3-6.9,14.8
		c-0.2,1.1-0.4,2.2-0.7,3.3c-0.3,1.2-0.9,2.1-2.2,2.3c-1.4,0.2-2.4-0.4-3.2-1.5c-1-1.5-1.8-3.1-1.8-4.8c-0.2-6.6,0.1-13.2,1-19.8
		c0.1-0.9,0.3-2.3,1.4-2.3c1.7,0,1.1,1.6,1.1,2.6C511.8,350.9,511.7,355.5,511.7,360.5z"
    />
    <path
      class="st4"
      d="M219.6,448.9c-4.2,0.6-5.6-0.4-5.7-4.6c-0.1-5,0.2-10,0.3-15c0-1.5,0.4-3-0.9-4.7c-4.5,4.8-6.3,10.6-7.6,16.7
		c-0.1,0.6-0.1,1.2-0.1,1.9c-0.1,1.4-0.8,2.5-2.1,2.8c-1.6,0.3-2.6-0.6-3.2-2c-1-2.6-1.7-5.3-1.6-8c0.2-10.4,0.5-20.7,0.8-31.1
		c0.1-1.8,0.2-3.7,2.2-5.6c1.5,11.3,0.8,22.1,1.6,32.8c1.4,0,1.3-1.3,1.7-2c1.4-2.2,2.5-4.6,4.3-6.6c1.6-1.7,3.5-3,5.9-2.1
		c2.3,0.8,2.3,3.1,2.5,5c0.4,4.9,0.5,9.7,0.2,14.6C217.9,443.8,217.8,446.5,219.6,448.9z"
    />
    <path
      d="M416.2,195c-0.5-4.3,2.2-5.4,4.5-6.4c2.1-0.9,2.6-2.2,2.7-4.3c0.3-4.1-0.6-8.4,1.9-12.9c2,4.5,1.2,8.6,1.6,12.5
		c0.2,1.7,0.2,2.9,2.3,3.6c2.8,0.9,4,3.6,5.4,6c0.7,1.2,1.3,2.4,1.9,3.7c8.6-9.7,12.2-11.1,16.2-6.2c-5,1.2-8.8,3.9-11.7,7.9
		c-1.6,2.2-2.3,4.2-1.2,6.9c0.8,2,1.4,4.4-0.3,6.4c-0.7,0.8-1.8,0.8-2.8,0.4c-2.6-1.2-2.4-3.7-2.4-5.8c0-6.4-2.7-11.6-6.8-16.3
		c-0.3,5.6-1.9,11.1,0.5,16.5c0.5,1.1,0.8,2.2-0.4,3c-1.1,0.7-2.2,0.3-3.1-0.5c-1.8-1.6-2.4-3.8-2.3-6.1c0.1-3.4,0.2-6.7,0.6-10.1
		c0.3-2.9-0.7-2.9-2.8-1.8C418.5,192.2,417.5,193.2,416.2,195z"
    />
    <path
      class="st2"
      d="M144.2,578.3c2.9-3,4.7-5.9,7.5-7.8c5.6-3.8,9.5-2.2,10.6,4.5c0.8,4.9,0.7,9.9,0.7,14.9c0,1-0.4,2.3,0.2,2.9
		c1.7,2,1,3.1-1.1,3.6c-2.3,0.6-3.6-0.7-3.8-2.9c-0.2-1.8-0.1-3.7-0.1-5.6c-0.1-4.1,0.2-8.2-0.3-12.3c-0.4-3.2-1.8-3.2-3.8-1.5
		c-4.4,3.6-7.1,8.3-8.9,13.5c-0.3,0.8-0.5,1.7-0.7,2.5c-0.4,1.5-1.2,2.6-2.9,2.2c-1.5-0.3-1.9-1.6-1.8-2.9c0.2-3.9,0.3-7.7,0.8-11.5
		c1.1-7.3,1.5-14.6,1.5-22c0-1.3-0.9-3.6,1.4-3.5c1.8,0.1,1.5,2.2,1.6,3.7C145.2,563.2,145.5,570.3,144.2,578.3z"
    />
    <path
      class="st3"
      d="M75.9,596.5c-8.7,2.6-17.2,2.4-25.6,0.9c-4.4-0.7-5.2-3.3-2.4-7c3.2-4.2,6.1-8.5,8.6-13.2
		c1.6-3,2.9-6.1,2.7-9.6c-0.2-2.3-0.5-4.7-3.1-5.4c-3.1-0.8-6.1-0.3-8.1,2.4c-1.5,2.1-0.9,4.4,1,6.4c-2.1,0.7-3-0.7-3.5-2
		c-0.8-2.1-1-4.4,0.5-6.4c2.3-2.9,7.9-4.7,11.6-3.3c3.6,1.4,4.7,4.5,5,8.1c0.4,4.6-1.1,8.6-3.3,12.5c-2.1,3.7-4.3,7.3-6.8,10.7
		c-1.6,2.2-1.8,2.9,1.3,3.2c5.3,0.4,10.5,0.1,15.7-0.2C72,593.5,74.3,593.7,75.9,596.5z"
    />
    <path
      class="st3"
      d="M154.7,649.8c1.6-1.8,3-3.7,5-5c3.9-2.6,7.2-1.4,8.6,3.1c1.1,3.7,0.9,7.6,1.4,11.5c0.1,1.1,0,2.3,0.4,3.3
		c0.6,1.4,1.4,2.6-0.6,3.2c-1.9,0.6-3.1-0.3-3.7-2.1c-0.8-2.5-0.8-5.2-0.9-7.8c-0.1-1.1,0-2.2-0.2-3.4c-0.2-1.7,0.3-4.2-1.4-4.7
		c-2.1-0.6-3.3,1.8-4.3,3.4c-2.2,3.3-3.4,6.9-4.2,10.7c-0.3,1.6-1,3-2.9,2.7c-1.6-0.2-2.1-1.6-2.1-3.1c0-10.6,1.7-21.1,1.5-31.7
		c0-0.8,0.1-1.9,1.4-1.7c1.2,0.2,1.1,1.2,1.2,2C154.7,636.7,154.7,643.2,154.7,649.8z"
    />
    <path
      d="M350.3,194.6c1.3-1.8,2.1-3.1,3.1-4.3c3-3.6,7.4-3,9.2,1.3c2.4,5.8,3.2,12,3.6,18.2c0.1,1.5,0,3.2-2,3.4
		c-2.2,0.3-2.8-1.2-3-3c-0.6-4.6-0.9-9.2-2.1-13.6c-0.3-1.2-0.4-2.4-1.5-3.7c-2.9,3-4.4,6.5-5.1,10.4c-0.3,1.5-0.4,3-0.6,4.4
		c-0.2,1.6-0.8,3.1-2.6,3.1c-2,0-2.8-1.5-2.9-3.2c-0.1-2.9-0.1-5.7,0-8.6c0.1-4.5,0.2-9,0.5-13.4c0-0.9,0.2-2.2,1.5-2.2
		c1.4,0,1.3,1.3,1.4,2.2C349.9,188.5,350.1,191.2,350.3,194.6z"
    />
    <path
      class="st4"
      d="M422.1,644.2c2.4-3.1,4-5.7,4.4-8.9c0.2-1.5-0.1-2.9-1.8-3.2c-1.7-0.3-2,1.2-2.4,2.3
		c-1.3,4.4-1.3,8.9-0.5,13.3c1.1,5.7,9.3,9.3,14.5,6.6c2-1,2.5-3,2.9-5c0.9-5.3,4-9,8.1-12.1c1.3-1,2.8-1.7,4.5-1.4
		c1.1,0.2,2.1,0.8,2.4,2c0.4,1.5-1,1.4-1.8,1.8c-4.8,2.6-8.3,6.1-9.5,11.8c-1.1,5.2-4.4,7.4-9.8,7.3c-10.7-0.1-15.5-5.1-15.1-15.9
		c0.1-3.6,0.5-7.2,2.1-10.6c1.1-2.2,2.8-3.2,5.2-2.5c2.2,0.6,3,2.3,3,4.6C428.3,638.9,426.3,642.5,422.1,644.2z"
    />
    <path
      class="st4"
      d="M374.8,431.5c-2.2,5.6-8.3,6.5-12.7,2c-1.7-1.7-2.4-1.7-4.2-0.1c-6.1,5.5-13,3.7-15.5-4
		c-1.2-3.8-1.9-7.7-2.8-11.6c-0.2-1-0.4-2.5,1.2-2.7c1.4-0.3,1.5,1.1,1.7,2c1.1,3.6,2.1,7.2,3.3,10.7c1,3,2.7,5.1,6.2,4.7
		c3.1-0.4,6.4-4,6.6-7.1c0.2-4.1,0-8.2,0.9-12.3c0.2-1.1,0.2-2.7,1.9-2.7c1.7,0,1.9,1.7,1.9,2.8c0.2,3.6,0.5,7.2,0.2,10.8
		c-0.6,6.1,2.9,9.5,9.1,8.5C373.3,432.2,373.8,431.9,374.8,431.5z"
    />
    <path
      d="M352.4,165.3c-7.2,0.3-11.9,4-14.4,10.5c-4.3,10.8-4.8,22.1-3.8,33.5s10.9,14,19.8,8.5c-0.4,3.2-1.9,5.2-4.8,6.1
		c-7.5,2.4-16-1.4-17.6-9c-3.1-14.9-1.7-29.5,5.5-43.2c2-3.9,5.5-6.3,9.9-7.3C348.9,164.4,350.9,163.2,352.4,165.3z"
    />
    <path
      class="st2"
      d="M59.3,276.9c-3,4.3-5.3,9.1-8,13.8c-0.6,1.1-1.2,2.2-2,3.2c-0.6,0.8-1.3,1.8-2.4,1c-0.9-0.6-0.3-1.6,0.1-2.4
		c3.9-9,9.2-17.4,13.8-26.1c0.5-1,1.2-1.7,2.4-1.3c1.7,0.5,1.7,2,1.6,3.4c-0.8,10.2-0.5,20.4-0.5,30.6c0,1.2,0.3,2.5,0.3,3.7
		c0,1.4-0.3,2.9-2,3.1c-1.5,0.2-2.1-0.9-2.6-2.2c-0.6-1.7-0.6-3.4-0.6-5.2C59.3,291.3,59.3,284.2,59.3,276.9z"
    />
    <path
      d="M579.1,279.3c0.8,2.7,1.5,5.4,2.4,8.1c1.2,3.5,3.2,4.7,6.2,3.5c3.4-1.3,1.8-3.9,1.1-6c-1.1-3.4-3.8-5.8-5.7-8.7
		c-2.9-4.4-3.1-10.3-0.5-14.1c2.2-3.2,6.1-4.3,9.6-2.7c3.2,1.4,4.3,4.5,3.1,8.7c-1.2-0.6-0.6-1.7-1-2.6c-0.9-2.1-2.1-3.7-4.6-3.6
		c-2.7,0-4.2,1.5-4.9,3.8c-0.9,3.3-0.4,6.4,1.9,9.1c2.3,2.8,4.7,5.5,5.9,9c1.1,3.4,2.1,6.8-1,9.7c-2.3,2.2-7.6,2.7-10.2,1.1
		c-3-1.7-4.9-5.9-4.3-9.7C577.5,283.1,578,281.1,579.1,279.3z"
    />
    <path
      class="st2"
      d="M335.6,292.9c0.4-4.5-1.7-8.7-1.3-13.2c0.2-2.2,0.2-4.4,1.3-6.6c0.3,2.5,0.1,5,1.2,7.4
		c0.8-1.8,1.4-3.8,2.4-5.4c3.8-5.8,12.3-5,16,1.5c3.1,5.5,3.1,11.7,4.1,17.7c0.2,0.9,0.1,2.1-1.2,2.3c-1.2,0.2-2.2-0.2-2.9-1.3
		c-1.2-2-1.4-4.2-1.6-6.5c-0.2-2.6-0.5-5.2-1.3-7.7c-1-3-2.1-6.1-6.2-5.8c-3.9,0.3-4.7,3.4-5.1,6.4c-0.3,3.2-0.3,6.5-0.4,9.7
		c-0.1,1.5,0.3,3.2-1.6,3.7C337,295.7,336.5,294,335.6,292.9C335.6,292.8,335.6,292.9,335.6,292.9z"
    />
    <path
      class="st4"
      d="M671,587.3c4.8,2.8,15.6,1.7,19.2-1.6c2.3-2.1,1.5-4.7,0.5-6.9c-1.5-3.7-4.2-6.5-7.2-8.9
		c-2.2-1.8-4.6-3.4-6.9-5.1c-1.3-1-2.3-2.4-1.7-4.2c0.6-1.9,2.2-2.6,4.1-2.7c5.5-0.4,10.9,0.5,17,2.6c-2.5,0.6-4.1,0.5-5.9,0.1
		c-3.2-0.8-6.5-0.3-9.7-0.2c-0.8,0-1.6,0.2-1.9,0.9c-0.3,0.9,0.6,1.3,1.2,1.7c3.9,2.5,7.6,5.2,10.6,8.8c3.6,4.3,6.6,9.1,4.3,14.6
		c-2.2,5.3-7.7,6.2-12.9,7c-1,0.2-2,0.1-3,0.1C673.5,593.4,672.9,593,671,587.3z"
    />
    <path
      class="st2"
      d="M73,320.8c0.7-4.1,2-7.4,3.9-10.5c9.5-15.5,10.1-31.7,3.8-48.5c-0.4-1-0.8-2.1-1.1-3.2
		c-0.1-0.3,0.1-0.7,0.2-1.1C95.1,267.2,90.6,309,73,320.8z"
    />
    <path
      d="M555.1,267c0.6,3.3-0.1,5.7,1.4,8.1c1.7-2,2.9-4.3,4.9-5.8c5.5-4.1,10.2-2.3,11.2,4.4c0.5,3.1,0.3,6.2,0.7,9.3
		c0.2,1.7-0.9,3.6,1.3,5.2c0.8,0.5,0.8,3.3-0.6,4.8c-0.8,0.8-1.7,0.9-2.7,0.6c-1.8-0.6-2.4-2.2-2.5-3.8c-0.2-4.6-0.1-9.2-0.2-13.8
		c-0.1-1.7,0.3-4-1.6-4.6c-1.9-0.6-3.4,1.1-4.7,2.5c-3,3.2-2.3,7.2-2,11c0.1,1.7,0.7,3.6-1.5,3.9c-2.2,0.4-2.3-1.7-2.7-3.3
		c-0.9-3.5-1.8-7-2.6-10.5C553,272.5,553.3,270,555.1,267z"
    />
    <path
      class="st4"
      d="M518.5,563.7c-0.2-2.2-0.2-3.4-0.4-4.6c-0.5-4.8-7.2-8.2-11.2-5.6c-2.9,1.9-2.2,4.9-1,7.4
		c1.7,3.4,3.9,6.6,6,9.9c1.5,2.4,2.9,4.9,3.6,7.8c1.3,5.4-1,8.3-6.5,8.8c-2.9,0.2-5.5-0.3-7.7-2.2c-0.9-0.7-1.7-1.7-1-2.9
		c0.7-1.3,2-0.9,3-0.3c1.6,0.8,3.1,1.5,4.9,1.4c3.6-0.2,4.4-1.2,3.4-4.7c-1.1-3.5-3.2-6.4-5.2-9.5c-1.7-2.6-3.5-5.2-4.5-8.2
		c-1.4-4.3-0.2-8.5,2.9-10.3c3.3-2,9.5-1.1,12.6,1.8C520.6,555.3,521.1,558.8,518.5,563.7z"
    />
    <path
      class="st3"
      d="M225.7,588.1c-4.7,2.7-7.5,2.7-11-0.7c-1.4-1.4-1.8-0.6-2.9,0.2c-3.4,2.5-7.5,1.5-8.8-2.5
		c-2.1-6.4-1.6-13-0.3-19.5c0.1-0.6,0.9-1.1,1.7-2.1c0.4,5.6,0.7,10.6,1.3,15.5c0.2,2,0.1,5.1,2.5,5.3c2.8,0.2,3.3-3,3.6-5.3
		c0.5-3.7,0.6-7.4,1-11.1c0.1-1.2,0.2-2.6,2-2.6c1.8,0,1.8,1.5,1.9,2.7c0.2,3.6,0.3,7.2,0.3,10.8c0.1,5.6,0.4,6,5.9,8
		C223.8,587,225.1,587,225.7,588.1z"
    />
    <path
      d="M460.4,288.9c-3.2-4.2-3.4-5.4-2.1-13.3c1.6,3.3,3,6.6,4.8,9.7c2.1,3.7,5.5,4.4,8.8,2.2c2.7-1.8,2.8-4.6,0.3-8.2
		c-1.1-1.5-2.4-2.8-3.6-4.3c-1.2-1.4-2.5-2.8-3.5-4.4c-2.4-3.8-2-9.8,0.6-11.8c2.7-2,8.2-0.7,11.8,2.9c-2.8-0.7-5.1-1.6-7.6-1.4
		c-2.2,0.2-3.1,1.2-3.2,3.3c-0.2,2.8,0.8,5.1,2.6,7.2c2.5,2.9,5.6,5.4,7.3,9c2.2,4.4,1.3,8.4-2.2,11c-4,2.9-9.1,2.9-12.6-0.2
		C461.2,290.1,460.7,289.5,460.4,288.9z"
    />
    <path
      class="st3"
      d="M417.6,640.8c-1,3.3-3.6,3.2-6.2,3.4c-1.6,0.1-4.2-1.3-4.5,0.9c-0.4,2.9-1.3,6.4,1.5,8.7
		c1.7,1.4,2.6,2.9,1.4,4.4c-1.5,1.9-3.4,0.7-4.8-0.7c-2.6-2.7-2.9-6-2.6-9.4c0.3-3.1-0.2-5.5-3.8-6.4c-1.5-0.4-2.9-1.6-4-2.7
		c-1.6-1.6-0.8-3.4,1.4-3.7c0.2,0,0.8-0.6,0.7,0.5c-0.2,3.4,3,2.9,4.8,3.5c1.3,0.5,0.9-1.4,0.9-2.2c0.3-6.2,0.6-12.4,0.9-18.7
		c0.1-1.9,0.4-3.6,2.1-5.3c0.3,8.2,0.9,15.9,0.9,23.7c0,3.5,1.2,4.3,4.3,4.1C412.9,640.7,415.2,640.8,417.6,640.8z"
    />
    <path
      class="st3"
      d="M320.4,584.7c-1.6,5.8-9.5,7.8-14.6,4c-1.7-1.3-2.6-2.1-4.7-0.5c-2.6,1.9-6.3,0.2-7.6-3.1
		c-1.8-4.4-2-9-1.7-13.6c0.1-1.2,0.4-2.3,1.9-2.2c1.6,0.1,0.8,1.6,0.9,2.4c0.3,3.6,0.9,7.2,1.9,10.6c0.3,1.1,0.7,2.3,2.1,2.4
		c1.5,0.1,2.2-1.2,2.6-2.3c0.8-2.2,0.8-4.6,0.8-7c0-1.1,0-2.3,0.2-3.4c0.2-1.5,0.4-3.3,2.3-3.3c2.1,0,1.9,1.9,1.9,3.4
		c0,2.2-0.1,4.5-0.1,6.7c-0.1,5.6,1.7,7.3,7.3,7.5C315.9,586.2,317.9,585.4,320.4,584.7z"
    />
    <path
      d="M373.3,319.7c2.2,3.6,4.2,7.3,6.6,10.9s4.7,3.7,7.4,0.3c3.9-5.2,6.2-11.1,6.5-17.6c0.5-9.1-0.1-18.1-4.8-26.5
		c2.7,0.9,3.8,3.2,4.6,5.3c4.8,12.5,5.3,25-0.9,37.3c-0.8,1.5-1.8,3-2.9,4.3c-4.2,4.8-9.2,4.3-12.5-1.1c-2.2-3.8-3.8-7.8-4.8-12.1
		C372.2,319.7,372.6,319.5,373.3,319.7z"
    />
    <path
      d="M477.9,165c3.4-1.2,4.9,0.8,6.4,2.2c5.2,5,7.4,11.5,8.4,18.3c2.2,14.5-0.7,24.9-10.3,36.8c2.2-6,3.6-12.3,5.3-18.5
		c2.5-9.2,1.8-18.3-1.2-27.2C484.9,172.2,482.2,168.4,477.9,165z"
    />
    <path
      d="M490.1,365.7c4.6-5.7,5.4-12.5,5-19.6c-0.1-1.8-0.8-3.4,1.5-3.7c2-0.4,3.1,1.2,3.1,2.9c0,7.8-0.2,15.5-5,22.2
		c-1.5,2.2-3.4,3.8-6.2,3.1c-2.7-0.7-3.7-2.9-3.9-5.4c-0.4-5.5-0.7-11-0.9-16.4c-0.1-1.2,0-2.5,1.5-2.5c1.2,0,1.2,1.4,1.3,2.4
		c0.8,5.6,1.7,11.3,2.5,16.9C489.4,365.6,489.8,365.7,490.1,365.7z"
    />
    <path
      class="st4"
      d="M671.7,554.7c-3.7,0.3-6.9,0.4-10,0.7c-2.4,0.2-4.4,1.3-5.2,3.6c-0.8,2.3,0.7,3.8,2.2,5.1
		c3.1,2.7,6.2,5.4,9.3,8c2.5,2.2,4.1,4.9,2.9,8.3c-1.2,3.3-4.2,4.4-7.4,4.6c-2.3,0.1-4.7,0.4-7-0.8c-0.9-0.5-1.7-1.1-1.3-2.3
		c0.4-1.1,1.3-1,2.2-1c2.1,0,4.2,0.2,6.3,0c1.5-0.1,3.1-0.6,3.5-2.3c0.4-1.5-0.6-2.6-1.6-3.5c-3.1-2.8-6.4-5.6-9.5-8.4
		c-2.7-2.4-4.4-5.3-2.8-8.9c1.6-3.7,4.8-4.9,8.5-4.9C665,553,668.1,553.2,671.7,554.7z"
    />
    <path
      class="st4"
      d="M302.2,182.5c-0.8-0.6-1.2-0.8-1.6-1.1c-1.7-1.6-3.6-3.4-5.8-1.5c-2,1.7-1.4,4.2-0.4,6.2
		c1.9,3.8,4.2,7.3,5.1,11.5c1.2,5.5,0.5,8.7-2.6,10.4c-3.4,1.7-6.5,1.1-9.3-1.3c-3.9-3.3-4.4-5.8-2.4-11.1c1.6,2.3,2.5,5,4.4,6.9
		c1.4,1.4,2.8,2.6,4.9,1.9c2.3-0.8,1.5-2.9,1.5-4.5c-0.1-3.7-1.7-7-3.6-10.1c-1.7-2.9-2.7-5.8-1.8-9.2c0.9-3.3,3-4.7,6.4-4.3
		C300.4,176.9,302,178.8,302.2,182.5z"
    />
    <path
      class="st4"
      d="M106.9,685.2c1-7.5,3.9-13.8,6.7-20.2c3.7-8.5,3.5-17.2,0.6-25.9c-0.9-2.8-3.4-4.5-4.9-7.4
		c6,2.1,8.8,6.1,10.2,13.3c1.9,10,0,19.3-4.9,28.2C112.4,677.1,110.2,681.2,106.9,685.2z"
    />
    <path
      class="st4"
      d="M208.5,660.4c-0.1-1.1-0.8-1.4-1.7-1.5c1.9-1.5,2.4-3.5,2.4-5.9c0-3.5-0.3-7,0.7-10.4c0.3-0.9,0.6-1.8,1.7-1.5
		c1,0.2,0.6,1.2,0.6,1.9c0.2,3.6,0.3,7.2,0.5,10.8c0.1,1.9,0.6,4.1,2.9,4.2c2.1,0.2,2.7-2.1,3.1-3.6c0.6-2,0.6-4.2,0.9-6.3
		c0.2-1.6-0.5-4.2,1.9-4.2c2.5,0,1.8,2.7,1.9,4.4c0.1,2.2-0.1,4.5-0.2,6.7c-0.3,6.1-0.3,6.1,5.5,7.6c0.9,0.2,1.9,0.5,3,0.8
		c-4.7,2.9-8.5,2.5-11.9-1.4c-0.6-0.6-0.8-1-1.7-0.6c-3.9,1.7-6.4-0.2-8.5-3.4C209.3,658.9,208.9,659.6,208.5,660.4z"
    />
    <path
      d="M584.6,349.9c-1.8,1.7-3.5,2.6-5.1,2.6c-2.9,0-3,1.5-2.9,3.8c0.3,3.7,1,7.1,2.6,10.4c0.6,1.3,1.6,2.9-0.2,3.9
		c-1.9,1-3.1-0.5-3.8-2c-1.9-3.9-2.8-8-2.6-12.3c0.1-2.5-0.3-4.2-3.3-3.9c-0.1,0-0.3,0-0.4-0.1c-1.4-0.7-4.3,0-4.1-2.3
		c0.2-2.5,2.8-1.2,4.3-1c2.9,0.4,3.7-0.6,3.6-3.4c-0.2-3.7,0-7.5,0.1-11.2c0-1.6,0.2-3.2,2.1-4.1c0.9,5.1,1.4,10.2,1.3,15.2
		c-0.1,3.1,1,4.2,4,4C581.3,349.5,582.7,349.7,584.6,349.9z"
    />
    <path
      class="st4"
      d="M106.5,606.9c0.9-3.8,2.4-7.2,4.1-10.7c6-11.8,4.4-23.6-4.3-33.6c-0.8-0.9-1.6-1.9-2.4-2.9
		c7,1.7,13.3,10.9,14.3,20.7C119.3,591.3,113.9,603.4,106.5,606.9z"
    />
    <path
      class="st5"
      d="M229.1,575.5c1.4,2.3,2.6,4.5,4,6.5c0.7,1.1,1.8,1.8,3.2,1.4c1.5-0.5,1.5-1.7,1.6-3c0.2-2.9-1.4-4.9-3.3-6.8
		c-1.8-1.9-3.9-3.6-4.3-6.4c-0.4-2.8,0.3-5.3,2.7-7c3.3-2.3,6.7-2,10.3-0.5c-1.8,0.9-3.7,0.9-5.5,1.3c-4.1,0.8-5.4,4.6-2.7,7.8
		c1.1,1.2,2.3,2.3,3.4,3.5c1.7,1.9,3,4,3.3,6.6c0.4,3.2,0.3,6.3-3,8.2c-2.5,1.4-5.1,1.5-7.4-0.4c-2.7-2.2-4.1-5-2.7-8.6
		C228.9,577.3,228.9,576.5,229.1,575.5z"
    />
    <path
      class="st6"
      d="M194.4,417.6c-2.3-0.6-4.5-1.3-6.8-1.8c-3-0.6-5.1,0.5-5.8,3.7c-1.4,6.1-1.8,12.3-1.6,18.6
		c0.1,2.3,1.3,3.4,3.5,3.6c3.9,0.3,7.7,0.5,11.1-1.8c-2.7,5.2-10.6,7.4-15.5,4.3c-2.2-1.4-3-3.6-3-6.1c-0.1-5.8,0.5-11.5,1.9-17
		c2-7.7,6.4-9.5,13.4-5.6c1.1,0.6,2.1,1.3,3.1,2C194.6,417.4,194.5,417.5,194.4,417.6z"
    />
    <path
      class="st4"
      d="M426.3,542.8c1.4,9.9,1.1,19.5,1.3,29.1c0.2,6.5,1.9,8.3,8.4,8.6c-2,3.4-6,4-9,1.4c-2.6-2.2-3.5-5.2-3.5-8.4
		c0.2-9.1,0.5-18.2,0.8-27.3C424.4,545,424.7,543.9,426.3,542.8z"
    />
    <path
      class="st6"
      d="M626.2,549.6c1.7,3.7,1.7,6.8,1.5,9.9c-0.4,7.2-1.3,14.4-1.2,21.7c0.1,3,0.3,5.7,3.8,6.9
		c1.8,0.6,0.9,1.8-0.2,2.4c-1.6,0.9-3.2,0.3-4.5-0.8c-2.3-1.9-2.8-4.5-2.9-7.4C622.7,571.6,625.2,561.2,626.2,549.6z"
    />
    <path
      class="st7"
      d="M244.3,638.2c-4.7,1.2-5.4,3.5-2,7.2c3,3.2,6,6.3,5.4,11.3c-0.4,3.7-2.9,6.1-6.4,5.8c-3-0.3-6.1-3.8-5.9-6.7
		c0.1-2.2,1.2-3.3,3.4-2.4c0.7,0.3,1.9,0.1,0.7,1.7c-1.2,1.7,0.6,3,2.1,3.5c1.7,0.5,2.4-0.9,2.6-2.3c0.6-3.2-1.2-5.4-3.2-7.6
		c-1.9-2-3.7-4-3.5-7.1C238,637.1,240.1,636,244.3,638.2z"
    />
    <path
      class="st6"
      d="M456.5,578.8c-0.7,5.2-4.7,7-9.4,5c-2.9-1.2-4.8-3.5-6.2-6.2c-2.2-4.5-2-9.2-1.2-13.9c0.3-1.7,1.2-3,3.2-3.4
		c-0.9,4.2-0.3,8.3,0.5,12.4c1,5,4.5,8,8.8,8.3C453.7,581,455.2,580.9,456.5,578.8z"
    />
    <path
      class="st2"
      d="M488.1,428.1c0.2,4,3.1,1,4.6,1.7c-1.4,3-4.1,3.7-6.7,1.7c-1.9-1.5-2.8-3.5-3.1-5.8
		c-0.7-5.2-1.2-10.3-1.7-15.5c-0.1-0.8-0.4-1.9,0.8-2.1c1.1-0.2,1.4,0.8,1.7,1.6c1.3,3.1,1.7,6.5,2.2,9.8
		C486.3,422.4,487,425.3,488.1,428.1z"
    />
    <path
      class="st8"
      d="M332.9,564.9c-9.9,1.7-11.1,3.4-10,12.8c0.2,1.5,1.7,4.1,0,4.4c-2.2,0.4-2-2.6-2.4-4.2c-0.6-2.3-0.7-4.7-0.8-7
		c-0.4-7.1,4.2-10.2,10.8-7.4C331,563.8,331.6,564.2,332.9,564.9z"
    />
    <path
      class="st5"
      d="M333.1,381.5c0.5,3-0.7,6.1-0.9,9.3c-0.1,1.1-0.4,2.1-1.7,2c-1.3-0.1-1.5-1.2-1.4-2.2
		c0.2-3.8,0.6-7.7,0.7-11.5c0.1-2,0.2-4-0.4-5.9c-0.2-0.7-0.5-1.6,0.4-2c1-0.5,1.6,0.4,2,1.2C333,375.3,333.1,378.3,333.1,381.5z"
    />
    <path
      class="st9"
      d="M204.3,217.2c0.2,2.5-0.7,4.7-1.9,6.7c-0.5,0.8-1.4,1.8-2.4,1.3c-0.8-0.4-0.6-1.6-0.2-2.4
		c1.5-3,1.8-6.1,1.5-9.4c-0.1-0.7-0.1-1.6,0.9-1.7c0.9-0.1,1.2,0.7,1.4,1.4C203.9,214.5,204.1,215.8,204.3,217.2z"
    />
    <path
      class="st10"
      d="M259.1,670.8c-1.3-5.5-3-10.9,1.7-16.3C260.7,660.3,262.5,665.7,259.1,670.8z"
    />
    <path
      class="st11"
      d="M483.2,399c-0.4,1.8,0,3.8-2.7,3.1c-1.1-0.3-2.6-0.6-2.1-1.9C479.3,398.1,481.5,399.5,483.2,399z"
    />
    <path
      class="st12"
      d="M447.9,546.2c-1.7,0.5,0.7,4.1-2.6,3.4c-1-0.2-1.6-0.9-1.5-1.8C444.2,545.4,446.1,546,447.9,546.2z"
    />
    <path
      class="st13"
      d="M308.5,556.3c-0.9,1.9-3.3,1.2-4.6,2.4c-0.4,0.3-1.5-0.1-1.4-0.7c0.3-1.8,1.8-2.5,3.4-2.7
		C306.8,555.2,307.9,554.9,308.5,556.3z"
    />
    <path
      class="st14"
      d="M581.7,561.5c0.7-1.1,2.3-0.2,3-1.3c2.4-0.2,4.5,0.8,6.5,1.9C588,561.4,584.8,561.9,581.7,561.5z"
    />
    <path
      d="M352.4,165.3c-1.6-1.3-3.6-0.3-5.4-0.9c3.7-1.3,7-1,9.6,2.4C355.2,166.3,353.8,165.8,352.4,165.3z"
    />
    <path
      d="M675.2,257.5c-1.1,0-2.4,0.1-2.4-1.5c0.1-1.3,1.3-1.1,2-0.9c1.1,0.2,2.9-0.4,2.7,1.6C677.5,257.9,676.1,257.2,675.2,257.5z
		"
    />
    <path
      class="st15"
      d="M203,466c-0.7,0.8-1.6,1.3-2.8,1.3c-1.1,0-1.7-0.6-1.5-1.6c0.2-1.1,1.1-1.3,2-1.1
		C201.6,464.7,202.7,464.7,203,466z"
    />
    <path
      class="st16"
      d="M195.4,468.8c-0.8,1.8-1.6,2.8-3.3,2.3c-0.9-0.3-1-1.1-0.6-1.8C192.4,467.5,193.8,469.1,195.4,468.8z"
    />
    <path
      d="M243.8,407.2c-0.3,0.5,0.5,1.6-0.9,1.5c-0.9-0.1-1.3-0.6-1.3-1.4c0-1.1,0.8-1.6,1.7-1.5
		C244.2,405.9,243.9,406.6,243.8,407.2z"
    />
    <path
      d="M384.4,269c-0.2,0.6-0.5,1.2-1.2,0.9c-0.7-0.2-1.4-0.5-1.5-1.4c-0.1-0.7,0.3-1.2,1-1.2C383.7,267.3,384,268.2,384.4,269z"
    />
    <path
      class="st17"
      d="M324,260.2c0.5,0.5,1.9-0.4,1.4,0.8c-0.2,0.5,0.6,1.9-1,1.7c-0.9-0.1-1.8-0.5-1.9-1.4
		C322.3,260.2,323.3,260.4,324,260.2z"
    />
    <path
      d="M461.9,206.9c0,0.8-0.5,1.1-1.1,1.2c-0.7,0.1-1.2-0.1-1.3-0.9c0-0.7,0.3-1.2,1.1-1.2C461.3,205.9,461.8,206.1,461.9,206.9z
		"
    />
    <path
      d="M373.3,319.7c-0.3,0.3-0.5,0.5-0.8,0.8c-1.1-1.4-1.3-3.1-0.9-4.9C372.2,316.9,372.7,318.3,373.3,319.7z"
    />
    <path
      class="st18"
      d="M275.3,406.6c0-2.3,0.1-4.7,0.1-7C276.5,401.9,276.4,404.2,275.3,406.6z"
    />
    <path
      d="M236.8,408.4c-0.5,0-1-0.2-1-0.8c-0.1-1.1,0.9-1.3,1.6-1.7c0.5-0.3,0.6,0.2,0.7,0.5C238.2,407.4,237.8,408.1,236.8,408.4z"
    />
    <path
      class="st14"
      d="M584,560c-1.8,0-3.7-0.1-5.5-0.1C580.4,558.8,582.2,559,584,560z"
    />
    <path
      class="st19"
      d="M832.5,76c0-6.6-1.5-13.1-4.3-19.3c-2.9-6.4-5.6-12.8-8.6-19.1c-8.5-17.7-24.1-25.5-41.9-30.3
		c-1.4-0.4-3-0.2-4.5-0.2c-11-0.2-22,0.5-32.9,1.4c-25.4,2.1-50.8,3.7-76.1,6.3c-34.6,3.6-69.2,5.6-103.9,5.3
		c-90.7-0.7-181.3,0.5-272-1.8c-26.3-0.7-52.7-1.4-79-2.5c-30.1-1.3-60.2-1.3-90.1,2.2c-16.2,1.9-32.4,4.3-48.6,6.5
		c-12,1.6-24.2,1.5-36,4.3c-5.1,1.2-10.2,2.3-15,4.6c-8.2,3.8-10.7,9-8.5,17.8c0.2,0.7,0.2,1.5,0.2,2.2c-0.7,10.2,0.1,20.5,0.1,30.7
		c0,10.6,1.2,21.1,3.7,31.5c3.4,14,5.7,28.1,5.2,42.6c-0.6,16.7-1.3,33.4-1.2,50.2c0.1,18.1-0.3,36.2-1.2,54.3
		c-2.1,39.5-1.8,79.1-1.6,118.7c0.2,35.6,0.1,71.1-2.7,106.6c-3.1,37.8-5.5,75.7-5.2,113.7c0.2,18.2,0.2,36.5-1.5,54.6
		c-0.9,10,3,19,4.2,28.5c0.4,3,2.7,5.6,5.3,7.5c4,2.9,8.4,5,13.3,5.7c9.1,1.4,18.3,2.7,27.4,3.7c35.5,4,70.8,1,106.2-2
		c21-1.8,41.9-4.6,62.9-6.3c16.2-1.3,32.3-2.5,48.5-4.1c22.1-2.1,44.2-4.6,66.4-5c10.6-0.2,21.2-0.8,31.8-1.7
		c21.4-1.7,42.8-3.7,64.2-4.9c16.1-0.9,32.2-1.7,48.2-2.8c17.4-1.2,34.9-3,52.3-2.9c39.2,0.3,78.4-1.4,117.6,1.2
		c22.7,1.5,45.4,2.6,68.1,3.4c25,0.9,49.9,1.1,74.8-1.3c3.7-0.3,7-1.3,10-3.6c5.5-4.1,7.3-11.6-1.6-13.8c-0.9,6-3.4,8.8-8,9.3
		c-21.2,2.2-42.4,2.5-63.6,1.8c-33.1-1.1-66.1-3.8-99.1-4.5c-59-1.4-118.1-0.4-177,4.3c-29,2.3-58,4.1-87,6.5
		c-30.2,2.5-60.6,2.2-90.8,6c-18.6,2.3-37.3,3.2-55.9,4.8c-31.2,2.7-62.3,6.8-93.5,9.2c-32.9,2.5-65.6,1.8-98.3-2.1
		c-3.5-0.4-6.9-1.1-10.1-2.6c-8.7-3.9-11.7-10.3-9-19.6c0.4-1.5,0.6-3.2,0.7-4.8c0.8-17.5,1.7-34.9,1.7-52.4
		c0-14.9-0.2-29.7,0.3-44.6c1.2-30.4,3-60.8,5.6-91.2c1.9-22.7,1.8-45.4,1.9-68.1c0-42.4-1-84.9,0.5-127.3
		c1.1-30.4,2.2-60.9,1.9-91.3c-0.1-8.2,0.5-16.5,0.7-24.7c0.2-10.2,0.1-20.5-1.3-30.6c-0.5-3.4-3.4-7.7-0.8-10.1
		c2.3-2.1,6.9-0.7,10.5-0.6c19,0.6,37.9,1.2,56.9,0.4c54.3-2.1,108.6,0.5,162.9-1.9c31.9-1.4,63.9,2,95.9,1.3
		c30-0.7,59.9,0.1,89.9,0.5c29.3,0.4,58.7,0,88-0.6c13.9-0.3,27.7-1,41.6-0.5c27.3,0.9,54.7,1.1,82,0.1c30.1-1.1,60.2-1.5,90.3-1.2
		c20.5,0.2,40.9,1.2,61.3,2.8c7.1,0.6,14.5,2.4,21.5-2.1c0,1.2,0,2.1,0,3c0.1,16.9-1.7,33.7-1.6,50.5c0.1,13.1,0.3,26.3-0.6,39.3
		c-1.9,28.1-3.1,56.3-5,84.5c-1.5,22-2.6,44.1-5,66.1c-2,18.7-3.7,37.5-3.9,56.4c-0.5,60.8,1.7,121.6-0.1,182.4
		c-0.5,15.1,0.3,30.2-0.9,45.3c-0.3,3.2,1,5.8,3.5,7.8c5.3-3.9,5.7-9.7,5.7-15.4c0-20.5,0.7-40.9,0.9-61.4
		c0.3-22.5-0.3-44.9-0.1-67.4c0.3-48.1-2.9-96.4,3-144.4c2.6-21.1,3.4-42.3,4.7-63.4c2-31.9,4.6-63.8,5.5-95.7
		c0.8-29.3,1.2-58.6,1.8-88C834.6,107.7,832.4,91.9,832.5,76z M823,121.1c-0.9-0.6-2.4-0.7-3.6-0.8c-44.8-3.5-89.8-4.9-134.7-3.4
		c-31.1,1-62.2,1.6-93.2,1.4c-11.2-0.1-22.5-0.6-33.7-0.4c-33,0.5-65.9,1.4-98.9,1.1c-27-0.2-54-1.6-80.9-1
		c-41.1,1-82.2-2.5-123.2-0.8c-50.7,2.1-101.4,0-152,2.4c-23.8,1.1-47.7,0.5-71.5,1.9c-2.4,0.1-5.6,1.3-7.1,0.1
		c-1.6-1.2-1.5-4.5-2.2-6.9c-3.2-10.3-4.2-21-4.7-31.7c-0.5-9.7-1.3-19.4-2-29.1c-0.1-1.1-0.3-2.3-0.6-3.3
		c-2.1-6.5-0.6-10.3,5.8-13.2c5.4-2.5,11.2-3.5,16.9-4.6c12.3-2.3,24.9-1.9,37.3-3.3c15.6-1.8,31.1-4.4,46.8-5.9
		c17.3-1.6,34.6-2.1,54.5-2.1c25.9-0.6,54.1,2.7,82.5,3.1c21.5,0.4,43,0.6,64.4,1.3c78,2.4,156.1,0.9,234.1,1.6
		c22.5,0.2,45,0.1,67.4-1.7c18.9-1.5,37.8-3.5,56.7-4.8c29.9-2,59.6-6.4,89.6-6.3c15.4,0,28.2,7.1,37.1,18.9
		c8.3,10.9,13.4,23.9,16.3,37.5c0.5,2.5,0.5,5.2,0.6,7.8c0.6,13.2,1.2,26.4,1.8,39.6C826.4,120.9,826.9,123.8,823,121.1z"
    />
    <path
      class="st20"
      d="M263.4,463.3c-2-2.8-2.8-6-2.1-10.3C262.1,456.9,262.7,460.1,263.4,463.3z"
    />
    <path
      class="st1"
      d="M303.5,433.4c-0.4-4.1-1-8.2-3.3-11.8c-0.9-1.4-0.3-2.6,0.2-3.8c5.8-12.9,6-26.4,3.4-40c-0.5-2.8-1-6-3.5-7.6
		c-2.2-1.5-1.7-2.7-0.8-4.5c1.6-3.1,1.9-6.5,1.4-9.9c-0.4-3.1-2.2-5.3-5.5-5.8c-3.4-0.5-5.2,1.4-6,4.3c-1.3,4.5-2.1,9.1,0.9,13.2
		c1.3,1.7,0.5,2.1-1.1,2.2c-3.6,0.2-5.1-2.2-6.3-4.9c-1.7-3.5-1.9-7.5-3.1-11.2c-1.5-4.5-5.3-5.6-9.1-2.7c-1.7,1.3-2.8,3.2-3.7,5.1
		c-2,4-2.7,8.3-3.3,13.4c-2-4.9-1.3-9.6-2.4-13.9c-0.3-1,0.1-2.7-1.4-2.6c-1.7,0.1-1.4,1.8-1.3,3c0.1,4.2,0.3,8.5,0.4,12.7
		c0.1,3.1-2.6,6.4-5.4,6.5c-2.8,0.1-4.1-1.7-4.1-5.8c-0.1-5,0-10-0.1-15c0-1.9,0.1-4.2-2.5-4.2c-2.6-0.1-2.5,2.3-2.6,4.1
		c-0.1,3.6-0.1,7.2-0.2,10.9c-0.1,2.4-0.1,4.8-0.9,7c-0.9,2.7-1.9,5.3-5.4,5.3c-3.4,0-5.6-1.7-6.7-4.9c-1.3-3.8-1.5-7.8-1.8-11.8
		c-0.2-3.1-0.4-6.2-0.8-9.3c-0.1-1.2,0-3.2-2-2.9c-1.7,0.2-1.3,1.9-1.3,3.1c0,4-0.1,8,0.1,12c0.2,4,0.4,8,2,11.7
		c3.1,7.5,11.9,9.5,17.7,3.8c1.1-1.1,1.6-1.1,3-0.3c4.1,2.5,7.8,2,11.1-1.5c1.2-1.2,1.7-1.7,3.3-0.3c2.4,2.1,4.8,1.1,5.5-2.1
		c0.4-1.8,0.3-3.7,0.5-5.6c0.3-4.5,0.9-9,3.1-13c0.7-1.3,1.5-2.9,3.2-2.8c2.1,0.1,1.7,2.2,2,3.5c0.9,4.3,1.5,8.6,3.9,12.4
		c3,4.7,8.3,6.3,13,3.9c3.4-1.7,4.9-1.2,5.8,2.6c3.1,13.3,2.3,26.3-2.7,39.1c-0.8,2.1-2.4,1.9-3.9,1.8c-2.4-0.1-1.3-2-1.3-3.1
		c-0.1-4.7,0-9.5,0-14.9c-3.5,5.6-2,11.8-4.1,17.9c-3.4-10.8-3.5-20.5,2.9-29.8c-5.6,1-9,4.9-9.6,10.9c-0.7,6.2-0.6,12.5,1.6,18.5
		c0.8,2.3,0.1,3.1-1.9,3.7c-5.4,1.7-9.9,4.7-13.5,9c-0.9,1-1.8,1.9-3.4,3.6c-0.2-11.1-1.1-21.3,0-31.4c0.6-5.1,4.3-6.3,8.5-3.2
		c0.9,0.7,1.5,1.6,2.3,2.4c0.4,4.5-0.1,8.8-2.8,12.7c2.3-1.8,4.2-3.7,4.3-6.7l0,0c0.6-2.3,0.4-4.7,0.1-7c-2.6-4.1-6.8-6.4-10.5-5.4
		c-4.1,1.1-4.3,4.8-5,8c-0.3,1.3-0.4,2.7-0.4,4.1c-0.1,9.9-0.7,19.7-0.1,29.6c0.1,1.5-0.2,2.9-0.6,4.4c-3.1,9.8-2.9,19.4,1.9,28.6
		c0.9,1.7,1.1,3.2,1,5c-0.3,7.6-0.9,15.2-0.6,22.8c0.2,4.5-2,7.1-4.9,9.4c-2.5,2-5.9,0.9-6.1-1.8c-0.5-6.5,0.6-12.9,2.4-19.2
		c0.5-1.9,1.6-2.3,3.3-1c1.2,0.9,2,2.5,4.1,2.7c-0.6-2-1.6-3.4-2.7-4.7c-2.9-3.2-6.3-2.6-7.9,1.3c-0.8,1.9-1.2,4-1.8,6.1
		c-1.4,5.4-1.8,10.9-1.7,16.6c-1.8-0.4-3.1-0.7-4.4-0.9c-6.2-1.2-7.4-2.9-6.5-9.3c0.4-3,0.4-6,0.2-9c-0.1-1.6-0.4-3.5-2.5-3.6
		c-2.2,0-2.4,1.8-2.5,3.5c-0.1,2.7-0.2,5.5-0.4,8.2c-0.2,3.1-3.5,6.2-6.7,6.3c-3.9,0.2-3.8-2.9-4.3-5.4c-0.4-2-0.3-4-0.6-6
		c-0.5-3,0-6.3-2.8-9.8c-0.7,8.2-1.8,15.3,1.1,22.3c0.8,2,2.7,2.9,4.8,3.1c2.5,0.2,5,0,7.1-1.6c0.9-0.7,1.5-1.3,2.6,0.2
		c3.8,5.2,7.9,6.3,14,4.2c0.7-0.2,1.2-0.8,2.3,0c6.3,4.5,9.8,4,15-1.9c1.1-1.3,1.8-2,3.4-0.5c1.9,1.7,4.4,2.5,6.9,2.4
		c2.3-0.2,3.5,0.8,5,2.4c7.2,7.7,19.3,5.4,23-4.3c-2.9,1-5.8,2.1-8.8,2.9c-6.7,1.7-11.7-0.9-12.6-7.1c-1-7-0.2-14,3.8-20.1
		c0.7-1.1,1.7-2.2,2.8-3c1.5-1.2,3.3-1.2,4.8,0c1.4,1.1,1.2,2.7,0.6,4.1c-1.6,3.6-4.3,6.2-8.2,7.1c-1.2,0.3-2.9,0.1-2.7,1.5
		c0.2,1.7,2.1,1.5,3.4,1.2c4.8-1.1,8.5-3.7,10.5-8.2c1.4-3,1.6-6.1-1.2-8.6c-2.5-2.3-6.8-2.5-9.7-0.3c-3.2,2.4-5.3,5.6-6.8,9.2
		c-1.9,4.7-2.3,9.7-2.6,14.7c-0.1,1.2,0.8,2.8-0.5,3.4c-1.4,0.6-2.9-0.3-4.2-1.1c-1.8-1.2-2.6-2.9-2.3-5.1c1-6.8,1-13.7,1-20.6
		c0-1-0.3-2.5,0.2-2.9c2.8-2.4,1.5-5,0.8-7.6c-2.2-8.1-3.9-16.2-4.6-24.6c-0.1-1.7,0.1-3.1,1.1-4.6c3.9-5.9,9.4-10.3,14.8-14.7
		c1.7-1.4,3.7-1.8,5.2,0.9c0.8,1.5,1.4,2.7,1.2,4.5c-0.3,4.2-0.8,8.5-0.1,12.7c0.6,3.4,4,5.5,7,4.4c2.6-1,3.2-2.9,1.9-5.4
		c-0.9,1.2-1.8,1.8-3.2,1.2c-1.4-0.6-1.6-1.9-1.5-3.1c0.3-3.5-1.8-8,0.9-10.3c4.7-4.1,6.7-2.8,7.5,3.5c0.2,1.7,0.2,3.5,0.3,5.2
		c0.1,1.4,0.4,2.7,1.4,3.8s2.2,1.3,3.4,0.6c1.3-0.7,1.5-2,0.4-3.1C303.5,435.9,303.6,434.6,303.5,433.4z M294.1,366
		c-2.4-3.8-1.8-7.1-0.7-10.4c0.2-0.6,0.6-1.2,1.3-1.1c1.2,0.2,1.7,1,1.8,2.1C296.8,359.7,296.1,362.7,294.1,366z M293.4,420.6
		c-0.2,0.6-1,0.9-1.4,1.1c-1.1,0.1-1.4-0.4-1.3-1c0.1-0.9,0.9-1,1.6-1C292.8,419.8,293.7,419.8,293.4,420.6z"
    />
    <path
      class="st2"
      d="M181.7,494.1c-0.4-2.8-1.3-5.6-4.3-6.6c-3.2-1.1-6.2-0.3-8.5,2.3c-1.4,1.7-2.8,3.4-4.7,5.8
		c-1.5-7.9-3-15.1-4.3-22.3c-0.2-1.2,0.5-2.8-1.2-2.9c-1.9-0.1-1.5,1.7-1.5,2.8c0.2,9.2,2.7,18.3,2.7,27.6c0,2.1,0,3.9-1.2,5.5
		c-2.8,3.7-7.6,5.3-12,4c-4.9-1.4-6.9-7.4-3.9-11.3c1.3-1.7,2.5-3.4,3.7-5.2c2.1-3.2,2.1-3.3,4.4-0.6c-0.4-4.5-5-9.7-9.2-10.3
		c-2.7-0.4-4.4,0.7-5,3.3c-0.6,2.7-0.8,5.4-1.3,8.6c-1.1-3.2-2.7-5.6-2.6-8.8c0.2-5.9-2.6-10.8-6.8-12.2c-5.1-1.7-9.7,0-13.6,5.3
		c-4.1,5.6-5,12.1-3.1,18.5c1.7,5.6,7.3,5.3,12.2,6c-0.7,1.6-2.9,0.8-3.7,2.4c1.5,0.1,2.8,0.1,4.4,0.2c-4.6,8.6-3.8,17.5-2.2,26.5
		c0.5,2.6,1.3,5.1,2.8,7.3c2.5,3.6,6.7,3.8,9.4,0.3c1.5-1.9,2.3-4.1,2.9-6.4c2.2-8,3.6-16,3.1-24.4c5.4,8.5,18.5,7.8,23.2-0.3
		c1.2-2,1.8-1.6,3.1-0.2c4.2,4.2,9.4,3.9,13.3-0.6C181.7,504.2,182.6,499.3,181.7,494.1z M129.1,498.7c0.7-1.4,1.2-2.3,1.9-3.5
		C131.8,497,132.6,498.6,129.1,498.7z M119.6,499.3c-5.5-0.1-7.3-1.9-7.4-7c-0.1-5.5,1.5-10.3,5.9-13.9c2.4-1.9,5.1-2.2,7.6-0.7
		c2.9,1.7,5.3,5.5,3.6,7.8c-2.7,3.6-2.3,8-4.7,11.4C123.4,498.8,121.5,499.6,119.6,499.3z M130.2,534.5c-0.4,1.4-0.9,3.3-2.5,3.4
		c-1.8,0.1-2.1-1.9-2.5-3.2c-2.8-9.8-3.9-19.6,2.2-28.7c1.2-1.8,2.6-4.4,4.5-4c1.7,0.4,1.3,3.4,1.4,5.2c0.2,2.1,0,4.2,0,6.3
		C134.1,520.8,132.2,527.7,130.2,534.5z M139.7,497.9c0-4-0.1-6.7,0-9.4c0-1,0-2.5,1.5-2.6c2.3-0.2,4.1,1.1,5.4,2.7
		c1,1.2-0.6,1.7-1.1,2.3C144,493,142.2,495,139.7,497.9z M175.3,504.4c-2.7,3.5-5.3,3.8-8.3,0.5c-1.3-1.4-2.5-2.8-3.6-5.3
		c3.4,0.5,4.9-1.4,6.1-3.7c0.5-1,1.2-1.9,1.9-2.8c1-1.3,2.3-2.5,4.1-1.9c1.9,0.6,1.9,2.4,2.1,4C177.9,498.6,177.4,501.7,175.3,504.4
		z"
    />
    <path
      class="st2"
      d="M631.2,439.3c-3.6-0.7-5.6-3-6-6.7c-0.7-6.9,0-13.7,1.7-20.4c0.6-2.3,1.7-4.4,3.5-6.1c1.9-1.8,6.5-2.6,7.5-1.2
		c1.6,2.2,0.2,4.3-0.9,6.2c-0.6,1.1-1.5,2-2.4,2.9c-1.9,2.2-4.2,3.9-6.9,5.8c5.6-0.2,12.4-6.5,13.3-11.9c0.7-4.4-0.8-6.3-5.3-6.6
		c-5.5-0.4-9.6,2.4-12.1,8.6c-2.1,5.1-3.1,10.5-3.3,16c-0.1,2.3-1,2.6-2.8,1.7c-2.8-1.4-3.9-3.8-3.9-6.7c0-4.9,0.2-9.7,0.9-14.6
		c0.8-5.3,1.2-10.7,0.8-16c-0.1-1.4-0.1-3.1-1.8-3.2c-2.2-0.2-2.1,1.7-2.2,3.2c-0.2,2.2-0.3,4.5-0.5,6.7c-0.4,3.3-0.8,6.7-1.2,10.3
		c-1.6-1.2-2.6-2.1-3.8-2.8c-4.8-2.7-10.1-2.1-12.7,2c-4.4,6.8-6.2,14.2-4,22.3c-6.7,0.4-8.7-1.7-9.7-9.2c-0.4-2.6,0.5-6.3-3.4-7.1
		c-3.7-0.7-5.1,2.5-6.7,5c-0.3,0.4-0.6,0.8-0.7,1.3c-1.1,2.9-3.4,4.9-5.6,6.8c-3.9,3.3-8.6,3.7-13.4,2.3c-2.2-0.7-3.1-2.2-3.4-4.5
		c-0.3-2.5,1.8-1.9,3-2.4c5.2-2.2,8.4-7,8-12.3c-0.2-3.4-2.3-5.2-5.3-6s-5,0.7-6.3,3.3c-2.4,5-3.6,10.4-3.7,15.9
		c-0.1,6.9,3,10.3,10,10.8c4.5,0.4,8.5-1,12.4-3.4c0.4,2,0.4,4.2,2.8,4.1c2.4-0.1,2.2-2.2,2.5-3.9c0.9-4.5,2.5-8.6,5.5-13.4
		c0.4,2.8,0.5,4.5,0.8,6.2c1.2,7.1,4.4,9.9,11.7,9.9c3.6,0,7.2-0.2,10.8,0.5c2.8,0.6,5.7,0.3,8.3-1.3c2.9-1.7,4.7-1.8,7.5-0.3
		c1.1,0.6,2.3,1.2,3.6,1c2.2-0.4,2.4,0.9,2.7,2.5c0.8,5.3,4,8.5,9.1,9.7c7,1.7,12.9-0.6,18.9-5.4
		C642.2,441.1,636.7,440.3,631.2,439.3z M548.4,408.2c0.5-1.4,1-3,3.1-2.5c1.9,0.5,2.9,1.8,2.9,3.8c0,4-3.2,7.8-8,9.2
		C546.3,415,547.1,411.5,548.4,408.2z M608.9,414c0,0.6-0.1,1.2-0.2,1.9l0,0c-0.2,1.9-0.2,3.7-0.6,5.5c-1.2,6-5.3,7.6-11.3,6.1
		c-4.7-1.1-4.6-3.7-4.5-7c0.1-3.5,0.9-6.9,2.3-10.1c1.9-4.3,4-5.5,8.2-4.4C606.9,407,609.2,409.9,608.9,414z"
    />
    <path
      d="M449.1,340.7c-5.8-1.6-10.2,1.8-10.7,8.5c-0.3,3.7,0,7.5,0,11.2c0,1.2,0.4,2.4-1.6,2.7c-5.5,0.8-11.9-2.5-14.3-7.6
		c-1-2.1-1.3-3.7,0.8-5.6c3-2.6,3.5-8.3,1.6-11.8c-0.8-1.5-2-2.7-3.8-2.6c-1.9,0.1-2.6,1.6-3.1,3.3c-0.8,2.7-0.9,5.4-0.8,8.2
		c0.1,2.6-0.8,3.7-3.4,3.4c-1-0.1-2-0.1-3,0c-2.2,0.3-2.7-0.7-2.7-2.7c-0.1-4.2-0.6-8.5-0.9-12.7c-0.1-1.6-0.4-3.3-2.3-3.3
		c-2.2,0-2.3,1.9-2.4,3.5c-0.1,2.6-0.1,5.2-0.1,7.9c0,2.2,1,5.1,0,6.6c-1.1,1.7-4.1,0.7-6.3,0.3c-0.5-0.1-1,0.1-1.2,0.6
		c-0.3,0.8,0.4,1,1,1.2c0.6,0.1,1.3,0.1,1.8,0.4c1.7,0.8,4.4-0.9,5.2,1.6c0.7,1.9,0.6,4.2,0.5,6.3c-0.1,2.1-0.7,4.2-1.8,6.1
		c-1.4,2.3-2.8,4.3-6,4.3c-3.3,0-5-1.9-6.1-4.6c-1.4-3.5-2.7-7-4.1-10.4c-0.9-2.2-2.2-4-5-3.8c-2.6,0.2-4.1,1.9-4.8,4.2
		c-1.2,4.1-4,7.6-3.7,12.3c0.2,2.9-2.8,3.6-5.2,3.6c-2.5,0-2.8-2-2.8-4c0-3.5,0.1-7-0.1-10.5c-0.2-2.2,1.2-6-2.4-6
		c-3.3,0-2.1,3.7-2.2,5.8c-0.3,5-0.3,10-3.7,14.2c-1.5,1.8-3,3.4-5.6,2.9c-2.8-0.5-3.3-2.9-3.6-5.1c-0.6-3.9-0.7-7.9-1.2-11.9
		c-0.1-1,0-2.5-1.7-2.4c-1.4,0.1-1.4,1.3-1.5,2.2c-0.3,5.2-0.5,10.5,1,15.6c1.4,5,5.6,7.1,10.5,5.6c2.2-0.6,3.6-2.2,5-3.8
		c0.6-0.7,0.8-1.6,2.2-0.6c4.7,3.4,7.5,3.1,11.9-0.7c0.3,0.4,0.6,0.8,0.8,1.2c0.7,1.3,1.6,2.3,3.2,1.9c1.7-0.4,1.8-1.9,1.8-3.3
		c0.2-4.9-0.4-9.7,0.3-14.6c0.2-1.1,0.4-2.5,1.7-2.6c1.1-0.1,1.2,1.4,1.6,2.3c1.8,3.5,2.8,6.9,4.2,10.3c1.6,4,4.6,6.4,9.1,6.8
		c4.6,0.4,7.6-1.9,9.9-5.4c0.7-1,1.2-2.1,2.1-3.5c3.5,4.4,7.8,6.2,13,4.7c2.9-0.8,3.7-3.4,3.7-6.5c4,2.1,8,3.2,12.3,3.2
		c5.1,0,6.6-1.3,6.6-6.3c0-3-0.1-6-0.2-9c-0.1-4.2,1.1-7.6,5.7-8.8C449.5,342.9,450,342,449.1,340.7z M420.4,365.1
		c-0.9,1.6-2.3,1.6-3.9,1.3c-4.3-0.8-9.1-8.1-7.8-12.2c0.8-2.3,3.1-0.2,4.4-0.9c3.4-1,4.8,0.6,5.5,3.6c0.3,1.4,1.2,2.7,2.1,3.9
		C421.8,362.5,421.1,363.8,420.4,365.1z M421.8,339.9c1.5,2.4,1.4,4.7-0.3,7.8C420.8,344.5,421.2,342.2,421.8,339.9z"
    />
    <path
      d="M700.9,345.3c0.3-8.7,2.2-17.3,1.5-26.1c-0.2-2,0.7-5.1-2.1-5.2c-3-0.2-2.3,3-2.5,4.9c-0.5,5.2-0.9,10.5-1.3,15.9
		c-6.5-3.1-11.6-2.2-16.5,2.7c-5.5,5.5-7.1,13.4-4,19.8c-6.2-0.8-6.7-1.4-6.5-7.3c0.1-2.9,0.2-5.8,0-8.6c-0.3-3.9-2.5-5.2-6.2-4.1
		c-2.4,0.7-4.2,2.3-5.7,4.1c-1.5,1.8-2.8,3.7-4.3,5.7c-0.6-2.3,0.9-4.1,0.9-6.4c-4,2.4-5.1,5.8-4.4,12.4c0.5,3.9-0.3,4.8-4.3,4.5
		c-5.5-0.4-7.3-2.3-7.2-7.7c0-1.7,0.3-3.5,0.3-5.2c0.2-2.9,0.3-5.7,0.4-8.6c0-1.3,0.1-3-1.9-3.1c-1.9-0.1-2.2,1.3-2.3,2.8
		c-0.2,1.6-0.3,3.2-0.5,4.8c-0.7,5-1.6,9.9-4.3,14.2c-1.1,1.7-2.3,4-4.9,3.1c-2.4-0.8-2.3-3.1-2.3-5c-0.2-5.7-0.3-11.5-0.5-17.2
		c0-1.1,0-2.6-1.5-2.6c-1.4,0-1.4,1.5-1.4,2.6c-0.2,5.2-0.3,10.5-0.4,15.7c-0.1,4.3-0.4,8.9,4.8,10.7c5.1,1.8,7.8-1.8,10.2-5.4
		c6.4,6.2,10.1,6.6,17.7,2.2c0.3-0.2,0.7-0.4,1-0.3c3.6,0.6,3.5-1.9,3.5-4.2c0-5.3,3-9.1,6.6-12.5c0.6-0.6,1.4-1.2,2.3-0.9
		c1.1,0.4,0.6,1.5,0.6,2.3c0,2.9-0.1,5.7-0.1,8.6c0,5.4,3.1,8,8.4,7.1c1.9-0.3,3.5-0.4,5.5,0.2c5.9,2.1,11.7,2.8,16.6-2.5
		c0.5,0.8,0.9,1.5,1.4,2c1,1.3,2.6,2.9,3.9,2.2c1.5-0.8,0.9-2.9,0.3-4.5C700.1,352.8,700.7,349,700.9,345.3z M696,341.1
		c-0.3,2.8-0.5,5.7-1.2,8.5c-1.1,4.6-3.9,6.8-8.1,6.6c-7.7-0.2-10-3.6-7.5-10.9c2-5.9,7.3-9.9,12.4-9.5
		C695.2,336.2,696.4,337.6,696,341.1z"
    />
    <path
      class="st1"
      d="M177.8,289.9c-0.8-8.6-0.3-17.2-0.6-25.8c0-1.5,0-3.4-2-3.4c-2.1,0-1.9,1.8-2,3.3c-0.3,5.4-0.4,10.7-0.9,16.1
		c-0.5,5.7-0.6,11.5-2.3,17c-0.5,1.6-1.2,3.2-3.1,3.4c-2.1,0.3-3.6-0.8-4.7-2.4c-1.7-2.4-2.3-5.2-2.3-8.2
		c-0.1-8.1-0.6-16.2,0.6-24.3c0.2-1.1,0.1-2.2,0-3.4c-0.1-1-0.9-1.6-1.7-1.7c-0.9-0.1-1.7,0.4-2,1.3s-0.6,1.9-0.6,2.9
		c-0.9,9.1-3,18-4.7,26.9c-0.4,2.3-1.1,4.6-2.4,6.7c-1.4,2.1-2.9,4.2-5.9,3.7c-2.8-0.5-3.1-2.9-3.7-5.1c-0.6-2.2-0.8-4.3,0.1-6.6
		c0.6-1.5,0.8-3.2,0.9-4.8c0.3-4.5-2.4-8.1-6.8-9.6c-4.6-1.5-7.9-0.4-10.6,3.8c-3.8,5.8-4.2,12.5-3.9,19.1c0.3,6,6.2,8.6,11.2,5.3
		c1.9-1.2,3.2-3,4.6-4.8c3.4,6.3,6.5,8.3,11.2,7.1c5.4-1.4,7.2-6.3,9.5-11c1.7,5.1,4,8.9,9.3,9.9c5.2,0.9,7.9-2.2,9.7-6.6
		c5.9,8.2,14.3,9.5,18,3C182.8,302.3,178.7,300.4,177.8,289.9z M133.6,282.3c0.1,0.9,0,1.7,0,3.1c-0.3,2.4-0.5,5.3-0.9,8.1
		c-0.2,1.9-1.1,3.6-2.2,5.1c-1.5,1.9-3.2,3.8-5.9,3c-2.6-0.8-2.1-3.4-2.1-5.4c-0.1-4,0.4-8,1.7-11.7c0.7-1.9,1.7-3.6,3.3-4.9
		c1.5-1.3,3.2-1.1,4.9-0.6C134.3,279.5,133.5,281.1,133.6,282.3z"
    />
    <path
      class="st2"
      d="M419.6,581.9c-1.4,1.5-1.8,4.4-4.4,3.8c-2.5-0.6-2.9-3.2-3.5-5.3c-0.4-1.3-0.5-2.7-0.5-4.1
		c-0.1-3.6-0.1-7.2,0.1-10.9c0.3-8.1,0.4-16.2-0.1-24.3c-0.1-1.3,0.2-3.1-1.9-3c-1.8,0.1-1.9,1.7-2,3.1c-0.1,3-0.2,6-0.2,9
		c0,2.5,0,5.1,0,7.8c-12.3-4.4-16.4,0.4-18.6,10.8c-0.8,4-0.7,8.1-0.5,12.2c-4-1.3-5.7-4.2-5.2-8.3c0.3-2.5,0.7-5,0.6-7.4
		c-0.2-4.8-3.5-8.7-7.3-9.2c-4.1-0.6-7.1,1.7-9.1,6.7c-2.3,5.9-2.3,12-2,18.1c0.1,2.4,1.5,4.2,3.9,4.9c2.7,0.9,5.2,0.7,7.2-1.5
		c1.2-1.3,2-2.9,3.3-4.6c2.8,5.9,7.7,5.6,12.9,5.5c5.2,0,10.2,0.2,14-4.4c3,8.1,5.6,10.6,10,9.6
		C419.4,589.5,420.2,587.4,419.6,581.9z M377.9,563.1c-0.9,3.4-1.1,6.9-1.7,10.3c-0.4,2.5-1,4.9-2.2,7.1c-0.7,1.3-1.8,2.1-3.4,1.8
		c-1.7-0.3-2.2-1.6-2.3-3c-0.1-1.5,0-3,0-4.5c-0.1-3.6,0.3-7.2,1.4-10.7c0.5-1.7,1.4-3.2,2.7-4.4c1.5-1.3,3.1-1.4,4.8-0.5
		C379.3,560.2,378.4,561.5,377.9,563.1z M406.5,564.1c-0.2,3.7-0.3,7.1-1.5,10.3c-1,2.5-2.5,4.6-4.9,5.8c-4.8,2.5-8.3,0.4-8.3-4.9
		c0-4.1,0.3-8.2,2-12c2.1-4.5,7.5-6,11.7-3.6C407.6,560.9,406,562.9,406.5,564.1z"
    />
    <path
      class="st2"
      d="M409.5,427.6c-0.4-2.2-0.2-4,1-6c2-3.4,2-7.2,1.1-10.9c-0.7-2.7-2.7-4.6-5.8-4.3c-3.1,0.3-2.9,2.9-3.2,5.1
		c-0.3,3.2,0.3,6.2,1.2,9.2c0.7,2.2,0.2,3.1-2.3,3.2c-4.7,0.2-8-1.8-10.8-5.4c-3.2-4.1-7.3-4-10.5,0.1c-0.7,0.9-1.3,1.8-1.9,2.7
		c-1.4-1.3-0.7-3.1-1.6-4.9c-2,5-1.5,9.8-0.3,14.5c0.3,1.4,0.7,2.9,2.5,2.5c1.7-0.3,1.4-1.9,1.2-3.1c-0.5-3.4,0.3-6.4,2.2-9.2
		c2.3-3.4,3.9-3.6,6.1-0.3c3.5,5.1,8.3,7.1,14.2,6.3c2.1-0.3,2.6,0.4,2.8,2.2c0.4,3.6,1,7.2,1.3,10.8c0.6,7,1.5,13.9,0.4,20.9
		c-0.5,3.2-1.3,7.7-5.3,7.6c-4-0.1-4.4-4.6-4.9-7.8c-1.6-9.9,0.1-19.1,7.1-27.2c-4.3,0.6-7.5,2.4-9.3,5.9c-5,9.9-4.8,20.1,0.1,29.8
		c3,6,9.7,6.1,13.7,0.7c2.5-3.4,3.6-7.3,3.7-11.6C412.3,448.1,411.1,437.8,409.5,427.6z M408.2,418.2c-2.1-2.3-1.7-5-1.7-8.4
		C409.9,412.6,408.2,415.5,408.2,418.2z"
    />
    <path
      class="st21"
      d="M117.7,210.6c-1.9-6.6-3.8-13.2-1.9-20.1c0.5-1.8,0.3-3.7-0.1-5.6c-0.9-4.5-5-8.4-9.4-9.1
		c-4.8-0.8-7.7,1.8-10.2,5.4c-3.7,5.6-5.1,11.8-5.1,18.4c-0.1,4.5,1.1,8.4,5.3,10.8c4.2,2.3,7.6,0.7,10.9-2.6c0.8,2.5,1.2,4.4,2,6.2
		c1.1,2.6,3,4.4,6.1,3.5C117.9,216.8,118.7,214.2,117.7,210.6z M107,187.9c-1.4,1.3-1.8,2.9-2.3,4.6c-0.9,3.3-2,6.6-5.1,10
		c-0.9-6.9-0.2-12.5,3.1-17.6c0.7-1.1,1.5-2,3-1.5c1.2,0.4,2.3,1.1,2.9,2.2C109.5,187.3,107.7,187.3,107,187.9z"
    />
    <path
      class="st2"
      d="M342.2,658.2c-2.5-0.7-3.1-2.6-3.1-4.9c0-2.9,0.2-5.8-0.1-8.6c-0.3-2.9,0.7-7.1-3.4-7.8
		c-3.8-0.7-5.5,3-6.9,5.8c-1.6,3.3-3,6.7-4.4,10c-0.7-1.6-0.7-3-0.7-4.4c0-8.4,0-16.7-0.2-25.1c0-1.8,1.2-5.1-1.8-5.2
		c-2.6-0.1-1.8,3.1-2.2,4.8c-1.9,9.1-6.6,15.7-15.6,18.9c-2,0.7-2.7,0.5-2.6-1.7c0.3-4.4,0.4-8.7,0.7-13.1c0.2-2.1,0.7-4.2,0.9-6.3
		c0.1-1.9,1.6-3.8,0.2-6.1c-0.3,0.6-0.6,1-0.8,1.5c-3.2,7.6-3.8,15.7-4.3,23.8c-0.1,0.9,0.3,2.1-0.7,2.7c-1.3,0.9-9-0.3-9.3-1.7
		c-0.4-1.5-0.7-0.9-1.1-0.3c-0.9,1.4-0.4,2.4,1,2.9c1.9,0.7,3.8,1.3,5.8,1.3c2.8,0,4.2,0.7,4.3,4.3c0.3,11.9,9.9,16.9,20.1,10.6
		c1.5-0.9,1.8-0.2,2.7,0.5c2.5,2,4.8,1.4,6.3-1.2c1.1-1.8,1.7-3.9,2.5-5.8c1.3-3.4,2.2-7,4.6-10.8c0.2,1.1,0.2,1.4,0.2,1.6
		c0,2.7,0,5.5,0,8.2c0,2.1,0,4.3,1.1,6.2c1.5,2.8,4.8,3.8,6.9,2.1C343.2,659.9,344.7,658.9,342.2,658.2z M316,657.4
		c-3.8,1.6-7.7,1.9-11-0.5c-3.5-2.5-3.6-6.6-3.6-10.6c0-0.9,0.5-1.3,1.4-1.5c6.8-1.6,12.3-5.1,16-11.3c0,6.8-0.1,13.2,0,19.6
		C318.9,655.4,317.9,656.6,316,657.4z"
    />
    <path
      class="st1"
      d="M215.1,293.2c-0.5-5.7-3.4-10.5-5.2-15.7c-2.3-6.4-10.2-7.1-14.5-1.7c-2.8,3.5-3.2,7.5-3,11.7
		c0.2,3.7,2.6,6.2,6.2,6.9c4.2,0.8,6.2-0.2,8.1-4.1c0.5-1,0.9-1.9,1.4-3c1.9,2.3,2.8,4.6,3.1,7.4c1,10.8,1.7,21.6,1.4,32.5
		c-0.2,6.3-1.2,12.4-3.5,18.3c-0.8,2.2-2.3,3.6-4.5,1.6c-7.2-6.3-11.2-18.1-4.2-26.8c2.8-3.5,5.7-6.9,9.6-10.3
		c-3.8-0.1-6.6,0.9-9.1,3c-13.9,11.9-9.5,28.5,1,37.8c3.7,3.2,8.4,2.3,10.7-2c1.4-2.5,2.1-5.3,2.7-8.1
		C218.7,324.7,216.6,309,215.1,293.2z M206.8,282.9c-1.6,0.9-2.2,2.7-2.8,4.3c-0.9,2.2-1.7,4.3-4.7,3.4c-2.5-0.7-3.3-2-3.3-5.5
		c0-2.4,0.5-4.7,1.8-6.7c2.6-3.9,6.7-4,9.6-0.3C208.7,279.8,209.5,281.4,206.8,282.9z"
    />
    <path
      d="M446,294.1c-2.7,2.8-4.4,2.8-6.9-0.2c-1.3-1.5-2.1-3.3-2.8-5.3c-1.8-5.1-2-10.5-2.3-15.9s-0.4-10.7-0.9-16.1
		c-0.1-1.5,0.2-4.2-2.2-4.1c-2.5,0.1-1.8,2.6-1.8,4.2c-0.1,4.7,0,9.4,0,14c-9-3.4-13.8-0.8-14.5,8.5c-0.4,5.1-1.1,10.4,2,15.4
		c-5.2,0.1-8.3-2.3-10.5-6.4c-1-2-1.3-3.4,0.5-5.3c2.5-2.6,4.4-5.7,4.6-9.6c0.2-4.4-1.2-5.9-5.7-5.5c-3.5,0.3-4.6,2.8-4.9,5.7
		c-0.7,5.7-0.1,11.2,2.4,16.4c2.6,5.5,6.9,8.5,12.9,8.7c6.4,0.2,13,0.5,16.5-6.9c1.8,2.6,3,5.5,5.7,7c2.1,1.2,4.2,1.7,6.4,0.6
		C446.8,298.2,446.2,296.1,446,294.1z M403.5,272.7c0.2-2,1.8-2.5,3.6-2.3c2.1,0.2,1.6,1.9,1.5,3.1c-0.3,3.5-2.1,6.2-4.7,9
		C402.9,279.1,403.1,275.9,403.5,272.7z M426.2,291.7c-3,2.7-6.1,1.9-7.5-2c-0.7-2.1-0.3-4.2-0.6-6.4c0.1-1.5,0-3.2,0.3-4.7
		c0.5-2.4,0.8-5.2,4-5.6c3.3-0.4,5.4,1.7,6.7,4.4C431,281,429.2,289,426.2,291.7z"
    />
    <path
      class="st2"
      d="M400.3,653.2c-3.4,5.3-6.6,6.5-11.8,4.9c-4-1.2-5.4-3.9-5.1-10c0.2-4.9,0.4-9.7,0.6-14.6c0-1.1,0.2-2.4-1-3
		s-2.3-0.2-2.7,1.1c-0.5,1.3-1.1,0.4-1.6,0.2c-4.8-1.4-7-0.7-9.2,3.7c-3.4,7.2-4,14.8-1.8,22.7c-3.9,0.6-7.9,0.4-11.7-0.9
		c-3.7-1.3-5.5-4.2-5.8-8c-0.3-3.4-1.1-6.9,3.5-8.6c1.9-0.7,3.5-2.4,4.7-4.2c1.7-2.4,2.4-5.1,0.8-7.7c-1.5-2.5-4.1-3.1-6.9-2.9
		c-3.5,0.2-4.4,3-5.1,5.6c-1.5,5.6-1.1,11.4-1.2,17.1c-0.1,5.4,1.8,10,6.9,12.2c5.1,2.2,10.6,3.3,15.5-0.9c0.6-0.5,1.1-0.8,2-0.5
		c3.7,1.4,6.8,0.2,9.3-2.7c4.2,5.3,10.7,7.3,16.1,5C399.3,660.3,400.4,657.2,400.3,653.2z M350.8,631.1c0.6-2.1,1.8-3.2,4.1-2.4
		c2.4,0.8,3.3,2.5,2.3,4.9c-1.3,3.1-3.9,4.9-7.2,7C349.9,636.9,349.9,634,350.8,631.1z M379.3,637.3c-0.2,1.9-0.3,3.7-0.4,5.1
		c-0.4,4,0.3,7.8-2.1,10.9c-1.1,1.4-2.2,2.9-4.3,2.3c-2-0.6-2-2.3-2-4c0-4-0.2-8,1-11.9c0.5-1.7,1.1-3.3,2.3-4.7
		c1.1-1.3,2.5-1.4,4.1-0.9C379.3,634.8,379.4,636,379.3,637.3z"
    />
    <path
      d="M481.7,372.6c-5.2-1.8-10-4.3-15-7c0.8-0.9,1.5-1.6,2.1-2.4c3.8-4.9,7.8-9.8,8.1-16.5c0.1-2.1,0.3-4.4-1.9-5.7
		c-2.3-1.3-4.4-0.3-6.4,0.8c-4.1,2.3-6.5,6.2-8.4,10.3c-1.3,2.9-2.4,5.9-3.6,8.8c-0.3,0-0.6-0.1-0.9-0.1c0-9.5,0.1-19.1,0-28.6
		c0-2.6-0.5-5.2-0.8-7.8c-0.1-0.9-0.5-1.7-1.6-1.8c-1.4-0.1-1.5,1.1-1.6,2.1s0.1,2,0.1,3c0.2,5,1.1,10,0.2,15.2
		c-1.3-0.6-1.6-2.2-3.1-2.2c0.1,1.1-0.3,2-0.7,2.9c3-0.5,4.3,0.3,4.1,3.7c-0.4,7.1-0.3,14.2-0.4,21.3c0,2.5,0.3,5,0.9,7.4
		c0.4,1.4,1.3,2.5,2.9,2.5c1.6,0,2.4-1.2,2.6-2.7c0.5-2.4,0.9-4.9,1.3-7.5c4.9,1.2,9,4,13.5,5.8c2.5,1,5.1,2,8,1.7
		c1.2-0.1,2.5-0.6,2.6-1.7C484,373.1,482.6,372.9,481.7,372.6z M461.3,363.3c1.5-6.3,3.4-12.5,8.4-17c0.7-0.6,1.6-1.7,2.6-1
		c1,0.6,0.6,1.9,0.3,2.7C470.5,354.2,467.2,359.6,461.3,363.3z"
    />
    <path
      d="M409.2,207c-3.7-0.6-4.5-2-3.5-5.5c0.8-2.7,0.8-5.4,0.8-8.2c0-2.1-0.5-3.8-2.9-4.1s-3.3,1.5-3.8,3.3
		c-0.8,2.8-0.7,5.7-0.7,8.5c0,1.7,0.1,3.4-2,3.9c-2.4,0.5-2.9-1.6-3.4-3.2c-1.4-4.2-0.4-8.7-1.4-13c-0.2-0.9,1.7-2.3-0.5-2.6
		c-1.6-0.2-2,1.2-2.2,2.4c-0.7,3.7-1.3,7.6-0.4,11.1c0.9,3.9-0.5,5.3-3.8,6c-0.4,0.1-0.7,0.3-1,0.4c-6.4,2.3-10.2-0.3-10.2-7
		c0-0.9,0.1-1.8,0-2.6c-0.2-1.9,0.5-2.9,2.5-3.5c3.5-1,6.3-3.1,7.5-6.7c0.8-2.4,1.1-4.8-1.4-6.3c-2.6-1.6-5.4-1.8-8,0.3
		c-1.5,1.2-2.3,2.9-2.9,4.7c-1.6,4.7-1.9,9.5-2.3,14.4c-0.3,4.6,0.4,8.8,5.1,11.1c4.7,2.3,10.5,1.4,14.2-2.3c1.5-1.5,2.2-1.5,3.6,0
		c1.6,1.7,4,2,5.9,1c2.1-1.1,3.4-0.4,5.2,0.7c6.3,4.2,15.3,1.5,17-5.3C416.7,206.4,413.1,207.6,409.2,207z M376.3,184.7
		c0.7-1.7,2.1-2.7,3.8-1.9c2.1,1,1,2.8,0.3,4.1c-1.1,2.2-3.1,3.5-5.5,4.3C374.6,188.8,375.4,186.7,376.3,184.7z"
    />
    <path
      class="st2"
      d="M539.2,432.8c-1.4-0.7-1.4-2.3-1.6-3.6c-0.7-4.2-1-8.4-1.9-12.6c-1.3-6.2-5.5-7.5-10.3-3.4
		c-2.4,2-4,4.6-6.1,7.5c-0.5-2.7-0.9-4.8-1.3-7c-0.2-0.9-0.4-1.8-1.5-1.8c-1.4,0-1.5,1.1-1.5,2.1c-0.2,3.5-0.5,7-0.6,10.5
		c0,1.7-0.7,2.8-2.1,3.5c-4.2,2.1-8.6,2.3-12.5-0.3c-4.1-2.7-3.5-7.4-3.6-11.6c0-1.6,1.2-1.2,2.1-1.4c3.1-0.8,5.4-2.6,7-5.2
		c2.2-3.6,1-7.1-2.9-9c-4.2-2-6.9-0.9-8.5,3.4c-1.4,3.7-1.6,7.5-1.7,11.4c-0.1,3.5,0.1,7-0.2,10.4c-0.2,2.1-1.1,4.1-3.9,2.3
		c0,3.3,0.9,3.6,4.6,1.7c0.9-0.5,0-1.7,1-2.1c4.8,6.4,11.9,7.9,19.2,4c1-0.5,2-1.9,2.7,0.3c0.5,1.6,1.4,3.2,3.4,2.8
		c2.2-0.4,2.1-2.4,2.3-4.2c0.4-4.9,1.9-9.3,5.2-12.9c1-1.2,2.1-3,3.8-2.6c1.9,0.5,1.4,2.7,1.6,4.2c0.5,3.6,0.6,7.2,1.1,10.8
		c0.3,2.4,1.1,4.7,3.3,6.1c1.1,0.7,2.5,0.8,3.4-0.4C540.3,434.8,541.1,433.7,539.2,432.8z M497.1,405.1c0.5-2.1,1.7-3,3.8-2.2
		c2,0.8,3.5,2.1,2.5,4.5c-1.3,3-3.6,4.9-6.9,5.8C496,410.3,496.5,407.7,497.1,405.1z"
    />
    <path
      class="st3"
      d="M332.7,430.5c-0.7-1.3-1.3-3.1-2.7-3.5c-2.6-0.7-1.8-2.1-1.3-3.8c1.7-5.4-0.4-11.1-5-14
		c-4.1-2.6-8.1-1.6-10.3,2.7c-3.9,7.5-2,13.9,5.5,18.2c-3.6,2.4-6.6,5.2-7.3,9.5c-1.9,12.1,1,22.8,9.8,31.5
		c3.3,3.3,8.1,2.8,11.3-0.7c2.7-3,4.4-6.6,4.7-10.4C338,449.9,337.6,439.8,332.7,430.5z M314.6,422.5c-1.1-3.2,0.7-9.9,2.8-11.5
		c1.3-1,2.6-0.7,3.9-0.2c5.3,2,7.9,9.4,5.3,14.5c-1,1.8-2.6,1.6-4.2,1.7C319,426.9,315.8,426.3,314.6,422.5z M330.7,465.7
		c-2.5,3.9-4.9,4.1-8,0.7c-6.6-7.1-11.6-23.5-3.8-34.3c2.4-3.4,5.4-1.8,8-2.4c2.3-0.6,2.5,1.9,3.2,3.4c2.8,6,3.6,12.4,3.3,19.3
		C333.8,456.8,333.4,461.5,330.7,465.7z"
    />
    <path
      class="st3"
      d="M170.5,436.4c-1.2-3.7-3.9-6.4-6.2-9.3c-1.8-2.2-4.1-4.6-2.4-7.7c1.7-3,4.8-1.7,7.4-1.3c0.2,0,0.3-0.1,0.5-0.2
		c-3-2.9-6.8-3.6-9.4-1.8c-2.6,1.7-3.4,6.1-1.5,9.5c0.9,1.7,2.2,3.3,3.3,4.9c1.6,2.1,3.4,4.1,4.2,6.6c0.6,1.9,1.6,4.2-0.7,5.4
		c-2.2,1.1-4.4,0.8-6.4-1.3c-2.8-3.1-1.3-5.7,1-8.4c-6,0.9-7.5,3.2-6,8.5c0.2,0.8,1.9,2-0.2,2.6c-4.5,1.4-9.1,2.7-13.9,1.3
		c-3.1-0.9-4.6-3.3-5-6.3c-0.4-2.9-0.6-5.5,3-7c2.5-1,4.6-3.1,6-5.5c1.2-2,2-4.2,0.7-6.3c-1.3-2.2-3.7-2.4-6-2.3
		c-2.7,0.1-4.3,1.7-5.6,3.8c-1.7,2.7-2.1,5.8-2.4,8.9c-0.1,1.2,0.7,2.8-1,3.6c-0.9,4.2-1.2,8.4,0.8,12.4c0.3-0.9,0.6-1.9,1-2.9
		c5.3,7.5,15.2,8.8,22.8,3c1.5-1.2,2.4-1.4,4-0.3c3.1,2.1,8,1.7,10.5-0.5C172.1,443.1,171.6,439.7,170.5,436.4z M137,422.7
		c1.3-1.8,3.2-2.3,4.9-1c1.6,1.2,0.3,2.7-0.5,3.9c-1.5,2.3-3.6,3.9-6.2,5.6C134.9,427.8,135.3,425.1,137,422.7z"
    />
    <path
      class="st2"
      d="M480.8,420.4c-0.8,3.2-1.4,6-2.1,8.7c-0.2,0.9-0.2,2.2-1.3,2.5c-1.2,0.3-2-0.8-2.7-1.6
		c-2.4-2.9-3.3-6.3-3.6-10c-0.8-8.5-0.2-17-0.4-25.4c0-1.1,0-2.2-0.2-3.3c-0.2-1-0.7-1.9-1.9-1.9c-1,0.1-1.5,0.8-1.7,1.7
		c-0.2,1.1-0.3,2.2-0.4,3.3c-0.2,4.7-0.4,9.4-0.7,14.2c-6.6-3.1-10.3-1.9-13.8,4c-3.5,6-3.8,12.6-2.8,19.2c0.5,3.5,3,6,6.6,6.9
		c3.8,0.9,6.9-0.2,9.1-3.5c1.1-1.7,2.1-3.6,3.3-5.6c1.5,2.5,2.8,4.7,5.2,6.1c4.1,2.4,7.4,1,8.4-3.6
		C482.6,428.3,482.2,424.6,480.8,420.4z M462.7,430.6c-1.3,2.6-2.8,4.9-6.2,4.1c-3.2-0.8-4.1-3.3-4.3-6.3c-0.1-1.2,0-2.5,0-3.7
		c-0.3-4.9,0.8-9.4,4-13.2c1.6-2,3.7-2.6,6-1.7c2.1,0.9,3.6,2.5,3.5,5.2C465.7,420.4,465,425.7,462.7,430.6z"
    />
    <path
      class="st2"
      d="M465.9,572.1c5.1-1.6,7.5-5.6,6.9-11c-0.4-4.3-4.7-7.7-9.6-7.7c-4.1,0-5.9,2.2-6.2,7.6c-0.3,4.2,1,8.1,2.4,12
		c2.8,7.5,6.1,14.8,7.1,22.8c0.6,5,1,10-1.9,14.5c-2.4,3.7-4.9,3.8-7-0.1c-3.7-6.8-4.9-13.8-1.7-21.1c0.9-2,2-4,2.2-6.7
		c-10.6,7.2-9.4,22.7-3.2,31.5c3.1,4.3,7.7,4.7,11.4,0.8c3.1-3.2,4.4-7.1,4.6-11.5c0.5-9.9-3.1-18.8-6.7-27.8
		C463.6,573.5,463.8,572.8,465.9,572.1z M460.7,565.3c-0.5-0.9-0.3-2.2-0.4-3.2c0.3-2.4-0.5-5.2,3.2-5.4c3.1-0.1,6,2.3,6.2,5.3
		c0.1,0.9,0,1.7-0.2,2.6c-0.5,3-3.4,6.4-5.7,6C461,570.2,461.6,567.2,460.7,565.3z"
    />
    <g>
      <path class="st2" d="M335.6,292.8L335.6,292.8L335.6,292.8L335.6,292.8z" />
      <path
        class="st2"
        d="M322.2,293.1c-0.9-1-1-2.1-0.8-3.4c0.6-3.6,0.6-7.2,0.1-10.8c-0.2-1.5-0.9-2.9-2.9-2.8
			c-1.8,0.1-2.4,1.3-2.6,2.7c-0.7,3.6-1.1,7.3-0.2,10.8c0.9,3.7-0.8,5.3-3.4,6.9c-3.4,1.9-6.9,1.6-10.5,0.6c-3-0.8-3.5-3.6-4.1-6.2
			c-0.5-2.2,0.2-3.5,2.2-4.9c4.7-3.2,6.4-8,5.9-13.7c-0.4-4-2.5-7.1-5.3-7.2c-3.9-0.1-4.6,3.1-5.7,5.9c-0.2,0.7-0.2,1.3-0.4,1.9
			c-1.2,5.5-1.1,11.2-1,16.8c0.3,9.1,4.6,13.1,13.8,12.7c3.8-0.2,7-1.7,9.6-4.4c1.1-1.1,1.8-1.6,3.3-0.4c3,2.5,6.7,2.5,10.3,2
			s5.2-2.8,5-6.7C332.6,296.2,325.1,296.2,322.2,293.1z M298.6,271.2c0.3-1.1,0.6-2.8,2-2.7c1.5,0.1,2.1,1.7,2.3,3
			c0.7,5.1-0.1,9.7-5.3,13.1C297.4,279.8,297.4,275.4,298.6,271.2z"
      />
    </g>
    <path
      class="st2"
      d="M777.7,261.9c1.3-0.4,2.5-0.8,3.8-1.1c-1.5-3.5-4.2-4.5-8.1-3.1c-8.4,3.1-10.9,11.8-5.6,20
		c2.1,3.3,1.7,4.3-2.1,4.7c-4.1,0.5-8.2,0.4-12.3-0.1c-3.2-0.4-6.4-0.9-8.7-3.5c1.1-0.9,2.2-1.8,3.1-2.8c2.7-3,3.5-6.6,2.7-10.4
		c-0.6-2.6-2.1-4.5-5-4.8c-3-0.3-4.2,1.6-5.2,3.9c-1.2,2.9-1.6,6-1.6,9.1c0,5.6,2.1,9.3,7.5,11.3c7.3,2.7,14.9,3.1,22.5,1.4
		c5.4-1.2,6.9-5.5,4-10.4C768.2,268.8,769.7,264.8,777.7,261.9z M742.9,275.5c-0.1-1.1,0-2.2,0-3.3c-0.2-2.1,0.2-4.2,0.9-6.2
		c0.3-0.8,0.5-1.7,1.6-1.9c1.2-0.1,1.8,0.7,2.3,1.6c1.6,2.7-0.3,9.2-3.1,10.7C743.5,277,742.9,276.7,742.9,275.5z"
    />
    <path
      class="st3"
      d="M129.9,434.1c-2.1-4.6-5.6-5.7-11.1-4c-2.6,0.8-4.4,2.9-7.3,4.2c0.6-7.1,1.1-13.8,1.6-20.5
		c0.1-1.3,0.5-3.1-1.3-3.3s-1.5,1.7-1.6,2.8c-0.8,6.5-1.5,13.1-2.2,19.7c-0.1,1.4-0.1,2.5-1.7,3.3c-4.6,2.5-5.5,6.1-3,10.9
		c1.7,3.3,4.4,5.7,7.2,8c4,3.3,8.5,5.2,13.5,3c4.8-2.1,6.2-6.8,6.7-11.7C130.4,442.3,131.1,438.1,129.9,434.1z M125,450.8
		c-1.7,3.5-4.4,4.7-8,3c-4.3-1.9-7.7-5.1-10.1-9.1c-1.1-1.8-1.6-3.9,0.6-5.9c0.6,1.6,0.1,3.5,2,3.8s2.5-1.2,3.3-2.5
		c2.2-3.4,4.9-6.3,9.3-6.8c2.6-0.3,4.1,0.7,4.5,3.3C127.4,441.5,127.3,446.3,125,450.8z"
    />
    <path
      class="st2"
      d="M211.1,505.8c-1,0.8-2.1,1.6-3.4,0.8c-1.1-0.7-1.7-2-1.4-3.3c1.2-5.6-0.6-11.1-0.4-16.7
		c0.1-3.9-2.1-6.2-5.8-7.1c-4.9-1.2-8.7,0.5-11.4,5c-2.6,4.6-3.2,9.6-3.3,14.8c-0.2,7.4,3.3,11.3,10.6,11.4
		c3.8,0.1,7.3-1.6,11.3,0.8c2.9,1.7,6.1-1.3,6.6-5c0.1-1,0.1-2,0.2-3.2C212.9,504.2,212,505,211.1,505.8z M199.8,504.8
		c-1.9,2-4.4,1.4-6.7,1c-2-0.3-3.5-1.6-3.7-3.7c-0.5-5.4-0.5-10.7,2-15.7c1.5-2.9,2.7-3.7,5.8-4c-0.7,3.9,1,7.3,1.7,11
		c0.7,3.2,1.2,6.5,1.7,9.8C200.7,503.7,200.2,504.3,199.8,504.8z"
    />
    <path
      class="st2"
      d="M252.3,214.7c-1.3-4.9-2.3-9.9-2.3-15c0.1-9.1-0.1-18.2-0.1-27.3c0-1.2,0.2-2.7-1.7-2.7
		c-1.6,0-1.5,1.4-1.6,2.5c-0.2,7.1-2.2,13.7-4,20.5c-0.6,2.4-1.2,2.9-3.7,2c-6.3-2.2-9.5-0.4-11.8,5.9c-0.7,2-0.9,4.1-1,6.2
		c-0.2,3.4,1.3,5.9,4.5,6.9c3.2,1,6.1,0.6,8.4-2.4c1.8-2.4,3.1-5.1,4.6-8.6c0.2,1.1,0.3,2.2,0.4,2.2c3.9,0.1,1.8,3.3,2.6,5
		c0.8,1.8,0.9,3.9,1.3,5.8c0.4,1.6,0.9,3.5,3,3C252.8,218.2,252.7,216.3,252.3,214.7z M240.4,200.2c-1,3-2.2,5.8-4,8.4
		c-1.2,1.7-2.6,2.6-4.8,1.9c-2.4-0.7-2.9-2.5-2.8-4c0-2.6,0.5-4.5,1.3-6.4c1.8-4,6-5,9.6-2.5C240.9,198.4,240.8,199.2,240.4,200.2z
		 M246,199.9c-2.8-1.7-0.5-3.5,0-5.3C246,196.3,246,198,246,199.9z"
    />
    <path
      class="st2"
      d="M201.1,586.4c-6.8,1.8-12.7,0.2-13-8c0-1.4-0.2-2.7-0.3-4.1c-0.2-3.2-0.3-6.5-0.6-9.7
		c-0.1-1.1-0.3-2.3-1.6-2.7c-1.3-0.4-2.2,0.1-2.7,1.3c-0.3,0.7-0.5,1-1.6,0.8c-5.5-1.3-7.2-0.3-8.9,5.2c-1.6,5.2-1.7,10.6-1.7,15.9
		c0,2.7,0.8,4.9,3.6,5.9s5.4,0.6,7.6-1.5c1.1-1,1.4-2.7,2.8-3.4c3.6,4.5,8.6,6.4,13.1,5C200.3,590.5,201.3,588.9,201.1,586.4z
		 M179.3,585.9c-0.8,0.9-1.8,1.3-3,1c-1.2-0.4-1.3-1.4-1.3-2.4c0-1.6,0-3.2,0-4.8c-0.1-3.7,0.2-7.4,1.6-11c0.4-1,0.9-2.1,2.3-2.1
		c1.2,0,2,0.9,2.6,1.9C183.4,571.9,182.1,583,179.3,585.9z"
    />
    <path
      class="st3"
      d="M97.6,649.2c-3.4-1.2-7,0.4-9.7,4.1c-1.4,2-2.7,4.1-4.5,6.9c-0.3-9.3,2.1-17.9-1.7-26.1
		c-0.7,9.6-1.4,19.2-2.1,28.9c-0.1,1.1,0.3,2.5,1.4,2.8c2.2,0.6,2.2,2,2.3,3.9c0.1,5.8,3.8,8.2,8.7,5.1c6.2-3.8,10.5-9.2,10.3-17
		C102.4,654,101.6,650.5,97.6,649.2z M90.5,670.6c-1.6,1.2-2.8,0.6-2.8-1.6c0-4.7,1-9.1,3.3-13.1c1-1.9,2.7-3.6,5.1-3
		c2.6,0.7,2.1,3.3,2.4,5.7C97.9,663.7,94.7,667.5,90.5,670.6z"
    />
    <path
      class="st3"
      d="M206.8,658.9c-7.5,2.9-11.1,0.5-11.3-7.5c0-2.4-0.1-4.7-0.2-7.1c-0.1-1.7-1.2-3.4-2.8-2.4
		c-1.9,1.2-2.6,0.1-3.8-0.7c-5.3-3.5-9.8-2-11.7,4c-1.7,5.3-1.8,10.8-1.5,16.3c0.2,2.8,2.2,4.4,4.9,4.8c4.2,0.7,7.6-0.9,10.1-4.2
		c1.1-1.5,1.7-1.6,3.3-0.3c4.6,4,11.6,3.2,14.6-1.4C209.2,658.4,208.2,658.5,206.8,658.9z M187.7,659c-1,1.3-2.1,2.4-3.8,2.9
		c-3,1-4.4,0-4.5-3.2c-0.1-1.4,0-2.7,0-4.1c0-3,0-6,1-8.9c0.7-2,1.7-3.7,4.3-3.2c2.5,0.4,5.4,1.5,5.7,4
		C190.8,650.8,190.6,655.3,187.7,659z"
    />
    <path
      class="st2"
      d="M244.1,434.8c-0.2-3.5-0.1-7-0.2-10.5c0-1.5-0.2-3.4-2.1-3.4c-1.7,0-3.1-0.7-4.6-1c-4.6-1.1-7.4,0-9.8,4.1
		c-2.7,4.6-3.6,9.6-3.2,14.8c0.2,2.9,2,4.8,4.9,5.4c4.2,0.9,7.9,0.1,11.2-3.6c1.9,3.6,4.1,6.2,8.2,6c2.2-0.1,3.6-1.3,4.3-3.5
		C247.3,442.9,244.5,440.3,244.1,434.8z M235.6,438.8c-1.8,1.2-3.7,1.5-5.7,0.7c-2.2-0.9-1.4-3-1.4-4.6c0.1-3.4,0.7-6.7,2.5-9.7
		c0.8-1.5,1.9-2.5,3.8-2.5c4.3-0.2,4.8,0.4,4.6,7.2C239.7,433.1,239,436.5,235.6,438.8z"
    />
    <path
      class="st3"
      d="M277.2,211.7c-3.4,2-3.9-0.3-3.9-2.5c-0.1-5.2-0.1-10.5,0-15.7c0-2,0.4-4.2-1.1-5.7
		c-4.2-4.2-11.1-2.9-13.7,2.6c-2.2,4.7-2.8,9.8-2.9,14.9c0,2.7,0.4,5.1,3.1,6.2c2.8,1.1,5.4,0.5,7.5-1.7c0.7-0.7,1.3-1.4,2.2-2.3
		c0.7,2.3,0.3,4.5,1.3,6.4c1.1,2,2.1,4.4,4.9,3.8C277.3,217.1,277.4,214.7,277.2,211.7z M268.8,192.5c0,5.4-1.6,9.9-4.8,13.7
		c-0.9,1-1.9,2.1-3.5,1.6c-1.8-0.5-1.3-2.2-1.4-3.4c-0.1-3.6,0.3-7.2,1.3-10.7c0.4-1.4,1.1-2.8,1.9-4c1.3-1.9,3.2-2.1,5.3-1.4
		C270.1,189.3,268.5,191.3,268.8,192.5z"
    />
    <path
      class="st4"
      d="M238.9,299c-1.9,0-3.7-0.1-5.6-0.4c-5.1-0.6-7.6-3.4-8.3-8.5c-0.3-2.4,0.2-3.6,2.7-4.2
		c3.6-0.8,6.8-2.4,9.4-5.1c3.1-3.2,3.2-8.3,0.3-10.7c-5-4.1-12.7-2.3-14.7,3.8c-2.2,6.7-2.9,13.7-0.7,20.6c1.5,4.5,4.6,7.5,9.4,7.9
		c4.7,0.4,9.9,1.6,13.4-4.9C242.5,298.7,240.7,299,238.9,299z M224.9,281c0.1-2.5,0.3-4.9,1.5-7.2c0.8-1.4,1.8-2.4,3.4-2.4
		c2.4-0.1,5.1-0.2,6.2,2.2c1.3,2.7-0.2,5.1-2.4,6.7c-1.6,1.2-3.3,2.2-5.1,3C224.8,285.1,224.7,285,224.9,281z"
    />
    <path
      class="st4"
      d="M648.9,566.3c-2.3-3.3-5.3-3.8-8.8-3.2c-3,0.6-4,3-4.8,5.6c-0.9,2.7-1.2,5.6-1.2,8.4
		c-0.1,6.2,1.8,9.2,6.5,10.1c5.2,1,9.3-1,10.7-5.7C652.8,576.2,652.2,571,648.9,566.3z M646.8,580.8c-1.2,2.3-3.2,2.6-5.4,2.3
		c-2.3-0.3-3.6-1.6-3.6-4c0-1.2,0-2.5,0-3.7c0-2.2,0-4.5,0.8-6.6c1.2-3.2,3.1-3.8,5.6-1.6C646.8,569.3,648.4,577.8,646.8,580.8z"
    />
    <path
      class="st3"
      d="M160.1,353.3c-2.6-3.3-6.5-2.8-8.5,0.9c-2.1,3.9-2.7,8.2-2.6,12.7c0,1,0,2,0,3c0.1,4.6,2.1,7.1,6,7.7
		c4,0.7,6.7-0.9,8.4-5.1C166.2,365.4,164.6,359,160.1,353.3z M160.5,362.6c-1,2.3-0.9,5.1-1.6,7.6c-0.4,1.6-1.3,3.1-3.4,2.7
		c-1.8-0.4-2.2-1.8-2.2-3.4c0-1.4,0-2.7,0-3.2c-0.2-3.9,0.1-6.9,1.3-9.7c0.9-2.2,2.2-2.6,3.9-0.8
		C160.3,357.7,161.9,359.4,160.5,362.6z"
    />
    <path
      d="M546.9,289c-3.6,1.2-6.4,0-7.3-3.1c-0.8-2.7-0.7-5.5-0.3-8.2c0.2-1.6,2.2-0.5,3.2-0.9c1.3-0.6,2.3-1.5,2.9-2.8
		c1.2-3,1.5-6,0.5-9.1c-0.8-2.3-2-4.1-4.8-4c-2.5,0.1-3.2,2-3.8,4c-1.9,6.7-2.6,13.5-2.2,20.4c0.4,6.7,6.3,10.2,12.7,7.7
		c4-1.5,6-4.6,6.7-9.2C552.2,286.2,549.8,288,546.9,289z M539.4,272.3c0.2-2.1,0.7-4.2,1-6.3c0.2-0.9,0.2-2.1,1.2-2.1
		c1.1-0.1,1.6,1.1,1.8,2c0.3,1.2,0.3,2.5,0.5,3.8c-0.2,1.1-0.3,2.4-0.7,3.5c-0.5,1.4-1.7,2.4-3.2,1.9
		C538.5,274.8,539.2,273.3,539.4,272.3z"
    />
    <path
      class="st4"
      d="M101,584.5c-2.3,3.5-3.6,2.1-4.5-0.3c-1-2.4-1.5-5-1.9-7.6c-0.5-3.1-9.4-7.1-12-5.4c-1.1,0.7-1.4,1.7-1.5,2.9
		c-0.2,2.9-0.5,5.7-0.4,8.6c0,3.2,0.6,6.4,4,7.8c3.5,1.4,6-0.3,7.9-3.1c3,3.4,5.1,4.3,7.3,3.1C102,589.3,101.7,587.3,101,584.5z
		 M89,585c-0.5,1-1,2.1-2.4,2c-1.6-0.1-2.1-1.3-2.3-2.5c-0.3-1.7-0.3-3.4-0.4-4.9c0-1.1-0.1-1.8,0-2.5c0.2-1.2-0.7-3.3,1.3-3.1
		c1.8,0.1,4.2,0.5,4.6,3C90.2,579.6,90.1,582.4,89,585z"
    />
    <path
      d="M460.4,288.9c0.2,1.1-0.4,1.5-1.3,1.9c-2.8,1-8.1-0.5-9.9-2.8c-2.7-3.4-2.3-5.7,1.5-7.7c1.7-0.9,2.9-2.4,3.7-4.1
		c1.6-3.5,2-7.2,1.1-10.9c-0.6-2.5-1.2-5.3-4.6-5.6c-3.5-0.3-4.2,2.6-5.1,5c-2,5.6-2.5,11.3-2.3,17.2c0.1,5,1.6,9.2,6.4,11.4
		c4.5,2.1,8.7,1.1,12-2.7C461.6,289.7,461.1,289.2,460.4,288.9z M447.1,274.6c0.2-3.4,0.5-6.6,1.6-9.7c0.4-1.1,0.6-2.8,2.1-2.7
		c1.3,0.1,1.7,1.7,2,2.9c1.1,3.7,0.6,7.2-1.1,10.5c-0.8,1.5-2,3.5-3.9,2.9C446.2,277.9,447.5,275.8,447.1,274.6z"
    />
    <path
      class="st6"
      d="M486.6,582.9c-4.6-1.4-5.5-4.5-2.7-8.4c2.4-3.3,5.4-6.3,5.7-10.7c0.1-2,0.1-3.8-2.2-4.6
		c-2.2-0.8-4.2-0.7-5.9,1c-1.3,1.4-2.1,3.1-2.6,4.9c-0.9,3.2-0.6,6.4-1,9.6c-1.3,10.6,9.6,15.1,17.4,10.2
		C492.2,584.2,489.3,583.8,486.6,582.9z M482.7,564.4c0.5-1.4,1.2-3.1,3-2.5c2.2,0.6,1.1,2.5,0.8,3.7c-0.8,2.7-2.6,5-4.7,8.1
		C481.5,569.9,481.6,567,482.7,564.4z"
    />
    <path
      class="st1"
      d="M292.8,91.8c-7.5,6-15.7,3.8-19.5-5.1c-1.2-2.9-2-5.9-1.9-9.1c0.2-5.4,0.4-10.7,0.7-16.1
		c0.1-1.6,0-3.6,2.3-3.6c2.2-0.1,2,2,2.1,3.4c0.4,5.3,0.6,10.7,1,16c0.2,3.3,1.1,6.4,3.4,8.9c2.7,3,5.6,2.6,7.3-1.1
		c1.1-2.3,1.8-4.6,1.9-7.2c0.2-4.7,0.5-9.5,0.7-14.2c0.1-2.4,0.7-4.8,3.6-4.7c2.7,0.1,3.2,2.4,3.2,4.7c0.1,4.7,0,9.5,0.1,14.2
		c0,2,0.2,4,0.6,5.9c1.2,5.8,4,8.4,9.2,8.6c6.6,0.3,10.1-2.1,11.8-7.9c1.7-5.8,1.4-11.9,1.3-17.8c0-1.8-1.1-2.2-2.7-2.5
		c-2.5-0.3-4.4-1.6-4-4.4c0.5-3.1,3-3.3,5.5-3.1c4.5,0.4,7.6,3.4,8.2,8.3c0.9,7.2,0.9,14.4-0.9,21.5c-1.9,7.5-6.6,12.3-14.3,13.5
		c-7.7,1.2-14.7-0.1-19.1-7.6C293.4,92.3,293.1,92.1,292.8,91.8z"
    />
    <path
      class="st1"
      d="M174.5,89.2c1.4-3.4,1.6-6.5,1.7-9.5c0.2-5.1,0.2-10.2,0.4-15.3c0.1-2.4,0.7-4.7,3.7-4.7c2.9,0,3.7,2.3,4,4.6
		c0.5,4.1,0,8.2,0.9,12.3c0.3,1.2,0.5,2.5,0.9,3.6c0.9,2.5,2.3,4.6,5.2,4.6c3.1,0.1,3.9-2.6,4.3-4.8c1.2-6.9,1.8-13.8,0.7-20.7
		c-0.3-1.5-0.2-2.7,1-3.7c1.3-1.1,2.8-1,4.2-0.4c1.9,0.8,3,2.5,3,4.4c0.3,7.3,1.1,14.7-0.6,22c-2.6,11-10.4,14.4-20.2,8.8
		c-1.6-0.9-1.8-0.3-2.3,0.9c-1.1,3-2.8,5.3-6.4,5.3c-3.9,0-6.1-2.5-7.6-5.7c-1.6-3.4-2.2-7.2-2.2-10.9c0-6,0.1-12,0.3-18
		c0-1.2,0-2.8,1.7-2.9c1.7-0.2,1.8,1.5,2.1,2.6c1.3,5.5,1.5,11.1,2,16.7C171.6,82.1,171.9,85.8,174.5,89.2z"
    />
    <path
      class="st1"
      d="M258.2,71.3c-0.1,5-0.2,10-1.5,14.9c-2.9,11-12.4,13.7-20.7,5.7c-1-0.9-1.4-1.9-3.2-0.6
		c-4.7,3.6-10.6,2.2-13.9-2.8c-1.8-2.8-2.5-6-2.8-9.2c-0.7-6.6,0.3-13.2,0.9-19.8c0.1-1,0.1-2.6,1.5-2.7c1.8-0.1,1.7,1.7,1.8,2.8
		c0.5,5,0.8,10,1.1,14.9c0.2,3.3,0.9,6.4,2.3,9.4c0.7,1.4,1.7,2.5,3.4,2.5c1.9,0,2.4-1.7,2.8-3c1.5-4.9,0.8-9.9,1.1-14.9
		c0.1-2.1,0.1-4.2,0.4-6.3c0.2-1.8,1.4-3,3.3-2.9c1.9,0,3.1,1.3,3.2,3.1c0.3,3.7,0.3,7.5,0.5,11.2c0.1,2.5,0.1,5,0.5,7.4
		c0.3,1.5,1.1,3.1,1.9,4.4c1.1,1.8,2.7,3,5,2.7c2.4-0.3,2.7-2.4,3.1-4.2c1.4-5.7,1.4-11.6,2.2-17.4c0.2-1.5,0.4-3,0.9-4.4
		c0.5-1.7,1.6-2.9,3.5-2.6c1.8,0.3,2.5,1.6,2.6,3.2C258.3,65.5,258.2,68.4,258.2,71.3z"
    />
    <path
      class="st22"
      d="M365.3,88.6c-1.4,1.2-2.5,2-3.5,2.9s-2.1,1.7-3.1,0.3s-0.7-2.9,0.8-3.9C361.4,86.7,363.2,87.3,365.3,88.6z"
    />
    <path
      class="st23"
      d="M389.5,86c-1.7,1.8-3.4,2.6-5,3.3c-1.1,0.5-2.3,0.3-2.7-1c-0.5-1.5,0.3-2.5,1.7-2.6
		C385.3,85.6,387.1,85.8,389.5,86z"
    />
    <path
      class="st24"
      d="M421.7,84.2c0.6,0.3,2-0.2,1.7,1.2c-0.3,1.3-0.9,2.7-2.6,2.7c-1.2,0-1.8-0.8-1.7-2
		C419.2,84.6,420.2,84.2,421.7,84.2z"
    />
    <path
      class="st19"
      d="M52.9,67.9c-5.6-3.2-11.2-2.9-16.6,0.5c-6.3,3.9-8.7,11.8-6.2,20.2c2.3,7.7,8.1,11.5,16.5,10.9
		c5.9-0.4,11-5.9,12-12.9c0.2-1.6,0.2-3.2,0.3-4.8C59.3,76.1,58.3,71,52.9,67.9z M49.4,79.3c0,3.2-0.2,5.8-1.3,8.2
		c-1.1,2.5-3,3.2-5.5,2.8c-2.8-0.4-2.7-2.5-2.8-4.5c0-2.5-0.1-5.1,1.1-7.3c1.3-2.5,2.5-5.3,6.4-4.4C51.1,74.9,48.3,78,49.4,79.3z"
    />
  </g>
</svg>
