<?xml version="1.0" encoding="utf-8"?>
<!-- Generator: Adobe Illustrator 24.1.1, SVG Export Plug-In . SVG Version: 6.00 Build 0)  -->
<svg version="1.1" id="Ebene_1" xmlns="http://www.w3.org/2000/svg" xmlns:xlink="http://www.w3.org/1999/xlink" x="0px" y="0px"
	 viewBox="0 0 120 41" style="enable-background:new 0 0 120 41;" xml:space="preserve">
<style type="text/css">
	.st0{fill:#50697D;}
</style>
<g>
	<g>
		<g>
			<path class="st0" d="M30.7,28.3c0,0.3-0.2,0.5-0.5,0.5H14.9c-0.3,0-0.5-0.2-0.5-0.5V9.5c0-0.3,0.2-0.5,0.5-0.5h15.4
				c0.3,0,0.5,0.2,0.5,0.5v4.1h0.7V9.5c0-0.6-0.5-1.1-1.1-1.1H14.9c-0.6,0-1.1,0.5-1.1,1.1v18.8c0,0.6,0.5,1.1,1.1,1.1h15.4
				c0.6,0,1.1-0.5,1.1-1.1v-3.4h-0.7V28.3z"/>
		</g>
		<g>
			<path class="st0" d="M16.5,14.5v0.9H20v-0.9c0-0.8-0.5-1-1.2-1.2v-0.2c0.3-0.2,0.5-0.5,0.5-0.9c0-0.6-0.5-1.1-1.1-1.1
				s-1.1,0.5-1.1,1.1c0,0.4,0.2,0.7,0.5,0.9v0.2C17,13.6,16.5,13.8,16.5,14.5z"/>
		</g>
		<g>
			<rect x="21.9" y="13" class="st0" width="6.3" height="0.7"/>
		</g>
		<g>
			<rect x="16.5" y="17.4" class="st0" width="10.9" height="0.7"/>
		</g>
		<g>
			<path class="st0" d="M23.4,26.7l4.7-1.7l9-9l0-0.2c0,0-0.2-1-1-1.8c-0.8-0.8-1.8-1-1.9-1l-0.2,0l-8.9,8.9L23.4,26.7z M25.5,25.2
				c-0.1-0.2-0.2-0.4-0.3-0.5c-0.1-0.1-0.2-0.2-0.4-0.2l0.8-2.2l0.1-0.1c0.6,0.2,1.7,0.7,2.1,2.1l-0.1,0.1L25.5,25.2z"/>
		</g>
		<g>
			<rect x="16.7" y="22.9" class="st0" width="6.6" height="0.7"/>
		</g>
		<g>
			<rect x="16.7" y="25.6" class="st0" width="5.4" height="0.7"/>
		</g>
		<g>
			<rect x="16.7" y="20.1" class="st0" width="7.6" height="0.7"/>
		</g>
	</g>
	<g>
		<path class="st0" d="M45.2,15.3c0.7-0.1,1.7-0.2,2.7-0.2c1.5,0,2.4,0.3,3.1,0.9c0.5,0.5,0.8,1.2,0.8,2c0,1.4-0.9,2.4-2,2.8v0
			c0.8,0.3,1.3,1.1,1.6,2.2c0.4,1.5,0.6,2.5,0.8,3h-1.4c-0.2-0.3-0.4-1.2-0.7-2.6c-0.3-1.5-0.9-2-2.2-2.1h-1.3v4.7h-1.4V15.3z
			 M46.6,20.2H48c1.5,0,2.4-0.8,2.4-2c0-1.4-1-2-2.5-2c-0.7,0-1.2,0.1-1.4,0.1V20.2z"/>
		<path class="st0" d="M59.4,20.9h-4.2v3.9h4.7v1.2h-6.1V15.1h5.8v1.2h-4.4v3.4h4.2V20.9z"/>
		<path class="st0" d="M69.9,25.5c-0.6,0.2-1.9,0.6-3.3,0.6c-1.6,0-3-0.4-4-1.4c-0.9-0.9-1.5-2.3-1.5-4c0-3.2,2.2-5.6,5.8-5.6
			c1.2,0,2.2,0.3,2.7,0.5l-0.3,1.1c-0.6-0.3-1.3-0.5-2.4-0.5c-2.6,0-4.3,1.6-4.3,4.3c0,2.7,1.6,4.4,4.2,4.4c0.9,0,1.5-0.1,1.9-0.3
			v-3.2h-2.2v-1.1h3.6V25.5z"/>
		<path class="st0" d="M73.4,15.1v10.8H72V15.1H73.4z"/>
		<path class="st0" d="M75.7,24.2c0.6,0.4,1.5,0.7,2.5,0.7c1.4,0,2.3-0.8,2.3-1.8c0-1-0.6-1.6-2-2.1c-1.8-0.6-2.8-1.5-2.8-3.1
			c0-1.7,1.4-2.9,3.5-2.9c1.1,0,1.9,0.3,2.4,0.5L81,16.6c-0.4-0.2-1.1-0.5-2-0.5c-1.5,0-2,0.9-2,1.6c0,1,0.7,1.5,2.1,2.1
			c1.8,0.7,2.8,1.6,2.8,3.2c0,1.7-1.2,3.1-3.8,3.1c-1,0-2.2-0.3-2.8-0.7L75.7,24.2z"/>
		<path class="st0" d="M85.8,16.3h-3.3v-1.2h8v1.2h-3.3v9.6h-1.4V16.3z"/>
		<path class="st0" d="M97.3,20.9h-4.2v3.9h4.7v1.2h-6.1V15.1h5.8v1.2h-4.4v3.4h4.2V20.9z"/>
		<path class="st0" d="M99.6,15.3c0.7-0.1,1.7-0.2,2.7-0.2c1.5,0,2.4,0.3,3.1,0.9c0.5,0.5,0.8,1.2,0.8,2c0,1.4-0.9,2.4-2,2.8v0
			c0.8,0.3,1.3,1.1,1.6,2.2c0.4,1.5,0.6,2.5,0.8,3h-1.4c-0.2-0.3-0.4-1.2-0.7-2.6c-0.3-1.5-0.9-2-2.2-2.1H101v4.7h-1.4V15.3z
			 M101,20.2h1.4c1.5,0,2.4-0.8,2.4-2c0-1.4-1-2-2.5-2c-0.7,0-1.2,0.1-1.4,0.1V20.2z"/>
	</g>
</g>
</svg>
