<?xml version="1.0" encoding="utf-8"?>
<!-- Generator: Adobe Illustrator 22.0.1, SVG Export Plug-In . SVG Version: 6.00 Build 0)  -->
<svg version="1.1" id="Capa_1" xmlns="http://www.w3.org/2000/svg" xmlns:xlink="http://www.w3.org/1999/xlink" x="0px" y="0px"
	 viewBox="0 0 512 512" style="enable-background:new 0 0 512 512;" xml:space="preserve">
<style type="text/css">
	.st0{fill:#016699;}
</style>
<g>
	<g>
		<path class="st0" d="M441,273.6V234c0-6.9-5.6-12.5-12.5-12.5c-25.8,0-49.8,2.2-72.5,6.6c-13.2-12.8-29.4-22.1-46.9-27.1
			c19.1-16,31.2-40.1,31.2-66.9c0-48.6-39.2-88.2-87.4-88.2s-87.4,39.6-87.4,88.2c0,26.8,12.1,50.8,31.2,66.9
			c-17.5,5.1-33.6,14.3-46.9,27.1c-22.7-4.4-46.7-6.6-72.5-6.6c-6.9,0-12.5,5.6-12.5,12.5v39.6c-14.5,5.2-25,19-25,35.3v25
			c0,16.3,10.4,30.1,25,35.3v39.6c0,6.9,5.6,12.5,12.5,12.5c65.3,0,118.8,15.5,168.6,48.7c4.2,2.8,9.7,2.8,13.8,0
			c49.8-33.2,103.4-48.7,168.6-48.7c6.9,0,12.5-5.6,12.5-12.5v-39.6c14.5-5.2,25-19,25-35.3v-25C466,292.7,455.6,278.8,441,273.6z
			 M190.6,134.2c0-34.9,28-63.2,62.4-63.2s62.4,28.4,62.4,63.2c0,34.4-28,62.4-62.4,62.4S190.6,168.6,190.6,134.2z M77.4,346.4
			c-6.9,0-12.5-5.6-12.5-12.5v-25c0-6.9,5.6-12.5,12.5-12.5c6.9,0,12.5,5.6,12.5,12.5v25C89.9,340.8,84.3,346.4,77.4,346.4z
			 M240.5,437.1c-45.3-25.9-93.9-39-150.6-40.7v-27.3c14.5-5.2,25-19,25-35.3v-25c0-16.3-10.4-30.1-25-35.3v-26.9
			c58.6,1.7,105.8,15.5,150.6,44V437.1z M253,269.1c-23-14.5-47-25.6-72.6-33.4c14.1-9.1,30.6-14.2,47.6-14.2H278
			c17,0,33.6,5,47.6,14.2C300,243.5,276,254.6,253,269.1z M416.1,396.5c-56.7,1.7-105.3,14.8-150.6,40.7V290.7
			c44.8-28.5,92-42.4,150.6-44v26.9c-14.5,5.2-25,19-25,35.3v25c0,16.3,10.4,30.1,25,35.3V396.5z M441,333.9
			c0,6.9-5.6,12.5-12.5,12.5s-12.5-5.6-12.5-12.5v-25c0-6.9,5.6-12.5,12.5-12.5S441,302,441,308.9V333.9z"/>
	</g>
</g>
</svg>
