<svg
  xmlns="http://www.w3.org/2000/svg"
  width="500"
  height="300"
  viewBox="0 0 500 300"
>
  <path
    clip-rule="evenodd"
    d="M72.753 153.2c-.852.588-1.954 1.087-3.204 1.532 9.222-1.853 19.274-1.57 29.838 1.797 17.467 5.567 31.143 16.391 39.951 30.629 2.35 3.799 4.6 9.168 5.993 13.317.966 2.877.532 5.741 1.997 7.99v5.993c-4.876-3.357 2.265-6.747-8.656-6.659v-.666c2.26-.745 2.55-1.607 5.327-1.997-.266-1.368-.166-1.284-.666-1.998-.429-1.149-.13-.652-.666-1.332-1.306 2.584-2.874 3.934-5.326 5.327 1.318 2.47 4.649 1.704 6.658 3.329.504.717.418.615.666 1.998-3.73.172-5.318.292-6.659-1.998h-.665c.151 1.544.131 1.878.665 2.664v3.329c.607-.619.899-1.161 1.332-1.997 2.376-.015 4.5.146 5.993.666l-.666 1.332c-1.482.523-3.621.709-5.993.666v.666h-.666v7.99c.792-.754 1.43-1.691 1.998-2.663 2.214.004 3.962.191 5.327.666-.747 3.493-4.369 3.657-7.325 4.661.982 2.487 4.085 4.385 5.993 5.993v.666h.666l.666-3.996c-2.573-.069-3.383-.151-4.661-1.331-1.149-.43-.652-.13-1.332-.666 2.179-.46 3.927-.734 5.993 0 .619-1.762.73-4.624.666-7.325h1.997c-.081 32.734-19.263 51.416-42.614 61.258-11.788 4.969-33.252 6.746-46.609 1.332-24.649-9.989-37.546-27.368-43.946-55.931-2.752-12.278 2.238-25.262 5.327-32.626 6.466-15.418 21.962-32.481 42.427-39.234-3.656.804-7.349 1.543-9.8 2.612-15.888 6.93-28.552 21.8-35.29 37.954-2.403 5.763-1.774 11.005-3.329 17.978-1.461 6.548-.218 15.182 1.331 20.642 6.919 24.38 18.741 38.691 40.617 47.941 7.517 3.178 21.36 8.367 33.959 5.326 27.327-6.6 45.325-20.179 55.265-43.946 6.437-15.39 3.709-37.339-1.998-50.604-11.284-26.231-32.356-41.789-70.581-41.285zm74.575 66.585c-2.273.562-1.693.331-2.663 1.997-2.376.014-4.5-.147-5.993-.665.266-1.369.165-1.284.666-1.998 2.419-1.182 4.575.796 6.659-1.998h1.331v2.664zm-84.75-63.204c2.474-.544 4.925-1.12 6.971-1.848a59.636 59.636 0 0 0-6.971 1.848zm16.834 4.609h.666v3.329h1.997c-.321-1.843-.803-1.923 0-3.329 1.276-.611.49-.266 1.998 0v-.666h.666v-1.332l-3.33.666v-3.995h-1.997c.457 1.443.852 1.969 0 3.329-.992.428-.289.828-1.332 0h-1.332v1.998l2.664-.666v.666zm7.324 5.327H74.085v1.998c-1.544.151-1.878.131-2.663.666h-.666c.988-1.646.279-1.055 2.663-1.332-.854-.585-1.644-.616-3.329-.666v1.998c-2.796.342-5.67 1.128-7.325 2.663h-1.331c1.613.955 5.348-.263 5.992-1.331h1.332c-.878 1.617.311.469-1.332 1.331v2.663h.666v-.665c3.593-.11 4.389-.416 4.661 1.331l3.33-.666v1.998c-2.572.517-4.69.954-6.659-.666v-1.332c-.724-.548-.295 1.898-1.998 1.332v-1.332l-3.329.666-5.327-1.997c-1.629 1.57-3.906 2.19-5.327 3.995-1.628.921-1.47 8.153-3.995 11.32v.666c2.325-1.352 2.576-4.944 4.661-6.659 1.162-.898 1.125-.048 1.997-.666 1.051-1.492-.279-1.274 1.332-2.663v-.666c-2.09.708-2.943 1.659-3.995 3.329h-.666c1.205-2.857 2.533-4.384 3.995-6.659H62.1c-.685.538-.164.246-1.332.666 1.758.875 2.126-.585 4.661 0 4.418 1.02 10.988 3.232 14.648 5.327 1.542.883 4.212-1.941 5.993.666 2.004-.804 1.5-3.068 2.663-4.661v-2.664c-.537.686-.246.164-.666 1.332h-.666c.501-3.918 2.726-15.751.666-18.644-.429-1.149-.13-.652-.666-1.332-.94 3.248-3.028 6.139-.666 9.322v1.332zm-9.322 11.319h-.666v.666h-1.332v-1.332h1.998v.666zm-.666-4.66c-3.133-1.289-3.162-.612-7.324-.666v-2.663c3.015-.295 3.708-1.112 5.327.666 0 0 2.612-.15 1.332-.666h-.666v-.666h1.998c-.892 2.55-.662.824-.667 3.995zm-.665-5.993h9.988c-1.617 1.135-8.374 1.151-9.988 0zm8.655 10.653v.666c.898-1.162.048-1.125.666-1.998v-1.332h.666c-.088 2.567.014 2.838-1.332 3.996-.447.27-2.515.06-4.661 0 .716-.504.615-.418 1.997-.666-.59-1.402-.984-1.79-1.997-2.664 1.263-2.019 1.365-1.047 3.329-.666-.266-1.367-.166-1.283-.666-1.997-.836-.503-.637-.05-2.663 0 .688-1.811.955-1.466 1.997-2.663.904-.762-.21-.338-.666-1.998 1.417.525 3.704 1.036 5.328 1.332-.532 2.914-.481 3.871-2.664 5.992.266 1.369.166 1.284.666 1.998zm2.664-15.314c-.538-.782-.536-1.114-.666-2.664.537.783.536 1.114.666 2.664zm-30.63 7.325c1.951-.739 2.215-1.276 5.327-1.332l.666-1.998c.505-2.315-2.769-2.393-1.331-5.327v-1.332h2.663c.714 2.791 1.962 4.87 0 6.659v.666c2.428-.579 6.036-1.911 7.325-1.332 2.371-.221 2.219-.042 3.329-1.332.537-.685.246-.163.666-1.331-1.202-1.039-.833-1.329-2.664-1.998l2.664-4.661h-1.332c-1.345 1.452-1.499.779-4.661.666v.666h-.666c.375 3.161 1.042 2.496 1.998 4.661-.833.895-.941 1.168-1.332 2.663-1.536-.216-1.654-.309-2.664-.666-.332-2.787-1.404-4.054.666-5.327v-1.331c-4.09.95-6.608 2.593-11.32 2.663v.666h-.665c.676 4.85 3.08 3.46 1.331 8.657zm16.647-6.659c-.98 1.658.164.78-1.997 1.331v-1.997h1.331v.666h.666zm-2.663-5.327l1.997.666c-.847 1.928-2.158 1.161-1.997-.666zm-9.322 7.99v1.332l-1.998.666c-.365-1.014-.47-1.112-.666-2.664h1.998v.666h.666zm-3.33-4.661c1.149.43.652.131 1.332.666h.666v1.332h-2.664l.666-1.998zm35.291 5.327c2.497-.241 2.476-.517 3.995-1.332-.376-2.109-.585-1.937-1.331-3.329 1.373-.86 1.518-1.414 3.329-1.998-.909-1.592-3.361-2.268-5.327-2.663-1.565 3.186-.354 5.224-3.329 7.324.77 1.87.969.425 2.663 1.998zm1.331-7.99l1.998.666c-.43 1.149-.131.652-.666 1.332v.666h-1.332v-2.664zm.666 4.661c-.266 1.368-.166 1.283-.666 1.997v.666l-1.332-.666-.666-1.331c1.015-.366 1.113-.471 2.664-.666zm5.993 5.327h1.332c-1.581-3.151-.416-5.396 1.998-7.99l-4.661-1.332c1.245 2.316 1.515 6.111-1.998 7.325.888.835 2.369 1.226 3.329 1.997zm3.995 1.998c3.141.049 3.75.321 4.661-1.998.538-.685.246-.164.666-1.332-.829-.446-1.377-.724-1.998-1.332h-1.332c.446.83.724 1.377 1.332 1.998-.583.784-.538.754-1.332 1.332-.413.522-.021.167-.666 0h-1.331c.454-2.971 1.475-3.963 2.663-5.993h1.332c1.028 2.116.71.817.666 3.329.829-.446 1.377-.724 1.998-1.332h1.331c-1.568-1.406-3.69-2.752-5.993-3.329-1.069 1.225-2.171 2.817-3.329 3.995.132 2.774.464 3.051 1.332 4.662zm-61.258 7.989c2.47-2.683 6.085-4.088 8.656-6.659h.666c-1.666-1.356-3.072-2.766-4.661-3.995.216-1.536.309-1.654.666-2.664 2.741.663 3.448 2.669 3.995 5.328h2.663c-.979-1.659.164-.781-1.997-1.332-.056-2.994-.418-3.634-1.332-5.327-3.38.139-4.96.947-6.658 2.663h-.666c.115.499 3.157 4.241 4.661 5.327l-1.332 1.998c-3.294-.555-4.478-2.397-4.661-5.993-1.568 1.376-2.054 2.093-4.661 2.664-.792 4.081.638 6.902 4.661 7.99zm.666-5.326v.666h.666v2.663c-2.076-.403-1.62-.114-2.664-1.332h-.666v-.666c.784-.582.754-.538 1.332-1.331h1.332zm-3.996-1.998h1.998v.666h.666c-.583.785-.539.754-1.332 1.332v.666h-1.332c-.217-2.075-.226-1.051 0-2.664zm69.249 0l.666 1.998c1.486.423 1.759.491 2.663 1.331.921-1.54.463-3.563 2.664-5.326 1.163-1.755.045-.927 1.998-.666-.833-1.724-2.41-2.467-3.995-3.33l.666 2.664c-1.98 2.169-1.519 3.896-4.662 3.329zm-17.312-3.329c-.934-.64-2.184-.67-3.995-.666.933.639 2.183.671 3.995.666zm-23.305.666c-.782-.537-1.114-.536-2.664-.666.782.537 1.114.535 2.664.666zm23.305-.666c.782.538 1.114.536 2.664.666-.783-.537-1.115-.536-2.664-.666zm-25.969 1.332c-.716-.505-.615-.418-1.997-.666.716.504.615.418 1.997.666zm11.299 43.96c.287-.844.539-1.688.686-2.676-.922 1.896-.761 1.055-.686 2.676zm-49.252-8.67l-1.332 7.324c.504-.716.418-.615.666-1.997 1.525 2.364.482 7.003 1.332 9.988.866 3.042 2.752 5.375 3.995 7.99h.666v.666h.666c-.342-1.644-.61-2.447-.666-4.661-.58.493-.751.838-1.332 1.331v-.666h-.666v-.666c2.471-.425 1.738-.406 4.661-.666.518-2.851 1.567-5.318.666-7.325.62-1.604.729-1.049 1.332-2.663 1.771.998 1.533 2.497 2.663 3.995-.298 1.982-.336 2.248-1.331 3.33-1.276.611-.489.266-1.998 0 .291 1.587.505 4.236.666 4.66-.988 1.646-.279 1.055-2.663 1.332 1.027 2.116.71.817.666 3.33.784-.583.754-.539 1.332-1.332.767 1.211.478 3.577.666 3.995.685.537.164.246 1.332.666 2.313-2.787 5.877-5.137 7.324-8.656 1-.522.632-3.354 2.664-5.993 1.073-.642.063-.039 1.998 0-.857-1.224-1.323-1.125-1.998-2.664h.666c.429-1.149.13-.651.666-1.331.986 3.604 5.345 8.873 1.998 13.316-1.066 2.099-.436.808-2.663.666.902 1.064.407.771 1.998 1.332-.609 1.436-.578.968-1.332 1.997 0 0-3.35 11.339-3.329 15.314-2.573-.069-3.383-.151-4.661-1.332-1.037.757-.54.733-1.998 1.332.012 4.115.556 7.756-.666 11.32 3.018 1.984 7.913 5.692 9.988 8.656 0 0 2.612-.15 1.332-.666h-.666v-.666H64.1v1.332h1.332c8.297-1.366 21.535-2.475 31.96-.666 4.471.775 10.582-2.592 14.649 0 2.944-3.102 6.906-4.998 9.322-8.657.784-1.258.188-8.159-.666-9.321-1.563-2.613-8.824-2.189-9.988-1.332h-1.332v-5.992c.784.582.754.537 1.332 1.331 1.037-.757.54-.733 1.998-1.331-.567-5.138-1.982-9.66-2.664-11.986-1.19-4.064 1.478-5.583 0-6.659v-5.993h.666c.425 1.188.583 5.858.666 5.993 1.663 2.706 4.894 5.342 5.992 8.656h1.332c-.661-1.263-.917-1.829-1.998-2.663v-.666c3.448.797 2.453.042 5.327.666-.39-1.811-1.028-3.098 0-4.661v-.666c-1.646.988-1.055.279-1.332 2.663-1.618-.878-.47.312-1.332-1.332-.504.716-.418.615-.666 1.998-1.845-1.577-1.099-2.235-3.329-.666h-.666c-.859-3.05-2.273-4.964-2.663-8.656 1.367.265 1.283.165 1.997.666h.666l.666-1.998-1.332-.666c-1.276-.611-.489-.267-1.997 0-.524-1.483-.71-3.621-.666-5.993h11.319l-.665 1.332c1.536-.216 1.653-.31 2.663-.666.599 1.919.315 4.925 1.998 5.992-.093 3.079-.204 3.419-1.998 4.662v3.329c.855-1.125.926-2.393 1.998-3.329v-.666c1.863 1.031 1.36 1.716 1.332 2.663-.429 1.149-.13.651-.666 1.332-1.652 1.743-1.595-.389-1.332 1.997h-1.998c-.812-3.544-.807-4.218-.666-8.656h1.998c-.803-1.929-.232-.544-1.998-1.332-.406 1.146-.621 2.094-.666 3.996-1.775-.223-3.551-.443-5.327-.666.266-1.368.166-1.284.666-1.998 1.069-2.104 3.044-1.961 5.327-2.663-.406-2.282-.775-2.064-1.331-3.996h-1.998c-.581 2.142.361 1.029-1.332 1.998.716.504.615.418 1.998.666-.876 1.522-1.432 1.035-2.664 1.998-.534-.654-.466-1.194-.666-3.33h-.666v-.666h-1.998c.604 2.309 2.325 4.29.666 5.327.685.537.164.246 1.332.666-1.103 1.794.108.671-1.998.666 1.308 1.663 3.012 1.936 3.995 3.995.011.85.442.337-.666 1.332v1.332h.666c.902-1.064.407-.771 1.998-1.332-.585-1.571-.25-1.099-1.332-1.997v-1.332c1.014.365 1.113.47 2.664.666.19 2.835.679 6.181 1.331 7.324-1.179 1.589-1.992 3.143-3.995 3.995l2.664 3.33c3.071-1.021 5.744-4.164 6.658-7.325 1.772.6 1.3 1.661 2.664.666 1.797-.563-.569-1.041-1.332-1.332 1.841-6.417 3.002-11.297 2.663-19.31-8.757-.025-13.823-.862-21.973.666-1.139-3.541.637-7.513-1.332-10.653 1.285-.704.771-.213 2.664 0-2.41-3.22-3.254-5.079-3.33-10.654-1.894.593-2.947 1.265-3.995 2.663-1.796-.614-1.95-1.143-3.329-1.997l-.666-1.998c2.218-1.278 6.498-5.001 3.995-8.656-.133-1.728-.294-2.261-.666-3.329-.718-.61-.061.055-.666-.666h-.666c.422 1.486.491 1.759 1.332 2.663.188 4.223.177 6.727-2.663 7.99v.666c-1.294-.736-.625-.103-.666-1.332-1.75-1.527-2.727-1.097-3.995-1.998-.538-.685-.247-.164-.666-1.331h.666c1.469-.564.746-.519 1.997.665h.666c-.266-1.368-.166-1.283-.666-1.997v-1.332c1.536.216 1.654.31 2.664.666-.376 2.11-.585 1.937-1.332 3.329h.666v1.332c1.978-2.476 1.019-5.842.666-9.322l-3.996-1.332v-.666h-.665v-.665c2.314.323 3.379.747 4.661 1.997h.666c.43-1.149.13-.652.666-1.332v-.665c-1.895-.422-4.019-.958-5.327-1.998-2.343.514-1.641.854-3.995 1.332 1.795 2.124 3.699 2.712 7.324 3.995v2.663c-6.382.129-3.27 1.609-6.659 4.661.75 1.74.423.841 2.664 1.332v.666c-2.692-.277-2.613-.737-4.662-1.332V180.5c1.268-.887.564-.882 2.664-1.331-.736-2.328-1.94-1.165 0-2.664v-.666c-2.152.293-3.091.973-4.661 0h-.666c.43 1.149.13.652.666 1.332-.111 4.915.959 5.135 3.995 6.659-.358.871-.243.479-.666.666-3.912.649-1.042 2.361-3.995 4.661v.665c3.197-1.03 1.375-2.59 3.329-3.995 3.008-2.162 3.379 1.8 5.993-2.663 1.773 2.319 2.391 6.144 1.998 8.656 1.064-.902.771-.407 1.332-1.998h.666c-.614 1.797-1.144 1.95-1.998 3.33h-.666l.666-1.332h-1.998c.43 1.149.13.651.666 1.332-.216 1.536-.309 1.654-.666 2.664-1.544-.151-1.878-.132-2.663-.666h-.666c-.316-1.856.391-.749 1.332-1.332v-.666c-3.713.396-1.27.466-3.33 1.998v.666h-1.332c.234-3.124.808-2.825 1.332-5.327 4.127-.08 3.458-.207 3.33 2.664l1.331-.666c.648-2.008-.277-1.926 1.998-3.329v-.666c-2.1.602-3.881 2.037-5.993.666h-1.998l.666 1.997-1.997 1.332-2.664-.666c-.035.026-.663 2.658-.666 2.664H86.07c.536-2.69 1.394-2.917 3.329-3.996-1.285-.703-.771-.213-2.663 0 .799-2.148 3.149-3.907 1.331-6.658 1.276-.612.489-.266 1.998 0-.586-1.92-.973-1.702-1.332-3.995-1.532 1.859-1.466 4.879-.666 7.324-1.505.815-1.493 1.138-3.995 1.332 1.71 2.435 1.97 9.848 0 12.651-.008.01.006 1.326-.666.666v-.666c-4.483-3.539-.019-15.616 1.998-17.312v-1.332c-1 .688-1.318.986-1.998 1.998-1.558.832-4.592 12.331-1.998 15.98v1.332l3.33.666c.038 3.655.094 17.067-1.332 19.31v5.993c-.785-.583-.754-.539-1.332-1.332 0 0 .356-17.161 1.332-18.644-.016-1.816-.026-3.052-.666-3.995-2.082-1.616-3.298-.871-6.658-.666-.3 2.604-1.975 2.547 0 3.329-.787 2.388-2.248 3.904-4.661 4.661v1.332c1.796-.614 1.949-1.143 3.329-1.998.377-.442 2.492.13 3.994 0 .162-1.087.197-2.348 0-3.995-.784.583-.754.539-1.332 1.332h-.666v-3.995h5.327v12.651c-2.271.141-3.399.319-4.661 1.332h-.666c.27-1.646.689-2.858 1.086-3.995h-.42v.666c-3.403.195-4.483.886-5.992-.666h-.666c.533 1.741.826 1.578 1.331 3.329 1.506-.814 1.494-1.138 3.996-1.332v1.998h-.666v.666c-2.708-.153-2.564-.326-3.995-1.332-.649 2.64-1.705 4.951-3.996 5.993-1.522.836-4.648-.609-5.992-1.997-.672-1.418.303-2.91.666-5.328 1.427.911 2.367 1.856 3.995 2.664v-.666c-.118-.52.204-.437-1.331-1.332.266-1.368.165-1.283.666-1.997v-.666h.665c.38 1.069.559 1.59.666 3.329 1.604-1.042 2.966-2.379 3.996-3.995h.666v-.666c-2.006.688-1.977 1.343-3.996 1.998-1.152-1.977-2.51-2.342-3.329-4.661-.585-.855-.617-1.643-.666-3.33h1.998c-1.643-1.911-2.157-2.752-1.332-4.661.069-4.309 1.018-3.91 3.995-4.661-.558-1.028-1.254-2.993-1.998-3.995-1.048-1.243-1.74-.844-3.995 0-.83-1.609-1.771-2.563-2.664-3.995-.98.473-1.69 2.304-2.664 3.995l-5.327-.666c-.304 4.22.051 7.412 1.998 9.987-.228 2.991-.268 3.205-2.663 3.995v.666h.666c.008.01-.006 1.325.666.666v-.666c1.313-.939 1.404-.876 1.998-2.663.566-1.12.319-2.061-.666-3.33v-1.332c1.149-.43.652-.13 1.332-.666.704 1.285.213.771 0 2.663h.666l1.331-2.663h1.332c-2.073-1.521-5.188-1.887-5.993-2.664-.358-.776.134-1.385 0-3.329 1.109.223 2.22.444 3.33.666v.666h.665c-.583.784-.538.753-1.331 1.332v.666h3.329c-.878-1.617.311-.469-1.332-1.331.623-1.767.663-1.734 1.998-2.664v-.666h.666c.902 1.064.407.771 1.998 1.332-.581 2.143.361 1.028-1.332 1.998v1.331c3.303-.423 1.321-.215 2.663-1.997.833-.657.817.143 1.998-.666 1.626.704 1.062.706 1.331 3.329-2.464.446-2.185.936-4.66 1.332.716.504.615.418 1.997.666-.406 1.146-.621 2.093-.666 3.995-1.234-1.582-1.975-3.792-1.997-4.661h-1.998c-.637 2.382-1.308 3.313-1.332 6.659H55.44v.665h-.666c-.005 3.778.439 4.583 2.663 5.993.058 2.849.127 4.072-1.332 5.327-.685.537-.163.246-1.331.666-.8-1.017-1.731-2.4-2.664-3.329.184-2.771.399-3.43 1.998-4.661V207.8h-.666l-1.332 2.663c-1.755-1.162-.927-.044-.666-1.998-5.051-2.116-14.077-1.134-16.646-1.998-1.91-.641-3.983-1.631-5.991-1.996zm98.546 9.321h-.666v-1.332h.666v1.332zm-4.662 19.976s-.564.271-.665-.666c-1.041-.832.004 0 0-1.332h.665v1.998zm2.664-24.637c2.219-.222 4.439-.443 6.658-.666v2.664c-1.676-.439-.361-.191-1.997 0v1.998c.537-.686.246-.164.666-1.332h1.331c-.914 1.588-1.899 3.539-3.329 4.661v1.332c1.193-.823 1.656-1.724 2.664-2.664v-1.332h.665c-.031 7.801-2.681 14.755-7.324 17.978v.666h-1.332c.726-1.664 1.249-1.941.666-3.329.423-3.302.215-1.322 1.998-2.664 1.834-.867 2.032-2.045 3.329-3.329-.507-5.569-1.771-5.046-1.332-11.32h-1.998c-.266-1.368-.166-1.284-.666-1.997v-.666zm-33.959-29.297c-.504-.717-.418-.616-.665-1.998.87.359.479.243.665.666v1.332zm-37.287 56.598h1.332v2.663h-1.332v-2.663zm0 3.994c2.967.497 8.774 2.836 11.985.667 1.896.072 2.847.266 3.996.665v1.332c-6.081.154-10.415 1.332-15.98.666.483-1.649.471-1.685-.001-3.33zm4.662-3.329v3.329h-1.998v-.665h-.666c.151-1.544.132-1.878.666-2.664.008-.01-.006-1.325.666-.665v.665h1.332zm1.331-3.995c-.151 1.543-.131 1.877-.666 2.664-.007.009.006 1.325-.666.666v-.666h-1.332v-3.33h1.998v.666h.666zm9.322 3.995v3.329H66.76v-3.994c1.015.365 1.113.469 2.664.665zm-1.998-1.331v-2.664h1.332v2.664h-1.332zm-.666 0h-2.663v-2.664h2.663v2.664zm-1.331 1.331c.266 1.368.165 1.283.665 1.998-.877 1.617.312.469-1.331 1.331-.686.537-.164.247-1.332.667v-.667h-.666c.98-1.658-.163-.78 1.998-1.331-.716-.504-.616-.418-1.998-.666v-1.332h2.664zm-1.998-1.331h-.666c-.685.537-.163.245-1.331.666v-.666h-.666v-2.664h2.663v2.664zm-1.331 1.331c-.98 1.659.163.78-1.998 1.332.716.504.616.418 1.998.666v1.998h-2.664v-3.996H62.1zm-7.325 10.654v-2.664c6.135-.048 10-1.137 15.314-1.332v1.997l-15.314 1.999zm15.315-.667c-.376 2.11-.585 1.937-1.332 3.33H66.76v-3.33h.666v-.667c1.536.219 1.655.311 2.664.667zm-6.659 4.662c-1.147.591-.852.585-1.997 0h1.997zm-2.663.665c-.698-1.019-.706-2.727-.666-4.66h1.332l-.666 4.66zm1.332-1.331v-.666c1.486-.422 1.759-.491 2.664-1.332h1.331l-.665 1.998H62.1zm0-1.333c.478-2.081.439-1.396 1.332-2.663l1.998.667c-.775.772-1.884 1.232-2.664 1.996H62.1zm-9.322-17.311c1.543 2.506-1.059 9.41-2.664 11.319v1.332h-1.332l3.996-12.651zm.665 6.659v7.99c-1.014-.365-1.112-.471-2.663-.667.287-2.347.816-4.522 1.998-5.992v-1.331h.665zm-9.987 8.656h3.329c.208 3.865 1.178 3.772 2.664 5.992h1.332c-.917-1.403-1.914-2.425-3.33-3.329v-1.332c2.879-.995 8.057-.748 11.985-.666v2.664h-.666c-1.209.823-3.809.743-5.993.666l1.332 1.997c1.135-.374 1.037-1.216 1.332-1.332 2.885.445 5.771.888 8.656 1.332 1.032-.283 1.879-2.285 2.663-2.663h3.33l1.332-2.664c2.116-1.056 5.673.344 7.324-.666h.666c-.83 1.713-1.661 1.906-3.329 2.663 1.099 1.253 2.884 1.424 3.995 2.662h.666c-.771-1.881-.085-1.251-1.998-1.996 1.215-2.446 4.1-2.929 5.993-4.662h.666c-.446.83-.724 1.378-1.332 1.999v1.331h.666c1.089-2.276 1.943-3.825 1.998-7.324h.666c.43 1.149.13.652.666 1.332.172 6.786-3.702 7.986-7.324 9.321.902 1.065.406.772 1.997 1.334-1.847 1.222-29.297.665-29.297.665-1.373-.153-.654-.172-1.332-.665h-.666v-.667c-.538.685-.246.163-.666 1.332h-1.332c-1.271.537 1.332.665 1.332.665v1.997c-1.542-.743-1.21-.62-1.998-1.997-1.231-.837.093-.326.666-1.33l-5.993-5.328v-1.331zm49.273-19.976c-1.701-.392-3.578-1.193-5.992-1.332v-4.661c2.473 1.261 8.497 5.037 11.985 2.664h4.661c.43 1.149.131.652.666 1.332v1.998c-2.729-.907-5.267.138-8.254.263 3.166.13 6.195.282 8.92.403v1.997c-3.02-.409-14.741-1.227-16.646 0h-.666c-.174.05-.275.098-.325.145.014.056.027.113.042.167.334.213 1.615.354 1.615.354v2.664h-.666c-.342-1.283-.692-2.046-.949-3.018-.082-.052-.106-.108-.042-.167-.177-.718-.304-1.562-.34-2.808 2.374.031 4.754.1 7.079.186a10.97 10.97 0 0 1-1.088-.187zm-5.327-11.985c.07-1.686.081-2.466.666-3.329v-.666c.64.934.671 2.184.666 3.995.538-.781.536-1.113.666-2.663h1.332v.666h.665v3.329H89.4c-.266 1.368-.166 1.284-.666 1.998v2.663h-.666v-.665c-2.162-2.048.67-1.48-1.331-2.664.936-2.827.051-1.432 2.663-1.332-.903-1.065-.407-.771-1.998-1.332zm5.327-13.317c.359-.466 2.7-1.154 3.996-3.329l1.997.666v1.998c-2.224.249-1.112.182-3.329 0 .583.784.538.754 1.332 1.332-.882 2.121-.557 1.778-3.33 1.998 1.595 1.363 2.031.729 3.995 1.331v.666c-2.237.252-1.387.134-3.995 0 .619.606 1.161.899 1.998 1.332v1.332c-3.729-.12-1.833-.507-3.33-2.664-.845 1.067-1.908.558-2.663 0h-.666c.599-1.33 2.431-2.478 2.663-2.663v-.666c.458-.59 1.274 1.267 1.332 1.332.662-1.042-.683-1.779 0-2.665zm12.651 11.319c.342-1.646.61-2.447.666-4.661h1.331c.072 2.056.392 2.688 0 3.329v2.664c-1.348-.466-2.063-.238-2.663-.666-2.8-2.258-1.348-3.326-.666-6.659l1.332.666c-.341 2.113.042 2.865-1.332 4.661v.666h1.332zm0-7.99h1.331v2.664h-.665c-.365-1.015-.471-1.113-.666-2.664zm3.329 17.312h.666v3.995c-1.617-.879-.47.312-1.332-1.332-.692-1.507-.105-1.064.666-2.663zm-1.332.666h-.666c.478-2.082.44-1.396 1.332-2.663h.666c-.495 1.544-.691 1.487-1.332 2.663zm1.332-5.327c-.581 2.142.361 1.029-1.332 1.998-.685.537-.164.245-1.331.666-.369-.837-.801-2.011-1.332-2.664.872-1.601 1.357-1.572 3.329-1.998v-2.663h1.332c-.409 1.821-1.115 3.836-.666 4.661zm-5.993-9.322v.666c-.375 1.312-.666-1.332-.666-1.332-.611-1.276-.266-.489 0-1.998h1.332c-.151 1.545-.132 1.879-.666 2.664zm-.666 2.663v1.332c-2.162.356-9.783 1.846-12.651-1.998-.611-1.276-.266-.489 0-1.998 5.075 1.445 5.714 2.433 11.319.666.447.83.724 1.378 1.332 1.998zm-3.329 6.659c-.429-1.149-.13-.651-.666-1.332.266-1.368.165-1.284.666-1.998v-.666h.666c.676 1.468 1.064 1.89 1.332 3.995h-1.998zm2.664.666c.337 1.416.596 2.408 1.332 3.329-.98 1.658.164.78-1.998 1.332-.258-2.151-.813-2.57 0-3.995v-.666h.666zm-6.659-3.995c-.266 1.368-.165 1.283-.666 1.998v1.332h-1.332v-.666h-.666v-3.329h1.998v.666h.666zm-1.331 3.995h1.998v.666h.666v3.995h-3.33l.666-4.661zm1.997-.666v-3.995h1.997v3.995h-1.997zm1.332.666h2.663v4.661h-2.663v-4.661zm-4.661-.666v4.661l-2.663-.666.666-4.661c.665.223 1.33.444 1.997.666zm15.314 18.644h.666c.084 2.867.499 7.563-.666 9.321-1.024 2.018-.801.831-3.329.667 1.423 1.338 2.825.846 4.661 1.998 1.16.728 1.684 3.008 2.664 3.994v1.334c-1.149.428-.652.129-1.332.665H94.726c.583-.784.538-.755 1.332-1.332 1.411-.725 7.419 1.209 9.322.667.176-.051 1.997-1.999 1.997-1.999l1.332 1.999h1.332c-1.601-2.358-4.271-3.159-5.993-5.328h-1.332c.798 1.205 1.448 1.876 2.664 2.664v1.33c-3.627-.418-4.605-2.002-7.325-3.329.069-2.325.225-5.331-.666-6.657-.02-1.941-.033-3.63.666-4.661.836-.503.638-.05 2.664 0 .609.718-.056.061.666.666-.162 3.274-1.457 7.093 0 9.322v.666h1.332c-1.291-2.427-1.105-3.378-.666-6.659h1.998l1.332-11.319h.666c.747 3.161.989 3.921.665 7.325.537-.687.246-.166.665-1.334zm-5.992 18.643v1.997h-1.332c-.686.538-.164.247-1.332.667-.365-1.015-.47-1.113-.666-2.664h3.33zm-17.978-1.997c-.229-.085 3.948-3.82 5.327-4.661-.081-4.326-.941-8.417 0-11.319h3.329v.666h.666c.046 2.944-.008 4.557-1.332 5.993.156 5.975-.956 5.792-3.329 8.654h-.666c.919.606 3.194.941 5.327 1.334v.665c-3.677.131-5.045.458-5.327-1.332-2.151.258-2.57.813-3.995 0zm3.995 1.997v1.997H86.07c-.685.538-.164.247-1.332.667-.365-1.015-.47-1.113-.666-2.664h3.33zm1.997-21.306l.666-3.996c.58.493.75.839 1.331 1.332-.151 1.544-.131 1.878-.665 2.664v.666h-.666v-.666h-.666zm1.332 1.332v1.331l-2.664-.665V235.1c.889.221 1.776.443 2.664.666zm6.658 7.989c-.282 4.775-.455 7.044 3.33 7.991v1.33c-2.845-.353-4.462-1.069-5.993-2.662-2.813-4.374-.534-14.827 0-18.644h1.332c.08 3.981-.476 9.627 1.331 11.985zm1.998-13.317c1.077 1.768.702 3.292 1.353 4.6.392-1.119.601-2.067.645-3.934h1.332c-.07 1.687-.082 2.467-.666 3.33v.666h-1.281c.248.472.633.916 1.281 1.332v1.331l-4.661-.666c1.066-2.099.436-.807 2.664-.665-.985-2.111-1.538-3.472-.667-5.994zm4.661 4.662c-.222 1.775-.443 3.552-.666 5.326-.759-1.111-.728-3.269-.666-5.326h1.332zm-6.659-3.996c.64.934.671 2.185.666 3.996-1.233-1.55-1.047-2.349-.666-3.996zm-3.994 15.314c-.07 1.688-.082 2.468-.666 3.329v.667h-.666v-3.996h1.332zm-.666-11.984v.666h-.666v-3.996h1.332c-.07 1.687-.082 2.467-.666 3.33zm-1.998 21.306h3.329c-.266 1.368-.165 1.282-.666 1.997v.667c-1.572-.586-1.099-.25-1.998-1.332h-.665v-1.332zm0-2.664c.609-1.435.577-.968 1.331-1.996h.666c.646 1.341.301-.408 1.332.666h1.332c-.43 1.149-.13.65-.666 1.33-.334.38-1.479.134-3.995 0zm-3.329-13.981c-.585-.854-.617-1.644-.666-3.329.586.854.617 1.642.666 3.329zM72.753 255.74c-.216 1.536-.309 1.655-.666 2.664-1.368-.265-1.283-.166-1.997-.667-.504-.715-.418-.614-.666-1.997 1.647.485 1.684.472 3.329 0zm-30.629-6.658l3.33 2.664-.666 1.33h-2.664v-3.994zm8.656 15.314c-2.973-.837-4.723-2.785-6.659-4.66-1.356-2.207.816-2.028-1.998-3.33.266-1.367.166-1.283.666-1.996.867-.679 1.357.119 2.664-1.334 1.149.431.652.131 1.332.667.855 1.124.926 2.393 1.998 3.329-.266 1.368-.166 1.284-.666 1.997-1.072.643-.063.039-1.997 0 .852 1.641 3.028 3.148 4.661 3.996v1.331zm22.639 0c-7.147-.099-11.662-.158-18.644 0 .385-1.814 2.806-5.307 3.995-5.992v-1.332c-1.386.751-1.206.994-3.329 1.332.651 2.48-.231 3.578-1.998 5.326-.685.538-.164.246-1.332.666-.365-1.014-.47-1.112-.666-2.663h-1.997l-.666-1.997c1.176-.649 1.1-.86 2.663-1.332v-1.998c2.414.493 1.849-.065 2.664 1.998h1.332l-.666-.667c.266-1.368.165-1.282.666-1.997 1.883 1.455 4.42-.86 5.993 2.664 1.794-1.102.67.107.666-1.998 1.544-.15 1.878-.131 2.664-.666.751 1.343.344 1.195 0 2.664 1.767-.787 1.386-1.298 3.329-1.998.891 1.673.698 1.927 2.664 2.663-.492 2.414.066 1.849-1.998 2.664v1.997c1.081-.831 1.611-2.352 2.664-1.331 1.436.609.968.576 1.997 1.331v.666zm7.325 0h-3.996c.596-1.885 2.672-5.216 3.996-5.992v-1.332c-1.386.751-1.206.994-3.33 1.332.734 3.02-.53 2.318-1.332 5.326h-1.998c-.871-1.525-1.118-1.81-2.663-2.663.516-2.171 1.301-2.806 2.663-3.995 1.59-.608 1.135-.628 1.998 1.332h1.332c-.365-1.015-.47-1.113-.666-2.664 3.718.133 3.686.642 5.993.666.891 1.673.699 1.927 2.664 2.663-.615 2.821-1.353 1.98-1.998 4.661-2.698.02-1.594-1.16-2.663.666zm7.323 0h-3.995c.585-1.571.25-1.099 1.332-1.997.943-1.084 1.354.067 1.998 1.331h.666c-.561-2.272-.331-1.693-1.997-2.663.615-2.82 1.353-1.979 1.997-4.661h1.998c.622 1.769.662 1.734 1.997 2.663-.412 1.953-.907 2.805-1.997 3.996-.512.459-1.484.877-1.999 1.331zm6.659 0h-3.995c.365-1.014.47-1.112.665-2.663h1.998c.446.829.724 1.377 1.332 1.997v.666zm1.998-1.331c-.686.537-.164.246-1.332.665-.809-1.582-1.249-2.358-2.664-3.329.776-1.714 1.772-2.288 2.664-3.995 2.194.874 1.791 1.812 3.995 2.663-.516 2.171-1.302 2.807-2.663 3.996zm5.326 1.331h-4.661l1.332-2.663h1.998c.446.829.724 1.377 1.332 1.997v.666zm16.647-4.66c-2.307 1.182-4.317 2.848-5.993 4.66h-.666c.422-1.485.491-1.759 1.331-2.663v-.666c-1.702.844-1.445.69-1.997 2.663h-1.332c-1.192-2.187-2.28-2.218-2.664-5.326-1.666.957-.997 1.707-2.663 2.663v1.998c.538-.685.246-.164.666-1.332 3.016.318 2.416.618 3.995 1.997v.666c-3.853-.069-4.456-.642-6.659-.666-.892-1.672-.698-1.927-2.663-2.663.491-2.477 1.121-2.767 2.663-3.995 1.498-.291.919-.425 1.998 1.332h1.332c-.583-.784-.539-.755-1.332-1.332v-1.332h3.995c-.585 1.571-.251 1.099-1.332 1.997v.667c1.882-.771 1.252-.085 1.998-1.998 2.706.58 3.717 1.6 3.995 4.661 1.069-.379 1.59-.558 3.33-.666v-1.332h-2.664v-1.997l-1.332.665v-.665h-.666c.609-1.436.577-.969 1.331-1.997 1.794 1.102.671-.109.666 1.997h.666c.34-.87.813-2.62 1.332-3.329.776-.358 1.386.133 3.329 0 .61.718-.055.061.666.667-.572 2.155-1.148 2.586-1.33 5.326zm0-11.985c-.583.784-.539.754-1.332 1.331v1.332c.784-.582.754-.539 1.332-1.332h1.332v3.994c-3.016-.316-2.416-.616-3.995-1.996-.888 1.108-1.775 2.219-2.664 3.33-2.075-1.209-2.086-3.864-3.995-5.328v-1.331h9.322zm-7.324-9.988v2.663h-.666c-3.736-7.848-8.159-16.952-9.988-25.967h1.998c1.298 4.859 6.048 19.832 8.656 23.304zm-11.32-42.614h2.64c-.223-.488-.639-1.068-1.309-1.998 1.581-1.016 3.535-2.498 4.661-3.995h1.331c.354 4.76 2.101 7.247-.666 10.653v1.332c-2.566-.401-2.958-1.012-4.661-1.997.729-2.366 1.09-2.987.655-3.968-.716 1.893-1.222 1.537-1.986 3.302.792.754 1.429 1.691 1.998 2.663 1.149.43.652.13 1.332.666 2.708-.154 2.564-.327 3.995-1.332v-1.332h.666c-.086 3.143-.639 8.668.666 10.653v.666h-1.332l-.666-5.992c-2.495-.303-4.339-.81-5.327-2.664-.64.934-.67 2.185-.666 3.995-2.151-2.652-1.84-7.053-1.331-10.652zm.666 12.651c-.891 1.608-2.091 1.537-3.33 2.663-1.658-.98-.78.164-1.331-1.998h1.997c-.151-1.544-.131-1.877-.666-2.664v-2.663h1.332c.876 2.111.573 3.71 1.998 4.662zm-2.664-11.32h.666v2.664h-.666c-.42-1.64-.249-1.063 0-2.664zm-3.995-.666l2.664.666c-.217 1.536-.31 1.654-.666 2.664-1.536-.217-1.654-.31-2.664-.666.217-1.536.31-1.654.666-2.664zm.666 3.996c-.43 1.149-.13.652-.666 1.332-1.436.815-1.461.272-3.329 0 .583.784.538.754 1.331 1.332v.666h-2.663c1.426-3.001 2.009-3.47 1.997-6.659 1.818.913.173 2.228 3.33 3.329zm-4.661-6.659h1.331c-.518 2.528-.744 1.887-1.997 3.329h-.666c1.276.612.489.266 1.998 0-.413 1.557-.775 2.085-1.332 3.33h-.666v.666h-.666c.46-1.826-.41-1.076 1.332-1.332-.523-1.636-.947-2.314-1.998-3.33.821-.965 1.844-1.697 2.664-2.663zm-2.663 5.993v1.997c-1.658-.98-.78.164-1.332-1.997h1.332zm-1.332 6.658c.153-2.708.327-2.564 1.332-3.995h1.332c-.405 3.109-1.571 10.958-2.663 12.651v3.995h-1.332c.936-2.889-.27-10.065 1.331-12.651zm-1.332 21.973c1.52 2.25 1.531 15.066 0 17.313v.665h-1.332l1.332-17.978zm-13.316-8.656c2.291.055 5.574.16 5.992 0 1.368.266 1.283.165 1.998.666.504.717.418.615.666 1.997-2.56-.06-3.949-.224-5.327-1.331-1.578.693-3.04 2.01-3.995 3.329h-1.332c.662-2.032 1.429-2.477 1.998-4.661zm2.663 2.663c2.468.517 5.642 1.318 6.659 1.332-.088 2.566.014 2.838-1.332 3.995 1.276.611.489.266 1.997 0 .366 1.015.471 1.112.666 2.664-2.413-.493-1.848.066-2.663-1.998H78.08c1.271 2.523 2.156 3.342 5.327 3.995-.279 2.993-1.525 8.915-.666 10.653-.032 2.057-.231 3.413-.666 4.661-3.593.11-4.389.415-4.661-1.332-3.086.648-2.44.978-5.992 1.332-.235-4.186-.2-16.254-2.664-18.644.519-4.588 3.233-3.895 5.327-6.658zm-10.654 1.332v1.332H62.1l-.666-1.998 1.997.666zm-1.997 3.329h-1.998c.494.581.839.751 1.332 1.332 1.687-.07 2.467-.082 3.329-.666h.666c-.782-.538-1.114-.536-2.664-.666.774-1.48.964-1.002 1.998-1.998.504.716.418.615.666 1.998 1.794-1.102.671.108.666-1.998h2.663c-.771 1.881-.085 1.252-1.998 1.998.716.505.616.418 1.998.666v1.332c-2.604-.111-4.002 1.219-6.658.666-2.858-.596-2.658-1.598-5.993-1.998.795-2.813 1.031-.706 0-3.329.665-.222 1.331-.445 1.997-.666v.666h.666c-.585 1.571-.251 1.099-1.332 1.997v.666c2.076-.217 1.051-.226 2.664 0l-.666-1.998 1.998-.666c.365 1.015.47 1.114.666 2.664zm2.663-10.653s-.565.271-.666-.666c-1.041-.831.004 0 0-1.332h.666v1.998zm-5.326-13.317c.716-.504.615-.418 1.998-.666-.266 1.368-.166 1.283-.666 1.998v1.332c.784-.583.754-.539 1.332-1.332h1.331v2.663c-1.543-.151-1.877-.131-2.663-.666-1.436-.609-.968-.577-1.998-1.331.265-1.368.165-1.284.666-1.998zm-3.33 6.658c.133-1.729.294-2.262.665-3.33 2.118.352 3.358.881 4.662 1.998 2.143 1.086 2.259 3.216 3.995 4.661-1.777 1.429-2.621 1.404-3.995 0h-1.332c.688 1 .986 1.319 1.998 1.998-.891 2.551-.661.825-.666 3.995-2.526-.762.269-.813-2.664-1.332.98-1.658-.163-.78 1.998-1.332-1.464-2.579-1.676-1.842-.666-3.995-1.427-.909-2.366-1.856-3.995-2.663zm3.33 8.657c.878 1.618-.312.469 1.332 1.332v1.332c-1.149-.43-.652-.13-1.332-.666-1.882-.771-1.252-.085-1.998-1.998h1.998zm1.997 3.994v1.332l-1.998.666c-.583-.785-.538-.754-1.332-1.332v-1.331c-.536-1.271-.666 1.331-.666 1.331-1.491-.861-1.411-1.733-1.997-3.329 2.377.834 3.197 2.027 5.993 2.663zm5.326 7.325c1.536.216 1.655.31 2.664.666v1.997c-2.833.424-10.281.887-13.317-1.997-.504-.716-.419-.615-.666-1.998 3.085.575 8.01 3.557 11.319 1.332zm-11.319 1.997h1.331v.666h.666c-.98 1.658.164.78-1.997 1.332v-1.998zm0 2.664h1.997v1.998h-1.997v-1.998zm-24.636-19.31h1.997c-.379 1.069-.558 1.59-.666 3.329h-1.331v-3.329zm10.653 16.646h-.665v.666h-.666v-3.329l1.997 1.332-.666 1.331zm1.998-1.997c-1.149-.43-.652-.13-1.332-.666h-.666c-.589-.458 1.268-1.274 1.332-1.332-.782-.538-1.113-.536-2.663-.666.249-2.224.182-1.111 0-3.329.606-.619.898-1.161 1.331-1.997h.666c.562 2.273.332 1.693 1.998 2.663.646 1.341.301-.408 1.332.666 1.149.43.652.13 1.332.666-1.824 1.034-1.915 1.249-3.33 3.995zm1.332-13.983c1.859 2.604.644 5.549.666 7.324-1.536-.216-1.654-.31-2.664-.666v-2.663c.784.583.754.538 1.332 1.332 1.016-1.612.339-3.87.666-5.327zm1.332 7.99c1.149.43.652.13 1.332.666-1.15-.43-.653-.13-1.332-.666zm0-6.658h1.332c-.621 1.178-.227.742-1.332 0zm1.997 5.326h-.666v.666h-.665c.418-2.763.961-3.242 1.331-6.659h1.998l-1.998 5.993zm-9.988-10.653c1.151-1.515.767-1.972.666-3.329 3.995.222 7.991.443 11.985.666v2.664c-1.542-.744-1.21-.621-1.998-1.998-3.047.692-2.163 1.744-3.995 3.329v.666h1.332c.368-.836.801-2.011 1.332-2.664v-.666h.666v.666h.666c-.343 4.276-2.759 4.082-5.993 4.661.369.836.801 2.01 1.332 2.664v.666h-1.332c-.18-3.271-.691-2.771.666-4.661-1.656-1.582-1.31-.618-1.332-3.995h-.666v-.666h-1.997c.619.606 1.161.899 1.997 1.332-.429 1.149-.13.652-.665 1.332v.666c-.458.59-1.274-1.267-1.332-1.332h-.666v2.664h-1.997c.083 2.454 1.623 5.456-.666 7.99-.836.503-.638.05-2.664 0 .61-1.436.578-.968 1.332-1.997-1.149-.43-.651-.13-1.332-.666-.504.717-.418.615-.666 1.998h-1.331v-2.664c1.368.266 1.283.165 1.997.666.458-.512.878-1.484 1.332-1.998v-2.663c-.537.685-.246.163-.666 1.331-1.358-1.829-2.019-3.461-1.998-6.658h1.998v-.666c-1.743-.475-1.266-.28-3.329 0v-1.332h.666v-.666l5.992.666c.223 1.33.444 2.662.666 3.994zm27.3-41.282c-.716-.505-.616-.418-1.998-.666.716.504.616.418 1.998.666zm49.939 5.326c1.396 1.807 3.35 2.693 4.661 4.662 1.933-.63 1.291-4.14 5.993-4.662v-1.331c-3.145.231-4.418.983-5.993 2.663h-1.332c.777-2.635 1.62-4.145 4.661-4.661v-.666h-.665c-.939-1.313-.876-1.404-2.664-1.997-.408 3.215-1.672 5.331-4.661 5.992zm-53.934-5.326c.716.504.616.418 1.997.666-.716-.506-.615-.419-1.997-.666zm24.636 3.329c-.07-1.687-.082-2.467-.666-3.329-.397 1.459-.744 1.343 0 2.663v.666h.666zm-24.636-1.998v-.665h-1.332c.685.537.164.245 1.332.665zm32.627 0v-.665h-1.332c.685.537.164.245 1.332.665zm-33.959 0h-1.332c.685.538.164.246 1.332.666v-.666zm33.293 1.998v-.666h-.666c-.878-1.618.311-.47-1.331-1.332-1.165 1.886-2.707 1.828-.666 3.329v1.332c1.241-1.401.592-1.832 2.663-2.663zm9.987-1.998c.716.505.615.418 1.998.666-.716-.505-.615-.418-1.998-.666zm-45.944.666c.686.538.164.246 1.332.666v-.666h-1.332zm37.954.666c-.716-.504-.615-.418-1.998-.666.717.504.616.418 1.998.666zm11.32-.666h-1.332c.685.538.164.246 1.332.666v-.666zm-50.605.666c.685.537.164.246 1.331.666v-.666h-1.331zm5.993.666v-.666h-1.332c.685.537.164.245 1.332.666zm5.326.666v-1.332h-2.663c.13 1.731-.312 1.206 2.663 1.332zm41.283 0v-.666l-1.997-.666v1.332h1.997zm-53.934-.666c.685.537.164.246 1.332.666v-.666h-1.332zm-19.975 9.988c1.332.443 2.664.887 3.995 1.332 1.254-1.354 1.938-1.228 2.663-3.33.538-.685.247-.164.666-1.331-1.986-1.792-3.401-4.15-5.326-5.993-.776 2.024-2.302 2.988-3.996 3.995.259 3.047.902 3.445 1.998 5.327zm0-4.662l.666-1.998c1.368.266 1.283.165 1.998.666h1.332c-.688 1-.986 1.319-1.997 1.998.569.441 2.09.9 2.663 1.331.504.717.418.616.666 1.998-1.544-.151-1.878-.131-2.664-.666-2.02-.72-1.972-.612-2.664-2.663-.01-.008-1.325.006-.666-.666h.666zm19.975-4.66h-1.332c.685.537.164.246 1.332.665v-.665zm51.937.665v-.665h-1.332c.685.537.164.245 1.332.665zm3.329-.665h-1.332c.685.537.164.246 1.332.665v-.665zm1.998 1.997v-.666l-1.998-.666c.902 1.065.407.771 1.998 1.332zm-59.261-.666H50.78c.685.538.164.246 1.332.666v-.666zm69.248 5.327l3.995 5.327c1.282-.623 1.087-1.54 1.998-3.329 1.557-.413 2.084-.775 3.33-1.332v.666h.666c-.433 2.879-1.673 4.999-3.33 6.659v.666h7.324v.665l-3.33 2.664c-.837 1.23-.326-.093-1.331-.666v.666h-.666l.666 1.332c2.743-.191 3.909-.607 5.327-1.998h1.997v.666l-5.327 2.664v1.331c1.594-.752 3.45-1.506 4.662-2.663h1.331c-.95 1.939-3.509 3.028-5.327 3.995v1.332c2.536-.847 5.668-1.306 6.659-3.995.564-1.418-3.015-6.995-4.661-8.657-.167-.212-2.885 1.061-3.995 1.998h-1.332c.747-2.264 1.703-3.278 3.995-3.995-.772-1.527-1.464-2.205-1.998-3.996-3.398.012-5.007.373-6.658 1.998h-1.332v-1.332c2.339-1.602 2.522-3.122 5.327-2.663-.717-1.641-1.669-2.633-3.329-3.33-.504 2.971-2.054 4.527-4.661 5.327zm-7.99-3.33v-.666l-1.997-.666c.902 1.066.406.772 1.997 1.332zm-63.256-.665h-1.332c.685.537.164.246 1.332.666v-.666zm10.654.665v-.666h-1.332c.685.538.164.246 1.332.666zm47.275-.665c-.315 1.506-.571.744 0 1.998v.666h.666v-.666h.666c-.585-1.572-.251-1.099-1.332-1.998zm-48.607 1.997v-1.332h-1.332c.117 1.812-.486.842 1.332 1.332zm5.993-1.332c1.067 4.783 3.807 8.458 3.995 11.32 2.075-.218 1.051-.227 2.663 0-.786-1.767-1.297-1.387-1.997-3.329.58-.493.751-.839 1.332-1.332.34.871.813 2.621 1.331 3.329v.666h.666c.841-2.635 2.301-5.727 4.661-6.659-.512-.458-1.484-.877-1.997-1.331-1.75.995-1.95 2.713-1.998 5.327-2.02-1.098-2.1-2.84-1.998-5.993h-1.331c-.214 1.121.199 2.63-.666 3.995v1.332c-1.699-.95-2.239-3.903-1.332-5.327-.861-1.491-1.733-1.411-3.329-1.998zm-13.983 1.332h.666v-.666H50.78c-.629.702.206.754.666.666zm62.59.666h1.998v-.666l-1.998-.666v1.332zm-67.251 0h.666v-.666H46.12c-.63.701.205.754.665.666zm13.983-.666h-1.332c.685.538.164.246 1.332.666v-.666zm-10.654 3.996c-.911-1.878-.681-.907-.666-2.663h-1.332c-.186 1.817-.443 1.788 1.998 2.663zm63.256-2.664h-1.331c.685.537.164.246 1.331.665v-.665zm-86.56 7.99c.552.571.697 2.224 1.332 2.663 2.522 1.746 2.47-1.054 3.329 2.664h1.332c-.431-2.356-.456-2.254-1.997-3.33.494-1.544.691-1.487 1.331-2.663h1.332c.324 1.552.094.985 0 3.329h.666c.758-1.516 1.513-2.883 2.664-3.995-.648-1.166-4.234-1.514-5.992-3.329-.439-.651.103-1.464-.666-2.664-.83 2.438-2.95 5.577-4.661 7.325v1.332c.782-.583.752-.538 1.33-1.332zm1.997-3.329c.829.446 1.376.724 1.998 1.332.009.008 1.325-.006.665.666h-.665v1.332c-2.143-.581-1.029.361-1.998-1.332-.612-1.276-.266-.49 0-1.998zm35.29-3.329h.666v-.666H62.1c1.308 1.298.576.979 1.997.666zm-16.646 0H46.12c.685.538.164.246 1.331.666v-.666zm30.629 0v1.332c1.178-.621.743-.227 0-1.332zm28.631 0h-1.331c.685.538.164.246 1.331.666v-.666zm3.33 0c.685.538.164.246 1.332.666v-.666h-1.332zm4.661 2.663c.685.538.164.246 1.332.666v-.666c.538-.685.246-.164.666-1.332l-1.998-.666c-.316 1.507-.573.745 0 1.998zm-74.575 2.663c.375.674 1.865-1.105 2.663-1.997.484-.928.214-.841-.666-1.998-1.489 2.149-4.512 3.543-1.997 3.995zm5.327-3.328v-.666h-1.332c.685.537.164.245 1.332.666zm16.646 0v-.666h-1.332c.685.537.164.245 1.332.666zm45.277.665h1.998c-.98-1.658.163-.78-1.998-1.332v1.332zm-40.617 0v-.666h-1.331c.685.538.163.246 1.331.666zm10.654-.665h-1.332c.685.537.164.246 1.332.666v-.666zm3.995 0h-1.331c.685.537.164.246 1.331.666v-.666zm-21.307 1.331v-.666H58.77c.685.538.165.246 1.332.666zm45.944.666c.717-.61.061.056.665-.666h-1.331c-.63.701.205.754.666.666zm5.993.666v-.666l-1.998-.666c.902 1.065.406.771 1.998 1.332zm7.323 0c.718-.609.061.056.666-.666h-1.332c-.628.701.206.754.666.666zm-72.577 1.997l1.998-.666c-.98-1.658.163-.78-1.998-1.332v1.998zm10.653-1.997h-1.332c.686.538.164.246 1.332.666v-.666zm6.659 2.663c-.402-2.077-.114-1.619-1.332-2.664-.316 1.506-.572.744 0 1.998v.666h1.332zm-7.325-.666v-.666l-1.997-.666c.138 1.752-.384 1.037 1.997 1.332zm21.308 0v.666c1.659-.98.78.163 1.332-1.998h-1.998c.43 1.15.13.653.666 1.332zm25.968-.666v-.666h-1.332c.685.538.164.246 1.332.666zm9.988 0v-.666h-1.332c.685.538.164.246 1.332.666zm7.99 0v.666h-.666c.429 1.149.13.652.666 1.332v.665c1.571-.585 1.098-.25 1.997-1.331.484-.927.214-.841-.666-1.998 0 0-.149 2.612-.666 1.332v-.666h-.665zm-4.661.666v-.666h-1.332c.685.538.164.246 1.332.666zm-73.909 1.332v-.666l-1.998-.666c.903 1.065.407.771 1.998 1.332zm73.243-.666l-1.998-.666v1.332h1.998v-.666zm-79.902 1.331h.666c-.429-1.149-.13-.651-.666-1.331v1.331zm36.622-1.331h-1.332c.686.537.164.246 1.332.666v-.666zm-21.973.666c.686.537.164.246 1.332.665v-.665h-1.332zm63.256.665v-.665h-1.332c.685.537.164.246 1.332.665zm10.653.666h.666c-.43-1.149-.13-.651-.666-1.331v1.331zm-57.263 0v-.666H66.76c.686.538.164.247 1.332.666zm22.639.666h.665c-.429-1.149-.13-.652-.665-1.332v1.332zm28.631 0v-.666l-1.998-.666c.904 1.065.407.772 1.998 1.332zm-83.896.666h.666c-.43-1.149-.131-.652-.666-1.332v1.332zm10.654-.666v-.666h-1.332c.685.538.163.246 1.332.666zm4.66-.666h-1.332c.685.538.164.246 1.332.666v-.666zm25.968.666l-1.997-.666c.902 1.065.406.771 1.997 1.332v-.666zm35.956-.666h-1.332c.685.538.164.246 1.332.666v-.666zm13.317 0c.115 1.905-.417.192.666 1.998h.666c-.586-1.572-.251-1.099-1.332-1.998zm-98.545 11.32h.666c.467-1.795.919-2.881 1.998-3.995-1.114-.58-1.992.124-3.33-.666h-.666c1.099-1.734 3.011-1 4.662-1.997h.665c-1.496-2.481-4.115-.409-5.327-1.332-1.259-.958 1.136-1.539-1.997-2.664l-3.329 5.327c1.028 3.144 5.631.268 6.658 5.327zm-3.33-8.656c.443.223.888.444 1.332.666-.266 1.368-.166 1.284-.666 1.998-.686.537-.164.246-1.332.666v-.666h-.666c.495-1.545.692-1.488 1.332-2.664zm14.649 0h1.997l-.665-1.998c-1.659.981-.78-.163-1.332 1.998zm27.299-1.332v-.666h-1.331c.685.537.164.246 1.331.666zm-19.309 1.332c1.149-.43.652-.13 1.332-.666h.666c-.716-.505-.616-.418-1.998-.666v1.332zm25.302.666c-.585-1.572-.25-1.099-1.331-1.998-.686.537-.164.246-1.332.666.429 1.149.13.651.666 1.332.685.538.164.246 1.332.666v-.666h.665zm49.939-.666v-.666l-1.998-.666c.903 1.065.408.772 1.998 1.332zm-87.892-.666v1.332h.666c-.43-1.15-.131-.652-.666-1.332zm45.278.666c-.716-.504-.615-.418-1.998-.666v1.332c1.149-.43.652-.13 1.332-.666h.666zm35.956 1.998v-.666h.666c-.585-1.572-.25-1.099-1.332-1.998-.316 1.506-.572.744 0 1.998v.666h.666zm9.321-1.998v-.666h-1.332c.686.537.164.246 1.332.666zm-75.24 0h-1.332c.686.538.164.246 1.332.666v-.666zm74.574 1.332v-.666c-.666-.222-1.332-.443-1.997-.666v1.332h1.997zm3.996 0h.666c-.429-1.149-.13-.652-.666-1.332v1.332zm-94.551-.666v1.332h.666c-.43-1.149-.131-.652-.666-1.332zm12.652 0h-1.332c.685.538.164.246 1.332.666v-.666zm33.958 0h-1.332c.686.538.164.246 1.332.666v-.666zm-43.281 1.332v-.666h-1.332c.686.537.164.246 1.332.666zm39.951-.666h-1.332c.685.537.164.246 1.332.666v-.666zm45.278.666v-.666h-1.332c.685.537.164.246 1.332.666zm6.658.665h.666c-.43-1.149-.13-.652-.666-1.332v1.332zm-84.562-.665H42.79c.685.537.164.246 1.332.666v-.666zm58.594 0h-.023l.012.027.011-.027zm-27.965.665h-1.332c.686.537.164.246 1.332.666v-.666zm45.277.666v-.666h-1.332c-.629.701.205.753.666.666h.666zm6.659 0v-.666h-1.332c.685.538.164.246 1.332.666zm2.663.666h.666c-.43-1.149-.131-.652-.666-1.332v1.332zm-95.882 1.998l.666-1.998-1.998-.666c-1.008 2.802-.448 1.759 1.332 2.664zm7.324-.666c-.979-1.658.164-.78-1.997-1.332.902 1.064.406.771 1.997 1.332zm7.325 0h.666v-.666l-1.998-.666c.081.643-.019 2.644 1.332 1.332zm21.307-1.332h-1.332c.685.538.164.246 1.332.666v-.666zm3.329 0h-1.331c.685.538.164.246 1.331.666v-.666zm56.597 1.332v-.666l-1.998-.666c.903 1.064.407.771 1.998 1.332zm0 .666h.666v.666h1.332c-.423-1.486-.492-1.759-1.332-2.664l-.666 1.998zm-57.928 1.332h1.331v-.666c-1.99-1.417-1.452-1.206-3.329-1.998-.43 1.149-.13.652-.666 1.332 1.492 1.05 1.274-.28 2.664 1.332zm7.324-1.332h.666v-.666l-1.998-.666c.081.642-.018 2.644 1.332 1.332zm38.619-1.332h-1.332c.685.537.164.246 1.332.666v-.666zm-77.904 1.332v-.666h-1.332c.685.537.164.246 1.332.666zm73.243-.666c.685.537.164.246 1.332.666v-.666h-1.332zm9.987 2.663v-.666h.666c-.581-2.142.361-1.028-1.331-1.998-.316 1.505-.572.743 0 1.998v.666h.665zm-97.878 5.993c.641 1.072.038.063 0 1.998 1.747-1.046 1.538-3.117 2.663-4.661v-1.332c-1.176.718-1.85 2.27-2.663 1.332-2.033-1.303.629-3.153-3.33-5.327-.619.606-1.161.898-1.998 1.332-.294 1.383-.633 3.038-1.332 3.995v1.997c2.137-1.094 4.326-1.326 6.66.666zm-3.996-5.327c.685-.538.164-.246 1.331-.666v.666h.666v2.664c-1.014-.365-1.112-.47-2.663-.666.266-1.368.166-1.284.666-1.998zm9.988-1.331h.665c-.429-1.149-.13-.652-.665-1.332v1.332zm84.563-1.332h-1.332c.117 1.812-.487.841 1.332 1.332v-1.332zm-71.912 1.332v-.666h-1.332c.685.537.164.246 1.332.666zm87.892.665h.665c-.429-1.149-.13-.652-.665-1.332v1.332zm7.99 0h1.332v-1.332h-1.332v1.332zm-109.199.666h.666c-.43-1.149-.131-.652-.666-1.332v1.332zm6.658-.666v-.666h-1.332c.686.538.164.246 1.332.666zm80.568.666v-.666l-1.997-.666c.902 1.065.406.772 1.997 1.332zm11.985-1.331h-1.332c.685.538.164.245 1.332.666v-.666zm-63.256.665c.686.537.164.246 1.332.666v-.666h-1.332zm46.61.666v-.666h-1.332c.685.537.164.246 1.332.666zm23.971.666v.666h.666v-.666h.665v-.666l-1.997-.666c.429 1.15.13.652.666 1.332zm-101.875 0v-.666h-1.332c.685.537.164.246 1.332.666zm15.98-.666h-1.332c.685.537.164.246 1.332.666v-.666zm24.637 0h-1.332c.685.537.164.246 1.332.666v-.666zm56.596 1.332h.666c-.429-1.149-.13-.652-.666-1.332v1.332zm-102.54.666h.666c-.43-1.149-.131-.652-.666-1.332v1.332zm3.995-1.332h-1.332v1.332h1.332v-1.332zm5.327 1.998h1.997v-1.998h-1.997v1.998zm6.659-1.998c.685.538.164.246 1.332.666v-.666h-1.332zm73.908.666v-.666h-1.332c.686.537.165.246 1.332.666zm7.325 0v-.666h-1.332c.685.537.164.246 1.332.666zm-78.57.666h.666c-.716-.504-.616-.418-1.998-.666v1.332c1.15-.43.652-.131 1.332-.666zm23.305 0l-1.998-.666c.081.643-.019 2.645 1.332 1.332h.666v-.666zm61.257 1.332h.666c-.266-1.368-.166-1.284-.666-1.998v1.998zm-100.543-.666v-.666h-1.331c.685.537.163.245 1.331.666zm45.923 8.67a50.57 50.57 0 0 1-.225.651h.246a26.401 26.401 0 0 0-.021-.651zm.687-2.678l-.001.002.001-.002zm35.956-3.995v-.666h.666c-.585-1.571-.251-1.098-1.332-1.997-.316 1.506-.572.744 0 1.997v.666h.666zm-79.236-1.331v-.666h-1.332c.685.537.163.245 1.332.666zm87.891 1.997h1.332c-.912-1.878-.681-.907-.666-2.663-2.224.249-1.112.182-3.329 0 1.3 2.357 1.273.831 2.663 2.663zm7.991-.666c-.581-2.142.361-1.028-1.332-1.997.021 1.862-.848.991 1.332 1.997zm-85.228-.666v-.665h-1.332c.685.537.163.245 1.332.665zm3.994-.665h-1.332c.685.537.164.246 1.332.665v-.665zm83.231 2.663h.666c-.266-1.368-.166-1.284-.666-1.998v1.998zm71.246 4.335c1.542.745 1.21.622 1.998 1.998h1.331v-8.656h-.666c-1.104 4.191-3.478 5.38-5.993 7.99-3.816.004-5.554-.612-7.99-1.332-1.696-6.473-1.774-15.22-1.332-23.304 2.197-2.218 6.306-7.441 10.654-3.329 2.482.919 3.661 2.954 3.995 5.993h1.331c.069-2.325.225-5.333-.666-6.659-.491-.209-7.902-1.455-12.651-1.332-4.592 4.103-8.797 5.615-10.653 12.651-3.297 12.505 13.73 24.998 20.642 15.98zm201.752-11.319c-.866-.841-1.132-2.53-1.997-3.33-3.253-3.006-10.055-2.385-13.317-5.326-3.908-4.627 3.703-10.886 7.99-6.659 2.816.961 3.862 3.057 3.995 6.659h1.332v-7.991c-6.605.543-9.874-1.605-15.979 1.998-.917 3.094-3.424 7.04-.667 9.988 1.52 4.309 11.443 6.747 15.314 9.322-.007 5.156-1.304 5.305-3.329 7.99-9.502.183-8.569-3.255-12.652-7.99v.666h-.665v7.99c.951-.28 2.938-2.154 3.329-1.998 3.101 1.232 7.324 4.415 11.32 1.332 2.387-.786 3.903-2.247 4.661-4.661 1.696-2.389.933-4.892.665-7.99zm-25.968 31.668c.018-1.817.027-3.051.667-3.996.873-2.187 1.865-1.939 3.329-3.33 2.56.06 3.949.224 5.327 1.332 2.187 1.474 2.409 3.3 3.994 5.327v1.332h.667v-7.991c-3.619.557-6.23-.623-11.32-.667-2.36 2.034-3.866 3.794-5.993 5.993-.093 3.245-.131 5.729 1.333 7.324 1.551 4.261 10.147 5.417 13.982 7.325.368.836.801 2.011 1.331 2.663-.595 5.698-3.374 6.965-9.987 6.659-2.279-2.413-3.833-4.636-5.992-7.324v-.666h-.667v8.656c1.544-.744 1.211-.62 1.999-1.997 3.436 1.162 8.756 4.524 12.651 1.331 2.047-.717 2.402-1.626 3.995-2.663.831-3.207 2.395-7.739 0-10.654-1.665-4.74-11.292-6.329-15.316-8.654zM92.063 206.468c.686.538.164.246 1.332.666v-.666h-1.332zm29.297 0h-1.332c.685.538.164.246 1.332.666v-.666zm108.533 6.333h-3.995v-13.982h10.653v13.982h-3.995v1.332h13.983v-1.332h-3.329v-27.965h3.329c-2.53-1.657-10.161-.773-13.983-.666.934.64 2.184.67 3.995.666v13.317h-10.653v-13.317h3.995c-2.53-1.657-10.161-.773-13.982-.666.934.64 2.184.67 3.995.666v27.965h-3.995v1.332h13.982v-1.332zm27.3 0l1.997-6.658c3.005-.085 8.116-.569 9.988.666 1.165 1.4 1.783 3.691 1.997 5.992h-3.329v1.332h13.317c-.957-1.581-1.941-1.046-3.33-1.998-2.476-3.036-9.032-23.142-9.987-27.965h-1.997l-9.322 27.965c-1.242.44-2.604.663-4.661.666v1.332h9.321c-.998-1.663-1.396-1.351-3.994-1.332zm6.659-19.31c2.766 2.228 2.552 7.112 4.661 9.988v1.332h-8.656l3.995-11.32zm51.935 19.976c-1.181-.85-3.969-.652-4.66-1.998v-3.995c-.289-5.144-1.975-7.34-5.993-8.656.874-1.49 3.859-2.564 5.328-3.329 1.646-3.955 1.074-6.55-.667-9.988-5.99-1.534-15.339-1.433-23.305-1.332.934.64 2.185.67 3.995.666V212.8h-3.995v1.332h13.983v-.666c-1.146-.406-2.094-.621-3.995-.666v-14.648c1.94-.021 3.629-.032 4.661.666 4.977 2.221 1.417 8.098 3.994 12.651 1.887 3.332 6.613 2.473 10.654 1.998zm-11.318-17.312c-2.277.947-4.396 1.409-7.99 1.332v-12.651h5.992c.754.791 1.691 1.429 2.663 1.998.046 3.229.105 7.08-.665 9.321zm41.947 11.32v-2.664c-3.185 1.886-2.601 5.849-6.658 7.324-1.413.956-4.879.76-7.324.666v-27.965h3.329c-2.415-1.585-9.635-.772-13.317-.666.855.585 1.644.617 3.33.666v27.965h-3.33v1.332h23.306c-.07-2.326-.227-5.332.664-6.658zm31.962-2.664h-.667c-1.298 3.374-1.77 6.129-5.326 7.324-1.739 1.162-6.473.769-9.322.666v-13.317c1.94-.02 3.629-.033 4.661.666 2.023 1.001 1.997 1.677 1.997 4.661h1.332v-11.986c-1.34.813-2.604 4.03-3.329 5.327h-4.661v-13.317c3.958-.103 8.5-.375 10.654 1.332 1.904 1.308 2.506 2.164 2.663 5.327h1.331l-.666-7.325h-23.971c.935.64 2.186.67 3.996.666V212.8h-3.996v1.332h25.304v-9.321zm-175.117 20.348c.956.737 2.996 1.482 3.995 1.998.025 1.486.173 3.487.318 5.669.477-3.822 1.683-6.717 4.343-7-1.63-1.093-5.944-.767-8.656-.667zm4.311 19.591c.524-3.275.269-7.909.001-11.925-.451 3.619-.248 8.069-.001 11.925zm-3.646 9.04c-3.297.329-5.701 1.181-7.989-.665-4.721-3.379-2.855-19.446-2.664-27.3h3.995c-2.528-1.657-10.162-.774-13.982-.667.854.585 1.643.617 3.329.667-.092 7-1.868 20.81 1.331 25.301 1.933 5.108 9.449 4.634 15.315 3.996 1.001-1.038 1.689-1.514 3.329-1.997.422-1.485.491-1.759 1.331-2.664-.056-1.542-.209-3.532-.349-5.71-.2 1.25-.51 2.309-.982 3.047-.208 3.865-1.178 3.771-2.664 5.992zm35.29-28.631c.781.539 1.114.536 2.663.667v.666h.667v17.312c-3.146-2.174-12.747-14.826-13.983-18.644H217.91c.854.585 1.643.617 3.329.667v.666h.666v26.634c-.367.634-2.758.894-3.328 1.331h-.667v.666h9.322v-1.332h-3.995v-24.635h.666c4.938 9.459 13.304 16.727 18.644 25.967h1.332v-28.631c.552-.905 1.969-.486 3.329-.666-1.523-1.025-5.414-.766-7.992-.668zm28.632.666c-2.416-1.586-9.635-.773-13.317-.667.854.585 1.644.617 3.33.667v27.965h-3.33v1.332h13.317v-1.332h-3.329v-27.965h3.329zm25.302-.666c.854.585 1.643.617 3.329.667v.666h.666c-.75 5.295-3.048 14.121-5.993 17.977-.431 1.149-.13.652-.665 1.333-2.562-6.025-6.479-13.23-7.325-19.976h3.329c-2.301-1.515-9.11-.773-12.65-.667.781.539 1.113.536 2.663.667 1.467 5.962 8.053 24.375 11.319 28.631v1.332c6.764-3.996 5.109-27.887 13.982-29.963-1.628-1.093-5.942-.767-8.655-.667zm35.29 27.966c-2.839.577-6.879.726-10.653.665v-13.317c4.994-.208 6.501.709 6.658 5.328h1.331v-11.986c-1.341.813-2.604 4.031-3.329 5.328h-4.66v-13.317c3.767-.118 8.066-.409 9.987 1.331 2.361.893 3.037 2.438 3.329 5.328h1.331l-.665-7.325h-23.971c.854.585 1.643.617 3.329.667v27.965h-3.329v1.332h24.636c.151-1.544.131-1.879.665-2.664v-6.657c-1.688 1.002-3.695 5.661-4.659 7.322zm36.623-.667v-3.994c-.289-5.143-1.976-7.34-5.993-8.656.873-1.49 3.858-2.564 5.326-3.329 1.646-3.955 1.075-6.55-.667-9.988-5.988-1.534-15.338-1.432-23.304-1.332.934.64 2.184.67 3.996.667v27.965h-3.996v1.332h13.982v-.666c-1.146-.405-2.094-.621-3.994-.666v-14.647c1.939-.022 3.629-.034 4.661.665 4.977 2.221 1.418 8.098 3.995 12.65 1.885 3.333 6.612 2.473 10.652 1.998-1.18-.851-3.968-.653-4.658-1.999zm-6.66-15.314c-.837.369-2.011.801-2.664 1.332-2.214-.005-3.963-.191-5.326-.667-.05-3.946-.325-9.083.665-11.984 3.005-.039 5.078.061 6.659 1.331.443.223.888.444 1.332.665.046 3.231.105 7.082-.666 9.323zm59.926-11.319c-2.529-1.657-10.16-.774-13.983-.667.934.64 2.185.67 3.996.667v27.965c-1.687.07-2.467.083-3.33.666h-.666v.666h13.983v-1.332h-3.996v-27.965h3.996zm5.992 7.324v.665c1.814-1.019 3.068-4.876 3.996-6.658 2.024-.845 3.531-1.342 6.657-1.331v27.965h-3.995v1.332h14.65v-.666c-1.146-.405-2.095-.621-3.997-.666v-27.965c2.775 0 3.971.078 5.328 1.331 2.761 1.108 2.405 3.21 3.994 5.328v1.331h.666v-8.656h-26.633c.079 2.592.361 6.45-.666 7.99zm61.258-7.324c-1.629-1.092-5.942-.767-8.655-.667.935.64 2.186.67 3.995.667-.881 5.164-4.115 7.846-5.328 12.651h-1.33c-1.771-3.669-3.93-8.448-6.659-11.32.99-1.646.823-1.236 3.329-1.331-2.414-1.586-9.634-.773-13.316-.667 7.899 6.087 11.705 14.02 11.318 28.631h-3.995v1.332h13.983v-1.332h-3.995c-.174-10.566 3.133-26.623 10.653-27.964zM74.085 207.8v-.666h-1.332c.685.537.164.245 1.332.666zm-7.325 0c.903 1.064.407.771 1.998 1.332v-.666l-1.998-.666zm67.251 2.663c.689-1.151.717-1.506 0-2.663v2.663zm-113.194-.666h.666v-.666l-1.998-.666c.081.642-.019 2.644 1.332 1.332zm1.331 1.332h1.998c-.585-1.572-.251-1.099-1.332-1.998l-.666 1.998zm11.986-.666c-.43-1.149-.13-.651-.666-1.332v1.332h.666zm33.958.666c1.486-.423 1.759-.492 2.664-1.332h.666v-.666c-2.076.217-1.051.226-2.664 0-.43 1.15-.13.651-.666 1.332v.666zm-35.29.665h.666c-.429-1.149-.131-.651-.666-1.332v1.332zm58.594-1.331h-1.331c1.054.815.54 1.071 1.331 0zm-67.25 6.659h.666c-.642-4.618-2.903-2.25-5.993-3.995-.458-.512-.877-1.484-1.332-1.998-.48 1.356-.691 3.114-.666 5.327 1.848-1.186 5.633-1.58 7.325.666zm74.575-4.662h.666c-.43-1.149-.131-.651-.666-1.332v1.332zm1.332 0h.666c-.43-1.149-.13-.651-.666-1.332v1.332zm34.624 1.998c.761-1.165.788-2.162 0-3.33v3.33zm-37.288-1.332h.666c-.429-1.15-.13-.651-.666-1.332v1.332zm-70.579-.666v5.327c.898-1.256.92-4.069 0-5.327zm69.248.666v-.666h-1.332c.685.538.164.247 1.332.666zm-61.258 0c.685.537.164.246 1.332.666v-.666H34.8zm9.322.666v-.666H42.79c.685.538.164.246 1.332.666zm45.943 1.998h.666c-.43-1.149-.131-.651-.666-1.331v1.331zm-55.265 0v3.33h1.332c-.34-.871-.814-2.621-1.332-3.33zm61.258 1.332h.666c-.43-1.15-.131-.651-.666-1.332v1.332zm39.285-.666v8.656c1.069-1.507 1.085-7.151 0-8.656zM23.48 221.117v1.997h.666v-.666h.666v-3.995c-2.284.928-5.662 2.384-7.325-.666h-.666v4.661c1.849-.998 3.315-1.407 6.659-1.331zm2.664-1.332v1.997h.666c-.266-1.368-.166-1.283-.666-1.997zm64.587 0v1.332h.665c-.429-1.15-.129-.652-.665-1.332zm-37.953 1.332h-1.332c.686.536.164.245 1.332.665v-.665zm45.943.665v-.665h-1.332c.686.536.164.245 1.332.665zm-47.941.666h-1.332c.685.537.164.246 1.332.666v-.666zm-24.636 11.986l-6.658-1.998-1.332-.666v-1.332h.666v-.665c2.747-.121 4.299-.425 5.327 1.331h1.332c-.151-1.543-.131-1.877-.666-2.663-.074-1.896-.268-2.847-.666-3.995-1.722-.358-2.945-.651-5.327-.666-.618.605-1.16.898-1.998 1.331-.026 3.1.033 6.747 1.332 8.656.358.871.242.479.666.666h5.327c-1.065 2.247-2.679 2.68-5.993 2.663.369.837.8 2.011 1.332 2.664.609.717-.056.061.666.665 1.652-2.479 4.308-3.618 5.992-5.991zm-7.99-8.657h5.327v.666h.666v1.332l-5.993.666v-2.664zm61.258-1.997H78.08c.686.537.164.246 1.332.666v-.666zm-49.273.666h-1.332c.685.537.164.246 1.332.666v-.666zm44.612 0h-1.332c.686.537.164.246 1.332.666v-.666zm-47.941.665v3.996c.815-1.187.84-2.806 0-3.996zm108.533 0h-1.332c1.053.815.54 1.072 1.332 0zm-57.929 1.998v-.666l-1.998-.666c.903 1.065.407.772 1.998 1.332zm-27.965 0v-.666h-1.332c.685.537.164.246 1.332.666zm25.302 0h-1.332c.686.537.164.246 1.332.666v-.666zm21.043.929c-.655-.027-1.313-.053-1.979-.078.684.085 1.342.105 1.979.078zm-60.328 2.4c1.931-.839.623-.928-.666-1.997.429 1.149.13.651.666 1.332v.665zm19.975-1.997v1.332h.665c-.429-1.149-.129-.652-.665-1.332zm16.646.666h.666v-.666h-1.331c-.63.701.205.753.665.666zm-41.948 1.997c-.43-1.148-.131-.651-.666-1.331v-.666h-.666v.666h-1.332v3.329c.504-.716.418-.615.666-1.998h1.998zm17.312 0v-1.331l-1.997-.666c.07 1.848-.767 1.416 1.997 1.997zm87.226-1.997c-.429 1.148-.13.651-.666 1.331v.666h1.332c-.266-1.368-.165-1.283-.666-1.997zm-97.88 1.331v1.332c1.179-.62.744-.226 0-1.332zm23.971 0h-1.332c.685.538.164.247 1.332.666v-.666zm4.661 0h-1.332c.685.538.164.247 1.332.666v-.666zm9.322 0v1.998l1.997-.666c-.98-1.658.164-.78-1.997-1.332zm26.019 4.662l-.03-.062-.021.062h.051zm12.6-3.996h-1.331c.685.537.164.247 1.331.666v-.666zm-63.256 1.998h.666v-.666h-1.332c-.628.701.206.754.666.666zm31.295-.666h-1.331c.685.537.164.246 1.331.666v-.666zm34.624.666l-1.998-.666c.902 1.065.407.771 1.998 1.332v-.666zm15.98-.666h-1.331c.685.537.164.246 1.331.666v-.666zm1.998 1.332h.666c-.429-1.149-.13-.651-.666-1.332v1.332zm-99.211-.666h-1.332c.685.537.164.246 1.332.666v-.666zm9.322 1.332v-.666l-1.998-.666c.903 1.064.407.771 1.998 1.332zm85.894-.666h.666v-.666h-1.332c-.628.701.206.754.666.666zm-101.875 1.998h.666c-.266-1.369-.165-1.283-.666-1.998v1.998zm31.295-1.332v-.666h-1.332c.685.537.165.246 1.332.666zm1.998-.666v1.332c1.178-.621.743-.227 0-1.332zm3.995 0v1.332h.665c-.429-1.15-.13-.652-.665-1.332zm13.317.666h.666v-.666H78.08c-.629.701.205.753.666.666zm34.624 0v-.666h-1.331c.684.537.163.246 1.331.666zm19.975 8.656c.57.44 2.091.899 2.664 1.332h.666c-1.029 1.652-2.471 1.031-3.996 1.996-1.832 1.65-1.511 3.23-3.995 5.328 1.003 2.69 1.973 1.886 3.995 3.329.534.644.982 1.824 1.332 2.662-.785.584-.754.539-1.332 1.332-3.294-.481-4.804-1.887-3.995-4.659h-1.332c-.809 1.581-1.249 2.358-2.663 3.327v1.332c.784-.581.754-.538 1.332-1.332 1.787.575 2.446 1.243 3.995 1.999.475 1.742.279 1.266 0 3.329 2.617-1.704 6.227-6.313 7.325-9.322.537-.685.245-.163.665-1.332-1.931-1.002-1.736-1.22-3.995-.665-.676-1.469-1.064-1.89-1.332-3.995 3.259 0 3.492-.026 4.662 1.996 3.668-.711 2.892-2.318 4.661-4.66-.749-2.608-3.555-1.236-5.993-3.33-.537-.685-.246-.165-.666-1.332.718-.609.061.057.666-.665 4.256.028 4.591.777 6.658 2.663.873-2.27 1.465-4.773 0-7.99-1.149-.43-.652-.13-1.332-.666-1.94-.02-3.629-.032-4.661.666-1.744 2.633-1.35 6.415-3.329 8.657zm1.332 9.986c1.658.98.78-.162 1.332 1.999-1.368-.267-1.283-.165-1.998-.665-.718-.61-.061.056-.666-.667 1.15-.43.653-.13 1.332-.667zm-1.998-.665h-1.997l.666-1.997c.443.221.888.443 1.331.666v1.331zm7.325-7.324c-.266 1.368-.166 1.282-.666 1.997-.685.537-.164.246-1.332.667v-.667c-.537-.685-.246-.163-.665-1.332 1.013-.365 1.112-.469 2.663-.665zm.666-8.655h1.332c.365 1.014.47 1.112.666 2.663h-1.997v-2.663zm-3.329-.666h2.663l-.666 2.663c-1.368-.266-1.283-.165-1.997-.666-.612-1.276-.267-.489 0-1.997zM32.136 235.1h.666v-.666H31.47c-.628.701.206.753.666.666zm15.981 0v-.666h-1.332c.685.537.164.246 1.332.666zm25.968 0v-.666h-1.332c.685.537.164.246 1.332.666zm57.263-.666c.685.537.163.246 1.331.666v-.666h-1.331zm-93.219 3.329v-.666h.666c-.585-1.571-.25-1.099-1.332-1.997-.316 1.506-.572.744 0 1.997v.666h.666zm8.656-1.331c-.98-1.659.163-.781-1.998-1.332.903 1.064.407.771 1.998 1.332zm81.234-1.332h-1.332c-.629.701.206.753.666.666h.666v-.666zm5.992 0h-1.332c1.054.814.541 1.071 1.332 0zm-104.538 2.663c-.524-1.364.932-.625-.666-1.997.123.643-.543 2.401.666 1.997zm46.61-1.997h-1.332v1.331h1.332v-1.331zm43.279 0h-1.332c.685.537.164.245 1.332.666v-.666zm-73.908 1.331v-.665h-1.332c.685.537.164.245 1.332.665zm29.297.666v-.666h-1.332c.685.537.164.246 1.332.666zm39.285 1.332v.666h1.332c-.403-2.077-.114-1.619-1.332-2.664-.316 1.506-.572.744 0 1.998zm11.319-1.998h-1.332c.685.537.164.246 1.332.666v-.666zm7.324 1.332h.666c-.429-1.149-.13-.651-.666-1.332v1.332zm-65.253-.666v1.332h.666c-.429-1.15-.13-.652-.666-1.332zm61.924 0c.081.642-.019 2.644 1.332 1.332.718-.609.061.056.666-.666l-1.998-.666zm-99.877.666v1.332h.666c-.43-1.15-.131-.653-.666-1.332zm13.317.666v-.666h-1.332c.686.537.164.245 1.332.666zm36.622-.666H78.08c.686.537.164.246 1.332.666v-.666zm26.634 6.658h.665c-.207-2.302.035-5.381-.665-6.659-.612 2.836-1.106 4.086-3.33 5.327v3.329h1.332l-.666-.667c.428-1.746 1.833-2.191 2.664-1.33zm15.314-6.658v1.332h1.997c-.98-1.659.164-.781-1.997-1.332zm-98.546 7.989c.877-1.832 1.836-2.178 3.995-2.663.907-.064.936-.166 1.998 1.332h.666c-.437-1.731-1.015-3.455-1.998-4.662-.878-1.617.311-.469-1.332-1.331.366 1.014.47 1.112.666 2.663-1.795.467-2.881.919-3.995 1.998h-1.332c.585-1.572.25-1.099 1.332-1.998v-1.332l-2.663.667c.322 3.312 1.301 3.964 1.997 6.658h3.33c-.988-1.646-.28-1.054-2.664-1.332zm11.32-7.323h-1.332c.685.537.164.246 1.332.666v-.666zm98.545 1.331c-.429-1.148-.13-.651-.666-1.331v1.331h.666zm-91.887-.665h-1.331c.685.537.164.246 1.331.665v-.665zm79.902.665c.718-.609.061.057.666-.665h-1.332c-.628.7.206.753.666.665zm-90.555 1.332h.666c-.43-1.149-.131-.651-.666-1.332v1.332zm5.993-1.332H34.8c.685.537.164.247 1.332.667v-.667zm39.285 0c-.316 1.506-.572.744 0 1.998v.667h.666v-.667h.666c-.586-1.572-.251-1.099-1.332-1.998zm6.658.667v-.667h-1.331c.684.537.163.246 1.331.667zm43.28 0v-.667h-1.332c.685.537.165.246 1.332.667zm5.993-.667v1.332h.665c-.429-1.149-.13-.651-.665-1.332zm-86.56 2.664a779.6 779.6 0 0 0 1.998-.667c-.98-1.657.163-.779-1.998-1.331v1.998zm-13.318 0c-.429-1.149-.13-.652-.665-1.332v1.332h.665zm6.659-.667v-.666h-1.332c.685.538.164.246 1.332.666zm80.568 0v-.666h-1.332c.685.538.164.246 1.332.666zm-36.622.667v-.667h-1.331c.684.537.163.247 1.331.667zm30.629-.667h-1.332c.685.537.164.247 1.332.667v-.667zm17.978 1.332h.666c-.43-1.148-.131-.652-.666-1.332v1.332zm-90.555-.665h-1.332c.685.536.164.246 1.332.666v-.666zm76.572 0h-1.332c.685.536.164.246 1.332.666v-.666zm-81.233.665h-1.332c.685.537.164.246 1.332.667v-.667zm43.946.667h.666v-.667h-1.332c-.629.701.205.754.666.667zm36.621 1.33c-.609-.717.056-.061-.666-.665v-1.332h-1.998c.61 1.436.578.969 1.332 1.997h1.332zm6.658-.665c.718-.61.061.056.666-.666l-1.997-.667c.081.643-.019 2.644 1.331 1.333zm7.325 0c.428-.992.828-.288 0-1.332-.46 1.533-1.825 1.092-.666 2.663.157-.213.383-.948.666-1.331zm-97.214.665h.666v-.665h-1.332c.43 1.149.131.651.666 1.331v-.666zm9.988 0v-.665h-1.332c.686.538.164.246 1.332.665zm31.295 0v-.665h-1.332c.685.538.164.246 1.332.665zm32.626.666h.666c-.429-1.148-.13-.651-.666-1.331v1.331zm21.973 1.333h.666c-.43-1.149-.13-.652-.666-1.333v1.333zm-90.555.666h.666v-.666l-1.998-.667c.081.643-.019 2.644 1.332 1.333zm87.892-.666c.718-.609.061.056.666-.667h-1.332c-.628.701.206.754.666.667zm-93.885 5.325h1.332c-.704-1.816-1.523-3.029-1.998-5.325h-3.329c-.927.609-3.726.743-4.661 1.331-.022.024.486 2.829 1.332 3.994l.666 1.334c2.355-.741 4.147-2.921 6.658-1.334zm-5.992-1.33v.665h-.666c-.217-2.075-.227-1.05 0-2.664h1.998c-.586 1.573-.251 1.1-1.332 1.999zm2.663-1.999h1.998c.609.719-.056.061.665.667-.609.717.056.06-.665.666-.717.504-.616.418-1.998.666v-1.999zm5.327-1.33v1.331h.666c-.43-1.149-.131-.652-.666-1.331zm93.219 1.33h.666c-.429-1.148-.13-.651-.666-1.331v1.331zm-3.33-.665h-1.332c.686.537.164.247 1.332.665v-.665zm-40.616 1.998h.666c-.429-1.149-.13-.652-.666-1.333v1.333zm43.28-1.333v1.333h.666c-.43-1.149-.131-.652-.666-1.333zm-89.89 3.996h.666c-.429-1.148-.13-.652-.666-1.332v1.332zm87.892 0c.717-.608.061.057.666-.667h-1.332c.43 1.149.13.652.666 1.334v-.667zm-85.894 0h-1.332c1.054.815.541 1.07 1.332 0zm-8.656.667c.021 1.861-.849.99 1.331 1.996-.58-2.141.362-1.028-1.331-1.996zm9.322 5.991v-1.332c-2.896.523-4.068 1.952-5.327 3.996h-1.332c1.154-1.801 2.389-3.262 4.661-3.996v-1.332c-2.121.719-4.117 2.355-5.327 3.996h-.666c.86-2.505 2.561-3.496 4.662-4.661-.43-1.147-.131-.652-.666-1.332v-.665c-.505.716-.418.614-.666 1.997-1.544.151-1.878.132-2.664.665-1.602.874-1.572 1.357-1.997 3.33.988.92 1.943 2.159 2.663 3.329 5.129-.424 2.808-2.802 6.659-3.995zm-.666-5.326v1.331h.666c-.43-1.148-.131-.651-.666-1.331zm83.896 0v1.331h.666c-.429-1.148-.129-.651-.666-1.331zm-77.237.665c-.44.525-.613 2.63.666 1.997 1.659-.818-.34-1.491-.666-1.997zm71.245 0c.478 1.3-1.114.874.666 1.997.824-1.431 1.047-1.348-.666-1.997zm-51.936 3.329c-.716-.504-.616-.417-1.998-.665.971 2.815-.588 2.975 2.664 3.995v1.331h.665c-.703-2.555-2.387-2.457-1.331-4.661zm-12.651 0c.021 1.863-.849.992 1.332 1.998-.581-2.141.361-1.028-1.332-1.998zm7.324 0v1.998h1.332c-.581-2.141.361-1.028-1.332-1.998zm7.324 0v1.998h1.332c-.58-2.141.362-1.028-1.332-1.998zm7.325 0c.021 1.863-.849.992 1.332 1.998-.582-2.141.361-1.028-1.332-1.998zm7.324 1.998c1.149-.43.652-.13 1.332-.666h.666v-.665l-1.998-.667v1.998zm7.324-1.998c.478 1.3-1.114.874.666 1.998.824-1.432 1.047-1.347-.666-1.998zm6.659 0c.021 1.863-.848.992 1.332 1.998-.581-2.141.361-1.028-1.332-1.998zm6.658 0c.43 1.149.13.652.666 1.332.61.718-.056.061.666.666.61-.718-.055-.061.666-.666-.98-1.658.163-.78-1.998-1.332zm7.325 0c.43 1.149.13.652.666 1.332.61.718-.056.061.666.666.609-.718-.056-.061.666-.666-.981-1.658.163-.78-1.998-1.332zm18.644 5.994c-2.09-.709-2.944-1.658-3.995-3.329-.656-.833.143-.816-.666-1.997-.97 1.396-1.734 1.885-3.329 2.663.094.176 3.954 2.5 5.327 3.329v1.332c-1.149-.43-.651-.131-1.332-.666h-1.997c.902 1.063.406.771 1.997 1.331.685.537.164.245 1.332.667l3.995-3.33c-.376-2.109-.585-1.937-1.332-3.329-.663 1.204-.171 1.201 0 3.329zm-70.581-3.33l.666 1.997h.666c-.58-2.141.362-1.027-1.332-1.997zm3.996 1.997h.666l.666-1.997h-1.331v1.997zm19.31-1.997h-1.332c1.053.815.54 1.072 1.332 0zm-27.301 8.657c-1.429.805-.939.983-1.332 3.329H50.78v-.667c-.609-1.106-.136-1.719 0-3.994-2.11-1.039-4.036-2.119-5.327-3.995-.728 1.407-.91 3.99-1.998 5.992h-1.332c-.609-.717.056-.061-.666-.665.242-1.902.437-2.876 1.332-3.995v-3.329c-2.9.72-4.547 1.797-7.99 1.997.585 1.572.251 1.099 1.332 1.998v.665c1.551-.685 3.493-2.154 4.66-3.329h1.332c-.933 1.978-1.602 3.464-3.329 4.661 1.49 2.223 3.81 3.188 5.327 5.326.694-.365 2.141-4.043 2.664-5.991h1.332c.583.783.539.753 1.332 1.332-.968 1.911-1.034 1.252-.666 3.327h-1.998c.438 4.217 2.428 3.848 4.661 5.993.972-.685 2.857-5.355 3.996-7.323-.83-.446-1.378-.725-1.999-1.332zm-2.663 5.992c-2.77-.556-2.011-.15-1.998-1.998h1.998c.609.719-.056.061.666.667l-.666 1.331zm71.246-5.992c-1.881-2.298-2.333-5.09-3.33-6.659-.608 1.717-.755 3.554-1.998 4.662-.667 1.086-1.613-.698-2.664-1.332l-.666 1.332h-1.331c2.499 2.07 4.135 2.445 4.661 6.658l7.324-5.326v-.667c-1.57.586-1.097.25-1.996 1.332zm-2.664 1.997h-1.332c-.583-.784-.538-.754-1.332-1.332.495-1.544.692-1.486 1.332-2.662h1.332v3.994zm-37.953-5.992h-1.331c.685.537.164.246 1.331.666v-.666zm29.964 0h-1.332c.685.537.164.246 1.332.666v-.666zm-59.261.666c.902 1.064.407.771 1.998 1.332v-.667c-.667-.222-1.332-.445-1.998-.665zm34.624 0h-1.332c.685.537.164.245 1.332.665v-.665zm-23.305.665H62.1c.685.537.164.245 1.332.667v-.667zm8.656 1.332v-.665l-1.997-.667c.902 1.064.406.771 1.997 1.332zm23.971-1.332h-1.332c.685.537.164.245 1.332.667v-.667zm5.992 0c.902 1.064.407.771 1.998 1.332v-.665a1559.2 1559.2 0 0 0-1.998-.667zm7.325 0h-1.332c.685.537.164.245 1.332.667v-.667zm-53.934.667h-1.332c.685.537.164.245 1.332.665v-.665zm23.305 0h-1.332c.685.537.164.245 1.332.665v-.665zm28.631.665c.718-.609.061.056.666-.665h-1.332c-.628.7.206.753.666.665zm-50.605 0h-1.331c.685.537.164.245 1.331.667v-.667zm4.662 0h-1.332c.685.537.164.245 1.332.667v-.667zm32.626 0h-1.332c.685.537.164.245 1.332.667v-.667zm11.986 1.332v-.665l-1.998-.667v1.332h1.998zm-47.942-.665h-1.332c.686.535.164.245 1.332.665v-.665zm1.332 1.997h1.998a16.176 16.176 0 0 0-1.998-1.997c-.685.535-.164.245-1.332.665.494.58.839.751 1.332 1.332zm7.324 0h.666c-.585-1.571-.25-1.1-1.332-1.997-.315 1.505-.571.742 0 1.997v.665h.666v-.665zm9.988-1.997h-1.332c.685.535.164.245 1.332.665v-.665zm7.325.665l-1.998-.665c-.315 1.505-.571.742 0 1.997.686.537.164.245 1.332.665v-.665c.537-.685.245-.165.666-1.332zm5.992-.665h-1.332c.686.535.164.245 1.332.665v-.665zm7.99 3.327c1.368-.265 1.284-.164 1.998-.665 1.149-.43.651-.129 1.332-.665-1.524-.688-1.443-1.143-2.664-1.997-.559 1.664-.28 1.89-.666 3.327zm-24.636-2.662c.902 1.064.407.771 1.998 1.332-.98-1.659.163-.781-1.998-1.332zm17.977.665h.666c-.716-.504-.615-.417-1.997-.665v1.332c1.15-.431.652-.131 1.331-.667zm9.989 0v.667c1.367-.267 1.283-.166 1.997-.667.718-.608.061.057.666-.665h-1.332c-.685.537-.163.245-1.331.665zm9.988-.665h-1.998c-.754.791-1.691 1.429-2.664 1.997.073 1.896.268 2.847.666 3.995h1.998c-.534-1.74-.827-1.578-1.332-3.33.537-.685.246-.163.666-1.33 2.457.865 2.807 1.971 3.33 4.66-.777.586-1.92 1.314-2.664 1.998h-.666v.665c4.024-.19 5.411-1.832 7.324-3.994-2.736-1.118-2.876-1.422-4.66-4.661zm-48.608 1.332h-1.331c.685.537.164.245 1.331.665v-.665zm29.964.665v-.665h-1.332c.685.537.164.245 1.332.665zm-28.632 3.329c-.298 1.981-.336 2.248-1.332 3.329l-.666 1.998h-1.998c.573-2.157 1.148-2.587 1.332-5.327h1.997v-.665h-.666v-.667c-1.767.623-1.733.662-2.663 1.998-1.368-.266-1.283-.165-1.998-.666-1.083-.771.142-.848.666-1.997-.785-.583-.754-.538-1.332-1.332-2.313 1.504-1.356 4.574-3.995 5.993 1.102 2.222 5.381 3.463 7.991 3.995 1.611-1.677 3.13-2.097 3.995-4.661h1.331c-.033 2.967.062 3.679-1.997 4.661v1.332c1.368.265 1.283.164 1.997.665h2.664c-1.673-3.044-1.413-4.838.666-7.324l-5.992-1.332zm-5.326 3.329h-.666c-.716.505-.616.419-1.998.666v-1.997h.666c.716-.505.616-.418 1.998-.666v1.997zm3.994-6.658c.716.505.616.419 1.998.665-.716-.504-.616-.417-1.998-.665zm1.998.665c.716.506.615.419 1.997.667-.716-.505-.614-.419-1.997-.667zm5.993 1.332c.784-.581.753-.538 1.331-1.332h-1.331l-.666 1.999h.666v-.667zm5.992-1.332c.902 1.065.407.772 1.998 1.332v-.665l-1.998-.667zm10.654 0c.685.537.164.247 1.332.667v-.667h-1.332zm5.993 0c1.337 2.103 2.063.973 4.661.667-1.498-.921-3.168-.298-4.661-.667zm10.653 3.33c.377-2.109.585-1.938 1.332-3.33h-1.332c-1.119 1.081-2.861 1.601-3.995 2.664-2.667-.076-3.66-.388-4.661 1.332-.805 2.188 2.181 2.889 0 5.992v1.998c1.095-.58 3.526-1.22 4.661-1.998 1.905-2.122-1.013-3.78 1.332-6.658v-.666h1.332c.719 2.699 1.995 4.165 0 5.993v.666c1.795-.468 2.881-.92 3.995-1.998h1.332c-1.512-1.358-2.591-2.575-3.996-3.995zm-5.327 5.993c-1.576 1.031-1.182-.331-1.332-1.332 1.149.429.652.131 1.332.666h.666c-.61.718.056.061-.666.666zm-1.332-5.993l1.998.666c-.847 1.928-2.158 1.161-1.998-.666zm-29.963-2.663c.716.505.615.417 1.998.665-.716-.504-.615-.417-1.998-.665zm21.973 1.997c-.73-.677-1.893-1.427-2.663-1.997-1.109 1.261-.952 1.145-3.33 1.332 1.21.822 3.81.744 5.993.665zm-16.646-.665v-.667h-1.331c.684.537.163.246 1.331.667zm7.991.665v-.665l-1.998-.667v1.332h1.998zm8.655-1.332c.934.641 2.184.671 3.995.667-.933-.64-2.184-.67-3.995-.667zm-15.314.667c.933.64 2.184.67 3.995.665-.934-.64-2.184-.67-3.995-.665zm16.646 1.997c-.972.656-4.201.981-5.327 1.332.291 3.104 1.032 4.088-.666 5.992v1.997c2.14-1.038 1.749-.767 5.327-.665v-.666h.666c-.14-2.936.485-6.832 0-7.99zm-3.995 7.324v-1.997h1.331v.665h.666c-.98 1.658.164.78-1.997 1.332zm2.663-3.995h-1.998c.222-.666.443-1.332.666-1.997l1.332.665v1.332zm-13.316-.666l-.666-1.997h-3.995c-.776 1.775-1.948 4.07-.666 5.993.609 1.436.577.968 1.331 1.997 3.413-.142 6.167-2.941 3.996-5.993zm-1.332 4.661h-2.664c-.043-2.066-.094-4.201.666-5.327.686-.537.164-.245 1.332-.665.523 1.482.709 3.621.666 5.992zm6.658-6.658c-.933.64-2.184.67-3.995.666.855 2.249 1.122 5.176-.666 6.658v.666c2.378.052 3.603.328 5.327.665.686-.537.164-.245 1.332-.665.427-1.869 1.169-4.287 0-5.993-.745-1.541-.621-1.21-1.998-1.997zm0 6.658c-.685.537-.163.245-1.331.666v-.666h-.666c-.01-3.05.238-3.771 1.332-5.327l1.331.666c.02 1.941.033 3.63-.666 4.661zm11.32-3.995l-.666 1.998h1.998c-.586-1.572-.251-1.099-1.332-1.998z"
  />
</svg>
