<svg
  xmlns="http://www.w3.org/2000/svg"
  width="414.627"
  height="139.037"
  viewBox="0 0 414.627 139.037"
>
  <path
    fill="#FFF"
    d="M60.833 84.763c6.965 0 11.414-4.109 11.414-11.847 0-7.64-4.546-11.751-11.414-11.751h-5.175v23.598h5.175zM49.467 57.83c0-1.306.678-2.031 1.983-2.031h9.722c10.593 0 17.509 6.286 17.509 17.117s-6.916 17.215-17.509 17.215H51.45c-1.305 0-1.983-.678-1.983-2.032V57.83zm50.687 18.422l-3.047-9.188c-.58-1.934-1.354-5.318-1.354-5.318h-.097s-.774 3.385-1.354 5.318l-3.096 9.188h8.948zm-8.271-18.81c.387-1.112 1.113-1.644 2.273-1.644h3.095c1.161 0 1.935.532 2.273 1.644l10.738 30.366c.483 1.402-.145 2.322-1.645 2.322h-2.224c-1.162 0-1.936-.533-2.273-1.645l-2.418-7.157H89.658l-2.37 7.108c-.338 1.16-1.112 1.693-2.273 1.693H82.79c-1.5 0-2.128-.92-1.644-2.322l10.737-30.365zM126.8 71.901c3.337 0 5.417-2.08 5.417-5.464 0-2.177-.822-3.917-2.708-4.689-.822-.389-1.887-.582-3.725-.582h-4.594v10.736h5.61zM114.999 57.83c0-1.306.677-2.031 1.983-2.031h9.287c3.385 0 5.078.289 6.529.918 3.483 1.451 5.756 4.739 5.756 9.38 0 4.062-2.128 7.93-5.708 9.381v.097s.436.532 1.112 1.789l5.66 10.349c.822 1.401.192 2.418-1.403 2.418h-2.612c-1.112 0-1.837-.437-2.37-1.403l-6.046-11.41h-5.997v10.781c0 1.354-.677 2.032-1.984 2.032h-2.224c-1.306 0-1.983-.678-1.983-2.032V57.83zm30.273 0c0-1.306.678-2.031 1.983-2.031h2.226c1.306 0 1.983.725 1.983 2.031v30.269c0 1.354-.677 2.032-1.983 2.032h-2.226c-1.305 0-1.983-.678-1.983-2.032V57.83zm29.938 18.422l-3.047-9.188c-.58-1.934-1.354-5.318-1.354-5.318h-.097s-.774 3.385-1.354 5.318l-3.095 9.188h8.947zm-8.27-18.81c.386-1.112 1.112-1.644 2.273-1.644h3.095c1.162 0 1.936.532 2.273 1.644l10.737 30.366c.484 1.402-.145 2.322-1.645 2.322h-2.224c-1.16 0-1.934-.533-2.273-1.645l-2.418-7.157h-12.043l-2.371 7.108c-.337 1.16-1.111 1.693-2.271 1.693h-2.227c-1.499 0-2.127-.92-1.644-2.322l10.738-30.365zm23.116.388c0-1.306.677-2.031 1.983-2.031h2.226c1.306 0 1.982.725 1.982 2.031v12.523h15.719V57.83c0-1.306.678-2.031 2.032-2.031h2.176c1.307 0 1.983.725 1.983 2.031v30.269c0 1.354-.677 2.032-1.983 2.032h-2.176c-1.354 0-2.032-.678-2.032-2.032V75.72h-15.719v12.379c0 1.354-.676 2.032-1.982 2.032h-2.226c-1.306 0-1.983-.678-1.983-2.032V57.83zm34.87 19.148v-1.354c0-1.306.725-1.982 2.031-1.982h10.495c1.308 0 2.032.677 2.032 1.982v1.354c0 1.354-.725 2.03-2.032 2.03h-10.495c-1.307 0-2.031-.677-2.031-2.03M28.853 12.767c0-5.988 7.712-9.69 12.79-12.767 3.99 2.429 13.293 6.823 13.295 13.125.002 6.995-2.911 18.398-5.227 18.447-2.52.055-6.001-14.452-7.854-14.414-1.852.039-5.299 14.473-7.624 14.469-2.522-.003-5.38-12.342-5.38-18.86M8.192 46.552C2.495 44.699 1.357 36.223 0 30.445c3.543-3.043 10.599-10.532 16.595-8.586 6.655 2.16 16.603 8.451 15.933 10.67-.725 2.413-15.603 1.24-16.138 3.012-.537 1.773 12.129 9.511 11.408 11.721-.783 2.397-13.404 1.302-19.606-.71m25.755 30.082c-3.522 4.844-11.936 3.307-17.852 2.813-1.801-4.309-6.743-13.333-3.041-18.432 4.112-5.66 13.172-13.172 15.075-11.852 2.071 1.434-3.643 15.217-2.12 16.275 1.52 1.059 12.797-8.594 14.675-7.225 2.038 1.485-2.904 13.147-6.737 18.421m33.428-54.666c5.699-1.85 11.603 4.338 16.098 8.216-1.077 4.542-2.382 14.747-8.376 16.696-6.655 2.165-18.401 2.919-19.165.732-.832-2.378 11.893-10.173 11.284-11.922-.607-1.749-15.406-.565-16.121-2.776-.776-2.402 10.08-8.931 16.28-10.946m178.52 36.203c0-1.304.674-2.028 1.979-2.028h16.52c1.304 0 2.028.725 2.028 2.028v1.352c0 1.304-.725 1.98-2.028 1.98h-12.317v8.981h9.564c1.304 0 2.029.676 2.029 1.98v1.352c0 1.353-.726 2.028-2.029 2.028h-9.564v9.223h13.09c1.306 0 2.029.677 2.029 1.979V88.4c0 1.353-.724 2.027-2.029 2.027h-17.292c-1.306 0-1.979-.675-1.979-2.027V58.171zm26.523 0c0-1.304.677-2.028 1.98-2.028h2.176c1.352 0 2.026.725 2.026 2.028v19.896c0 4.635 2.996 7.242 7.583 7.242 4.59 0 7.633-2.607 7.633-7.242V58.171c0-1.304.678-2.028 1.98-2.028h2.222c1.305 0 1.98.725 1.98 2.028v19.943c0 7.679-5.505 12.894-13.767 12.894-8.307 0-13.814-5.215-13.814-12.894V58.171z"
  />
  <path
    fill="#F7941F"
    d="M101.332 99.237h-8.191l-4.458 21.431c-.054.287-.13.703-.229 1.249s-.21 1.159-.335 1.839c-.125.682-.255 1.396-.39 2.148-.134.753-.264 1.487-.389 2.203-.125.716-.237 1.383-.336 2a69.075 69.075 0 0 0-.228 1.518 62.89 62.89 0 0 0-.229-1.504c-.098-.608-.206-1.258-.322-1.947l-.362-2.135c-.125-.734-.247-1.419-.363-2.055-.117-.635-.224-1.199-.322-1.691a26.61 26.61 0 0 0-.228-1.061l-5.452-21.995h-7.305l-5.452 21.995c-.054.215-.13.568-.229 1.061a62.549 62.549 0 0 0-.309 1.691c-.107.636-.229 1.32-.363 2.055s-.255 1.446-.362 2.135c-.107.689-.211 1.339-.309 1.947-.099.609-.174 1.11-.228 1.504a43.437 43.437 0 0 0-.242-1.518l-.349-2a491.067 491.067 0 0 0-.779-4.351c-.125-.68-.238-1.293-.336-1.839-.099-.546-.174-.962-.228-1.249l-4.458-21.431H50.36l9.453 39.263h9.48l4.78-19.309c.071-.287.161-.681.269-1.182s.219-1.057.335-1.666c.117-.607.232-1.244.349-1.906l.336-1.92c.107-.618.201-1.19.282-1.719s.139-.953.175-1.275c.036.322.094.747.174 1.275s.175 1.105.282 1.732a113.696 113.696 0 0 0 .725 3.84l.335 1.639c.098.483.184.859.255 1.127l4.834 19.363h9.453l9.455-39.262zm4.296 3.384c.232.52.55.936.953 1.249s.877.537 1.423.671a7.198 7.198 0 0 0 1.732.202c.608 0 1.182-.067 1.719-.202.537-.134 1.007-.357 1.41-.671s.725-.729.967-1.249.363-1.154.363-1.906c0-.77-.121-1.41-.363-1.921a3.356 3.356 0 0 0-.967-1.235 3.61 3.61 0 0 0-1.41-.658 7.566 7.566 0 0 0-1.719-.188c-.609 0-1.187.063-1.732.188a3.614 3.614 0 0 0-1.423.658 3.233 3.233 0 0 0-.953 1.235c-.233.511-.349 1.151-.349 1.921 0 .752.117 1.387.349 1.906zm8.191 5.855h-8.191V138.5h8.191v-30.024zm34.644 10.446c0-1.934-.233-3.594-.698-4.98-.466-1.388-1.128-2.529-1.987-3.425s-1.889-1.553-3.088-1.974c-1.2-.42-2.534-.631-4.001-.631-.859 0-1.701.085-2.524.255a9.868 9.868 0 0 0-2.336.792 8.82 8.82 0 0 0-2.028 1.369 7.727 7.727 0 0 0-1.571 1.988h-.457l-1.101-3.841h-6.257V138.5h8.191v-14.126c0-1.593.089-3.008.269-4.243.179-1.235.479-2.273.899-3.115.42-.841.989-1.477 1.706-1.906.716-.43 1.611-.645 2.686-.645 1.432 0 2.475.541 3.128 1.625.653 1.083.98 2.707.98 4.873V138.5h8.191v-19.578zm18.369 12.757c-.573-.555-.859-1.414-.859-2.578v-14.475h7.305v-6.15h-7.305v-6.392h-5.237l-2.363 6.338-4.512 2.739v3.465h3.921v14.475c0 1.934.237 3.541.711 4.82.474 1.28 1.124 2.302 1.947 3.062a6.865 6.865 0 0 0 2.927 1.598c1.128.305 2.345.457 3.652.457 1.343 0 2.583-.13 3.719-.39 1.137-.259 2.09-.586 2.86-.979v-6.097c-.752.269-1.491.493-2.216.672s-1.49.269-2.296.269c-.929-.001-1.681-.279-2.254-.834zm27.231-17.456a4.557 4.557 0 0 1 1.611 1.329c.43.564.752 1.231.967 2.001s.331 1.611.349 2.524h-10.447c.143-2.185.693-3.786 1.651-4.808.958-1.02 2.162-1.53 3.612-1.53.861 0 1.613.161 2.257.484zm1.854 24.693a19.178 19.178 0 0 0 4.901-1.047 16.97 16.97 0 0 0 2.162-.953v-6.338c-.788.394-1.558.738-2.31 1.033-.752.296-1.513.542-2.283.738-.77.197-1.563.346-2.376.443a21.52 21.52 0 0 1-2.592.148c-1.092 0-2.064-.17-2.914-.511a6.003 6.003 0 0 1-2.175-1.464c-.6-.635-1.065-1.414-1.396-2.336s-.515-1.956-.55-3.102h18.315v-3.975c0-2.185-.3-4.123-.9-5.814-.6-1.692-1.459-3.119-2.578-4.283-1.119-1.164-2.48-2.046-4.082-2.646s-3.397-.899-5.384-.899c-2.041 0-3.899.331-5.572.993a11.324 11.324 0 0 0-4.297 2.968c-1.191 1.316-2.117 2.959-2.779 4.928-.663 1.97-.994 4.27-.994 6.902 0 2.596.362 4.856 1.087 6.78.725 1.925 1.741 3.519 3.048 4.78 1.307 1.263 2.864 2.207 4.673 2.834 1.808.626 3.787.939 5.935.939a34.42 34.42 0 0 0 3.061-.118zm28.694-30.642c-.779.241-1.477.582-2.095 1.021s-1.177.971-1.679 1.598a15.193 15.193 0 0 0-1.396 2.095h-.402l-1.209-4.512h-6.203V138.5h8.191v-15.281c0-1.414.174-2.608.523-3.585.349-.976.841-1.763 1.477-2.363a5.654 5.654 0 0 1 2.283-1.302c.886-.27 1.857-.403 2.914-.403.178 0 .402.005.671.014s.541.026.819.054c.277.026.541.059.792.094.251.036.447.072.591.107v-7.681a2.657 2.657 0 0 0-.47-.094 36.408 36.408 0 0 0-.672-.081 10.985 10.985 0 0 0-.752-.054c-.26-.009-.497-.013-.712-.013-1.001 0-1.891.12-2.671.362zm46.662 15.294a9.96 9.96 0 0 0-1.895-3.075 14.971 14.971 0 0 0-2.913-2.47 46.558 46.558 0 0 0-3.706-2.189 67.78 67.78 0 0 1-2.834-1.584c-.778-.466-1.414-.922-1.906-1.37-.492-.447-.851-.927-1.074-1.437-.225-.511-.336-1.097-.336-1.76 0-1.234.372-2.224 1.115-2.967.742-.743 1.813-1.115 3.209-1.115.645 0 1.284.05 1.92.148.635.099 1.285.246 1.947.443s1.343.438 2.041.725 1.45.617 2.256.994l2.686-6.473a39.075 39.075 0 0 0-2.766-1.182 26.274 26.274 0 0 0-2.673-.859 23.081 23.081 0 0 0-2.686-.537 20.276 20.276 0 0 0-2.779-.188c-1.897 0-3.612.251-5.144.752-1.53.501-2.832 1.23-3.906 2.188s-1.903 2.131-2.484 3.518c-.582 1.388-.873 2.959-.873 4.714 0 1.79.305 3.325.913 4.605s1.364 2.372 2.269 3.276 1.867 1.661 2.888 2.269a56.084 56.084 0 0 0 2.767 1.559c.984.52 1.875 1.012 2.672 1.477.796.466 1.477.944 2.041 1.437.563.493 1.002 1.021 1.315 1.585.313.563.47 1.213.47 1.947 0 .608-.094 1.168-.281 1.678-.188.511-.484.949-.887 1.316s-.931.653-1.584.859c-.654.206-1.438.309-2.35.309-.896 0-1.796-.09-2.699-.269a21.622 21.622 0 0 1-2.713-.726c-.904-.304-1.795-.648-2.672-1.033s-1.746-.783-2.605-1.195v7.734c1.504.788 3.139 1.379 4.901 1.772s3.595.591 5.492.591c2.166 0 4.087-.269 5.761-.806s3.088-1.303 4.242-2.296a9.73 9.73 0 0 0 2.633-3.599c.6-1.405.899-2.985.899-4.74 0-1.536-.223-2.879-.671-4.026zm22.035 15.348a14.883 14.883 0 0 0 3.881-.98 29.9 29.9 0 0 0 1.934-.858v-6.821a31.076 31.076 0 0 1-3.894 1.544c-1.271.402-2.686.604-4.244.604-1.916 0-3.32-.717-4.216-2.148-.896-1.433-1.343-3.652-1.343-6.66 0-3.025.447-5.295 1.343-6.809.896-1.513 2.337-2.27 4.323-2.27.984 0 2.023.166 3.115.497 1.092.332 2.229.757 3.411 1.276l2.363-6.23a20.15 20.15 0 0 0-4.297-1.585 19.083 19.083 0 0 0-4.593-.563c-2.112 0-4.033.26-5.76.778-1.729.52-3.205 1.388-4.432 2.604-1.227 1.219-2.176 2.834-2.847 4.848-.671 2.015-1.007 4.517-1.007 7.506 0 2.704.326 5.027.98 6.97.652 1.942 1.593 3.536 2.819 4.78s2.704 2.162 4.431 2.752c1.729.592 3.666.887 5.814.887a19.268 19.268 0 0 0 2.219-.122zm38.793-19.994c0-1.934-.233-3.594-.698-4.98-.466-1.388-1.128-2.529-1.987-3.425s-1.894-1.553-3.103-1.974c-1.208-.42-2.555-.631-4.041-.631-1.719 0-3.259.344-4.619 1.033-1.361.689-2.48 1.813-3.357 3.371h-.43c.055-.788.117-1.594.188-2.418.054-.697.099-1.463.134-2.296.036-.832.055-1.624.055-2.376v-8.514h-8.191V138.5h8.191v-14.126c0-1.593.089-3.008.268-4.243.18-1.235.484-2.273.914-3.115.43-.841 1.002-1.477 1.719-1.906.715-.43 1.602-.645 2.658-.645 1.396 0 2.431.541 3.102 1.625.672 1.083 1.008 2.707 1.008 4.873V138.5h8.19v-19.578zm16.503-2.189c.832-1.477 2.188-2.216 4.068-2.216 1.916 0 3.294.739 4.136 2.216.841 1.478 1.263 3.711 1.263 6.7 0 2.973-.422 5.22-1.263 6.741-.842 1.522-2.202 2.283-4.082 2.283-1.897 0-3.268-.757-4.108-2.27-.842-1.513-1.263-3.764-1.263-6.755-.001-2.988.416-5.221 1.249-6.699zm16.797.068c-.681-1.934-1.625-3.559-2.833-4.874a11.91 11.91 0 0 0-4.311-2.995c-1.665-.68-3.491-1.02-5.479-1.02-2.148 0-4.073.34-5.773 1.02-1.701.682-3.147 1.679-4.338 2.995-1.19 1.315-2.104 2.94-2.739 4.874s-.953 4.145-.953 6.633c0 2.508.34 4.727 1.021 6.66.68 1.934 1.625 3.563 2.833 4.889s2.646 2.332 4.311 3.021c1.665.689 3.491 1.034 5.479 1.034 2.13 0 4.051-.345 5.761-1.034 1.709-.688 3.159-1.695 4.35-3.021 1.191-1.325 2.104-2.955 2.74-4.889.635-1.934.953-4.152.953-6.66-.001-2.489-.341-4.7-1.022-6.633zm16.154-.068c.832-1.477 2.189-2.216 4.068-2.216 1.916 0 3.295.739 4.137 2.216.841 1.478 1.262 3.711 1.262 6.7 0 2.973-.421 5.22-1.262 6.741-.842 1.522-2.203 2.283-4.082 2.283-1.898 0-3.268-.757-4.109-2.27s-1.262-3.764-1.262-6.755c0-2.988.416-5.221 1.248-6.699zm16.799.068c-.682-1.934-1.625-3.559-2.834-4.874a11.9 11.9 0 0 0-4.311-2.995c-1.664-.68-3.49-1.02-5.479-1.02-2.148 0-4.072.34-5.773 1.02-1.701.682-3.146 1.679-4.338 2.995-1.189 1.315-2.104 2.94-2.738 4.874-.636 1.934-.953 4.145-.953 6.633 0 2.508.34 4.727 1.02 6.66.681 1.934 1.625 3.563 2.834 4.889a11.934 11.934 0 0 0 4.311 3.021c1.664.689 3.49 1.034 5.479 1.034 2.13 0 4.05-.345 5.76-1.034 1.71-.688 3.16-1.695 4.351-3.021s2.104-2.955 2.739-4.889c.635-1.934.953-4.152.953-6.66-.002-2.489-.342-4.7-1.021-6.633zm16.273-20.088h-8.19V138.5h8.19V96.713z"
  />
</svg>
