<svg
  xmlns="http://www.w3.org/2000/svg"
  width="500"
  height="300"
  viewBox="0 0 500 300"
>
  <path
    d="M88.21 232.084a34.859 34.859 0 0 1 5.701-.463c3.855 0 6.595.928 8.413 2.589 1.879 1.694 2.96 4.101 2.96 7.462 0 3.389-1.082 6.163-2.99 8.07-1.972 1.943-5.175 2.99-9.215 2.99-1.943 0-3.514-.091-4.869-.246v-20.402zm2.684 18.373c.675.093 1.662.123 2.708.123 5.764 0 8.847-3.208 8.847-8.816.03-4.902-2.745-8.016-8.417-8.016-1.385 0-2.433.123-3.139.279l.001 16.43zm21.431-17.018c0 .928-.648 1.668-1.729 1.668-.985 0-1.634-.74-1.634-1.668 0-.924.677-1.692 1.699-1.692.985-.003 1.664.739 1.664 1.692zm-3.023 19.114v-14.92h2.713v14.92h-2.713zm20.626-2.192c0 3.453-.711 5.52-2.128 6.844-1.48 1.324-3.576 1.787-5.458 1.787-1.786 0-3.758-.43-4.961-1.234l.677-2.096c.987.648 2.529 1.205 4.383 1.205 2.77 0 4.804-1.449 4.804-5.238v-1.637h-.061c-.799 1.387-2.431 2.496-4.742 2.496-3.706 0-6.354-3.144-6.354-7.272 0-5.056 3.298-7.892 6.753-7.892 2.588 0 3.976 1.328 4.652 2.557h.06l.095-2.246h2.405c-.094 1.047-.123 2.275-.123 4.068v8.658h-.002zm-2.715-6.843c0-.457-.031-.859-.151-1.201-.495-1.602-1.792-2.895-3.795-2.895-2.589 0-4.434 2.186-4.434 5.639 0 2.928 1.506 5.36 4.405 5.36 1.692 0 3.208-1.048 3.761-2.771.154-.465.215-.986.215-1.451l-.001-2.681zm10.676-10.079c0 .928-.648 1.668-1.723 1.668-.988 0-1.636-.74-1.636-1.668 0-.924.679-1.692 1.695-1.692.986-.003 1.664.739 1.664 1.692zm-3.019 19.114v-14.92h2.71v14.92h-2.71zm11.127-18.494v3.575h3.886v2.067h-3.886v8.041c0 1.853.528 2.898 2.038 2.898.74 0 1.169-.06 1.569-.184l.128 2.064c-.528.182-1.361.371-2.41.371-1.261 0-2.28-.434-2.926-1.146-.741-.828-1.05-2.152-1.05-3.91v-8.136h-2.311v-2.066h2.311v-2.775l2.651-.799zm18.072 14.918c0 1.295.06 2.559.217 3.578h-2.438l-.215-1.883h-.096c-.827 1.172-2.432 2.221-4.558 2.221-3.024 0-4.564-2.131-4.564-4.285 0-3.605 3.205-5.578 8.973-5.547v-.311c0-1.206-.339-3.453-3.393-3.422-1.419 0-2.865.404-3.916 1.109l-.613-1.816c1.23-.771 3.049-1.297 4.932-1.297 4.558 0 5.67 3.113 5.67 6.074v5.576h.001v.003zm-2.622-4.041c-2.958-.059-6.317.465-6.317 3.363 0 1.783 1.167 2.59 2.528 2.59 1.974 0 3.232-1.236 3.67-2.502.09-.307.12-.615.12-.859v-2.592h-.001zm7.651-14.271h2.714v21.888h-2.714v-21.888zm15.21 1.39c1.355-.244 3.327-.434 5.143-.434 2.867 0 4.75.555 6.012 1.693 1.019.93 1.634 2.346 1.634 3.977 0 2.713-1.729 4.531-3.881 5.273v.094c1.567.55 2.524 2.033 3.019 4.19.675 2.896 1.17 4.896 1.603 5.705h-2.779c-.339-.616-.798-2.377-1.355-4.963-.617-2.868-1.755-3.946-4.189-4.041h-2.526v9.004h-2.68l-.001-20.498zm2.68 9.459h2.74c2.868 0 4.684-1.568 4.684-3.945 0-2.68-1.938-3.852-4.774-3.852-1.295 0-2.191.096-2.649.217l-.001 7.58zm16.098 4.068c.059 3.672 2.37 5.178 5.115 5.178 1.943 0 3.144-.338 4.129-.77l.494 1.945c-.953.428-2.62.954-4.995.954-4.591 0-7.334-3.053-7.334-7.553 0-4.502 2.65-8.017 6.994-8.017 4.902 0 6.167 4.256 6.167 7 0 .556-.03.953-.091 1.261l-10.479.002zm7.95-1.937c.031-1.699-.708-4.383-3.757-4.383-2.779 0-3.945 2.502-4.164 4.383h7.921zm6.265 6.163c.837.494 2.251 1.048 3.606 1.048 1.943 0 2.868-.951 2.868-2.218 0-1.296-.771-1.973-2.744-2.714-2.714-.988-3.976-2.438-3.976-4.221 0-2.406 1.974-4.381 5.147-4.381 1.513 0 2.838.406 3.636.926l-.648 1.972a5.782 5.782 0 0 0-3.048-.892c-1.604 0-2.466.924-2.466 2.037 0 1.229.861 1.783 2.804 2.555 2.561.959 3.917 2.248 3.917 4.469 0 2.65-2.068 4.504-5.549 4.504-1.635 0-3.145-.434-4.194-1.049l.647-2.036zm14.741-4.226c.061 3.672 2.374 5.178 5.117 5.178 1.942 0 3.143-.338 4.131-.77l.492 1.945c-.952.428-2.619.954-4.995.954-4.589 0-7.333-3.053-7.333-7.553 0-4.502 2.651-8.017 6.995-8.017 4.9 0 6.166 4.256 6.166 7 0 .556-.03.953-.091 1.261l-10.482.002zm7.952-1.937c.03-1.699-.707-4.383-3.756-4.383-2.78 0-3.947 2.502-4.164 4.383h7.92zm17.111 5.332c0 1.295.065 2.559.22 3.578h-2.435l-.216-1.883h-.096c-.832 1.172-2.437 2.221-4.557 2.221-3.024 0-4.565-2.131-4.565-4.285 0-3.605 3.205-5.578 8.968-5.547v-.311c0-1.206-.338-3.453-3.388-3.422-1.42 0-2.869.404-3.916 1.109l-.618-1.816c1.235-.771 3.049-1.297 4.933-1.297 4.563 0 5.668 3.113 5.668 6.074l.002 5.579zm-2.617-4.041c-2.961-.059-6.319.465-6.319 3.363 0 1.783 1.171 2.59 2.53 2.59 1.974 0 3.234-1.236 3.668-2.502.091-.307.121-.615.121-.859v-2.592zm7.653-2.651c0-1.76-.029-3.269-.125-4.651h2.377l.123 2.958h.092c.679-2.006 2.342-3.27 4.164-3.27.274 0 .488.033.736.063v2.561c-.279-.064-.557-.064-.926-.064-1.912 0-3.268 1.419-3.639 3.457-.059.37-.09.829-.09 1.259v7.959h-2.713v-10.272h.001zm21.06 9.74c-.713.338-2.281.865-4.285.865-4.498 0-7.428-3.053-7.428-7.615 0-4.59 3.14-7.953 8.01-7.953 1.604 0 3.021.406 3.766.805l-.617 2.063c-.646-.336-1.662-.707-3.146-.707-3.42 0-5.271 2.563-5.271 5.641 0 3.455 2.223 5.578 5.18 5.578 1.54 0 2.561-.369 3.328-.707l.463 2.03zm3.826-21.36h2.711v9.34h.064a5.065 5.065 0 0 1 1.94-1.938 5.52 5.52 0 0 1 2.776-.742c2 0 5.209 1.232 5.209 6.353v8.877h-2.715v-8.567c0-2.406-.892-4.414-3.453-4.414-1.752 0-3.111 1.235-3.635 2.686-.154.402-.189.805-.189 1.294v9.003h-2.709v-21.892h.001zm27.723 1.11v20.777h-2.708v-20.777h2.708zm5.554 9.897c0-1.574-.028-2.809-.124-4.039h2.406l.153 2.465h.061c.739-1.385 2.47-2.775 4.932-2.775 2.065 0 5.271 1.233 5.271 6.354v8.878h-2.711v-8.604c0-2.405-.894-4.407-3.45-4.407-1.759 0-3.144 1.266-3.637 2.774-.125.342-.186.803-.186 1.267v8.971h-2.715v-10.884zm18.046 10.881v-12.854h-2.066v-2.066h2.066v-.713c0-2.094.488-4.006 1.725-5.205 1.015-.986 2.371-1.391 3.636-1.391.985 0 1.788.22 2.313.434l-.37 2.098c-.398-.188-.926-.34-1.724-.34-2.313 0-2.897 2.002-2.897 4.316v.802h3.604v2.067h-3.604v12.854h-2.681l-.002-.002zm9.373-10.268c0-1.76-.029-3.269-.124-4.651h2.374l.12 2.958h.093c.683-2.006 2.347-3.27 4.163-3.27.279 0 .493.033.737.063v2.561c-.274-.064-.552-.064-.923-.064-1.908 0-3.269 1.419-3.642 3.457a8.28 8.28 0 0 0-.091 1.259v7.959h-2.709l.002-10.272zm21.059 6.692c0 1.295.061 2.559.209 3.578h-2.431l-.219-1.883h-.091c-.831 1.172-2.432 2.221-4.563 2.221-3.021 0-4.565-2.131-4.565-4.285 0-3.605 3.209-5.578 8.973-5.547v-.311c0-1.206-.337-3.453-3.392-3.422-1.415 0-2.866.404-3.916 1.109l-.612-1.816c1.229-.771 3.053-1.297 4.932-1.297 4.561 0 5.674 3.113 5.674 6.074l.001 5.579zm-2.621-4.041c-2.959-.059-6.321.465-6.321 3.363 0 1.783 1.171 2.59 2.526 2.59 1.974 0 3.237-1.236 3.667-2.502.098-.307.128-.615.128-.859v-2.592zm7.28 4.872c.832.494 2.252 1.048 3.606 1.048 1.942 0 2.869-.951 2.869-2.218 0-1.296-.776-1.973-2.75-2.714-2.71-.988-3.974-2.438-3.974-4.221 0-2.406 1.974-4.381 5.148-4.381 1.51 0 2.836.406 3.637.926l-.646 1.972a5.796 5.796 0 0 0-3.05-.892c-1.604 0-2.472.924-2.472 2.037 0 1.229.865 1.783 2.81 2.555 2.557.959 3.915 2.248 3.915 4.469 0 2.65-2.07 4.504-5.549 4.504-1.635 0-3.148-.434-4.193-1.049l.649-2.036zm16.497-15.749v3.575h3.888v2.067h-3.888v8.041c0 1.853.527 2.898 2.033 2.898.739 0 1.175-.06 1.574-.184l.12 2.064c-.521.182-1.355.371-2.401.371-1.266 0-2.279-.434-2.929-1.146-.737-.828-1.047-2.152-1.047-3.91v-8.136h-2.313v-2.066h2.313v-2.775l2.65-.799zm7.589 8.226c0-1.76-.03-3.269-.123-4.651h2.375l.12 2.958h.092c.681-2.006 2.346-3.27 4.163-3.27.279 0 .494.033.736.063v2.561c-.274-.064-.551-.064-.922-.064-1.909 0-3.268 1.419-3.641 3.457-.059.37-.092.829-.092 1.259v7.959h-2.71l.002-10.272zm23.214 6.164c0 1.574.032 2.93.128 4.104h-2.41l-.149-2.439h-.061c-.678 1.205-2.281 2.779-4.93 2.779-2.349 0-5.152-1.326-5.152-6.537v-8.722h2.71v8.229c0 2.834.896 4.777 3.332 4.777 1.819 0 3.085-1.266 3.574-2.5.158-.369.249-.859.249-1.386v-9.121h2.71l-.001 10.816zm15.793 3.576c-.711.338-2.283.865-4.288.865-4.496 0-7.424-3.053-7.424-7.615 0-4.59 3.139-7.953 8.01-7.953 1.604 0 3.02.406 3.766.805l-.617 2.063c-.648-.336-1.663-.707-3.146-.707-3.418 0-5.271 2.563-5.271 5.641 0 3.455 2.223 5.578 5.182 5.578 1.538 0 2.56-.369 3.326-.707l.462 2.03zm7.494-17.966v3.575h3.888v2.067h-3.888v8.041c0 1.853.526 2.898 2.037 2.898.74 0 1.17-.06 1.569-.184l.127 2.064c-.526.182-1.357.371-2.407.371-1.263 0-2.282-.434-2.927-1.146-.739-.828-1.05-2.152-1.05-3.91v-8.136h-2.312v-2.066h2.312v-2.775l2.651-.799zm20.075 14.39c0 1.574.03 2.93.124 4.104h-2.404l-.151-2.439h-.063c-.678 1.205-2.28 2.779-4.934 2.779-2.345 0-5.146-1.326-5.146-6.537v-8.722h2.712v8.229c0 2.834.895 4.777 3.328 4.777 1.819 0 3.083-1.266 3.573-2.5.154-.369.25-.859.25-1.386v-9.121h2.711v10.816zm5.156-6.164c0-1.76-.028-3.269-.119-4.651h2.37l.12 2.958h.097c.681-2.006 2.345-3.27 4.159-3.27.277 0 .495.033.741.063v2.561c-.275-.064-.554-.064-.923-.064-1.914 0-3.269 1.419-3.637 3.457a7.88 7.88 0 0 0-.099 1.259v7.959h-2.711l.002-10.272zm11.933 3.297c.06 3.672 2.378 5.178 5.119 5.178 1.941 0 3.141-.338 4.124-.77l.499 1.945c-.956.428-2.618.954-4.991.954-4.593 0-7.342-3.053-7.342-7.553 0-4.502 2.649-8.017 7-8.017 4.899 0 6.161 4.256 6.161 7 0 .556-.028.953-.091 1.261l-10.479.002zm7.952-1.937c.034-1.699-.706-4.383-3.757-4.383-2.773 0-3.943 2.502-4.164 4.383h7.921zM88.391 289.559v-12.854h-2.063v-2.065h2.063v-.708c0-2.096.498-4.01 1.728-5.211 1.017-.984 2.375-1.385 3.637-1.385.986 0 1.788.215 2.312.434l-.368 2.092c-.404-.184-.927-.338-1.729-.338-2.311 0-2.898 2.004-2.898 4.315v.802h3.607v2.066h-3.607v12.852h-2.682zm23.899-7.582c0 5.521-3.855 7.92-7.431 7.92-4.005 0-7.152-2.957-7.152-7.672 0-4.964 3.297-7.889 7.401-7.889 4.282-.002 7.182 3.107 7.182 7.641zm-11.805.154c0 3.264 1.843 5.732 4.498 5.732 2.586 0 4.528-2.437 4.528-5.797 0-2.526-1.263-5.699-4.463-5.699-3.178 0-4.563 2.959-4.563 5.764zm17.298-2.834c0-1.758-.032-3.268-.125-4.656h2.376l.124 2.958h.091c.675-2.001 2.34-3.263 4.163-3.263.273 0 .49.027.737.059v2.563c-.278-.063-.558-.063-.926-.063-1.914 0-3.268 1.418-3.638 3.452-.06.367-.09.83-.09 1.267v7.947h-2.713l.001-10.264zm24.022-8.231v3.574h3.884v2.066h-3.884v8.044c0 1.848.526 2.896 2.036 2.896.741 0 1.17-.061 1.571-.184l.127 2.066c-.527.184-1.36.369-2.41.369-1.26 0-2.28-.429-2.924-1.142-.741-.832-1.05-2.158-1.05-3.91v-8.141h-2.312v-2.066h2.312v-2.774l2.65-.798zm9.004-3.39h2.715v9.34h.063a5.026 5.026 0 0 1 1.943-1.941 5.509 5.509 0 0 1 2.771-.737c2.003 0 5.211 1.229 5.211 6.347v8.877H160.8v-8.568c0-2.406-.895-4.406-3.455-4.406-1.754 0-3.109 1.23-3.636 2.684-.151.397-.185.797-.185 1.289v9.002h-2.715v-21.887zm20.698 14.917c.06 3.667 2.372 5.179 5.113 5.179 1.943 0 3.145-.34 4.133-.772l.489 1.942c-.953.433-2.619.955-4.99.955-4.594 0-7.334-3.048-7.334-7.55 0-4.499 2.65-8.011 6.995-8.011 4.901 0 6.167 4.248 6.167 6.993 0 .558-.03.957-.095 1.265l-10.478-.001zm7.95-1.941c.032-1.694-.706-4.379-3.76-4.379-2.774 0-3.946 2.496-4.162 4.379h7.922zm20.112 2.369l-2.161 6.537h-2.771l7.088-20.773h3.203l7.094 20.773h-2.868l-2.222-6.537h-7.363zm6.845-2.092l-2.071-5.981c-.459-1.354-.77-2.588-1.077-3.791h-.06c-.309 1.205-.62 2.496-1.047 3.761l-2.037 6.013 6.292-.002zm10.548-1.632c0-1.758-.032-3.268-.122-4.656h2.372l.124 2.958h.095c.677-2.001 2.34-3.263 4.16-3.263.274 0 .494.027.741.059v2.563c-.277-.063-.557-.063-.925-.063-1.914 0-3.27 1.418-3.637 3.452-.06.367-.094.83-.094 1.267v7.947h-2.713l-.001-10.264zm16.157-8.231v3.574h3.886v2.066h-3.886v8.044c0 1.848.527 2.896 2.036 2.896.742 0 1.171-.061 1.57-.184l.128 2.066c-.527.184-1.359.369-2.408.369-1.262 0-2.282-.429-2.926-1.142-.741-.832-1.048-2.158-1.048-3.91v-8.141h-2.313v-2.066h2.313v-2.774l2.648-.798zm8.64 15.75c.833.49 2.249 1.049 3.608 1.049 1.937 0 2.865-.957 2.865-2.223 0-1.294-.768-1.973-2.741-2.711-2.714-.984-3.975-2.435-3.975-4.222 0-2.403 1.972-4.374 5.143-4.374 1.511 0 2.835.398 3.639.922l-.647 1.973a5.782 5.782 0 0 0-3.054-.892c-1.602 0-2.462.923-2.462 2.034 0 1.234.86 1.787 2.802 2.559 2.559.956 3.917 2.246 3.917 4.465 0 2.656-2.063 4.502-5.549 4.502-1.635 0-3.14-.429-4.192-1.047l.646-2.035zm33.731-.834c0 1.295.063 2.56.217 3.576h-2.436l-.217-1.882h-.092c-.835 1.175-2.439 2.222-4.563 2.222-3.02 0-4.563-2.125-4.563-4.283 0-3.606 3.206-5.58 8.965-5.551v-.309c0-1.201-.337-3.449-3.388-3.418-1.414 0-2.868.398-3.915 1.105l-.615-1.816c1.232-.771 3.053-1.291 4.93-1.291 4.563 0 5.675 3.107 5.675 6.068l.002 5.579zm-2.619-4.035c-2.961-.062-6.322.459-6.322 3.356 0 1.789 1.176 2.591 2.53 2.591 1.972 0 3.237-1.234 3.667-2.5a2.98 2.98 0 0 0 .125-.859v-2.588zm9.067-3.267c0-1.574-.028-2.805-.117-4.04h2.398l.159 2.466h.06c.737-1.386 2.467-2.771 4.933-2.771 2.063 0 5.271 1.229 5.271 6.348v8.875h-2.712v-8.598c0-2.406-.896-4.407-3.456-4.407-1.754 0-3.14 1.262-3.637 2.773-.12.338-.184.798-.184 1.265v8.968h-2.715V278.68zm32.039-11.004v18.029c0 1.324.061 2.836.123 3.854h-2.404l-.119-2.59h-.095c-.804 1.664-2.589 2.928-5.026 2.928-3.606 0-6.407-3.048-6.407-7.58-.031-4.961 3.078-7.979 6.687-7.979 2.312 0 3.824 1.076 4.502 2.248h.061v-8.908l2.678-.002zm-2.681 13.035c0-.338-.029-.797-.12-1.141-.401-1.692-1.883-3.111-3.916-3.111-2.808 0-4.472 2.469-4.472 5.73 0 3.024 1.513 5.521 4.408 5.521 1.816 0 3.48-1.236 3.979-3.238.091-.368.12-.739.12-1.169l.001-2.592zm20.668-11.926v8.688h10.044v-8.688h2.715v20.772h-2.715v-9.739h-10.044v9.739h-2.714v-20.772h2.714zm31.879 16.675c0 1.567.032 2.927.127 4.099h-2.407l-.151-2.436h-.061c-.679 1.201-2.281 2.773-4.933 2.773-2.346 0-5.149-1.324-5.149-6.535v-8.722h2.712v8.234c0 2.83.896 4.771 3.33 4.771 1.818 0 3.084-1.265 3.572-2.494.16-.369.249-.863.249-1.386v-9.125h2.711v10.821zm6.575-6.78c0-1.574-.06-2.805-.125-4.04h2.375l.127 2.435h.09c.835-1.416 2.221-2.739 4.718-2.739 2.005 0 3.542 1.229 4.189 2.987h.061a5.97 5.97 0 0 1 1.698-1.941c.892-.679 1.848-1.048 3.267-1.048 2.004 0 4.933 1.293 4.933 6.47v8.756H389.1v-8.414c0-2.898-1.077-4.593-3.236-4.593-1.57 0-2.743 1.14-3.233 2.435a4.45 4.45 0 0 0-.217 1.356v9.215h-2.651v-8.937c0-2.377-1.047-4.069-3.112-4.069-1.664 0-2.927 1.354-3.361 2.713-.15.37-.211.858-.211 1.325v8.968h-2.655V278.68h-.006zm38.27 7.302c0 1.295.062 2.56.218 3.576h-2.439l-.214-1.882h-.096c-.826 1.175-2.432 2.222-4.561 2.222-3.021 0-4.562-2.125-4.562-4.283 0-3.606 3.203-5.58 8.971-5.551v-.309c0-1.201-.339-3.449-3.392-3.418-1.42 0-2.866.398-3.915 1.105l-.614-1.816c1.23-.771 3.051-1.291 4.933-1.291 4.56 0 5.669 3.107 5.669 6.068l.002 5.579zm-2.623-4.035c-2.959-.062-6.317.459-6.317 3.356 0 1.789 1.167 2.591 2.528 2.591 1.972 0 3.23-1.234 3.67-2.5.09-.306.119-.613.119-.859v-2.588zm9.076-3.267c0-1.574-.032-2.805-.125-4.04h2.403l.151 2.466h.063c.742-1.386 2.466-2.771 4.933-2.771 2.065 0 5.27 1.229 5.27 6.348v8.875h-2.713v-8.598c0-2.406-.892-4.407-3.448-4.407-1.763 0-3.146 1.262-3.637 2.773-.127.338-.189.798-.189 1.265v8.968h-2.707V278.68h-.001zm22.202-8.231c0 .926-.646 1.662-1.728 1.662-.985 0-1.635-.736-1.635-1.662s.682-1.693 1.696-1.693c.99 0 1.667.736 1.667 1.693zm-3.023 19.11V274.64h2.713v14.919h-2.713zm12.547-18.493v3.574h3.888v2.066h-3.888v8.044c0 1.848.529 2.896 2.037 2.896.742 0 1.17-.061 1.568-.184l.13 2.066c-.528.184-1.36.369-2.409.369-1.261 0-2.28-.429-2.926-1.142-.74-.832-1.051-2.158-1.051-3.91v-8.141h-2.31v-2.066h2.31v-2.774l2.651-.798zm12.031-.617c0 .926-.649 1.662-1.728 1.662-.987 0-1.635-.736-1.635-1.662s.683-1.693 1.697-1.693c.991 0 1.666.736 1.666 1.693zm-3.021 19.11V274.64h2.713v14.919h-2.713zm10.792-6.966c.062 3.667 2.372 5.179 5.116 5.179 1.943 0 3.145-.34 4.131-.772l.495 1.942c-.954.433-2.622.955-4.997.955-4.59 0-7.333-3.048-7.333-7.55 0-4.499 2.65-8.011 6.995-8.011 4.901 0 6.165 4.248 6.165 6.993 0 .558-.03.957-.09 1.265l-10.482-.001zm7.952-1.941c.028-1.694-.708-4.379-3.758-4.379-2.777 0-3.943 2.496-4.164 4.379h7.922zm7.688 6.164c.827.49 2.248 1.049 3.605 1.049 1.938 0 2.864-.957 2.864-2.223 0-1.294-.771-1.973-2.745-2.711-2.709-.984-3.976-2.435-3.976-4.222 0-2.403 1.974-4.374 5.15-4.374 1.508 0 2.83.398 3.637.922l-.647 1.973a5.782 5.782 0 0 0-3.054-.892c-1.602 0-2.465.923-2.465 2.034 0 1.234.862 1.787 2.805 2.559 2.556.956 3.91 2.246 3.91 4.465 0 2.656-2.063 4.502-5.546 4.502-1.633 0-3.143-.429-4.188-1.047l.65-2.035zM106.263 198.986c11.223 0 18.394-6.623 18.394-19.095 0-12.315-7.326-18.94-18.394-18.94h-8.339v38.035h8.339zm-18.315-43.41c0-2.106 1.091-3.274 3.194-3.274h15.667c17.069 0 28.213 10.134 28.213 27.591s-11.145 27.746-28.213 27.746H91.143c-2.103 0-3.194-1.091-3.194-3.273l-.001-48.79zm81.676 29.695l-4.91-14.811c-.935-3.117-2.182-8.573-2.182-8.573h-.156s-1.247 5.456-2.182 8.573l-4.989 14.811h14.419zm-13.328-30.319c.624-1.793 1.794-2.65 3.664-2.65h4.987c1.871 0 3.118.857 3.662 2.65l17.303 48.947c.779 2.258-.233 3.74-2.65 3.74h-3.584c-1.872 0-3.118-.857-3.663-2.648l-3.896-11.536h-19.408l-3.819 11.459c-.545 1.868-1.792 2.727-3.662 2.727h-3.585c-2.417 0-3.43-1.481-2.65-3.739l17.301-48.95zm56.267 23.304c5.378 0 8.73-3.352 8.73-8.807 0-3.508-1.324-6.314-4.364-7.561-1.325-.626-3.04-.938-6.002-.938h-7.403v17.305h9.039zm-19.017-22.68c0-2.106 1.091-3.274 3.197-3.274h14.963c5.456 0 8.183.467 10.521 1.48 5.612 2.339 9.275 7.639 9.275 15.121 0 6.547-3.429 12.783-9.197 15.121v.156s.702.857 1.792 2.885l9.12 16.68c1.325 2.259.31 3.896-2.261 3.896h-4.21c-1.792 0-2.959-.703-3.819-2.262l-9.742-18.393h-9.664v17.379c0 2.183-1.092 3.272-3.197 3.272h-3.583c-2.105 0-3.197-1.091-3.197-3.272l.002-48.789zm48.783 0c0-2.106 1.092-3.274 3.196-3.274h3.586c2.104 0 3.196 1.168 3.196 3.274v48.79c0 2.183-1.092 3.272-3.196 3.272h-3.586c-2.104 0-3.196-1.091-3.196-3.272v-48.79zm48.241 29.695l-4.91-14.811c-.936-3.117-2.182-8.573-2.182-8.573h-.155s-1.247 5.456-2.183 8.573l-4.988 14.811h14.418zm-13.327-30.319c.623-1.793 1.794-2.65 3.663-2.65h4.986c1.873 0 3.121.857 3.662 2.65l17.304 48.947c.777 2.258-.233 3.74-2.649 3.74h-3.584c-1.87 0-3.117-.857-3.663-2.648l-3.896-11.536h-19.407l-3.819 11.459c-.545 1.868-1.792 2.727-3.66 2.727h-3.588c-2.415 0-3.428-1.481-2.648-3.739l17.299-48.95zm37.249.624c0-2.106 1.091-3.274 3.195-3.274h3.586c2.104 0 3.193 1.168 3.193 3.274v20.185h25.329v-20.185c0-2.106 1.093-3.274 3.274-3.274h3.507c2.105 0 3.195 1.168 3.195 3.274v48.79c0 2.183-1.09 3.272-3.195 3.272h-3.507c-2.183 0-3.274-1.091-3.274-3.272v-19.953h-25.328v19.953c0 2.183-1.09 3.272-3.193 3.272h-3.586c-2.104 0-3.195-1.091-3.195-3.272l-.001-48.79zm56.19 30.863v-2.184c0-2.104 1.168-3.195 3.274-3.195h16.91c2.106 0 3.275 1.092 3.275 3.195v2.184c0 2.182-1.169 3.271-3.275 3.271h-16.91c-2.106.003-3.274-1.09-3.274-3.271M54.73 82.941c0-9.652 12.428-15.619 20.61-20.577 6.428 3.915 21.42 10.997 21.424 21.155.003 11.275-4.69 29.654-8.422 29.734-4.06.089-9.669-23.294-12.655-23.233-2.984.063-8.54 23.328-12.284 23.322-4.068-.005-8.673-19.894-8.673-30.401m-33.293 54.456c-9.181-2.985-11.014-16.648-13.201-25.96 5.71-4.905 17.078-16.976 26.741-13.84 10.724 3.482 26.753 13.623 25.675 17.199-1.167 3.888-25.142 1.998-26.004 4.855-.866 2.857 19.546 15.331 18.383 18.893-1.263 3.861-21.602 2.098-31.594-1.147m41.501 48.488c-5.676 7.809-19.234 5.33-28.768 4.535-2.901-6.946-10.866-21.491-4.899-29.71 6.626-9.122 21.226-21.231 24.292-19.104 3.337 2.312-5.87 24.529-3.417 26.233 2.45 1.707 20.621-13.853 23.648-11.645 3.284 2.394-4.679 21.191-10.856 29.691m53.866-88.113c9.184-2.982 18.697 6.993 25.941 13.243-1.736 7.323-3.838 23.771-13.499 26.911-10.724 3.489-29.652 4.705-30.882 1.18-1.341-3.834 19.165-16.398 18.185-19.217-.979-2.818-24.826-.912-25.978-4.475-1.25-3.869 16.243-14.393 26.233-17.642M404.471 156.126c0-2.102 1.086-3.27 3.19-3.27h26.619c2.101 0 3.27 1.167 3.27 3.27v2.179c0 2.102-1.169 3.191-3.27 3.191h-19.849v14.477h15.411c2.103 0 3.271 1.09 3.271 3.191v2.179c0 2.181-1.168 3.271-3.271 3.271h-15.411v14.865h21.092c2.104 0 3.271 1.09 3.271 3.191v2.18c0 2.18-1.166 3.27-3.271 3.27h-27.862c-2.104 0-3.19-1.09-3.19-3.27v-48.724zm42.74 0c0-2.102 1.091-3.27 3.191-3.27h3.504c2.179 0 3.267 1.167 3.267 3.27v32.067c0 7.474 4.828 11.676 12.22 11.676 7.396 0 12.301-4.202 12.301-11.676v-32.067c0-2.102 1.091-3.27 3.189-3.27h3.58c2.104 0 3.19 1.167 3.19 3.27v32.146c0 12.377-8.871 20.781-22.185 20.781-13.386 0-22.261-8.404-22.261-20.781v-32.146h.004z"
  />
</svg>
