<svg
  xmlns="http://www.w3.org/2000/svg"
  width="500"
  height="300"
  viewBox="0 0 500 300"
>
  <path
    d="M417.862 117.179c13.954-.286 23.952 3.233 30.908 9.934.136 2.706-2.344 7.755-5.52 7.728-.681-.488-1.669-.441-2.427-.883-3.022-1.762-6.161-3.782-9.718-5.079-2.494-.909-5.441-.952-8.167-1.545-3.093-.671-7.115.24-9.271.883-3.069.915-5.589 1.522-7.95 3.091-4.672 3.104-9.685 10.389-7.065 18.546 2.534 7.89 9.72 11.603 17.001 14.792 2.906 1.273 5.923 3.144 8.83 4.416 7.662 3.354 14.833 6.658 20.312 12.144 4.142 4.143 5.313 7.455 6.846 14.35.318 1.433.619 4.626.221 6.402-.628 2.797-.967 5.678-1.987 8.167-3.242 7.909-9.526 14.009-17.884 16.78-2.447.813-4.732.712-7.507 1.324-3.628.801-9.98.92-13.687 0-3.937-.976-7.75-2.1-11.039-3.532-3.97-1.727-13.828-5.838-13.91-10.818 1.771-2.312 2.327-5.74 6.403-5.74 4.666 3.751 10.288 7.029 16.558 9.053l7.508 1.324c3.229.702 7.472-.208 9.714-.883 2.938-.885 5.294-1.544 7.506-3.09 4.661-3.258 9.788-11.984 6.403-20.312-3.407-8.389-11.645-12.298-19.87-15.897-4.767-2.085-9.74-4.744-14.352-7.065-4.628-2.329-8.947-4.443-11.921-8.39-.901-1.193-2.279-2.229-3.092-3.532-2.403-3.85-4.972-11.302-3.311-18.103a36.391 36.391 0 0 1 1.766-5.298c1.629-3.861 3.515-7.359 6.402-9.936 3.832-3.42 8.617-5.758 14.13-7.506l8.17-1.325zm-211.95 50.78h62.481v-35.988c0-4.001-.916-10.703 1.547-12.364 1.77-1.41 6.074-.462 7.946 0 1.456 2.336 1.106 5.699 1.106 9.493v86.323c0 3.415.137 7.405-.443 10.156-2.351 1.524-5.257 1.631-8.609.883-.373-.578-1.074-1.102-1.324-1.766-.875-2.32-.223-10.116-.223-13.246v-33.78h-62.48v35.767c0 3.182.637 11.085-.882 12.585-1.684 1.66-6.607.748-8.611.22-2.146-3.708-1.103-17.56-1.103-23.624v-76.61c0-2.654-.389-5.657 1.545-6.402 2.079-1.713 7.932-.699 8.61 1.325 1.122 1.614.441 9.996.441 12.805l-.001 34.223zm159.404 46.584V185.18c-.002-13.639-.899-25.342-8.611-31.13-4.033-3.027-8.494-4.599-14.35-5.96-2.603-.606-7.38-.556-9.937 0-1.617.146-3.239.293-4.856.441-6.797 1.705-13.033 3.661-17.222 7.948-.057 4.48 1.114 4.384 3.313 6.403 4.351-.066 5.86-1.83 8.831-3.09 2.114-.898 4.579-1.41 6.844-1.987 2.648-.675 7.332-.845 10.156-.221 1.889.417 3.292.236 4.855.883 7.623 3.152 11.064 10.151 10.156 21.194-19.243-.075-38.432 1.491-46.805 13.026-2.165 2.98-5.838 9.786-4.415 16.116 2.396 10.679 7.854 15.717 17.883 18.765 3.124.95 8.875 1.873 13.025.884l6.182-1.767c4.402-1.896 8.794-5.386 11.479-9.052 1.099-1.5 1.786-3.55 3.091-4.857v-.441h.222c-.016 5.107-.396 10.813 1.545 13.91 2.277.176 6.887 1.245 8.169-.664 1.039-1.539.445-8.442.445-11.038zm-24.506 3.091c-8.413 5.125-20.69 1.44-24.729-5.079-3.321-5.367-2.033-11.797 1.105-16.117 6.268-8.627 23.096-9.42 37.753-8.832.003 14.878-4.918 24.418-14.129 30.028zm-172.431-69.325c-.655-1.502-.97-3.075-1.985-4.194-2.24-1.559-11.788-.919-14.573-.221-2.165.544-3.949.441-5.96 1.104-5.827 1.919-10.978 4.652-15.455 7.948-2.85 2.097-4.748 5.408-7.507 7.507-.675.42-3.796-2.188-4.415-2.87-.126-.13 1.791-3.453 2.207-4.194 2.568-4.582 3.889-9.72 5.299-15.675 1.573-6.648-.82-18.149-2.65-22.521-.524-1.252-1.411-2.574-1.766-3.973-3.573-.453-7.69-.986-11.701-1.104-1.039.67-3.223-.09-4.636.221-2.062.293-4.122.588-6.183.883-2.464 5.14-6.409 15.208-4.635 23.401v2.43c1.056 4.539 1.958 8.659 3.532 12.363 1.098 2.587 2.136 6.085 4.194 7.728-.575 1.549-2.569 1.903-3.532 3.09h-.441c-1.026-2.023-2.876-3.538-4.416-5.077-5.282-5.284-11.462-9.291-19.43-11.922-1.624-.537-2.935-.429-4.637-.883-2.125-.567-11.706-1.879-13.908-.441-1.617.804-2.334 4.017-3.092 5.74-1.096 2.494-2.401 5.417-3.312 8.169-.589 2.723-1.176 5.446-1.766 8.168 1.703 1.152 2.988 2.987 4.637 4.196 3.532 2.589 7.635 4.863 11.922 6.623 2.909 1.195 6.288 1.67 9.493 2.428l4.856.221c2.923.634 11.907-.256 13.689-1.545.513.051.623.043.883.221.804 1.006.613 2.856 1.325 3.974v.663c-10.849 2.501-21.633 13.782-26.273 22.74-1.399 2.701-2.358 5.86-3.312 8.833-.414 1.289-.208 2.933-.885 3.974.377 1.914 3.032 3.588 4.417 4.635 3.04 2.301 7.499 7.123 11.479 8.169.764.295 1.883-.706 2.649-1.104 2.603-1.356 4.636-2.811 6.844-4.416 6.671-4.85 11.661-11.722 15.012-19.871l2.208-7.947c.271-1.056-.039-2.284.442-3.091v-2.209c.921-.203 3.55-.581 4.415 0h1.325c.293 2.65.588 5.299.882 7.949 2.558 9.709 6.503 16.88 12.585 22.96l2.649 2.872c1.865 1.402 3.778 2.961 5.74 4.194 1.127.708 2.72.976 3.532 1.986 1.932-.319 3.247-1.566 4.637-2.428 2.736-1.702 5.22-3.204 7.726-5.08 1.558-1.164 2.748-2.896 4.417-3.974-.357-13.296-10.214-25.754-18.325-31.57-3.048-2.186-6.439-4.988-10.599-5.961.134-2.303 1.121-3.6 1.546-5.52 1.643.137 3.187.742 4.636 1.104 2.005.503 4.243.224 6.183.663 3.035.686 7.365-.301 9.714-.883 7.74-1.917 13.462-3.829 18.987-7.727 2.139-1.51 3.792-3.895 5.961-5.3-.764-5.851-2.636-10.882-4.629-15.456zM76.315 165.31c-6.447-.426-12.189-3.419-16.34-6.403-1.739-1.252-3.063-3.242-4.855-4.416v-.442c.852-.017 2.287-.058 2.87-.442 10.195.049 16.829 1.8 22.74 5.961 2.062 1.452 3.653 3.722 5.741 5.078-1.236 1.31-7.854.817-10.156.664zm15.675 35.986c-2.248 5.197-5.651 9.885-9.935 13.025-1.744 1.279-4.161 2.053-5.739 3.532h-.221c1.012-8.21 6.997-16.569 12.363-20.532 1.738-1.283 4.172-2.047 5.741-3.532.837 1.469-1.689 6.305-2.209 7.507zm16.116-81.025c.571-1.43 1.564-2.861 1.987-4.416 1.206.964 1.35 2.855 1.987 4.416 2.93 7.164 2.375 17.107-.442 23.844-.468 1.119-.564 2.293-1.323 3.09v.221h-.221c-.598-2.217-1.925-4.385-2.649-6.624l-1.104-5.96c-.858-3.909.772-12.086 1.765-14.571zm8.392 54.531l-.221 5.519h-.221v.222c-2.006-.038-4.014-1.434-5.739-1.105-1.237.238-3.707 1.899-4.856 1.327-1.369-.848-.289-3.845-.884-5.52-.538-1.51-2.363-2.517-2.869-4.195-.179-.228-.083-.054-.221-.442 1.354-1.035 4.154-1.385 5.298-2.428.793-.722 2.36-3.197 2.871-4.196h.883c1.103 1.326 2.208 2.649 3.312 3.975 1.484.986 3.79 1.198 5.299 1.987-.278 2.127-2.081 3.117-2.652 4.856zm24.284 36.43c.805 1.859.942 5.227 1.987 6.844v.883c-2.267-.612-3.85-2.51-5.52-3.753-5.181-3.853-11.438-12.421-11.922-20.752 5.871 1.6 13.069 11.271 15.455 16.778zm20.092-52.988c-3.437 2.553-7.101 4.681-11.703 6.183-1.483.483-2.782.27-4.415.662-1.644.395-7.598.954-9.053 0h-.441v-.221c1.068-.726 1.839-1.908 2.87-2.649 2.617-1.882 5.705-3.571 8.832-4.857 1.913-.514 3.827-1.029 5.74-1.545 1.085-.277 2.468.059 3.312-.441 1.464-.03 4.518-.426 5.52.22.843-.008 1.667.033 2.208.221-.727 1.122-1.805 1.636-2.87 2.427zm200.027 100.233c4.346-.119 7.188 1.175 9.271 3.312-.455 1.276-.617 1.995-2.429 1.987-3.065-3.98-12.464-2.703-12.362 3.974 1.176 1.404 1.16 2.47 2.868 3.534 4.395 2.733 15.21 4.656 12.586 13.246-.223.727-.662 1.974-1.103 2.649-2.603 3.976-9.579 4.845-14.352 2.428-1.576-.796-3.407-1.052-3.532-3.312.681-.675.677-1.193 1.986-1.324 1.906 1.891 6.904 4.113 10.819 2.429 1.478-.638 1.859-2.006 2.869-3.091.296-9.232-10.23-7.386-14.13-12.807-2.101-2.922-1.314-7.951.884-10.155 1.021-1.022 2.663-1.969 4.195-2.429.886-.264 1.772-.024 2.43-.441zM73.887 273.27h17.662v-.441c.481-.776.221-2.804.221-3.974 0-3.074-.282-6.793.221-9.493h.442c.589-.407 1.571-.146 2.207 0v.441c.661 1.058.22 6.222.22 7.948v14.572c0 2.586.212 5.724-.22 7.947h-.441c-.591.408-1.571.148-2.208 0v-.441c-.484-.771-.221-2.807-.221-3.972v-9.495H73.888c.014 4.896-.021 9.196-.22 13.689l-.664.219c-.589.408-1.57.148-2.207 0v-.441c-.688-1.107-.221-6.587-.221-8.389v-21.858l.663-.219c.406-.274 1.259-.243 1.986-.221.272.503.362.496.442 1.324.46.73.22 2.633.22 3.751v9.053zm143.285-14.129h2.429c.288.532.398.624.441 1.545.326.536.064 1.112 0 1.987h-.219v.221c-2.593.284-3.26-.005-3.091-3.091.2-.206.293-.387.44-.662zm24.287 0h2.208l.219.441c.602.702.589 2.389 0 3.091-.785.583-1.574.322-2.649.221l-.22-.662c-.46-.669-.162-2.163 0-2.87.387-.14.214-.044.442-.221zm181.701 0h1.987c.074.146.145.294.219.441.974 1.288.443 5.2.443 7.285v19.428c.67.448 2.276 1.244 2.649 1.989.336.416.396.791.441 1.543a5.524 5.524 0 0 0-1.104.884c-2.272-.009-3.804-.794-4.635-2.208-.869-1.476-.663-4.166-.665-6.402v-13.246c.003-3.108-.503-7.669.665-9.714zm-192.52 9.051c1.834-.021 4.026-.077 5.519.221.173.494.225 1.198.221 1.986-.221.073-.442.146-.664.221-.886.575-3.535.249-4.856.222-.044 5.016-.27 11.002.661 15.012.802.495 1.477 1.437 2.43 1.767.809.073 1.619.147 2.43.223.074.219.146.441.219.66.389.566.141 1.368 0 1.987h-.662c-1.568.984-4.412-.721-5.298-1.325-4.096-2.792-3.226-11.208-3.091-18.103h-.221v-.223c-1.213.073-2.06.202-2.428-.662-.365-.541-.136-1.157 0-1.767.51-.154 1.98-.146 2.428-.441.951-1.644-.693-5.149 1.104-5.961.723-.503 1.641-.052 2.208.221.149 1.546.006 3.831 0 5.962zm100.896 0c1.835-.021 4.026-.077 5.52.221v.441c.368.541.137 1.158 0 1.766h-.44c-.888.575-3.535.249-4.857.222v.441c-.863 1.322-.093 8.244 0 9.935.077 1.405-.168 2.913.441 3.753 1.293 3.736 5.468 1.179 5.52 5.079-.323.188-.634.4-.885.662-9.996.047-8.533-9.771-8.388-19.648h-.221v-.221c-1.214.071-2.062.203-2.43-.664-.365-.541-.135-1.156 0-1.766.511-.154 1.98-.148 2.43-.44.681-1.089.21-4.472.441-5.741l.663-.221c.564-.387 1.365-.142 1.985 0 .519 1.532.24 4.26.221 6.181zm-177.728-.883c8.561.075 8.169 5.949 8.169 14.353 0 2.762.384 6.563-.442 8.609-.54.188-1.364.231-2.206.22-.189-.322-.401-.633-.662-.882V278.35a8677.6 8677.6 0 0 1-.221-4.857c-.552-1.556-1.798-2.076-2.87-3.091-3.317-.028-4.604.619-6.181 2.206-4.376 4.41-1.775 10.404-3.091 17.663h-.439c-.374.251-1.083.234-1.767.22-1.385-2.286-.691-10.057-.664-13.687-1.199-2.087.495-4.757-2.207-5.74-2.009-1.914-5.124.011-6.622 1.104-4.186 3.047-3.652 10.571-3.533 17.882-.653.351-1.263.458-2.429.44-.189-.322-.4-.631-.663-.882v-13.689c0-2.45-.182-5.413.221-7.506l.662-.22c.566-.388 1.368-.141 1.987 0v.44c.505.835-.075 2.927.442 3.753 2.868-5.024 13.034-7.98 14.791.221.177-.226.077-.06.22-.441 1.492-.994 2.383-2.778 3.975-3.753.981-.602 2.539-.448 3.53-1.104zm127.39 0c2.887-.063 5.77 1.214 7.286 2.651-.248 1.141-.68 1.316-1.325 1.985-1.187-.289-1.934-.944-2.868-1.325-2.148-.871-4.159-.029-5.963.442-.487.708-1.776 2.195-.882 3.532 1.692 4.641 14.231 3.215 11.479 11.923-1.304 4.125-6.957 5.499-11.479 3.752-1.779-.688-3.855-.96-3.975-3.312.616-.586.648-.935 1.766-1.104 1.38 1.388 6.178 3.677 8.61 1.767 1.409-.405 2.183-1.504 2.208-3.312-.244-.306-.331-.633-.44-1.104-1.063-.667-2.078-1.67-3.313-2.207-3.647-1.591-8.186-2.03-8.169-7.286.005-1.498.249-2.637.883-3.532.739-1.042 2.407-2.028 3.755-2.428.887-.265 1.765-.035 2.427-.442zm104.428 0c2.875-.094 7.911 1.277 8.61 3.091.824 1.179-.467 2.218-1.766 2.208-5.237-5.71-16.685-.192-14.351 8.833.963 3.727 5.273 8.188 10.597 6.623 2.049-.603 3.18-2.238 5.52-2.431.603.903.911 1.117.663 2.431-2 .979-3.764 2.307-6.183 2.87-1.712.397-4.199-.105-5.297-.443-4.772-1.47-6.512-4.013-7.95-8.831-.555-1.866-1.063-5.01-.219-7.066 1.064-2.591 3.622-5.081 6.179-6.182 1.234-.528 3.047-.386 4.197-1.103zm-184.792.22c3.567-.046 6.708.191 8.169 2.208 2.338 3.226 1.399 14.699 1.324 20.313-.652.349-1.263.457-2.429.44-1.519-2.514-.69-11.907-.662-15.896-.905-1.43-.68-2.934-2.429-3.532-1.726-1.577-5.077-.177-6.404.662-6.555 4.138-3.108 9.893-4.636 18.545h-.442c-.59.406-1.571.146-2.208 0v-.442c-.701-1.123-.221-4.363-.221-5.96v-15.235c.749-.472 1.035-.674 2.43-.662.656 1.056.699 2.52.663 4.415h.22c.932-1.552 2.729-3.447 4.416-4.194.771-.339 1.593-.226 2.209-.662zm-98.247.443c.737.072 1.473.147 2.208.221v.221h.22c.602 5.66-.445 12.712.883 17.882.863.571 1.753 1.461 2.87 1.767 2.65.724 4.55-.904 5.74-1.767 1.821-1.319 2.941-2.982 3.532-5.519.928-3.987-.843-9.215.442-12.584.54-.188 1.364-.231 2.208-.223l.22.441c.788 1.026.442 3.786.442 5.52 0 4.148.754 13.341-.442 16.339-.54.188-1.364.23-2.207.221-.505-.951-.47-2.626-.44-4.195h-.221v.44c-1.681 1.151-2.815 2.916-4.858 3.753-1.287.528-3.304.743-4.636.443-1.197-.271-1.915-.017-2.87-.443-4.102-1.826-3.753-7.745-3.753-13.687 0-2.911-.41-6.947.662-8.83zm115.027 0h1.767c.188.323.4.634.662.883v15.455c0 1.484.485 4.741-.22 5.74-.403.568-1.453.448-2.43.44-.271-.502-.361-.497-.441-1.323-.585-.916-.22-3.508-.22-4.857v-11.259c0-1.58-.23-3.695.441-4.637.162-.193.277-.25.441-.442zm24.064 0h1.767c.189.323.4.634.663.883v15.455c0 1.484.486 4.741-.22 5.74-.383.541-1.274.44-2.208.44-.225-.176-.06-.078-.442-.22-.59-1.784-.22-4.882-.22-7.064v-14.572c.177-.226.079-.059.22-.441.386-.14.214-.045.44-.221zm27.819 11.04c1.46-1.907-1.067-7.647-1.986-8.833-.784-1.009-2.212-1.479-3.532-1.986-5.86-2.249-11.79 1.118-13.691 5.519-3.431 7.953 1.168 14.443 6.845 16.559 1.222.456 3.271 1.351 5.298.883 2.668-.612 4.643-1.66 6.624-2.868-.014-1.586-.374-1.672-1.104-2.431-1.88.353-3.039 1.734-4.856 2.208-5.982 1.557-10.444-3.762-10.377-8.61h11.704c1.685-.002 4.029.259 5.075-.441zm-2.871-1.99h-13.688c.398-8.412 13.291-9.747 13.688 0zm173.755-9.493c-3.563 1.058-6.362 3.579-7.727 6.845-3.773 9.04 4.403 18.83 13.468 16.558 2.112-.529 3.883-1.648 5.519-2.647-.023-1.449-.356-1.619-.881-2.431-2.041.251-3.145 1.708-5.08 2.208-6.007 1.554-10.461-3.696-10.376-8.61h11.703c1.638 0 3.844.237 4.855-.441h.441c.809-6.667-4.289-13.747-11.922-11.482zm-4.858 9.493c.135-5.214 4.365-7.104 9.717-6.623 2.28 2.125 3.579 2.427 3.974 6.623h-13.691zm-19.649-4.194c-.442-1.476-1.496-3.191-2.648-3.974-2.744-1.862-11.846-2.002-13.025 1.324-.312.656.273 1.192.661 1.767 3.205-.146 4.668-1.605 8.611-1.546 2.277 2.085 3.415 1.7 3.312 6.402-6.864-.134-12.073.405-14.131 5.08-.352.803-1.025 2.28-.661 3.751 1.771 7.13 11.46 6.687 14.792 1.326.463.724.464 2.725.884 3.531.686.017 1.394.031 1.765-.22h.442c.566-2.795.782-14.82-.002-17.441zm-7.728 15.234c-4.121 1.703-6.938-1.376-6.843-5.079 1.26-1.332 1.948-2.704 3.973-3.312 2.083-.623 5.295.177 7.065-.882h.441c.146 4.815-1.399 7.937-4.636 9.273zm-224.533-16.999c-1.144-1.94-2.808-2.618-5.298-3.312-1.631-.455-3.892-.553-5.741 0-1.572.47-2.98 1.404-4.195 2.209.123 1.119.374 1.682 1.326 1.985.215.224 1.813-.385 2.428-.662 1.428-.643 5.064-1.655 6.623-.221 1.958.65 2.536 2.979 2.429 5.739-6.756-.134-16.654 1.161-14.792 8.831 1.75 7.221 11.438 6.623 14.792 1.326.478.754.43 2.697.882 3.531 1.395.013 1.68-.189 2.429-.661.046-4.497.672-16.134-.883-18.765zm-11.258 16.999c-1.263-.515-1.792-1.725-2.649-2.649-.166-6.019 5.697-6.57 11.48-6.402.111 4.973-3.116 11.385-8.831 9.051zm147.26-18.325c-1.636-2.103-4.993-2.259-8.833-2.208-.833.583-2.101.464-3.091.884l-2.207 1.324c.021 1.247.244 1.494.663 2.208 3.288-.175 7.141-3.024 10.375-.662 1.055.769 1.043 2.181 1.768 3.312.008.841-.033 1.668-.221 2.207-6.875-.138-12.251.438-14.13 5.299-.257.664-.884 1.798-.662 2.87 1.489 7.219 11.733 8.203 14.792 1.987.689.442.431 2.498.663 3.312.381.143.216.045.44.221 1.112.012 1.589-.108 2.208-.44.437-5.417.701-17.145-1.765-20.314zm-5.961 18.325c-2.787 1.162-6.042-.512-6.626-2.429-.976-1.319-.114-3.131.663-3.974 2.055-2.232 6.186-2.818 10.599-2.649.118 4.495-1.587 7.782-4.636 9.052z"
  />
</svg>
