<svg
  xmlns="http://www.w3.org/2000/svg"
  width="500"
  height="300"
  viewBox="0 0 500 300"
>
  <path
    d="M220.28 178.487h-24.858c.125 11.803 1.824 36.872-2.688 43.668-4.957 7.469-18.023 8.249-23.514.673-4.431-6.114-3.023-19.464-3.023-29.896v-70.877c0-11.984-1.592-25.511 5.375-30.569 7.345-5.331 17.392-2.904 21.499 3.695 2.672 4.296 2.352 11.077 2.352 18.14v33.927h24.858v-32.919c-.001-5.419-.676-12.077 1.007-16.124 1.959-4.71 5.79-8.359 11.085-9.742 9.688-2.53 14.184 5.79 17.468 11.085 7.922 12.774 15.169 26.058 23.177 38.966 2.492 4.016 4.811 8.269 7.391 12.429 1.298 2.091 3.299 4.118 4.031 6.719h.336v-56.77c.66-1.024.493-2.478 1.007-3.695 1.212-2.862 3.846-6.166 6.383-7.726 9.987-6.144 19.464 2.295 21.835 9.741.713 2.242.336 5.643.336 8.398v76.588c0 11.135 1.93 30.669-2.688 37.286-4.877 6.99-14.58 8.181-21.834 2.688-1.792-1.356-2.473-3.739-3.694-5.711-2.493-4.015-4.81-8.268-7.391-12.428-6.412-10.334-12.313-21.104-18.812-31.575-2.147-3.46-4.148-7.149-6.383-10.75-.996-1.605-2.434-2.987-3.023-5.038h-.336v55.09c-.583.947-.281 2.489-.671 3.695-1.01 3.119-3.281 6.65-5.711 8.396-4.678 3.363-11.91 3.092-16.46 0-2.281-1.551-4.595-3.747-5.71-6.382-1.663-3.927-1.344-9.632-1.344-15.116v-25.866zm-98.087 66.175v16.124h14.108v-16.124a57.538 57.538 0 0 1 8.062 0v29.896c0 2.276.43 10.362 0 11.085-1.585 1.26-5.938.631-8.062.336v-17.803h-14.108v17.803a60.648 60.648 0 0 1-8.397 0v-41.317a60.648 60.648 0 0 1 8.397 0zm177.027 0c2.152-.267 4.901-.266 7.055 0v41.317c-1.93.275-5.283.803-6.719-.336-2.244-2.28-3.287-5.612-5.039-8.397-3.432-5.456-7.512-10.881-10.413-16.797h-.672v25.529c-2.234.276-5.156.276-7.39 0v-41.317c2.112-.203 5.449-.842 7.054.335 3.058 3.104 4.711 7.983 7.055 11.758 2.646 4.264 6.761 8.841 8.397 13.772h.672v-25.864zm-75.245 41.317a89.571 89.571 0 0 1-8.062 0c.054-7.095.621-15.835-.671-21.834-.591-.363-1.215-.845-1.68-1.344-1.874-.026-3.598-.081-4.703.672-3.968 2.703-2.474 15.981-2.351 22.506a89.571 89.571 0 0 1-8.062 0c.052-7.095.621-15.835-.672-21.834-.59-.363-1.215-.845-1.68-1.344-2.014-.053-3.43.145-4.703.672-3.102 4.927-2.376 14.327-2.352 22.506a89.571 89.571 0 0 1-8.062 0v-29.561c.688-.239 1.57-.332 2.688-.335.809-.483 2.482-.064 4.031 0 .179 1.143.454 3.162 1.343 3.694 3.233-5.779 13.69-5.353 16.46.671h.672c1.761-5.363 12.815-6.592 16.124-1.679 2.995 4.449 1.825 19.72 1.68 27.21zm161.91 0a89.571 89.571 0 0 1-8.062 0c.077-6.933 1.107-16.932-1.008-22.171-.49-.286-.963-.608-1.343-1.007-3.28-.142-5.279.343-6.047 2.688-2.046 2.649-1.047 15.63-1.009 20.49a89.571 89.571 0 0 1-8.062 0c.077-6.933 1.107-16.932-1.007-22.171-.491-.286-.964-.608-1.345-1.007-3.28-.142-5.279.343-6.046 2.688-2.039 2.659-1.047 15.626-1.008 20.49a89.594 89.594 0 0 1-8.063 0v-29.896c2.699-.024 3.76-.038 6.383 0 .444.941.753 3.14 1.68 3.694 2.992-6.213 13.791-5.125 16.46.671h.672c1.589-5.11 12.373-6.727 15.788-2.014 3.326 4.588 2.172 19.554 2.017 27.545zm-235.81-29.895h7.726c1.452 4.362.363 14.18.336 19.482.908 1.345.695 2.71 2.352 3.358 1.521 1.439 5.021 1.004 7.39.672v-23.513h7.726c.723 2.182.336 5.978.336 8.732v19.819c-.336.112-.671.225-1.007.336-1.737 1.253-4.208.788-6.718 1.344-1.812.4-5.242.415-7.054 0-4.051-.927-6.734-.918-8.734-3.695-3.745-5.197-2.468-17.806-2.353-26.535zm169.636 0c-.081 7.691-.181 16.389 1.343 22.17 2.144 1.339 5.616 2.424 8.734 1.008-1.465-4.411-.36-17.203-.337-22.843 1.982-.671 5.516-.361 8.063-.335v28.888h-.672c-1.739 1.252-4.207.787-6.718 1.344-1.813.402-5.242.415-7.055 0-4.222-.965-7.065-1.059-9.069-4.031-3.578-5.307-2.46-17.198-2.353-25.865 1.983-.672 5.516-.362 8.064-.336zm-63.488 10.748h14.78c.214 2.423.473 5.065-.336 7.055-2.971-.963-12.436.657-14.108-.335-1.153-1.733-.425-4.426-.336-6.72zm-4.368 7.392c0-13.382-.462-18.541-14.108-18.476-2.575.012-5.801.189-7.39 1.343h-.672c-.024 2.308.244 4.199 1.344 5.375v.672c4.263-1.03 8.792-1.824 12.429.336.313 1.289.663 1.965.672 3.694-12.304-.516-17.198 1.548-16.125 13.771 1.291 1.291 2.097 3.045 3.695 4.032 3.663 2.263 16.839 2.315 20.154-.336.738-1.228.001-7.841.001-10.411zm-7.724 5.709c-3.377.433-6.091.172-8.399-1.008-.315-1.094-1.203-2.771-.336-4.029 1.086-3.235 5.051-2.88 8.735-2.688v7.725z"
  />
</svg>
