<svg xmlns="http://www.w3.org/2000/svg" viewBox="0 0 512 512" fill="#069">
	<path
		d="M245.4 209.2l-69.3-8.4-44.7-29.7c4 1 15 4.2 26.7 8.8-1.4-4.8-3.9-9.2-7.5-12.8-5.7-5.8-13.5-9.1-21.6-9.2l-28.1-.2c-17-.1-30.8 13.6-30.7 30.6l.3 103.4c0 8.1 3.3 15.9 9 21.6 4.1 4 9.2 6.8 14.6 8H55.9l-26-132.2c-1.6-8.2-9.5-13.5-17.7-11.9C4 178.9-1.3 186.8.3 195l28.4 144.4c1.4 7.1 7.6 12.2 14.8 12.2h41.1v52.2L38 429.2c-4.9 2.7-6.7 8.8-4 13.6s8.8 6.7 13.6 4l46.9-25.7 46.9 25.7c4.9 2.7 11 .9 13.6-4 2.7-4.9.9-11-4-13.6l-46.6-25.5v-52.2H149c8.3 0 15.1-6.8 15.1-15.1 0-5-2.5-9.5-6.3-12.2l14 3.3v99.1c0 12.1 9.8 21.9 21.9 21.9s21.9-9.8 21.9-21.9V310.1c0-10.2-7-19-16.9-21.3l-40.8-9.5.5-31.4-41.7-42.9 42.9 28.5c2.4 1.6 5.1 2.6 7.9 2.9l73.6 8.9c10 1.2 19.1-5.9 20.3-15.9 1.1-9.9-6-18.9-16-20.2z"
	/>
	<circle cx="138.7" cy="103.8" r="40.2" />
	<path
		d="M498.3 256.4H229.1c-7.6 0-13.7 6.1-13.7 13.7s6.1 13.7 13.7 13.7h6.7v149.5c0 8.3 6.7 15.1 15.1 15.1h.1c8.3 0 15.1-6.7 15.1-15.1V283.9h196.4v149.5c0 8.3 6.7 15.1 15.1 15.1h.1c8.3 0 15.1-6.7 15.1-15.1V283.9h5.8c7.6 0 13.7-6.1 13.7-13.7-.3-7.6-6.5-13.8-14-13.8zm-93.7-33.3h-20.5V153l17.2-42.2c2.1-5.1-.4-11-5.5-13.1-5.1-2.1-11 .4-13.1 5.5-15.2 37.2-24.5 60.1-39.6 96.9-2.1 5.1.4 11 5.5 13.1 5.1 2.1 11-.4 13.1-5.5l2.3-5.5v30.9c0 5.6 4.5 10.1 10 10.1h30.5c5.6 0 10-4.5 10-10.1.1-5.5-4.4-10-9.9-10zm-79.6 1.2h-38.7c-5.6 0-10 4.5-10 10.1s4.5 10.1 10 10.1H325c5.6 0 10-4.5 10-10.1s-4.5-10.1-10-10.1z"
	/>
</svg>
