<svg width="1280" height="720" xmlns="http://www.w3.org/2000/svg" xmlns:xlink="http://www.w3.org/1999/xlink" overflow="hidden"><g><rect x="0" y="0" width="1280" height="720" fill="#FFFFFF"/><text font-family="Courier New,Courier New_MSFontService,sans-serif" font-weight="400" font-size="32" transform="translate(469.171 129)">PREFIX</text><text fill="#46B1E1" font-family="Courier New,Courier New_MSFontService,sans-serif" font-weight="400" font-size="32" transform="translate(603.338 129)">ex</text><text font-family="Courier New,Courier New_MSFontService,sans-serif" font-weight="400" font-size="32" transform="translate(641.671 129)">: &lt;</text><text fill="#46B1E1" font-family="Courier New,Courier New_MSFontService,sans-serif" font-weight="400" font-size="32" transform="translate(699.171 129)">…</text><text font-family="Courier New,Courier New_MSFontService,sans-serif" font-weight="400" font-size="32" transform="translate(718.338 129)">&gt;</text><text font-family="Courier New,Courier New_MSFontService,sans-serif" font-weight="400" font-size="32" transform="translate(469.171 168)">PREFIX</text><text fill="#46B1E1" font-family="Courier New,Courier New_MSFontService,sans-serif" font-weight="400" font-size="32" transform="translate(603.338 168)">foo</text><text font-family="Courier New,Courier New_MSFontService,sans-serif" font-weight="400" font-size="32" transform="translate(660.838 168)">: &lt;</text><text fill="#46B1E1" font-family="Courier New,Courier New_MSFontService,sans-serif" font-weight="400" font-size="32" transform="translate(718.338 168)">…</text><text font-family="Courier New,Courier New_MSFontService,sans-serif" font-weight="400" font-size="32" transform="translate(737.504 168)">&gt;</text><text font-family="Courier New,Courier New_MSFontService,sans-serif" font-weight="400" font-size="32" transform="translate(469.171 206)">…</text><text font-family="Courier New,Courier New_MSFontService,sans-serif" font-weight="400" font-size="32" transform="translate(469.171 244)">SELECT</text><text fill="#46B1E1" font-family="Courier New,Courier New_MSFontService,sans-serif" font-weight="400" font-size="32" transform="translate(603.338 244)">?a ?b</text><text font-family="Courier New,Courier New_MSFontService,sans-serif" font-weight="400" font-size="32" transform="translate(718.338 244)">…</text><text font-family="Courier New,Courier New_MSFontService,sans-serif" font-weight="400" font-size="32" transform="translate(469.171 283)">FROM &lt;…&gt;</text><text font-family="Courier New,Courier New_MSFontService,sans-serif" font-weight="400" font-size="32" transform="translate(469.171 321)">WHERE {</text><text font-family="Courier New,Courier New_MSFontService,sans-serif" font-weight="400" font-size="32" transform="translate(565.171 360)">…</text><text font-family="Courier New,Courier New_MSFontService,sans-serif" font-weight="400" font-size="32" transform="translate(469.171 398)">}</text><text font-family="Courier New,Courier New_MSFontService,sans-serif" font-weight="400" font-size="32" transform="translate(469.171 436)">GROUP BY …</text><text font-family="Courier New,Courier New_MSFontService,sans-serif" font-weight="400" font-size="32" transform="translate(469.171 475)">HAVING …</text><text font-family="Courier New,Courier New_MSFontService,sans-serif" font-weight="400" font-size="32" transform="translate(469.171 513)">ORDER BY …</text><text font-family="Courier New,Courier New_MSFontService,sans-serif" font-weight="400" font-size="32" transform="translate(469.171 552)">LIMIT …</text><text font-family="Courier New,Courier New_MSFontService,sans-serif" font-weight="400" font-size="32" transform="translate(469.171 590)">OFFSET …</text><text font-family="Courier New,Courier New_MSFontService,sans-serif" font-weight="400" font-size="32" transform="translate(469.171 628)">VALUES …</text><text fill="#C04F15" font-family="Arial,Arial_MSFontService,sans-serif" font-weight="400" font-size="24" transform="translate(121.894 131)">Declare prefixes to shorten</text><text fill="#C04F15" font-family="Arial,Arial_MSFontService,sans-serif" font-weight="400" font-size="24" transform="translate(121.894 160)">the URIs (optional)</text><text fill="#C04F15" font-family="Arial,Arial_MSFontService,sans-serif" font-weight="400" font-size="24" transform="translate(92.3895 282)">Define the dataset (optional)</text><text fill="#C04F15" font-family="Arial,Arial_MSFontService,sans-serif" font-weight="400" font-size="24" transform="translate(844.683 227)">Query result clause containing</text><text fill="#C04F15" font-family="Arial,Arial_MSFontService,sans-serif" font-weight="400" font-size="24" transform="translate(844.683 256)">the variables to retrieve</text><text fill="#C04F15" font-family="Arial,Arial_MSFontService,sans-serif" font-weight="400" font-size="24" transform="translate(844.683 364)">Query pattern</text><text fill="#C04F15" font-family="Arial,Arial_MSFontService,sans-serif" font-weight="400" font-size="24" transform="translate(129.869 529)">Query modifiers (optional)</text><path d="M460 172C452.544 172 446.5 165.048 446.5 156.472L446.5 153.528C446.5 144.952 440.456 138 433 138 440.456 138 446.5 131.048 446.5 122.472L446.5 119.528C446.5 110.952 452.544 104 460 104" stroke="#C04F15" stroke-width="2" stroke-miterlimit="8" fill="none" fill-rule="evenodd"/><path d="M460 636C452.544 636 446.5 629.048 446.5 620.472L446.5 539.528C446.5 530.952 440.456 524 433 524 440.456 524 446.5 517.048 446.5 508.472L446.5 427.528C446.5 418.952 452.544 412 460 412" stroke="#C04F15" stroke-width="2" stroke-miterlimit="8" fill="none" fill-rule="evenodd"/><path d="M407 273 458.462 273 458.462 275 407 275ZM457.128 270 465.128 274 457.128 278Z" fill="#C04F15"/><path d="M835.34 235 754.667 235 754.667 233 835.34 233ZM756 238 748 234 756 230Z" fill="#C04F15"/><path d="M26 107C18.8203 107 13 100.305 13 92.0467L13 68.4533C13 60.1948 7.1797 53.5 2.55423e-15 53.5 7.1797 53.5 13 46.8052 13 38.5467L13 14.9533C13 6.69483 18.8203 0 26-1.70282e-15" stroke="#C04F15" stroke-width="2" stroke-miterlimit="8" fill="none" fill-rule="evenodd" transform="matrix(-1 0 0 1 704 302)"/><path d="M8.75425e-07-1 113.26-0.999901 113.26 1.0001-8.75425e-07 1ZM111.927-3.9999 119.927 0.000104987 111.927 4.0001Z" fill="#C04F15" transform="matrix(-1 0 0 1 834.927 356)"/></g></svg>