<svg xmlns="http://www.w3.org/2000/svg" data-name="Ebene 1" viewBox="0 0 729.11 220.1"><path fill="#90d0d7" d="M152.05 115.09c-25.36 0-36.04 17.6-36.26 17.98l-.02.02V84.36h.01a52.7 52.7 0 0 0 9.23 9.29c.01.02.02.02.04.04 1.13.88 2.3 1.73 3.51 2.52l.33.21c.63.4 1.26.8 1.91 1.18.24.14.48.28.74.42.46.26.94.52 1.41.77.35.19.7.37 1.05.55.3.14.59.29.89.43.53.25 1.07.5 1.62.73.25.11.51.22.77.32.52.22 1.05.43 1.58.62.25.09.49.18.73.27.54.19 1.08.38 1.62.55.21.07.42.14.63.2.64.19 1.29.38 1.93.54.23.07.46.12.69.18.65.16 1.31.31 1.97.45.22.05.43.08.66.13.54.11 1.09.2 1.62.29.29.05.56.09.84.14.58.08 1.16.15 1.74.22.32.03.64.07.96.1.59.06 1.18.1 1.77.14.4.02.8.04 1.21.05.28.01.56.02.85.02.34 0 .68.02 1.02.02 14.39 0 27.41-5.83 36.86-15.23l-7.32-7.32c-5.68 5.64-12.97 9.67-21.1 11.33-.41.08-.82.15-1.23.22-.26.05-.52.1-.78.14-2.09.32-4.24.5-6.42.5-20.93 0-38.21-15.37-41.32-35.43V46.08c3.11-20.06 20.39-35.43 41.32-35.43 11.58 0 22.06 4.71 29.65 12.3l7.32-7.32A52.1 52.1 0 0 0 163.81.73c-2.17-.28-4.38-.44-6.64-.44-11.71 0-22.53 3.86-31.24 10.37-.01 0-.02.02-.03.02-1.28.96-2.51 1.97-3.69 3.04-.09.08-.17.16-.26.24-.53.49-1.05.99-1.57 1.5l-.32.32c-.52.51-1.02 1.04-1.51 1.57-.06.07-.12.13-.17.2-.48.52-.94 1.06-1.38 1.6l-.19.22c-.34.42-.68.86-1.01 1.29v-.02s-.01 0-.02.02V0h-11.19v220.09h10.92v-57.56c0-.72.08-1.81.29-3.15 1.46-9.83 9.12-33.67 35.99-33.67 30.54 0 37.09 30.55 37.09 40.09v54.28h10.36v-51.82c0-31.37-21.55-53.19-47.17-53.19Z"/><path d="M93.8 0v21.37a53.982 53.982 0 0 0-3.74-4.65C81.04 6.78 69.9 1.31 56.66.27c-1.54-.12-3.11-.2-4.71-.2s-3.17.08-4.71.2c-13.3 1.04-24.46 6.55-33.5 16.53C4.61 26.9.04 38.8 0 52.51v.29c.04 13.84 4.88 25.94 14.53 36.3 9.68 10.4 22.15 15.6 37.42 15.6s27.65-5.2 37.34-15.6c1.67-1.79 3.13-3.66 4.51-5.56v52.9c-1.15-1.58-2.37-3.15-3.73-4.64-10.08-11.1-22.78-16.65-38.11-16.65s-28.13 5.58-38.21 16.73C4.62 141.99.04 153.89 0 167.61v.29c.04 13.84 4.88 25.95 14.53 36.31 9.68 10.39 22.15 15.59 37.42 15.59s27.65-5.2 37.34-15.59c1.66-1.79 3.13-3.67 4.51-5.56v21.45h11.06V0H93.8ZM52.3 94.57c-23.14 0-41.9-18.76-41.9-41.9s18.76-41.89 41.9-41.89c21.3 0 38.83 15.9 41.5 36.47v10.86c-2.66 20.57-20.2 36.47-41.5 36.47Zm.01 115.08c-23.15 0-41.9-18.75-41.9-41.9s18.76-41.89 41.9-41.89c21.3 0 38.83 15.89 41.49 36.47v10.86c-2.67 20.57-20.2 36.47-41.49 36.47ZM257.09 59.48v31.08h-3.94v-5.34c-1.68 2.04-3.56 3.57-5.64 4.6-2.09 1.03-4.37 1.54-6.84 1.54-4.4 0-8.16-1.59-11.27-4.78-3.11-3.19-4.67-7.07-4.67-11.64s1.57-8.3 4.72-11.49c3.14-3.18 6.92-4.77 11.34-4.77 2.55 0 4.86.54 6.93 1.63 2.07 1.09 3.88 2.71 5.44 4.89v-5.71h3.94Zm-15.98 3.05c-2.23 0-4.28.55-6.16 1.64-1.88 1.09-3.38 2.63-4.49 4.61-1.11 1.98-1.67 4.07-1.67 6.28s.56 4.28 1.68 6.28c1.12 2 2.63 3.55 4.52 4.67 1.89 1.11 3.92 1.67 6.09 1.67s4.26-.55 6.22-1.66c1.96-1.1 3.47-2.6 4.52-4.48 1.05-1.88 1.58-4 1.58-6.36 0-3.6-1.18-6.6-3.55-9.02s-5.28-3.62-8.75-3.62Zm24.47-3.05h4v14.51c0 3.54.19 5.98.57 7.31.57 1.91 1.66 3.41 3.28 4.52 1.61 1.1 3.53 1.66 5.76 1.66s4.12-.54 5.68-1.62c1.55-1.08 2.63-2.49 3.22-4.24.4-1.2.6-3.74.6-7.63V59.48h4.08v15.25c0 4.29-.5 7.51-1.5 9.69-1 2.17-2.51 3.87-4.51 5.1-2.01 1.23-4.53 1.84-7.56 1.84s-5.55-.61-7.58-1.84c-2.03-1.23-3.54-2.94-4.54-5.14-1-2.2-1.5-5.51-1.5-9.93V59.48Zm50.71 3.4-2.57 2.66c-2.14-2.08-4.23-3.12-6.27-3.12-1.3 0-2.41.43-3.34 1.29-.93.86-1.39 1.86-1.39 3 0 1.01.38 1.97 1.14 2.88.76.93 2.37 2.03 4.81 3.29 2.98 1.54 5 3.03 6.07 4.46 1.05 1.45 1.57 3.08 1.57 4.89 0 2.55-.9 4.71-2.69 6.48-1.79 1.77-4.03 2.66-6.72 2.66-1.79 0-3.51-.39-5.14-1.17s-2.98-1.86-4.05-3.23l2.52-2.86c2.04 2.3 4.21 3.46 6.5 3.46 1.61 0 2.97-.51 4.1-1.54 1.13-1.03 1.69-2.24 1.69-3.63 0-1.14-.37-2.16-1.11-3.06-.75-.87-2.43-1.98-5.04-3.31-2.81-1.45-4.71-2.88-5.73-4.29-1.01-1.41-1.52-3.02-1.52-4.83 0-2.36.8-4.32 2.42-5.89 1.61-1.56 3.65-2.34 6.11-2.34 2.86 0 5.74 1.4 8.64 4.2Zm10.57-14.95h4v11.54h6.34v3.46h-6.34v27.63h-4V62.93h-5.46v-3.46h5.46V47.93Zm15.83 11.55h4.09v4.54c1.22-1.79 2.5-3.13 3.86-4.01 1.35-.89 2.76-1.33 4.23-1.33 1.1 0 2.29.35 3.54 1.06l-2.08 3.37c-.84-.36-1.54-.54-2.11-.54-1.33 0-2.62.55-3.86 1.64-1.24 1.1-2.18 2.8-2.83 5.1-.5 1.77-.74 5.35-.74 10.74v10.51h-4.09V59.48Zm20.49-12.8c.91 0 1.69.32 2.33.97.65.65.97 1.43.97 2.34s-.32 1.67-.97 2.31c-.64.65-1.42.97-2.33.97s-1.66-.32-2.3-.97c-.65-.65-.97-1.42-.97-2.31s.32-1.7.97-2.34c.64-.65 1.41-.97 2.3-.97Zm-1.98 12.8h4v31.08h-4V59.48Zm41.28 0v31.08h-3.94v-5.34c-1.68 2.04-3.56 3.57-5.64 4.6-2.08 1.03-4.37 1.54-6.84 1.54-4.4 0-8.16-1.59-11.27-4.78-3.12-3.19-4.67-7.07-4.67-11.64s1.57-8.3 4.71-11.49c3.14-3.18 6.92-4.77 11.34-4.77 2.55 0 4.86.54 6.93 1.63 2.07 1.09 3.88 2.71 5.44 4.89v-5.71h3.94Zm-15.98 3.05c-2.23 0-4.28.55-6.16 1.64-1.89 1.09-3.38 2.63-4.5 4.61-1.11 1.98-1.67 4.07-1.67 6.28s.56 4.28 1.68 6.28c1.12 2 2.63 3.55 4.52 4.67 1.89 1.11 3.92 1.67 6.09 1.67s4.26-.55 6.22-1.66c1.96-1.1 3.47-2.6 4.52-4.48 1.06-1.88 1.58-4 1.58-6.36 0-3.6-1.18-6.6-3.55-9.02s-5.28-3.62-8.75-3.62Zm23.98-3.05h4v5.57c1.6-2.13 3.37-3.73 5.31-4.78 1.94-1.06 4.06-1.58 6.34-1.58s4.39.59 6.18 1.77c1.8 1.18 3.13 2.77 3.99 4.77.86 2 1.29 5.11 1.29 9.34v16h-4V75.74c0-3.58-.15-5.97-.45-7.17-.46-2.06-1.35-3.6-2.67-4.64-1.32-1.04-3.03-1.56-5.14-1.56-2.42 0-4.59.8-6.5 2.4-1.92 1.6-3.18 3.58-3.79 5.94-.38 1.54-.57 4.36-.57 8.46v11.4h-4V59.49Zm79.71 5.77-3.17 1.97c-2.74-3.64-6.48-5.46-11.22-5.46-3.79 0-6.93 1.22-9.43 3.65-2.5 2.44-3.75 5.39-3.75 8.88 0 2.26.58 4.39 1.73 6.39s2.73 3.55 4.74 4.65c2.01 1.1 4.26 1.65 6.75 1.65 4.57 0 8.29-1.82 11.19-5.46l3.17 2.09c-1.49 2.24-3.48 3.97-5.98 5.21-2.51 1.23-5.36 1.85-8.56 1.85-4.91 0-8.99-1.56-12.23-4.68-3.24-3.12-4.86-6.92-4.86-11.4 0-3.01.76-5.81 2.27-8.39 1.51-2.58 3.59-4.59 6.24-6.04 2.65-1.45 5.61-2.17 8.89-2.17 2.06 0 4.04.31 5.96.94 1.91.63 3.54 1.45 4.87 2.46s2.47 2.29 3.4 3.86Zm31.85 14.32 3.37 1.77c-1.1 2.17-2.38 3.92-3.83 5.26a15.202 15.202 0 0 1-4.89 3.04c-1.81.69-3.86 1.04-6.15 1.04-5.07 0-9.04-1.66-11.9-4.98-2.86-3.32-4.29-7.08-4.29-11.27 0-3.94 1.21-7.46 3.63-10.54 3.07-3.92 7.18-5.88 12.32-5.88s9.53 2.01 12.7 6.03c2.25 2.84 3.39 6.38 3.43 10.63h-27.97c.08 3.61 1.23 6.57 3.46 8.88 2.23 2.31 4.98 3.46 8.27 3.46 1.58 0 3.12-.27 4.62-.82 1.49-.55 2.76-1.28 3.82-2.19 1.05-.91 2.18-2.38 3.4-4.41Zm0-8.37c-.54-2.13-1.31-3.84-2.33-5.11-1.02-1.27-2.37-2.3-4.05-3.09-1.68-.78-3.44-1.17-5.29-1.17-3.05 0-5.68.98-7.87 2.94-1.6 1.43-2.81 3.57-3.63 6.43h23.17Zm11.86-12.4h4v5.57c1.6-2.13 3.37-3.73 5.31-4.78 1.94-1.06 4.06-1.59 6.34-1.59s4.39.59 6.18 1.77c1.8 1.18 3.13 2.77 3.99 4.77.86 2 1.29 5.11 1.29 9.34v16h-4V75.05c0-3.58-.15-5.97-.45-7.17-.46-2.06-1.35-3.6-2.67-4.64-1.32-1.04-3.03-1.56-5.14-1.56-2.42 0-4.59.8-6.5 2.4-1.92 1.6-3.18 3.58-3.79 5.94-.38 1.54-.57 4.36-.57 8.46v11.4h-4V58.8Zm39.17-11.54h4V58.8h6.34v3.46h-6.34v27.63h-4V62.26h-5.46V58.8h5.46V47.26ZM587.9 58.8h4.09v4.54c1.22-1.79 2.5-3.13 3.86-4.01 1.35-.89 2.76-1.33 4.23-1.33 1.1 0 2.29.35 3.54 1.06l-2.08 3.37c-.84-.36-1.54-.54-2.11-.54-1.33 0-2.62.55-3.86 1.64-1.24 1.1-2.18 2.8-2.83 5.1-.49 1.77-.74 5.35-.74 10.74v10.51h-4.09V58.8Zm45.28 20.77 3.37 1.77c-1.1 2.17-2.38 3.92-3.83 5.26a15.202 15.202 0 0 1-4.89 3.04c-1.81.69-3.86 1.04-6.15 1.04-5.07 0-9.04-1.66-11.89-4.98-2.86-3.32-4.29-7.08-4.29-11.27 0-3.94 1.21-7.46 3.63-10.54 3.07-3.92 7.18-5.88 12.32-5.88s9.53 2.01 12.7 6.03c2.25 2.84 3.39 6.38 3.43 10.63h-27.97c.07 3.61 1.23 6.57 3.46 8.88 2.23 2.31 4.99 3.46 8.27 3.46 1.58 0 3.12-.27 4.62-.82 1.5-.55 2.77-1.28 3.82-2.19 1.05-.91 2.18-2.38 3.4-4.41Zm0-8.37c-.53-2.13-1.31-3.84-2.33-5.11-1.02-1.27-2.37-2.3-4.05-3.09-1.68-.78-3.44-1.17-5.29-1.17-3.05 0-5.67.98-7.87 2.94-1.6 1.43-2.81 3.57-3.63 6.43h23.17Zm38.85-24.4v3.91c-1.47-.63-2.73-.94-3.77-.94-.78 0-1.43.16-1.94.47s-.84.68-.97 1.09c-.13.41-.2 1.5-.2 3.27v4.2h6.48v3.46h-6.49l-.02 27.63h-4V62.26h-4.09V58.8h4.09v-4.86c0-2.23.2-3.82.61-4.77.41-.95 1.11-1.72 2.09-2.3.98-.58 2.16-.87 3.56-.87 1.3 0 2.85.27 4.66.8ZM691.31 58c4.79 0 8.76 1.73 11.91 5.2 2.86 3.16 4.29 6.9 4.29 11.23s-1.51 8.14-4.54 11.39c-3.02 3.25-6.91 4.87-11.66 4.87s-8.67-1.62-11.69-4.87c-3.02-3.25-4.54-7.04-4.54-11.39s1.43-8.04 4.29-11.2c3.15-3.48 7.12-5.23 11.93-5.23Zm-.01 3.91c-3.33 0-6.18 1.23-8.57 3.69-2.39 2.46-3.58 5.43-3.58 8.91 0 2.25.54 4.34 1.63 6.29 1.09 1.94 2.56 3.44 4.41 4.5s3.89 1.59 6.11 1.59 4.25-.53 6.11-1.59c1.85-1.06 3.33-2.56 4.41-4.5 1.09-1.94 1.63-4.04 1.63-6.29 0-3.49-1.2-6.46-3.6-8.91-2.4-2.46-5.25-3.69-8.56-3.69Zm22.1-3.11h4.09v4.54c1.22-1.79 2.5-3.13 3.86-4.01 1.35-.89 2.76-1.33 4.23-1.33 1.1 0 2.29.35 3.54 1.06l-2.08 3.37c-.84-.36-1.54-.54-2.11-.54-1.33 0-2.62.55-3.86 1.64-1.24 1.1-2.18 2.8-2.83 5.1-.5 1.77-.74 5.35-.74 10.74v10.51h-4.09V58.8Zm-458.25 74.04v43.08h-3.94v-5.34c-1.68 2.04-3.56 3.57-5.64 4.6-2.08 1.03-4.37 1.55-6.84 1.55-4.4 0-8.16-1.6-11.27-4.79-3.11-3.19-4.67-7.07-4.67-11.64s1.57-8.3 4.72-11.49c3.14-3.18 6.92-4.77 11.34-4.77 2.55 0 4.86.54 6.93 1.63 2.07 1.09 3.88 2.71 5.44 4.88v-17.71h3.94Zm-15.98 15.06c-2.23 0-4.28.55-6.16 1.64-1.88 1.1-3.38 2.63-4.49 4.61-1.11 1.98-1.67 4.07-1.67 6.28s.56 4.28 1.68 6.28c1.12 2 2.63 3.55 4.52 4.67 1.89 1.11 3.92 1.67 6.09 1.67s4.26-.55 6.22-1.65c1.96-1.1 3.47-2.6 4.52-4.48 1.06-1.88 1.58-4.01 1.58-6.37 0-3.59-1.18-6.6-3.55-9.02-2.37-2.41-5.28-3.62-8.75-3.62Zm26.42-15.86c.91 0 1.69.32 2.33.97.65.65.97 1.43.97 2.34s-.32 1.67-.97 2.31c-.65.65-1.42.97-2.33.97s-1.66-.32-2.3-.97c-.65-.65-.97-1.42-.97-2.31s.32-1.69.97-2.34c.64-.65 1.41-.97 2.3-.97Zm-1.98 12.8h4v31.08h-4v-31.08Zm39.11 0h4v24.77c0 4.36-.38 7.55-1.14 9.57-1.05 2.86-2.87 5.06-5.45 6.6-2.59 1.54-5.7 2.31-9.34 2.31-2.67 0-5.06-.38-7.19-1.13-2.12-.75-3.85-1.77-5.18-3.04-1.33-1.27-2.56-3.13-3.69-5.57h4.34c1.18 2.06 2.71 3.58 4.57 4.57 1.87.99 4.19 1.48 6.95 1.48s5.03-.51 6.91-1.52c1.88-1.02 3.22-2.29 4.02-3.83.8-1.54 1.2-4.02 1.2-7.44v-1.6a15.18 15.18 0 0 1-5.52 4.39 16.078 16.078 0 0 1-6.92 1.53c-2.86 0-5.55-.71-8.06-2.13-2.52-1.42-4.46-3.33-5.84-5.73-1.37-2.4-2.06-5.04-2.06-7.91s.72-5.56 2.15-8.04c1.43-2.48 3.41-4.45 5.93-5.9 2.53-1.45 5.19-2.17 7.99-2.17 2.33 0 4.49.48 6.51 1.44 2.01.96 3.95 2.55 5.82 4.76v-5.4Zm-11.8 3.06c-2.27 0-4.37.55-6.31 1.64-1.94 1.1-3.47 2.61-4.57 4.54-1.1 1.93-1.66 4.02-1.66 6.27 0 3.41 1.14 6.23 3.43 8.46 2.29 2.23 5.25 3.34 8.88 3.34s6.63-1.1 8.87-3.32c2.24-2.21 3.36-5.11 3.36-8.71 0-2.34-.51-4.43-1.54-6.27-1.03-1.84-2.49-3.29-4.37-4.36-1.88-1.07-3.91-1.6-6.08-1.6Zm26.75-15.86c.91 0 1.69.32 2.33.97.65.65.97 1.43.97 2.34s-.32 1.67-.97 2.31c-.65.65-1.42.97-2.33.97s-1.66-.32-2.3-.97c-.65-.65-.97-1.42-.97-2.31s.32-1.69.97-2.34c.65-.65 1.41-.97 2.3-.97Zm-1.98 12.8h4v31.08h-4v-31.08Zm15.8-11.54h4v11.54h6.34v3.46h-6.34v27.63h-4V148.3h-5.46v-3.46h5.46V133.3Zm46.31 11.54v31.08h-3.94v-5.34c-1.68 2.04-3.56 3.57-5.64 4.6-2.08 1.03-4.37 1.55-6.84 1.55-4.4 0-8.16-1.6-11.27-4.79-3.12-3.19-4.67-7.07-4.67-11.64s1.57-8.3 4.71-11.49c3.14-3.18 6.92-4.77 11.35-4.77 2.55 0 4.86.54 6.93 1.63 2.06 1.09 3.88 2.71 5.44 4.88v-5.71h3.94Zm-15.99 3.06c-2.23 0-4.28.55-6.16 1.64-1.89 1.1-3.38 2.63-4.5 4.61-1.11 1.98-1.67 4.07-1.67 6.28s.56 4.28 1.68 6.28c1.12 2 2.63 3.55 4.52 4.67 1.89 1.11 3.92 1.67 6.09 1.67s4.26-.55 6.22-1.65c1.96-1.1 3.47-2.6 4.52-4.48 1.06-1.88 1.58-4.01 1.58-6.37 0-3.59-1.18-6.6-3.55-9.02-2.37-2.41-5.28-3.62-8.75-3.62Zm25.38-15.06h4v43.08h-4v-43.08Zm31.79.4h4v17.57c1.62-2.14 3.4-3.73 5.34-4.79s4.05-1.59 6.31-1.59 4.38.59 6.18 1.77 3.13 2.76 3.99 4.76c.86 1.99 1.28 5.11 1.28 9.36v16h-4v-14.83c0-3.58-.14-5.97-.43-7.17-.5-2.06-1.4-3.6-2.7-4.64-1.3-1.04-3.01-1.56-5.13-1.56-2.42 0-4.59.8-6.5 2.4-1.91 1.6-3.18 3.58-3.79 5.94-.38 1.52-.57 4.34-.57 8.46v11.4h-4v-43.08Zm35.17 12h4v14.51c0 3.54.19 5.98.57 7.31.57 1.91 1.66 3.41 3.27 4.51 1.61 1.1 3.53 1.66 5.77 1.66s4.12-.54 5.68-1.61c1.56-1.08 2.63-2.49 3.22-4.24.4-1.2.61-3.74.61-7.63v-14.51h4.08v15.26c0 4.28-.5 7.51-1.49 9.68-1 2.17-2.51 3.87-4.51 5.1-2.01 1.23-4.53 1.85-7.56 1.85s-5.56-.62-7.59-1.85c-2.03-1.23-3.54-2.94-4.54-5.14-1-2.2-1.5-5.51-1.5-9.93v-14.97Zm37.05 0h4v5.37c1.39-1.98 2.82-3.43 4.29-4.34 2.02-1.22 4.15-1.83 6.38-1.83 1.5 0 2.93.29 4.29.88 1.36.59 2.46 1.38 3.32 2.36.86.98 1.6 2.38 2.23 4.21 1.33-2.44 2.99-4.29 4.99-5.56 1.99-1.27 4.14-1.9 6.44-1.9 2.15 0 4.04.54 5.69 1.63 1.64 1.09 2.86 2.6 3.66 4.54.8 1.94 1.2 4.86 1.2 8.74v16.97h-4.09v-16.97c0-3.33-.24-5.62-.71-6.87-.48-1.24-1.29-2.25-2.44-3.01-1.15-.76-2.52-1.14-4.11-1.14-1.93 0-3.71.57-5.31 1.71-1.61 1.14-2.78 2.67-3.52 4.57-.74 1.91-1.11 5.08-1.11 9.54v12.17h-4V160.4c0-3.75-.23-6.3-.7-7.64a6.441 6.441 0 0 0-2.44-3.23c-1.16-.81-2.54-1.21-4.14-1.21-1.85 0-3.58.56-5.19 1.67-1.61 1.11-2.8 2.61-3.57 4.5-.77 1.89-1.16 4.77-1.16 8.66v13.17h-4v-31.08Zm84.88 0v31.08h-3.94v-5.34c-1.68 2.04-3.56 3.57-5.64 4.6-2.08 1.03-4.37 1.55-6.84 1.55-4.4 0-8.16-1.6-11.27-4.79-3.12-3.19-4.67-7.07-4.67-11.64s1.57-8.3 4.71-11.48c3.14-3.18 6.92-4.77 11.34-4.77 2.55 0 4.86.54 6.93 1.63 2.07 1.09 3.88 2.71 5.44 4.88v-5.71h3.94Zm-15.98 3.06c-2.22 0-4.28.55-6.16 1.64-1.89 1.1-3.38 2.63-4.5 4.61-1.11 1.98-1.67 4.07-1.67 6.28s.56 4.28 1.68 6.28c1.12 2 2.63 3.55 4.52 4.67 1.89 1.11 3.92 1.67 6.09 1.67s4.26-.55 6.22-1.65c1.96-1.1 3.47-2.6 4.52-4.48 1.06-1.88 1.58-4.01 1.58-6.36 0-3.59-1.18-6.6-3.55-9.02-2.37-2.41-5.28-3.62-8.75-3.62Zm24.98-3.06h4v5.57c1.6-2.14 3.37-3.73 5.31-4.79 1.94-1.06 4.06-1.59 6.34-1.59s4.39.59 6.18 1.77c1.8 1.18 3.13 2.77 3.99 4.77.86 2 1.29 5.11 1.29 9.34v16h-4v-14.83c0-3.58-.15-5.97-.45-7.17-.46-2.06-1.35-3.6-2.67-4.64-1.32-1.04-3.03-1.56-5.14-1.56-2.42 0-4.59.8-6.5 2.4-1.91 1.6-3.18 3.58-3.79 5.94-.38 1.54-.57 4.36-.57 8.46v11.4h-4v-31.08Zm38.07-12.8c.91 0 1.69.32 2.33.97s.97 1.43.97 2.34-.32 1.67-.97 2.31-1.42.97-2.33.97-1.66-.32-2.3-.97c-.64-.65-.97-1.42-.97-2.31s.32-1.69.97-2.34c.65-.65 1.41-.97 2.3-.97Zm-1.98 12.8h4v31.08h-4v-31.08Zm16.79-11.54h4v11.54h6.34v3.46h-6.34v27.63h-4V148.7h-5.45v-3.46h5.45V133.7Zm20.73-1.26c.91 0 1.69.32 2.33.97.65.65.97 1.43.97 2.34s-.32 1.67-.97 2.31-1.42.97-2.33.97-1.66-.32-2.3-.97-.97-1.42-.97-2.31.32-1.69.97-2.34c.65-.65 1.41-.97 2.3-.97Zm-1.98 12.8h4v31.08h-4v-31.08Zm39.48 20.77 3.37 1.77c-1.1 2.17-2.38 3.92-3.83 5.26a15.202 15.202 0 0 1-4.89 3.04c-1.81.7-3.86 1.04-6.15 1.04-5.07 0-9.04-1.66-11.89-4.99-2.86-3.32-4.29-7.08-4.29-11.27 0-3.94 1.21-7.46 3.63-10.54 3.07-3.93 7.18-5.89 12.32-5.89s9.53 2.01 12.7 6.03c2.25 2.84 3.39 6.38 3.43 10.63h-27.97c.07 3.61 1.23 6.57 3.46 8.88 2.23 2.31 4.99 3.46 8.27 3.46 1.58 0 3.12-.28 4.62-.83 1.5-.55 2.77-1.28 3.82-2.19 1.05-.91 2.18-2.38 3.4-4.41Zm0-8.37c-.53-2.13-1.31-3.84-2.33-5.11-1.02-1.28-2.37-2.3-4.05-3.09-1.68-.78-3.44-1.17-5.29-1.17-3.05 0-5.67.98-7.87 2.94-1.6 1.43-2.81 3.57-3.63 6.43h23.17Zm26.48-9-2.57 2.66c-2.14-2.07-4.23-3.12-6.27-3.12-1.3 0-2.41.43-3.34 1.29-.93.86-1.39 1.86-1.39 3 0 1.01.38 1.97 1.14 2.89.76.93 2.37 2.03 4.81 3.28 2.98 1.54 5 3.03 6.07 4.46 1.05 1.45 1.57 3.08 1.57 4.89 0 2.55-.9 4.71-2.69 6.48s-4.03 2.66-6.72 2.66c-1.79 0-3.51-.39-5.14-1.17-1.63-.78-2.98-1.86-4.05-3.23l2.52-2.86c2.04 2.3 4.21 3.46 6.5 3.46 1.61 0 2.97-.51 4.1-1.54 1.13-1.03 1.69-2.24 1.69-3.63 0-1.14-.37-2.16-1.11-3.06-.75-.88-2.43-1.98-5.04-3.32-2.81-1.45-4.71-2.87-5.73-4.28-1.01-1.41-1.52-3.02-1.52-4.83 0-2.36.8-4.32 2.42-5.88s3.65-2.34 6.11-2.34c2.86 0 5.74 1.4 8.64 4.2Z" class="cls-1"/></svg>