<svg viewBox="0 0 1001 206.1" xmlns="http://www.w3.org/2000/svg">
	<defs>
		<clipPath id="a"><path d="M0 612.29h858.9V0H0z" /></clipPath>
	</defs>
	<g clip-path="url(#a)" transform="matrix(1.3333 0 0 -1.3333 -98.005 568.75)">
		<path
			d="M157.52 328.32c0 2.219 1.15 3.451 3.367 3.451h16.512c17.99 0 29.736-10.68 29.736-29.08s-11.746-29.244-29.736-29.244h-16.512c-2.217 0-3.367 1.15-3.367 3.451zm19.304-45.754c11.829 0 19.385 6.981 19.385 20.125 0 12.979-7.72 19.963-19.385 19.963h-8.789v-40.088zM229.55 328.98c.657 1.889 1.891 2.793 3.861 2.793h5.257c1.972 0 3.286-.904 3.861-2.793l18.236-51.588c.821-2.381-.246-3.943-2.793-3.943h-3.777c-1.973 0-3.288.904-3.862 2.793l-4.107 12.158h-20.455l-4.026-12.076c-.574-1.971-1.888-2.875-3.86-2.875h-3.778c-2.547 0-3.616 1.562-2.793 3.943zm14.047-31.955l-5.175 15.609c-.985 3.285-2.3 9.035-2.3 9.035h-.165s-1.314-5.75-2.3-9.035l-5.257-15.609zM268.81 328.32c0 2.219 1.15 3.451 3.369 3.451h15.772c5.75 0 8.625-.492 11.088-1.56 5.916-2.465 9.777-8.051 9.777-15.936 0-6.9-3.614-13.473-9.694-15.937v-.164s.741-.905 1.889-3.04l9.612-17.58c1.396-2.38.327-4.107-2.382-4.107h-4.437c-1.889 0-3.119.74-4.025 2.383l-10.268 19.385h-10.185v-18.317c0-2.301-1.151-3.451-3.37-3.451h-3.777c-2.219 0-3.369 1.15-3.369 3.451zm20.043-23.904c5.668 0 9.201 3.533 9.201 9.283 0 3.697-1.396 6.654-4.599 7.967-1.397.66-3.205.988-6.327.988h-7.802v-18.238zM320.23 328.32c0 2.219 1.151 3.451 3.368 3.451h3.78c2.218 0 3.368-1.232 3.368-3.451v-51.422c0-2.301-1.15-3.451-3.368-3.451h-3.78c-2.217 0-3.368 1.15-3.368 3.451zM357.03 328.98c.656 1.889 1.89 2.793 3.861 2.793h5.256c1.974 0 3.288-.904 3.861-2.793l18.236-51.588c.821-2.381-.246-3.943-2.793-3.943h-3.777c-1.971 0-3.286.904-3.861 2.793l-4.106 12.158h-20.455l-4.027-12.076c-.573-1.971-1.887-2.875-3.858-2.875h-3.781c-2.545 0-3.614 1.562-2.791 3.943zm14.046-31.955l-5.175 15.609c-.985 3.285-2.3 9.035-2.3 9.035h-.164s-1.314-5.75-2.3-9.035l-5.256-15.609zM396.29 328.32c0 2.219 1.15 3.451 3.367 3.451h3.78c2.218 0 3.368-1.232 3.368-3.451v-21.275h26.696v21.275c0 2.219 1.151 3.451 3.451 3.451h3.697c2.219 0 3.368-1.232 3.368-3.451v-51.422c0-2.301-1.149-3.451-3.368-3.451h-3.697c-2.3 0-3.451 1.15-3.451 3.451v21.029h-26.696v-21.029c0-2.301-1.15-3.451-3.368-3.451h-3.78c-2.217 0-3.367 1.15-3.367 3.451zM455.51 295.79v2.301c0 2.217 1.231 3.367 3.451 3.367h17.823c2.221 0 3.454-1.15 3.454-3.367v-2.301c0-2.299-1.233-3.449-3.454-3.449h-17.823c-2.22 0-3.451 1.15-3.451 3.449M122.51 404.88c0 10.174 13.099 16.463 21.722 21.688 6.775-4.126 22.577-11.59 22.58-22.296.004-11.884-4.944-31.255-8.877-31.339-4.279-.094-10.192 24.551-13.338 24.487-3.145-.066-9-24.587-12.947-24.581-4.286.006-9.14 20.968-9.14 32.041M87.417 347.48c-9.676 3.146-11.608 17.547-13.913 27.361 6.017 5.17 18 17.892 28.184 14.587 11.302-3.67 28.197-14.358 27.06-18.128-1.23-4.097-26.499-2.105-27.408-5.117-.912-3.012 20.6-16.158 19.375-19.912-1.33-4.07-22.766-2.211-33.298 1.209M131.16 296.38c-5.982-8.229-20.272-5.617-30.32-4.779-3.058 7.32-11.452 22.65-5.164 31.312 6.984 9.615 22.371 22.377 25.602 20.135 3.517-2.436-6.186-25.852-3.6-27.648 2.582-1.799 21.734 14.599 24.923 12.273 3.461-2.522-4.931-22.334-11.441-31.293M187.93 389.25c9.679 3.144 19.706-7.37 27.341-13.958-1.83-7.717-4.046-25.053-14.227-28.363-11.302-3.678-31.253-4.959-32.549-1.244-1.413 4.041 20.2 17.283 19.166 20.253-1.032 2.971-26.166.961-27.378 4.717-1.319 4.08 17.119 15.172 27.647 18.595"
			fill="#0270ad"
		/>
		<path
			d="M519.25 332.57c10.61 0 18.71-5.021 22.192-14.983.648-1.621-.324-3.483-2.106-3.969l-3.726-.891c-2.51-.648-3.806.405-4.535 2.268-1.863 4.616-6.398 7.532-11.825 7.532-11.42 0-16.279-10.205-16.279-20.249 0-10.043 4.859-20.249 16.279-20.249 6.317 0 10.286 3.484 12.716 8.586.972 1.944 2.592 2.43 4.455 1.62l3.725-1.782c1.702-.729 2.349-2.673 1.54-4.374-4.699-9.556-11.907-14.092-22.436-14.092-18.467 0-27.619 14.011-27.619 30.291s10.448 30.292 27.619 30.292M603.49 327.8c0 1.782 1.539 3.32 3.321 3.32h9.962c2.673 0 3.483-.971 4.05-3.239l9.881-41.469 9.882 41.469c.485 2.106 1.862 3.239 4.049 3.239h9.476c1.782 0 3.321-1.538 3.321-3.32v-51.027c0-1.781-1.539-3.32-3.321-3.32h-3.725c-1.783 0-3.321 1.539-3.321 3.32v44.791h-.162l-10.61-44.872c-.406-1.862-2.107-3.239-4.05-3.239h-3.564c-1.944 0-3.644 1.377-4.049 3.239l-10.611 44.872h-.162v-44.791c0-1.781-1.539-3.32-3.32-3.32h-3.726c-1.782 0-3.321 1.539-3.321 3.32zM691.21 301.96c6.804 0 10.124 3.969 10.124 9.72 0 8.018-4.292 10.367-10.528 10.367h-10.367V301.96zm-21.625 25.837c0 1.783 1.539 3.321 3.321 3.321h19.6c13.526 0 20.168-8.18 20.168-19.438 0-11.421-8.019-18.791-19.439-18.791h-12.796v-16.118c0-1.782-1.54-3.321-3.322-3.321h-4.211c-1.782 0-3.321 1.539-3.321 3.321zM720.69 327.8c0 1.782 1.539 3.32 3.32 3.32h4.212c1.782 0 3.322-1.538 3.322-3.32v-33.775c0-7.046 2.996-11.501 12.391-11.501 9.396 0 12.392 4.455 12.392 11.501V327.8c0 1.782 1.539 3.32 3.321 3.32h4.212c1.781 0 3.32-1.538 3.32-3.32v-36.61c0-11.744-9.314-19.195-23.245-19.195s-23.245 7.451-23.245 19.195zM775.37 283.57c0 .891.405 1.782 1.215 2.349l3.806 2.754c.811.648 1.621.891 2.349.891.973 0 1.863-.567 2.673-1.377 3.969-4.212 9.314-6.156 15.308-6.156 5.264 0 12.23 1.782 12.23 7.371 0 4.454-4.212 5.912-11.906 7.613l-6.399 1.458c-9.233 2.106-17.333 5.507-17.333 16.118 0 12.149 11.583 17.98 22.355 17.98 8.828 0 16.118-2.834 21.949-9.071.567-.566.811-1.296.811-2.024 0-.891-.406-1.864-1.215-2.43l-3.565-2.673c-.89-.648-1.619-.89-2.267-.89-.972 0-1.701.566-2.511 1.457-2.997 3.564-7.532 5.588-13.283 5.588-6.237 0-10.934-2.267-10.934-6.398 0-4.697 5.427-5.993 11.906-7.37l7.046-1.539c8.585-1.944 16.685-5.265 16.685-16.28 0-14.094-13.283-18.953-25.27-18.953-8.342 0-17.171 3.24-22.921 9.558a3.106 3.106 0 00-.729 2.024"
			fill="#00679a"
		/>
		<path
			d="M565.19 328.98c.657 1.889 1.891 2.793 3.861 2.793h5.257c1.972 0 3.286-.904 3.861-2.793l18.236-51.588c.821-2.381-.246-3.943-2.793-3.943h-3.777c-1.973 0-3.288.904-3.862 2.793l-4.107 12.158h-20.455l-4.026-12.076c-.574-1.971-1.888-2.875-3.86-2.875h-3.778c-2.547 0-3.616 1.562-2.793 3.943zm14.047-31.955l-5.175 15.609c-.985 3.285-2.3 9.035-2.3 9.035h-.165s-1.314-5.75-2.3-9.035l-5.257-15.609z"
			fill="#0270ad"
		/>
	</g>
</svg>
