<?xml version="1.0" encoding="UTF-8"?>
<svg id="Layer_1" data-name="Layer 1" xmlns="http://www.w3.org/2000/svg" viewBox="0 0 737.59 154.73">
  <defs>
    <style>
      .cls-1 {
        fill: #0670ad;
      }

      .cls-2 {
        fill: #016cab;
      }
    </style>
  </defs>
  <g>
    <path class="cls-2" d="M83.72,98.23c0-1.8,1.56-3.36,3.36-3.36h17.14c20.17,0,28.7,12.46,28.7,29.19,0,19.11-9.18,29.19-26.65,29.19h-19.19c-1.8,0-3.36-1.56-3.36-3.36v-51.66ZM104.72,143.09c10.82,0,16.73-3.94,16.73-19.02,0-11.48-5-19.02-16.97-19.02h-9.76v38.05h10Z"/>
    <path class="cls-2" d="M137.68,150.06l17.38-51.99c.66-1.89,2.46-3.2,4.43-3.2h6.07c1.97,0,3.77,1.31,4.43,3.2l17.38,51.99c.66,1.97-.66,3.2-2.3,3.2h-4.76c-1.97,0-3.69-.9-4.35-3.2l-2.38-8.12h-22.14l-2.38,8.12c-.66,2.3-2.38,3.2-4.35,3.2h-4.76c-1.64,0-2.95-1.23-2.3-3.2ZM170.64,132.26l-8.04-26.73h-.16l-8.04,26.73h16.24Z"/>
    <path class="cls-2" d="M194.26,98.23c0-1.8,1.56-3.36,3.36-3.36h20.99c12.38,0,19.68,7.38,19.68,17.63,0,13.12-8.77,16.15-11.56,17.22l10.99,19.76c1.23,2.21.33,3.77-1.89,3.77h-5.41c-2.3,0-3.85-.82-4.92-2.95l-9.76-18.53h-10.5v18.12c0,1.8-1.56,3.36-3.36,3.36h-4.26c-1.8,0-3.36-1.56-3.36-3.36v-51.66ZM217.22,122.1c5.58,0,9.59-3.2,9.59-8.77s-3.61-8.77-11.23-8.77h-10.33v17.55h11.97Z"/>
    <path class="cls-2" d="M247.07,98.23c0-1.8,1.56-3.36,3.36-3.36h4.26c1.8,0,3.36,1.56,3.36,3.36v51.66c0,1.8-1.56,3.36-3.36,3.36h-4.26c-1.8,0-3.36-1.56-3.36-3.36v-51.66Z"/>
    <path class="cls-2" d="M265.52,150.06l17.38-51.99c.66-1.89,2.46-3.2,4.43-3.2h6.07c1.97,0,3.77,1.31,4.43,3.2l17.38,51.99c.66,1.97-.66,3.2-2.3,3.2h-4.76c-1.97,0-3.69-.9-4.35-3.2l-2.38-8.12h-22.14l-2.38,8.12c-.66,2.3-2.38,3.2-4.35,3.2h-4.76c-1.64,0-2.95-1.23-2.3-3.2ZM298.48,132.26l-8.04-26.73h-.16l-8.04,26.73h16.24Z"/>
    <path class="cls-2" d="M322.1,98.23c0-1.8,1.56-3.36,3.36-3.36h4.26c1.8,0,3.36,1.56,3.36,3.36v18.53h25.09v-18.53c0-1.8,1.56-3.36,3.36-3.36h4.26c1.8,0,3.36,1.56,3.36,3.36v51.66c0,1.8-1.56,3.36-3.36,3.36h-4.26c-1.8,0-3.36-1.56-3.36-3.36v-22.96h-25.09v22.96c0,1.8-1.56,3.36-3.36,3.36h-4.26c-1.8,0-3.36-1.56-3.36-3.36v-51.66Z"/>
    <path class="cls-2" d="M378.51,131.36v-4.1c0-1.8,1.56-2.54,3.36-2.54h13.69c1.8,0,3.36.74,3.36,2.54v4.1c0,1.8-1.56,2.54-3.36,2.54h-13.69c-1.8,0-3.36-.74-3.36-2.54Z"/>
    <path class="cls-2" d="M434.11,93.4c10.74,0,18.94,5.08,22.47,15.17.66,1.64-.33,3.53-2.13,4.02l-3.77.9c-2.54.66-3.85-.41-4.59-2.3-1.89-4.67-6.48-7.63-11.97-7.63-11.56,0-16.48,10.33-16.48,20.5s4.92,20.5,16.48,20.5c6.4,0,10.41-3.53,12.87-8.69.98-1.97,2.62-2.46,4.51-1.64l3.77,1.8c1.72.74,2.38,2.71,1.56,4.43-4.76,9.68-12.05,14.27-22.71,14.27-18.7,0-27.96-14.19-27.96-30.67s10.58-30.67,27.96-30.67Z"/>
    <path class="cls-2" d="M460.67,150.06l17.38-51.99c.66-1.89,2.46-3.2,4.43-3.2h6.07c1.97,0,3.77,1.31,4.43,3.2l17.38,51.99c.66,1.97-.66,3.2-2.3,3.2h-4.76c-1.97,0-3.69-.9-4.35-3.2l-2.38-8.12h-22.14l-2.38,8.12c-.66,2.3-2.38,3.2-4.35,3.2h-4.76c-1.64,0-2.95-1.23-2.3-3.2ZM493.64,132.26l-8.04-26.73h-.16l-8.04,26.73h16.24Z"/>
    <path class="cls-2" d="M517.25,98.23c0-1.8,1.56-3.36,3.36-3.36h10.09c2.71,0,3.53.98,4.1,3.28l10,41.98,10-41.98c.49-2.13,1.89-3.28,4.1-3.28h9.59c1.8,0,3.36,1.56,3.36,3.36v51.66c0,1.8-1.56,3.36-3.36,3.36h-3.77c-1.8,0-3.36-1.56-3.36-3.36v-45.35h-.16l-10.74,45.43c-.41,1.89-2.13,3.28-4.1,3.28h-3.61c-1.97,0-3.69-1.39-4.1-3.28l-10.74-45.43h-.16v45.35c0,1.8-1.56,3.36-3.36,3.36h-3.77c-1.8,0-3.36-1.56-3.36-3.36v-51.66Z"/>
    <path class="cls-2" d="M583.1,98.23c0-1.8,1.56-3.36,3.36-3.36h19.84c13.69,0,20.42,8.28,20.42,19.68s-8.12,19.02-19.68,19.02h-12.96v16.32c0,1.8-1.56,3.36-3.36,3.36h-4.26c-1.8,0-3.36-1.56-3.36-3.36v-51.66ZM604.99,124.39c6.89,0,10.25-4.02,10.25-9.84,0-8.12-4.35-10.5-10.66-10.5h-10.5v20.34h10.91Z"/>
    <path class="cls-2" d="M633.78,98.23c0-1.8,1.56-3.36,3.36-3.36h4.26c1.8,0,3.36,1.56,3.36,3.36v34.19c0,7.13,3.03,11.64,12.55,11.64s12.55-4.51,12.55-11.64v-34.19c0-1.8,1.56-3.36,3.36-3.36h4.26c1.8,0,3.36,1.56,3.36,3.36v37.06c0,11.89-9.43,19.43-23.53,19.43s-23.53-7.54-23.53-19.43v-37.06Z"/>
    <path class="cls-2" d="M688.06,143.01c0-.9.41-1.8,1.23-2.38l3.85-2.79c.82-.66,1.64-.9,2.38-.9.98,0,1.89.57,2.71,1.39,4.02,4.26,9.43,6.23,15.5,6.23,5.33,0,12.38-1.8,12.38-7.46,0-4.51-4.26-5.99-12.05-7.71l-6.48-1.48c-9.35-2.13-17.55-5.58-17.55-16.32,0-12.3,11.73-18.2,22.63-18.2,8.94,0,16.32,2.87,22.22,9.18.57.57.82,1.31.82,2.05,0,.9-.41,1.89-1.23,2.46l-3.61,2.71c-.9.66-1.64.9-2.3.9-.98,0-1.72-.57-2.54-1.48-3.03-3.61-7.63-5.66-13.45-5.66-6.31,0-11.07,2.3-11.07,6.48,0,4.76,5.49,6.07,12.05,7.46l7.13,1.56c8.69,1.97,16.89,5.33,16.89,16.48,0,14.27-13.45,19.19-25.58,19.19-8.45,0-17.38-3.28-23.21-9.68-.49-.57-.74-1.31-.74-2.05Z"/>
  </g>
  <g>
    <path class="cls-1" d="M49,21.69c0-10.17,13.1-16.46,21.72-21.69,6.78,4.13,22.58,11.59,22.58,22.3,0,11.88-4.94,31.25-8.88,31.34-4.28.09-10.19-24.55-13.34-24.49-3.14.07-9,24.59-12.95,24.58-4.29,0-9.14-20.97-9.14-32.04"/>
    <path class="cls-1" d="M13.91,79.08c-9.68-3.15-11.61-17.55-13.91-27.36,6.02-5.17,18-17.89,28.18-14.59,11.3,3.67,28.2,14.36,27.06,18.13-1.23,4.1-26.5,2.11-27.41,5.12-.91,3.01,20.6,16.16,19.37,19.91-1.33,4.07-22.77,2.21-33.3-1.21"/>
    <path class="cls-1" d="M57.65,130.19c-5.98,8.23-20.27,5.62-30.32,4.78-3.06-7.32-11.45-22.65-5.16-31.31,6.98-9.62,22.37-22.38,25.6-20.13,3.52,2.44-6.19,25.85-3.6,27.65,2.58,1.8,21.73-14.6,24.92-12.27,3.46,2.52-4.93,22.33-11.44,31.29"/>
    <path class="cls-1" d="M114.43,37.32c9.68-3.14,19.71,7.37,27.34,13.96-1.83,7.72-4.05,25.05-14.23,28.36-11.3,3.68-31.25,4.96-32.55,1.24-1.41-4.04,20.2-17.28,19.17-20.25-1.03-2.97-26.17-.96-27.38-4.72-1.32-4.08,17.12-15.17,27.65-18.59"/>
  </g>
</svg>