<svg xmlns="http://www.w3.org/2000/svg" fill="#006699" viewBox="0 0 142 142">
  <path
    d="M53.671 33.92c0-8.074 10.395-13.066 17.239-17.212 5.376 3.274 17.917 9.199 17.92 17.695.003 9.432-3.924 24.805-7.045 24.872-3.397.074-8.088-19.485-10.586-19.434-2.496.053-7.143 19.512-10.276 19.508-3.4-.004-7.253-16.64-7.253-25.428M25.823 79.47c-7.68-2.498-9.213-13.926-11.043-21.715 4.776-4.104 14.286-14.2 22.368-11.577 8.97 2.912 22.378 11.395 21.475 14.386-.976 3.252-21.031 1.672-21.752 4.062-.724 2.39 16.35 12.824 15.377 15.802-1.055 3.232-18.067 1.756-26.426-.958m34.715 40.56c-4.748 6.53-16.088 4.457-24.063 3.791-2.427-5.809-9.088-17.976-4.099-24.85 5.544-7.631 17.755-17.76 20.32-15.98 2.79 1.933-4.91 20.517-2.858 21.943 2.05 1.428 17.25-11.586 19.78-9.742 2.746 2.002-3.915 17.726-9.08 24.836m45.057-73.704c7.68-2.496 15.638 5.85 21.698 11.078-1.452 6.125-3.211 19.883-11.29 22.51-8.97 2.919-24.804 3.936-25.832.988-1.122-3.208 16.032-13.717 15.21-16.075-.818-2.357-20.766-.762-21.727-3.744-1.048-3.237 13.585-12.04 21.94-14.757"
  />
</svg>
