<svg xmlns="http://www.w3.org/2000/svg" viewBox="0 0 512 512">
  <path
    d="M441 273.6V234c0-6.9-5.6-12.5-12.5-12.5-25.8 0-49.8 2.2-72.5 6.6-13.2-12.8-29.4-22.1-46.9-27.1 19.1-16 31.2-40.1 31.2-66.9 0-48.6-39.2-88.2-87.4-88.2s-87.4 39.6-87.4 88.2c0 26.8 12.1 50.8 31.2 66.9-17.5 5.1-33.6 14.3-46.9 27.1-22.7-4.4-46.7-6.6-72.5-6.6-6.9 0-12.5 5.6-12.5 12.5v39.6c-14.5 5.2-25 19-25 35.3v25c0 16.3 10.4 30.1 25 35.3v39.6c0 6.9 5.6 12.5 12.5 12.5 65.3 0 118.8 15.5 168.6 48.7 4.2 2.8 9.7 2.8 13.8 0 49.8-33.2 103.4-48.7 168.6-48.7 6.9 0 12.5-5.6 12.5-12.5v-39.6c14.5-5.2 25-19 25-35.3v-25c.2-16.2-10.2-30.1-24.8-35.3zM190.6 134.2c0-34.9 28-63.2 62.4-63.2s62.4 28.4 62.4 63.2c0 34.4-28 62.4-62.4 62.4s-62.4-28-62.4-62.4zM77.4 346.4c-6.9 0-12.5-5.6-12.5-12.5v-25c0-6.9 5.6-12.5 12.5-12.5s12.5 5.6 12.5 12.5v25c0 6.9-5.6 12.5-12.5 12.5zm163.1 90.7c-45.3-25.9-93.9-39-150.6-40.7v-27.3c14.5-5.2 25-19 25-35.3v-25c0-16.3-10.4-30.1-25-35.3v-26.9c58.6 1.7 105.8 15.5 150.6 44v146.5zm12.5-168c-23-14.5-47-25.6-72.6-33.4 14.1-9.1 30.6-14.2 47.6-14.2h50c17 0 33.6 5 47.6 14.2-25.6 7.8-49.6 18.9-72.6 33.4zm163.1 127.4c-56.7 1.7-105.3 14.8-150.6 40.7V290.7c44.8-28.5 92-42.4 150.6-44v26.9c-14.5 5.2-25 19-25 35.3v25c0 16.3 10.4 30.1 25 35.3v27.3zm24.9-62.6c0 6.9-5.6 12.5-12.5 12.5s-12.5-5.6-12.5-12.5v-25c0-6.9 5.6-12.5 12.5-12.5S441 302 441 308.9v25z"
    fill="#016699"
  />
</svg>
