<svg xmlns="http://www.w3.org/2000/svg" width="500" height="300" viewBox="0 0 500 300"><path d="M60.108 263.683l-2.64 29.521h-5.52l-2.64-29.521c-16.385-1.809-29.046-14.336-33.6-28.08-2.686-8.107-2.329-20.155.72-27.601 4.774-11.658 13.234-19.505 24.96-24.24 2.809-1.133 6.324-1.461 9.36-2.159 4.645-1.068 12.594.706 15.6 1.68 13.441 4.354 21.9 11.692 26.64 24.72 1.633 4.489 3.914 13.035 1.92 19.2-2.012 6.222-7.945 9.274-14.4 11.041l-4.56.479c-3.731.815-12.077-.047-14.16-1.679-.26-.219-.021.019-.24-.24 2.482-1.45 5.152-4.115 6.72-6.48 8.466-12.771-4.222-31.386-19.92-24.72-3.873 1.645-7.248 5.458-8.88 9.36-3.161 7.555.2 14.397 3.6 18.959 4.324 5.802 18.365 13.372 30 10.8l3.84-.238c6.293-1.555 11.271-3.771 16.32-6.24v.479c-.702.879-.898 2.08-1.44 3.121a50.1 50.1 0 0 1-3.36 5.521c-5.015 7.137-16.732 15.992-28.32 16.317zm302.88-56.88h8.641v8.16h-8.641v-8.16zm43.441 0h8.641v8.16h-8.641v-8.16zm-119.04 2.399h26.88v7.2h-17.76v11.279h16.319v7.201h-16.319v12.721h17.76v7.198h-26.88v-45.599zm105.12 12h7.681v6.479h-7.681c-.054 6.615-.422 14.79.96 19.922 2.175 1.153 4.478 1.409 6.96.239.228 1.986.242 4.613.24 6.959h-.479c-1.487 1.014-5.893.963-7.921.48-2.375-.564-3.668-.736-5.279-1.92-4.993-3.667-3.464-17.14-3.359-25.681h-6.479v-6.48h6.479v-6.72c.26-.218.021.019.24-.24 3.122-.347 5.727-1.913 8.64-2.64-.002 3.203-.002 6.404-.002 9.602zm-229.609 7.2c-.53-2.441-.771-5.027-1.68-7.2-3.642-8.708-10.86-12.884-23.52-12.72-1.451.895-4.799.736-6.48 1.439-5.249 2.195-9.086 6.265-11.28 11.521-1.9 4.552-2.157 12.452-.72 17.521 2.247 7.922 5.905 13.102 13.44 15.601 1.711.567 3.083.282 5.04.72 2.018.451 5.561.503 7.68 0 9.678-2.297 14.254-7.305 16.8-16.8.62-2.314 1.42-6.863.72-10.082zm-9.6 4.321l-.24 4.32c-1.529 5.888-4.314 9.845-10.32 11.28-2.523.604-5.233-.388-6.72-.96-6.358-2.448-10.329-12.516-7.44-21.602 1.061-3.336 2.855-6.653 5.52-8.399 1.313-.86 3.201-.802 4.56-1.681 7.886-.115 11.618 3.076 13.68 8.641.799 2.156 1.444 6.034.96 8.401zm124.249 22.079h-8.641v-15.119c0-3.287.297-6.95-.721-9.36-.469-1.111-1.513-1.729-2.16-2.641-1.178-.166-2.68-.926-4.319-.479-8.319 2.261-6.335 17.079-6.239 27.6h-8.64v-33.6h8.159v4.32h.479c2.079-5.933 15.71-6.806 19.439-1.681 4.149 5.698 2.74 21.14 2.643 30.96zm217.44 0h-8.642c.063-5.623.836-14.744-.238-19.68-.45-2.065.091-3.712-.722-5.28-.555-1.071-1.801-1.597-2.64-2.399-1.401-.108-3.174-.519-4.562 0-7.246 2.71-5.374 17.445-5.278 27.359h-8.642v-33.6h8.16v4.08h.48c3.966-6.088 16.11-6.749 20.16-.239 3.38 5.428 1.998 21.035 1.924 29.759zm-132.001-33.6h8.641v33.6h-8.641v-33.6zm43.441 0h8.641v33.6h-8.641v-33.6zM216.66 240.237h23.041c.088-8-1.641-14.627-6.48-17.797-7.572-4.96-18.706-1.371-22.32 4.421-1.114 1.785-1.852 4.322-2.4 6.529-.514 2.072-.444 5.712 0 7.706 1.598 7.177 3.521 11.121 9.84 13.453 1.545.57 2.771.318 4.56.728 1.999.455 5.451.502 7.53.002 2.484-.599 4.569-1.421 6.569-2.396v-7.201c-2 1.324-5.063 2.388-8.25 3.158-6.798 1.643-12.078-3.603-12.09-8.603zm14.64-6h-14.64c-.009-10 14.796-11 14.64 0zm-33.36-11.354c-1.724-1.254-3.282-1.541-5.76-2.16-2.023-.506-5.761-.426-7.55.24-2.467.916-3.63 2.943-5.63 4.319v-4.045h-8v47h8v-17.034c2 .769 3.352 3.009 5.63 3.841 1.72.627 4.882.674 6.775.239 6.427-1.476 9.411-4.233 11.308-10.08 2.624-8.09-.146-18.956-4.773-22.32zm-10.08 25.919c-9.692 2.283-11.17-18.585-3.6-20.88.417-.33 1.235-.41 1.68-.72 11.446-.245 10.766 19.518 1.92 21.6zM345 205.237v19.565c-2-.805-3.576-3.229-6.329-4.08-1.694-.524-5.115-.401-6.766 0-7.745 1.883-9.533 6.094-11.303 13.92-.409 1.811-.09 5.042.229 6.479 1.525 6.92 2.554 11.407 8.635 13.696 4.979 1.875 13.734-.582 15.114-3.582h.419v3h8v-49c-1.999.002-4.999.002-7.999.002zm-7.14 43.565c-6.262 1.449-9.521-8.547-7.92-14.64.573-2.185 1.694-4.871 3.359-6 .71-.48 1.706-.484 2.4-.96 11.866-.254 11.677 19.4 2.161 21.6zm117.841-18.72c-2.942-6.828-9.096-9.751-19.2-9.6-1.396.879-3.553.791-5.04 1.439-4.248 1.854-7.388 5.938-8.88 10.561-.551 1.703-.48 3.617-.48 5.761.002 8.758 4.339 13.811 10.562 16.32 1.432.576 2.619.33 4.318.72 2.236.513 5.813.384 7.921-.239 8.92-2.642 15.8-13.353 10.799-24.962zm-15.12 18.72c-6.971 1.658-11.175-8.283-9.12-15.12.678-2.256 2.384-4.736 4.32-5.76.737-.391 1.531-.291 2.159-.72 13.548-.291 12.953 19.15 2.641 21.6z"/><path d="M4.668 252.642c22.741 1.271 36.271 13.134 43.2 30.24h-4.32c-.91-.549-2.424-.182-3.6-.479-2.893-.732-5.975-1.277-8.64-2.4-9.211-3.877-16.666-9.803-22.08-17.52-1.84-2.623-4.465-5.597-4.56-9.841zm100.321 12.242c-.757 4.808-4.947 8.681-7.44 12-7.189 9.572-19.874 16.312-36.72 16.319.662-4.157 5.797-9.155 8.4-11.76 8.688-8.692 18.431-16.529 35.76-16.559z"/></svg>