<?xml version="1.0" encoding="utf-8"?>
<!-- Generator: Adobe Illustrator 24.1.1, SVG Export Plug-In . SVG Version: 6.00 Build 0)  -->
<svg version="1.1" id="Ebene_1" xmlns="http://www.w3.org/2000/svg" xmlns:xlink="http://www.w3.org/1999/xlink" x="0px" y="0px"
	 viewBox="0 0 178.1 41" style="enable-background:new 0 0 178.1 41;" xml:space="preserve">
<style type="text/css">
	.st0{fill:#50697D;}
</style>
<g>
	<path class="st0" d="M41,15.3l-3.7,10.8h1.4l1.1-3.4h3.8l1.2,3.4h1.5l-3.7-10.8H41z M40.2,21.6l1.1-3.1c0.2-0.7,0.4-1.3,0.5-2h0
		c0.2,0.6,0.3,1.3,0.6,2l1.1,3.1H40.2z"/>
	<path class="st0" d="M50.9,15.2c-1.1,0-2.1,0.1-3,0.2v10.6c0.7,0.1,1.5,0.1,2.5,0.1c2.1,0,3.8-0.5,4.8-1.6c1-1,1.6-2.4,1.6-4.2
		c0-1.7-0.6-3-1.5-3.9C54.3,15.7,52.9,15.2,50.9,15.2z M50.7,25.1c-0.5,0-1.1,0-1.4-0.1v-8.5c0.4-0.1,0.9-0.1,1.6-0.1
		c2.9,0,4.4,1.6,4.4,4.2C55.3,23.4,53.7,25.1,50.7,25.1z"/>
	<path class="st0" d="M61.5,15.2c-1.1,0-2.1,0.1-3,0.2v10.6c0.7,0.1,1.5,0.1,2.5,0.1c2.1,0,3.8-0.5,4.8-1.6c1-1,1.6-2.4,1.6-4.2
		c0-1.7-0.6-3-1.5-3.9C65,15.7,63.5,15.2,61.5,15.2z M61.4,25.1c-0.5,0-1.1,0-1.4-0.1v-8.5c0.4-0.1,0.9-0.1,1.6-0.1
		c2.9,0,4.4,1.6,4.4,4.2C66,23.4,64.4,25.1,61.4,25.1z"/>
	<path class="st0" d="M75.9,20c-1.5-0.6-2.1-1.1-2.1-2.1c0-0.7,0.6-1.6,2-1.6c1,0,1.7,0.3,2,0.5l0.4-1.1c-0.5-0.3-1.3-0.5-2.4-0.5
		c-2.1,0-3.5,1.2-3.5,2.9c0,1.5,1.1,2.4,2.8,3.1c1.5,0.6,2,1.1,2,2.1c0,1.1-0.8,1.8-2.3,1.8c-1,0-1.9-0.3-2.5-0.7l-0.4,1.2
		c0.6,0.4,1.7,0.7,2.8,0.7c2.5,0,3.8-1.4,3.8-3.1C78.6,21.6,77.7,20.7,75.9,20z"/>
	<polygon class="st0" points="79.3,16.5 82.6,16.5 82.6,26.1 84,26.1 84,16.5 87.3,16.5 87.3,15.3 79.3,15.3 	"/>
	<path class="st0" d="M93.2,18.3c-0.4,0.8-0.8,1.5-1.1,2.2h0c-0.3-0.8-0.7-1.4-1.1-2.2l-1.5-3h-1.6l3.4,6.2v4.6h1.4v-4.6l3.6-6.2
		h-1.6L93.2,18.3z"/>
	<polygon class="st0" points="98.9,15.3 97.5,15.3 97.5,26.1 103.5,26.1 103.5,24.9 98.9,24.9 	"/>
	<rect x="105" y="15.3" class="st0" width="1.4" height="10.8"/>
	<path class="st0" d="M115.6,19.8c0,1.7,0,3,0.2,4.4l0,0c-0.5-1.1-1.1-2.2-1.9-3.5l-3.5-5.5h-1.5v10.8h1.3v-4.6c0-1.8,0-3.1-0.1-4.4
		l0,0c0.5,1.2,1.3,2.4,2,3.6l3.4,5.5h1.4V15.3h-1.3V19.8z"/>
	<path class="st0" d="M124,21.6h2.2v3.2c-0.3,0.2-0.9,0.3-1.9,0.3c-2.5,0-4.2-1.6-4.2-4.4c0-2.7,1.7-4.3,4.3-4.3
		c1.1,0,1.8,0.2,2.4,0.5l0.3-1.1c-0.5-0.2-1.4-0.5-2.7-0.5c-3.6,0-5.8,2.4-5.8,5.6c0,1.7,0.6,3.1,1.5,4c1.1,1,2.4,1.4,4,1.4
		c1.5,0,2.7-0.4,3.3-0.6v-5.2H124V21.6z"/>
	<path class="st0" d="M137.7,21L137.7,21c1.1-0.4,2-1.4,2-2.8c0-0.8-0.3-1.6-0.8-2c-0.7-0.6-1.6-0.9-3.1-0.9c-1,0-2,0.1-2.7,0.2
		v10.6h1.4v-4.7h1.3c1.3,0,1.8,0.6,2.2,2.1c0.3,1.3,0.5,2.3,0.7,2.6h1.4c-0.2-0.4-0.5-1.5-0.8-3C139,22,138.5,21.3,137.7,21z
		 M135.9,20.4h-1.4v-3.9c0.2-0.1,0.7-0.1,1.4-0.1c1.5,0,2.5,0.6,2.5,2C138.3,19.6,137.4,20.4,135.9,20.4z"/>
	<path class="st0" d="M148.2,21.7c0,2.4-1,3.4-2.6,3.4c-1.4,0-2.5-1-2.5-3.4v-6.4h-1.4v6.4c0,3.3,1.7,4.6,3.9,4.6
		c2.3,0,4.1-1.4,4.1-4.7v-6.3h-1.4V21.7z"/>
	<polygon class="st0" points="153.4,15.3 152.1,15.3 152.1,26.1 158.1,26.1 158.1,24.9 153.4,24.9 	"/>
	<polygon class="st0" points="161,24.9 161,21.1 165.2,21.1 165.2,19.9 161,19.9 161,16.5 165.4,16.5 165.4,15.3 159.6,15.3 
		159.6,26.1 165.7,26.1 165.7,24.9 	"/>
	<polygon class="st0" points="22.7,16.7 20.7,16.7 20.7,20.1 17.3,20.1 17.3,22.1 20.7,22.1 20.7,25.5 22.7,25.5 22.7,22.1 
		26.1,22.1 26.1,20.1 22.7,20.1 	"/>
	<path class="st0" d="M11.7,31.1h20v-20h-20V31.1z M13.7,13.1h16v16h-16V13.1z"/>
</g>
</svg>
