<?xml version="1.0" encoding="utf-8"?>
<!-- Generator: Adobe Illustrator 24.1.1, SVG Export Plug-In . SVG Version: 6.00 Build 0)  -->
<svg version="1.1" id="Ebene_1" xmlns="http://www.w3.org/2000/svg" xmlns:xlink="http://www.w3.org/1999/xlink" x="0px" y="0px"
	 viewBox="0 0 911.7 930.9" style="enable-background:new 0 0 911.7 930.9;" xml:space="preserve">
<style type="text/css">
	.st0{fill:#246442;}
	.st1{fill:#256443;}
	.st2{fill:#030303;}
	.st3{fill:#020202;}
	.st4{fill:#040404;}
	.st5{fill:#050505;}
	.st6{fill:#070707;}
	.st7{fill:#060606;}
	.st8{fill:#080808;}
	.st9{fill:#0B0B0B;}
	.st10{fill:#1D1D1D;}
	.st11{fill:#121212;}
	.st12{fill:#1A1A1A;}
	.st13{fill:#1E1E1E;}
	.st14{fill:#3C3C3C;}
	.st15{fill:#666666;}
	.st16{fill:#5F5F5F;}
	.st17{fill:#5A5A5A;}
	.st18{fill:#276344;}
	.st19{fill:#090909;}
</style>
<path class="st0" d="M185.3,861.5c0-5.9-0.1-11.7,0-17.6c0.1-4.2,1.6-5.5,5.8-5.6c1,0,2,0.1,3,0c3-0.3,3.5,1.4,3.4,4
	c-1.1,20.2-0.9,40.4-0.3,60.6c0.1,3,0.4,6-0.3,9c-0.6,2.4-0.8,5.1-4.5,4.8c-3.2-0.2-6.1-2.6-6.4-5.7c-0.6-6.1-1.9-12.1-1.3-18.3
	c0.3-2.7-0.5-3.6-3.4-2.8c-3.9,1-7.8,1.7-11.8,2.2c-2.2,0.3-3,1.1-2.8,3.4c0.5,4.7,0.4,9.5-0.4,14.2c-0.9,5.1-3.4,7.4-7.8,7.5
	c-5,0.2-7.3-2.3-7.8-7.4c-1.6-15.4-0.5-30.7,0.7-46c0.4-5.2-0.9-10.2-0.9-15.3c0-6.8,1.2-8,8.1-8.1c0.6,0,1.3,0,1.9,0
	c4.9,0.1,6.8,1.9,6.9,6.8c0.3,10.5,0,21-0.8,31.5c-0.2,3.5,0.6,4.8,4.3,4.8c4,0.1,7.9-0.6,11.9-0.9c2-0.2,2.2-1.1,2.2-2.7
	C185.2,873.8,185.2,867.6,185.3,861.5L185.3,861.5z"/>
<path class="st1" d="M300.2,865c0.3,3.1-1.6,6.2-0.8,9.6c0.5,2-1.8,2.8-3.7,2.7c-2.1-0.3-4.1-1.4-5.3-3.1c-1-1.2-1-2.6,0.6-3.5
	c0.8-0.3,1.5-0.9,1.8-1.8c0.6-1.9,1.6-3.8,0.2-5.7c-0.8-1-2.2-1.4-3.4-0.8c-2.6,1.1-5.7,1.8-6.2,5.3c-0.8,5.1,1.5,9.3,4.6,13
	c3.5,4.1,5.5,9.3,5.6,14.7c0.2,4.2-1.2,7.4-4.8,9.4c-3.3,1.9-7.5,1.7-10.7-0.5c-3.8-2.5-7.3-5.1-9.5-9.3c-1.3-2.5,0.2-10,2.7-11.3
	c2-1,3.1,0.1,3.6,1.9c0.6,2,1,4.1,1.4,6.2c0.3,1.6,1.5,3,3.1,3.5c2.2,0.7,4.5,1.7,6.3-0.2s0.7-4.2-0.5-6.1c-1.7-2.8-3.5-5.5-5.3-8.2
	c-3.2-4.8-4.5-10.7-3.7-16.4c0.6-5.1,4.3-9.7,9-10.9s10.8,1.2,13.6,5.2C299.9,860.7,300.4,862.9,300.2,865z"/>
<path class="st0" d="M265.1,883.8c0,4.4,0.1,8.7,0,13.1s-2.1,7.8-6.1,9.5c-3,1.3-6,2.3-9.2,3c-5,1-8.3-1.6-10.8-6
	c-4.1-7.5-2.5-15.3-2.3-23.1c0-1.5,0.3-2.9-0.2-4.4c-1.8-5,3-9.1,7.5-8.6c2.2,0.2,2.2,2,2.3,3.7c0.3,7.7,0.5,15.5,0.8,23.2
	c0.1,1.4-0.7,3.2,1.4,3.7c1.8,0.5,3.1-0.3,4.3-1.7c3.7-4.3,4.6-9.6,5.2-14.9c0.4-3.7,0.2-7.5,0.4-11.2c0.1-2,0.1-4.4,2.8-4.5
	c2.9-0.2,3.3,2.2,3.3,4.4c0.1,4.6,0,9.2,0,13.8L265.1,883.8z"/>
<path class="st2" d="M419.5,200.7c8.6-3.7,14.7-10.5,23.8-11.6c-0.2,3.4-2.3,5.1-4.7,6.6c-8,5.1-15.9,10.4-24.2,15
	c-6.1,3.4-9.3,9.3-14,13.9c-4.2,4.1-8.4,3.7-11.7-1.3c-2-3.3-3.6-6.8-4.9-10.5c-5.2-13.7-11.8-26.7-17.3-40.2
	c-0.7-1.7-2.5-4.2-0.3-5.3c1.8-0.9,2.9,1.8,3.9,3.3c6.3,10.1,10.5,21.2,15.7,31.9c2.4,5.1,5.1,10,8.2,14.7c1.7,2.4,2.7,2.9,5.1,0.3
	c8.7-9.8,17-20,27.1-28.5c1.8-1.5,3.6-3.2,6.6-2.6C429.8,192.1,424,195.2,419.5,200.7z"/>
<path class="st3" d="M406,119.3c2.7-2,2.9,0.1,3,1.9c0.3,6.7,0.7,13.5,0.5,20.2c-0.4,13.9-0.7,27.7-0.3,41.6c0,1,0,2-0.1,3
	s0.1,2.4-1.4,2.7c-1.5,0.2-1.9-0.9-2.1-2.2c-1.2,1.8-0.6,5-3.6,4.6c-2.1-0.3-2.2-2.5-2-4.3c1.3-19.2,0.5-38.4,1.3-57.6
	c0.1-2.8,0.1-5.5,0.4-8.2c0.2-2.3,0.6-2.4,2.9-1.7c2,6.3,0.7,12.8,1.2,19.2c-0.3-5.6,0.3-11.1-0.4-16.7
	C405.2,120.9,405.4,120,406,119.3z"/>
<path class="st2" d="M439,733.7c-1.2,1.8-2.6,3.6-4,5.3c-7.5,8.2-14.3,17-20.2,26.5c-3.6,5.7-7.9,6.6-13.6,2.8
	c-5.5-3.7-8.6-9.3-11.1-15.2c-2.6-6.1-4.4-12.5-7.9-18.2c-0.8-1.3-1.3-2.8-3.2-3.2c-1.4-0.3-2.2-1.9-2.4-3.5
	c-0.1-0.6,0.3-1.3,0.9-1.5c1.5-0.4,3,0.1,4,1.3c4.4,4.4,7.1,9.9,9.5,15.5c2.3,5.4,4.2,11,8,15.6c0.7,0.9,1.4,1.8,2.2,2.6
	c4.4,4.5,6.7,4.3,10-1c4.8-7.8,10.3-15.1,16.4-21.8C430.6,735.7,433.9,733.5,439,733.7z"/>
<path class="st3" d="M397,146.7c0,9.6,0,19.2,0,28.8c0,2-0.3,4-0.7,5.9c-0.4,2-1.1,3.8-4,3.3c-2.7-0.4-3.4-1.7-3.3-4.3
	c1.5-20.3,2-40.6,2.3-60.9c-0.1-2.4,0.5-4.8,1.8-6.9c0.4-0.6,0.7-1.3,1.6-1.3c0.9,0,1.7,0.7,1.7,1.7c0.3,1.6,0.4,3.2,0.5,4.8
	C396.9,127.5,396.9,137.1,397,146.7L397,146.7z"/>
<path class="st4" d="M776.5,53.3c-2.1,2.5-4.9,3.4-7.9,3.8c-1.9,0.3-2.4,1.1-2.5,2.9c-0.5,13.4,1,26.7,4.6,39.6c0.6,2,1,4.1,1.3,6.2
	c0.2,1.2,0.3,2.7-1.5,2.9c-1.5,0.2-1.9-1-2.2-2.1c-2.4-10.7-5.4-21.3-5.6-32.4c-0.1-4.5-0.2-9,0-13.5c0.1-2.6-0.8-3.2-3.2-3
	c-2,0.2-4.1,0.1-6.2,0.4c1.8-2.1,4.4-2.3,6.7-2.4c2.5-0.1,2.7-1.2,2.8-3.2c0.6-12,0.6-24,2.8-35.8c0.2-1,0.4-1.9,0.7-2.9
	c1.6-5.2,4-6.5,9.3-5.5c4.2,0.8,6.6,4.3,6.2,8.9c-0.4,4.1-1.5,8.1-3.3,11.8c-0.5-3.6,0.8-7.1,0.9-10.7s-0.5-6.2-4.3-7.3
	c-2.9-0.8-4.8-0.1-5.8,2.9c-1.1,3.7-1.8,7.5-1.9,11.4c-0.6,9-0.8,18-1.4,26.9c-0.2,2.5,0.7,3.1,2.9,2.5
	C771.6,54.2,774.1,53.8,776.5,53.3z"/>
<path class="st5" d="M48.2,44.9c9.5-4.4,14.3-9.2,13.6-18.6c-0.1-2.8-1.7-5.3-4.1-6.6c-3.1-1.8-5.5-1-7.1,2.2
	c-2.5,5.1-3.1,10.8-3.7,16.3c-0.8,7.1-1.1,14.2-1.4,21.3c-0.1,1.7-1.7,4.3,1.6,5.3c0.8,0.2-0.1,0.4-0.1,0.5c-2.6,0.5-1.4,2.6-1.5,4
	c-0.3,6.5,0.8,12.9,1.6,19.4c0.4,2.7,0.3,5.5,0.4,8.2c0.1,1.6-0.6,2.8-2.3,2.8s-2.2-1.4-2.3-2.9c-0.1-1-0.4-2.4,0.1-2.9
	c1.8-2,0.7-4.2,0.5-6.2c-0.3-3.6-1-7.2-1.2-10.8s-0.1-6.9-0.1-10.5c-2.3,0.1-4.6,0.7-6.6,1.8c0.3-1.6,1.7-2.7,3.3-2.6
	c3.1-0.1,3.3-1.9,3.4-4.5c0.4-12.1,1-24.2,4.3-35.9c0.3-1.2,0.8-2.4,1.3-3.5c2.1-4.5,3.9-5.5,8-5c3.4,0.4,7.2,3.8,8,7
	c2.1,9.2-5.4,20.2-14.6,21.5C48.9,45.1,48.5,45,48.2,44.9z"/>
<path class="st3" d="M418.9,699.7c0,11.2,0,22.4,0,33.6c0,1.5,0.4,3.6-2,3.7c-2.2,0.1-2.4-2-2.5-3.5c-0.3-4.5-0.5-9-0.3-13.4
	c0.7-17.3,1.4-34.6,1.7-52c0-2.1-0.3-5.9,1.6-5.8c2.5,0.1,1.5,3.7,1.5,5.6C419.1,678.5,419,689.1,418.9,699.7L418.9,699.7z"/>
<path class="st3" d="M398,696c0.1-9.1,0.5-18.2,0-27.3c-0.1-1-0.1-2,0-3c0.2-1.7-0.7-4.6,1.7-4.7c2.7-0.1,1.7,2.8,1.9,4.5
	c2.1,20.5,0.4,41.1,0.8,61.7c0.1,1,0,2-0.3,3c-0.3,1.1-1.3,1.9-2.5,1.9c-1.2,0-2.2-0.8-2.3-2c-0.2-0.7-0.2-1.5-0.2-2.2
	c0-10.6,0-21.2,0-31.8L398,696z"/>
<path class="st2" d="M496.6,848.7c0.2,0.5-0.1,1.1-0.6,1.3c0,0-0.1,0-0.1,0c-5.6,2.8-8.3,7.6-9.6,13.5c-2.1,10-3,20.2-2.6,30.4
	c0.2,4,1.1,7.9,2.7,11.6c3.1,7.2,5.6,8.8,15.5,10.3c-2.2,2.7-6.1,3.3-10.1,1.7c-2.8-1.2-5.1-3.2-6.7-5.7c-2.8-4.1-4.6-8.9-5-13.9
	c-1-12.8,0.3-25.7,3.9-38.1c1.3-4.8,4.5-8.7,9-10.9C494.2,848.3,495.4,847.7,496.6,848.7z"/>
<path class="st2" d="M424.6,352.6c-4.8,7.1-16,8.2-21.9,2.4c-3.8-3.8-5.3-8.6-5.4-13.9c-0.3-10.2,1-20.2,2.1-30.2
	c0.6-5.4,0.3-10.7,0.5-16.1c0-1.1,0-2.3,0.1-3.4c0.1-0.8,0.2-1.9,1.4-1.9s1.2,1,1.3,1.8c0.1,1,0.1,2,0.1,3c0.6,10.5-0.6,21-1.6,31.4
	c-0.5,5-0.6,10-0.4,15c0.3,11.4,7.3,16.4,18.2,13.4L424.6,352.6z"/>
<path class="st6" d="M191.8,38.7c-2.3,1.3-4.8,2.2-7.4,2.7c-2.1,0.4-2.9,1.4-2.7,3.5c0.2,4-0.3,8,1,11.9c1.6,4.9,4.6,7.4,8.7,7.5
	c3.3,0,5.3-2.2,6.9-7.6c0.2-0.5,0.1-1.3,0.9-1.4c1.4,5.6-0.1,9.7-4.2,11.7c-3.9,1.9-9.5,0.3-12.4-3.4c-3.9-5-4.3-10.9-3.8-16.8
	c0.4-3.9-1.2-4.5-4.4-3.6c-2.4,0.6-4.9,0.5-7.2-0.3c2.9-0.4,5.6-1.3,8.5-1.5c2.4-0.2,3.6-1,3.9-3.8c1.2-9.8,3.8-19.5,5-29.4
	c1,3.6,1.2,7.4,0.5,11.1c-0.9,5.8-1.8,11.6-2.7,17.4c-0.4,2.4-0.2,3.9,2.9,2.7C187.5,38.4,189.7,38.2,191.8,38.7z"/>
<path class="st5" d="M372.9,444.2c-3.8,1.5-7.4,1.6-11,1.6c-1.7,0-2.4,0.4-2.5,2.3c-0.5,5.3-0.6,10.7-0.5,16.1
	c0,1.3,0.3,2.5,0.7,3.7c1,2.6,2.3,5,5.5,5.5c3.6,0.4,6.1-1.2,7.8-4c0.8-1.4,1.4-2.9,2-4.4c1.6,5.4,0,9.3-4.8,11.3
	c-4.7,2-10.1,0.1-12.5-4.4c-1.3-2.2-2-4.6-2-7.1c0.1-5.2-0.2-10.5,0.7-15.7c0.4-2.2,0.1-3.6-2.7-3.3c-1.9,0-3.7-0.1-5.6-0.4
	c1.4-1.9,3-1.3,4.3-1.3c3.2-0.2,5-1.2,5-4.9c0-5.1,0.5-10.2,0.9-15.3c0-0.2,0.2-0.4,0.5-0.8c1.7,0.5,1.5,2,1.5,3.3
	c0.4,4.7,0.3,9.5-0.1,14.2c-0.2,1.8-0.2,2.9,2.1,2.6C365.6,442.8,369,444.3,372.9,444.2z"/>
<path class="st2" d="M504.2,881.3c3.1-3,5-5.5,7.8-7c4.3-2.3,7.1-1.4,8.7,3.2c2,5.8,3.2,11.8,3.3,17.9c0,1.6,0.2,3.6-2.1,3.7
	c-2.3,0-2.2-2-2.2-3.6c-0.1-5.6-0.9-11.2-2.4-16.6c-0.7-2.5-2-2.6-3.8-1.3c-4.3,3-7.3,6.6-6.7,12.4c0.2,1.9,1.3,5-1.4,5.4
	c-3.1,0.5-3-2.9-3.3-4.8c-1.3-7.8,0-15.7,0-23.5c0-0.8,0.3-1.6,1.3-1.4c1,0.2,1,1,1,1.8C504.2,871.7,504.2,875.9,504.2,881.3z"/>
<path class="st5" d="M450.2,867.7c-2.7-2.3-4.7-5.1-8.2-3.1c-2.7,1.6-3.5,6.7-1.7,10.3c1.1,2.2,2.5,4.3,3.8,6.5
	c1.5,2.4,2.5,5.2,2.6,8.1c0.1,3.2-0.8,5.7-3.7,7.1c-3.3,1.7-9.4,1-11.7-1.2c-2.5-2.4-2.7-5.2-1.4-8.2c0.4-1.1,0.6-2.4,1.9-3
	c0.4,1.7,0.7,3.3,1.1,4.9c1.1,3.7,4.6,5.3,8.2,3.8c1.6-0.7,1.7-1.9,1.8-3.4c0.1-3.6-2-6.4-3.8-9.2c-2.1-3.3-3.7-6.8-3.2-10.9
	c0.3-2.6,1.5-5.1,3.3-6.9c1.9-2,4.2-1.9,6.6-1.1C448.6,862.3,449.8,864.4,450.2,867.7z"/>
<path class="st5" d="M579.9,42c-0.7,0.2-1.4,0.5-2.1,0.7c-1.7,0.5-4.5-0.4-5,1.6c-0.7,2.5-0.5,5.2,0.3,7.6c1.6,4.5,0.7,9.3,0.8,14
	c-0.1,0.8-0.7,1.4-1.5,1.4c-0.9,0.1-1.8-0.5-2-1.4c-0.6-1.9-0.9-3.9-1.1-5.8c-0.2-4-0.2-8,0-12c0.3-3.5-0.5-5-4.3-4.6
	c-2.3,0.5-4.8,0-6.7-1.5c2.2-0.1,4.5-0.1,6.7,0c3.6,0.5,4.6-1.2,4.9-4.5c0.9-8.7,2.1-17.3,3.2-25.9c0-0.5,0.1-1,0.3-1.5
	c0.4-0.8,0-2.4,1.5-2.1c1.7,0.3,0.5,1.6,0.5,2.4c0.1,9.1-1.7,18.1-2.5,27.2c-0.3,3,0,4.3,3.4,3.1c1.1-0.2,2.2-0.3,3.3-0.3
	c0.6-0.2,1.5-0.6,1.6,0.4S580.4,41.6,579.9,42z"/>
<path class="st5" d="M645,858.3c2.7,0.8,5,2.5,6.6,4.9c9.6,14.4,4.5,42.4-9.5,52.4c-0.4,0.3-0.8,0.5-1.5,0.9
	c1.5-5.8,4.3-10.5,7.1-15.1c7.2-11.5,5.9-23.5,2.3-35.7C649.2,863,646.9,861.1,645,858.3z"/>
<path class="st7" d="M195.2,500.3c0.3-0.8,0.5-1.5,0.8-2.2c7.3-1.6,14.7-1.2,22-0.6c12.6,1.1,25.1,1.5,37.7,1.4
	c5.9,0,11.9,0.3,17.8,1c-4.1,1.3-8.3,2-12.6,2.1c-15.6,0.4-31.2-0.3-46.6-2.1c-5.1-0.6-10.2-0.3-15.3-0.6
	C197.4,499.2,196.6,500.5,195.2,500.3z"/>
<path class="st8" d="M736.8,72.8c1.1-18,4.6-35.5,8.4-53.1c0.6-2.7,1.3-5.3,1.3-8.1c0-0.6-0.4-1.7,0.6-1.9c1.2-0.2,1.3,0.9,1.4,1.8
	c0.3,4.2-0.9,8.1-1.6,12.2c-3,17.4-6.9,34.7-6.7,52.5c0,1.4,0.6,3.5-1.6,3.5s-1.5-2.2-1.6-3.6C736.8,75.1,736.8,74,736.8,72.8z"/>
<path class="st6" d="M234.6,465.3c-0.9-2.8,0.4-4.5,1.6-6.3c1.3-1.9,3-3.7,5.6-3s2,3.3,2.3,5.3c0.9,6.3-2,11.6-4.3,17.2
	c-0.9,2.2-3,5.1-1.4,6.9c1.2,1.4,3.9-1.1,6-1.7c2.7-0.7,5.3-1.4,8.1-1.2c1.4,0.1,2.6,0.7,2.4,2.3c-0.1,1.1-1.1,1.9-2.2,1.8
	c-0.1,0-0.2,0-0.2,0c-3.9-0.8-7.3,0.9-10.8,2.2c-2.1,0.8-4.5,1.6-6.4-0.1c-1.9-1.7-0.9-4-0.4-6c0.8-3.7,2.5-7.1,4.1-10.4
	c1.8-3.4,2.6-7.3,2.4-11.2c-0.1-0.9,0.3-2.2-0.9-2.6c-1.2-0.4-1.8,0.7-2.5,1.3C236.3,461.3,235.2,463.2,234.6,465.3z"/>
<path class="st9" d="M579.9,42c0.3-0.5,2-1.3-0.2-1.5c1.5-0.9,3.3-1.3,5-1.1c3.4,0.1,4.3-1.1,4.5-4.4c0.4-6.6,1.3-13.1,1.9-19.7
	c0.1-2,0.8-4,2-5.6c0,9.3-0.6,18-1.1,26.8c-0.4,7.5-1.2,15.1,1.2,22.6c0.5,1.7,1.6,5.3-1.2,5.8c-3.1,0.5-3-3.1-3.3-5.3
	c-0.9-6.5-0.1-13.1,0-19.9C585.6,40.5,583,42.1,579.9,42z"/>
<path class="st6" d="M13.4,60.3c5,5.6,13.8,7.7,13.8,17.1c-1.7,0.3-2.1-0.8-2.6-1.5c-3.8-5.7-8.4-10.5-15.1-12.5
	c-2-0.6-1.8-1.8-0.6-3c7.4-7.3,12.6-16.5,15.1-26.6c0.2-0.8,0.3-1.6,1.3-1.4c0.8,0.1,1.3,0.9,1.1,1.7c0,0,0,0,0,0
	c-0.2,1.7-0.6,3.4-1.1,5.1C22.8,47,18.3,53.9,13.4,60.3z"/>
<path class="st5" d="M221,465.2c-5.8,6.8-11.4,13.4-19.4,17.8c-0.4-2.4,1-2.4,1.6-3c6.3-5.5,12.2-11.4,16.8-18.4
	c0.7-1,1.3-2.3,2.9-1.8c1.6,0.5,1.4,1.9,1.4,3.1c0.1,8.1,0.2,16.2,0.2,24.3c0,1.2,0.1,2.7-1.7,2.7c-1.8,0-1.8-1.5-1.8-2.7
	C221,480,221,473,221,465.2z"/>
<path class="st7" d="M884.5,65.8c2.2-5.2,6.5-7.7,10-11c7.1-6.8,6.8-8.8-2.2-12.5c-3.1-1.3-5.8-3.5-9.1-4.1
	c-0.6-0.1-1.2-0.5-1.2-1.2c0.1-1,0.9-1,1.6-1.1c2.8-0.5,17.2,6.5,18.3,9c1.5,3.2,0.7,6-1.4,8.7C897.2,57.8,891,62.7,884.5,65.8z"/>
<path class="st7" d="M524.4,38c2.9,0.1,5.7,0.6,8.4,1.6c4,1.7,5.3,5.3,2.7,8.8c-3.5,4.6-7.5,9-11.3,13.4c-0.6,0.8-1.7,1-2.5,0.4
	c-0.1,0-0.1-0.1-0.2-0.1c-1.2-1.1-0.5-2.3,0.3-3.3c2.8-3.2,5.6-6.3,8.5-9.4c0.7-0.7,1.3-1.5,2-2.3c1.9-2.2,1.3-3.9-1.3-4.8
	c-2.8-0.9-5.8-1.5-8.8-1.6c-1.3-0.1-3.3,0.6-3.3-1.3s2.1-1.2,3.3-1.4C522.9,37.9,523.7,37.9,524.4,38z"/>
<path class="st8" d="M724.8,60.3c-5.1-3.2-11.3-4-16-7.9c-1.6-1.3-1.3-3.9,0.1-5.5c4.4-5.5,10.3-9.4,15.4-14.2
	c0.4-0.5,1-0.5,1.5-0.2c0.1,0,0.1,0.1,0.2,0.2c0.6,0.9-0.1,1.7-0.7,2.3c-3,3-6,5.9-9.2,8.8c-5.5,5.1-8.2,6.5,1.8,9.5
	C721.9,54.5,723,55.9,724.8,60.3z"/>
<path class="st10" d="M322.2,30.7c3.4-3.4,3.3-8.2,7-10.9c1.2,4.2-4.7,7.8-0.3,11.6c-0.8,0.6-2,0.6-2.8-0.1
	c-1.2-1.5-1.7-0.6-2.8,0.1c-2.2,1.5-3.7,0.8-3.6-1.9c0-2.5,0.4-5,0.6-7.5c0.1-0.6,0.2-1.3,1-1.2c0.9,0.1,0.8,0.9,0.8,1.4
	C322.2,24.8,322.2,27.4,322.2,30.7z"/>
<path class="st11" d="M502.8,32.1c-0.9,1.5-2.7,1.4-3.1,1c-2-2.4-4.6-1.2-6.9-1.4s-3-1.8-2.9-3.9c-0.1-2.6,1.3-5.1,3.5-6.4
	c-0.4,2.1-1.4,3.6-1.1,5.2c0.2,1-0.5,2.4,1.1,2.8c1.3,0.5,2.8,0,3.6-1.2c0.4-0.6,0.7-1.3,0.9-2c0.3-0.6,0.2-1.7,1.3-1.5
	c0.9,0.2,0.8,1.2,0.9,1.8C500.6,28.6,499.5,31.4,502.8,32.1z"/>
<path class="st12" d="M323,897.7c3.4-0.8,4.9,1.3,5.7,3.8c2,6.3-1,15-6.7,19.4c0.7-2.9,1.8-5.7,3.2-8.4c1.4-2.7,2-5.7,1.8-8.7
	C326.8,901.2,325.8,898.9,323,897.7z"/>
<path class="st13" d="M309.4,47l-16.7-1.1C295.9,43.1,306.3,43.7,309.4,47z"/>
<path class="st14" d="M305.1,53.7c-3.3,1-6.6,0.9-10,0.9c-0.9,0-1.9,0-1.8-1.2c0.1-1,1.1-0.8,1.8-0.9
	C298.5,52.3,301.9,52.7,305.1,53.7z"/>
<path class="st15" d="M406,119.3v20.3c-0.9-6.8-0.6-13.6-1.5-20.3L406,119.3z"/>
<path class="st12" d="M638.2,890.6c-1.5,1.5,0.2,4.8-3,5.2c-0.9,0.1-1.8-0.7-1.8-1.6c0-0.1,0-0.2,0-0.3
	C633.4,890.8,636.4,891.4,638.2,890.6z"/>
<path class="st16" d="M708.2,895.4c-0.4,0.3-0.8,0.5-1.2,0.7c-1,0.4-1.8,1.3-3,0.7c-0.2-0.1-0.3-0.4-0.3-0.6c0.5-1.3,1.9-0.5,2.8-1
	c0.4-0.2,0.9-0.3,1.3-0.3L708.2,895.4z"/>
<path class="st17" d="M689.4,897.8c-0.8,0-1.4-0.3-1.4-1c0-0.2,0.5-0.5,0.7-0.5c0.6-0.1,1.1,0.3,1.3,0.9c0,0,0,0.1,0,0.1
	C690,897.4,689.6,897.6,689.4,897.8z"/>
<path class="st1" d="M243.7,609.6c-3.2-4.8-3.1-4.8-3.3-11c-0.2-9.1-0.6-18.2-0.9-27.3c-0.1-3.1-0.8-6.2-2.1-9.1
	c-0.4-0.9-0.8-2.3-1.8-2c-4,1.2-6.4-1.8-9.5-3.1c-9-3.8-22-2.1-26.8,9.6c-2.5,6.2-3.4,12.8-2.8,19.4c0.3,2.6,1.5,5.1,3.5,6.9
	c5.8,5.5,15.8,6.5,22.7,2.4c4.9-2.9,8.1-7.3,10.9-12.1l1.2,0.1c0,6.8,0,13.6,0,20.4c0.1,1-0.5,1.9-1.4,2.3
	c-11.4,6.4-18.8,16.6-25.8,27.2c-4.5,6.6-6.5,14.5-5.8,22.4c1,11.2,4.6,21.2,13,29c5.9,5.4,13.2,5.1,18.6-0.7c2-2.2,3.6-4.8,4.6-7.7
	c2.3-6.3,3-12.9,3-19.5c-0.1-14-0.3-28-0.6-42C240.3,612.2,240.6,610.1,243.7,609.6z M213.4,590.5c-7.1,0.3-8-0.5-7.8-7.8
	c0-2.4,0.3-4.7,0.9-7c1-3.5,3.1-5.9,6.8-6.8c2.5-0.7,5.1-1.3,7.7-1.6c5.1-0.3,7.3,1.8,7.5,6.7C228.6,581.1,220.3,590.2,213.4,590.5z
	 M234.9,661.8c0,5.3-1.2,10.5-3.6,15.2c-3.6,6.8-8.7,7.5-14,2c-11-11.4-13.1-29.8-4.8-43.1c4.8-7.9,10.8-15.1,17.7-21.1
	c1.2-1,2.3-2.3,4.4-2.6C234.9,628.9,235.4,645.3,234.9,661.8z"/>
<path class="st18" d="M429.8,576.2c-4.8,3.9-9.9,7-15.8,8.2c-9.3,2-14.6-1.1-17.7-10c-1.3-3.7-2.2-7.4-3.6-11
	c-1.8-4.6-5.1-5.8-9.6-3.7c-1.8,0.9-3.4,2.1-4.8,3.5c-4.5,4.3-7.5,9.6-10.1,15.2c-0.8,1.8-1.6,3.5-2.8,6c-2.5-4.6-2.2-8.7-1.6-12.6
	c0.8-5.7,2-11.3,2.3-17.1c0.1-2,0.4-4.4-2.3-4.8c-2.7-0.4-3.2,2-3.5,4c-0.8,4.9-1.6,9.9-2,14.8c-1,11.9-13.6,21.1-28.1,15.9
	c-3.4-1.2-5.8-4.4-5.9-8c-0.7-6.6,0.2-13.3,2.4-19.5c1-3.4,3-6.4,5.6-8.8c3-2.5,9.4-2.3,11.8,0.4c2.4,2.7,2,7.6-1.2,10.8
	c-1.8,1.8-3.8,3.2-6.1,4.3c-2.9,1.4-5.9,2.6-8.9,3.9c-0.7,0.3-1.6,0.3-1.2,1.4c0.3,0.7,1,0.6,1.6,0.4c6.8-1.6,13.3-3.8,18.2-9
	c5.6-5.9,3-15.5-4.4-17.6c-6.7-1.8-11.7-0.2-15.8,5.4c-6.5,8.9-7.7,19-7,29.6c0.3,3.8-3.6,10-7.4,11c-8.8,2.3-19.5-5.4-20.2-14.4
	c-0.2-2,0.2-2.9,2.6-3.4c6.9-1.3,13.1-4.2,17.8-9.6c3.8-4.4,4-9.5,0.7-13.3c-5.7-6.5-17.3-5.7-21.8,1.7c-3,4.8-4,10.2-4.3,15.7
	c0,0.8,0.2,2-0.8,2.3c-0.9,0.3-1.8-0.2-2.1-1c0,0,0,0,0,0c-0.2-0.5,0-1.5-0.9-1c-0.5,0.3-0.9,0.8-1,1.4c-0.3,1.7,0.9,2.7,2.2,3
	c2,0.5,2.4,1.6,2.6,3.5c1.1,13.1,10.2,21,23.6,20.8c4.8-0.1,7.9-2.4,10-6.6c0.5-1.1,0.3-2.5,1.6-3.4c4.8,6.1,11.5,6.7,18.6,6.7
	c7.5,0.1,12.9-3.9,18-8.8c0.6,1.5,1.3,2.9,2,4.3c3,4.8,7.9,4.6,10.5-0.3c0.9-1.7,1.5-3.4,2.3-5.1c2.5-5.6,5.4-11,10.2-15.1
	c3-2.5,3.9-2.3,5.1,1.3c1.4,4.3,2.3,8.7,4.3,12.8c2.3,4.6,5.5,8.1,10.6,9.3c7.9,2.1,16.3,0.4,22.8-4.4
	C428.9,583.3,430.4,579.7,429.8,576.2z M291.4,564.4c0.2-3.8,1.2-7.4,2.8-10.9c2.6-5.3,8.4-6.9,13.4-3.6c3,1.9,3.8,5,1.7,8.1
	c-3.8,5.7-9.8,8.3-16.1,10C291.5,568.6,291.3,568.1,291.4,564.4z"/>
<path class="st2" d="M242.5,289.4c0.3-0.9,0.8-2.2-0.3-2.7c-1.4-0.6-1.5,1-1.8,1.8c-1.8,3.6-3.5,7.2-5.1,10.9c-1,2.4-2.3,3.4-5,3.3
	c-8.1-0.1-16.3-0.1-24.4,0.3c-3,0.1-4.4-0.7-5.3-3.6c-1.7-5.6-3.9-11.1-8-15.5c-0.9-1-2.2-1.9-3.2-0.7c-0.9,1.2-0.9,3.3,0.8,3.7
	c1.6,0.4,1.9,1.5,2.4,2.4c2.3,4.3,4.1,8.9,5.4,13.7c-1.9,0.2-3.6,0.5-5.4,0.5c-3.4,0-4.5,1.4-4.2,4.9c0.6,7,1.6,13.9,1.5,20.9
	c-0.1,8.4,0.1,16.7,0.2,25.1c0,1.5,0,3.7,2.1,3.8c2.5,0,2.4-2.2,2.3-3.9c-1.6-15,1.3-29.9,1.4-44.9c0-1-0.5-2.4,1.4-2.5
	c1.4-0.1,2.3,0.1,2.9,1.6c3.7,9.3,7.4,18.5,11.1,27.8c0.4,1.1,0.9,2.1,0.1,3.2c-4.2,5.9-8.5,11.7-11.9,18.2c-0.6,1.1-2.4,0.2-2,1
	c1,2.2-0.6,3.6-1.2,5.2c-2.8,6.4-5.8,12.7-6.9,19.7c-0.2,1.5-0.4,3.4,1.5,3.7c1.9,0.2,1.8-1.8,2-3c1.4-6.7,4.3-12.8,6.9-19
	c0.9-2.1,2.1-2.6,4.3-2.5c4.4,0.2,8.7,0.1,13.1-0.3c2.6-0.3,3.7,0.3,4.6,2.8c3,8,6.3,15.8,9.5,23.6c0.6,1.4,1.1,3.1,3.1,2.5
	c2-0.7,1.4-2.3,1-3.8c-0.6-2.5-0.9-5.3-2.5-7.4c-3.8-5-5-11-7.5-16.5c-0.8-1.8-0.3-2.4,1.5-2.7c3.3-0.5,6.7-1.1,10-1.6
	c4.7-0.8,5.4-1.6,4.5-6.2c-1.1-5.8-1.6-11.6-1.6-17.5c0.1-9-0.1-18,0.7-27c0.2-1.9,0.9-4.5-1.2-5.5c-2.1-1-1.4-2.1-0.8-3.4
	C239.8,296.4,241.2,293,242.5,289.4z M192.7,315c-0.7-2.6-1.7-5.1-0.3-7.9C193.4,309.8,193,312.4,192.7,315z M203.4,306.8
	c9.1-0.7,17.7-0.4,26.3-0.5c1.7,0,1.9,0.6,1.2,2c-4.6,9-9.5,17.8-15.9,26.1L203.4,306.8z M203.1,359.3c3.1-5.7,6.6-11.2,10.6-16.3
	c1.9,5.4,3.6,10.3,5.5,15.5C213.9,359.4,208.8,359.1,203.1,359.3z M235.1,355.8c-3.3,0.4-6.6,1-9.9,1.7c-1.6,0.3-2.2-0.3-2.7-1.7
	c-1.7-5.1-3.5-10.1-5.3-15.1c-0.5-1-0.4-2.2,0.2-3.2c7.1-9.5,12.7-19.9,17.9-30.6c0.1-0.2,0.4-0.3,1-0.8c0.9,2.1,0.2,4,0.1,5.7
	c-0.4,13.6-1.6,27.2,0.9,40.7C237.7,354.7,237.2,355.6,235.1,355.8L235.1,355.8z"/>
<path class="st2" d="M478.4,59.7c-4.8-0.9-5.9-2.3-5.4-7.2c0.3-3.2,1-6.4,1.7-9.6c0.6-2.9-3.1-9-5.9-9.8c-0.4-0.1-0.7-0.1-1.1-0.1
	c-3.2-0.5-6.3,0.6-8.5,3c-5.8,5.9-8.7,12.9-7.6,21.4c-3.8-0.9-4.3-1.4-4.3-4.7c0.1-4.4,0.5-8.7,0.7-13.1c0.1-1.6,0-3.4-1.9-4.1
	c-1.6-0.6-3.3-0.2-4.5,1c-1.9,1.6-3.7,3.3-5.4,4.8c-1.5-4.1-4.2-4.5-7.8-1.1c-2.9,2.7-4.7,6.4-5,10.4c-0.3,3.7-2.6,4.6-5.8,2.6
	c-1.8-1.2-2.9-3.2-2.8-5.4c-0.1-2.9,0-5.8-0.3-8.6c-0.2-2-0.1-4.5-2.8-5.1c-2.4-0.5-4,1.1-5.3,2.8c-1.6,2.4-2.9,4.9-3.8,7.7
	c-0.4,1.1-0.3,2.5-1.5,3.2c-0.4-2.7-0.6-5.5-1.3-8.1c-0.9-3.4-4.3-4.7-6.5-2.1c-2.5,3.1-6,5-8.1,8.6c-3.6,6.3-9.2,8.4-15.5,6.4
	c-2.8-0.9-4.6-2.5-4.8-5.5c-0.2-3-0.8-5.8,3.3-7.1c3.5-1.2,6.2-4,7.4-7.5c1.3-3.6,0.3-7.1-2.3-8.2c-3.3-1.4-6.5-0.1-8.3,3.6
	c-1.5,3.3-2.5,6.8-2.8,10.4c-0.2,1.5-0.1,3.6-2.6,3.3c0.4,1.2,2.2,0.6,2.2,2c-0.1,4,1,8-0.2,11.9c-1.3,4.4-5.5,5.5-9.1,2.4
	c-2.2-1.9-3.4-4.7-3.4-7.6c-0.3-7,0.1-14,1.1-20.9c0.6-3.9,1.3-7.8,1.9-11.7c0.1-0.6,0.2-1.6-0.9-1.8s-1.3,0.6-1.5,1.4
	c-2.6,11.6-4.8,23.2-3.8,35.2c0.3,2.8,1.5,5.4,3.5,7.3c2.5,2.6,7.5,3.9,10.4,2.4c3.3-1.7,3.8-4.7,3.3-8c0-0.6,0-1.3,0-1.9
	c4.1,3.9,8.6,4.5,13.5,3.8s8.1-4.2,11.1-8.2c0,3.2,0,6,0,8.7c0,1,0.1,2.1,1.5,2.1c1.3,0,1.7-0.8,1.8-1.9c0.2-2.6,0.3-5.3,0.7-7.8
	c0.5-3.4,1-6.9,4-9.2c0.8,0.6,1.3,1.5,1.2,2.5c0.4,3.9,0.6,7.7,1.1,11.5c0.2,1.7,0.2,4.1,2.9,4.1c2.5,0,2.3-2.3,2.7-3.9
	c0.9-4.1,2.2-8.2,3.8-12.1c0.7-1.6,1.4-3.3,3.8-4.4c0,3.8-0.1,7,0,10.2c0.3,5.4,3.3,8.6,8.1,9.1c1.9,0.2,3.9-1,5.8,0.8
	c0.9,0.9,1.9-0.6,2-1.8c0.2-2.2,0.2-4.5,0.6-6.7c0.5-3.1,1.5-6.1,5-8.1c0.1,2.6,0.1,5.2-0.1,7.8c-0.4,2.3-0.6,4.7-0.5,7.1
	c0.1,1.3,0.4,2.6,2.1,2.6s1.8-1.2,2-2.3c0.2-1.5,0.1-3,0.3-4.5c0.6-5.4,3.7-9.1,7.6-12.9c0,5.2,0,9.9,0,14.6c0,3.2,1.4,5.7,4.3,6.3
	c5,1,10,2,15.2,1.5c1.5-0.1,3-0.7,4.1-1.8c1.5-1.6,2.1-1.3,3.5,0.4c3.1,3.8,9.3,3.9,11.7,0.5C481.3,60.1,479.8,60,478.4,59.7z
	 M367.4,28.7c0.9-1.9,2.3-3.4,4.7-2.5s2,2.9,1.7,4.7c-1,4.8-4.8,6.9-9,9.1C365.2,35.8,365.7,32.1,367.4,28.7L367.4,28.7z
	 M461.9,58.1c2.5-2.2,4.7-4.7,6.8-7.3C468.2,54.4,466.6,57,461.9,58.1L461.9,58.1z M459.7,56.1c-3.1,1.8-5,0.9-4.9-2.6
	c0.1-6.5,3-12.6,8.1-16.6c1.4-1.3,3.5-1.6,5.3-0.7c1.5,0.8,0.7,2.5,1,3.7C468.5,46.8,465.8,52.4,459.7,56.1L459.7,56.1z"/>
<path class="st3" d="M265.6,422.1c-4.5,1.2-9.2,1.5-13.8,0.9c-13.5-1.6-26.9-0.9-40.4-0.4c-6.7,0.2-13.3,1.8-20,1.3
	c-1.2-0.1-2.6,0.9-2.2,2c1.2,2.9-0.5,5.7,0.1,8.5c1.4,7.2,0.2,14.4-0.6,21.6c-1.4,13-1.9,25.9,0.4,38.8c0.3,1.8,0.7,3.5,3,3.7
	c1-0.8,1.5-2,1.3-3.3c-1.6-17.5,0.1-34.9,0-52.4c0-4,0.1-8,0.1-12c0-2.1-0.2-3.6,3-2.3c2.8,1.1,5.1,3,7.8,4.1c6.6,2.9,13,6.2,20,8.4
	c1.3,0.4,2.9,0.8,3.5,2.6c-10.5,0.8-20.9,1.9-31.4,1.5c-1.2,0-2.4-0.5-2.5,1.1c-0.1,1.2,1.2,1.4,2.2,1.4c7.9,0,15.7,0.4,23.6-0.4
	c4.2-0.4,8.4-1.1,12.4,1l0,0c9.6,0.7,19.2,0.8,28.8,0.4c1.7-0.1,2.4,0.2,2.4,2.1c-0.4,12-0.1,24,0.9,35.9c0,0.6,0.1,1.3-0.2,1.7
	c-1.4,1.5-1.9,3.5-1.1,5c0.6,1.2,1.8,1.8,3.1,1.6c1.2-0.1,2.1-1,2.1-2.1c0.1-1.6,0.2-3.2,0.1-4.9c-1.6-20.8-2.3-41.6,1.1-62.4
	C269.9,422.8,268.5,421.4,265.6,422.1z M228.9,440.2c-1.6-1.7-3.9-2.1-6.1-2.7c-7-1.9-13.3-5.5-20-8.3c-1.1-0.3-2-1.1-2.4-2.3
	c9.8-0.4,19.5-0.7,29.1-1.3c9.6-0.5,19.4,1.6,29.4,1.8c-3,1.6-5.9,3.2-9,4.6c-4.5,2.1-8.9,4.4-12.6,7.8
	C234.7,442.4,232,443.5,228.9,440.2z M263.5,444.7c-0.1,0.8-0.3,1.4-1.3,1.4c-8.9-0.2-17.9,0.4-27-0.5c8.6-8.3,19.2-12.2,29.6-17.4
	C264.4,434.1,264,439.4,263.5,444.7z"/>
<path class="st0" d="M234.2,904.5c-1.3-10.2-2-20.4-2.4-30.6c-0.1-1.5-0.1-3.3-0.9-4.3c-7.7-9.3-21.2-7-25.9,1.8
	c-2.4,4.4-3.2,9.1-3.3,14.2c-1.4,11.8,7.7,16.1,17.4,15c2-0.2,3.9-3,5.6-1.5c1.5,1.3,1.7,4.1,2.5,6.2c0.1,0.2,0.2,0.5,0.2,0.7
	c0.7,2.5,2.3,4.1,4.9,3.5C234.8,908.9,234.4,906.5,234.2,904.5z M218.2,877.7c-0.2,4.4-0.8,8.7-3,12.6c-0.8,1.3-1.5,3.3-3.5,2.7
	c-1.8-0.5-2.1-2.2-2.1-3.9c0-0.8,0-1.5,0-2.2c-0.1-3.6,0.7-7.2,2.1-10.5c0.9-2.1,2.6-3.1,4.8-2.6
	C218.8,874.2,218.3,876.2,218.2,877.7L218.2,877.7z"/>
<path class="st2" d="M628,865.2c-4.9-0.1-8.8,1.8-11.4,5.8c-1.3,2.1-2.1,2-3.9,0.6c-2.6-2-5.5-3.6-8.9-3.4c-2.6,0.2-2.8-1-2.6-3.1
	c0.5-5.8,0.8-11.7,1.1-17.6c0-1.1,0.6-2.9-1.2-2.9c-1.4,0-1.3,1.7-1.4,2.7c-0.8,5.4-1.6,10.9-2,16.3c-0.3,3.1-1,5.1-4.7,5.6
	c-3,0.4-3.3,2-1.5,4.6c0.1-3,2.2-2.6,4-2.4c2.2,0.2,1,1.8,1.1,2.9c0,1.6-0.1,3.2-0.1,4.9c-0.1,6.9-1.8,9.8-8.4,11.6
	c-9.4,2.6-14.9,0-14.5-9.7c0.2-4.6,0-9.2-0.1-13.9c0-1.6-0.2-3.3-2.1-3.3c-2-0.1-2.2,1.7-2.3,3.2c-0.4,4.2-0.7,8.5-1,12.7
	c-0.3,2.9-1.3,5.6-3.1,7.9c-0.9,1.2-2,2.3-3.8,1.9c-2-0.5-1.7-2.2-1.8-3.6c-0.3-5.1-0.5-10.2-0.8-15.3c0-0.9,1-2.5-0.9-2.6
	s-1.7,1.6-1.8,2.7c-0.3,4.6-0.5,9.2-0.7,13.8c-0.1,3.6-0.7,7.5,3.7,9.3c3.6,1.5,6.6,0.3,10.3-4c0.1-0.1,0.4-0.1,0.6-0.2
	c6.7,10.4,19.9,9.3,27.3-2.2c3.8,9.2,8.9,11.5,15.9,7.2c1.7-0.7,2.6-1.8,1.8-3.7c-0.4,0.3,0-0.6,0-0.1c1.4,3.8,2.3,4.3,5.8,3
	c1.3-4.2-0.5-8.1-1.4-12.1c-1-4.3-0.1-7.7,3.3-10.3c3.4-2.6,7.2-3,11.3-1.2C633.2,866.8,631.4,865.3,628,865.2z M614.3,888
	c-0.6,2.6-3.3,3.3-5.4,4s-4.1-0.3-5.5-2.1c-2.7-3.4-2.5-7.4-2.7-11.4c0-0.8,0-1.5,0-2.2c0-5.2,1.3-5.9,6.2-3.7
	C612.9,875.1,616,881.7,614.3,888z"/>
<path class="st2" d="M253.2,52.4c-0.1-1.7,0-3.5-0.2-5.2c-0.4-4.3-0.1-9.1-5-11.2c-3.6-1.6-7.2,1-10.8,6.7c-2.9,4.6-4.1,9.8-5.9,15
	c-5.4-5.1-9.2,0.1-13.6,2c-0.1-1.1-0.1-1.8-0.1-2.5c-0.2-5.7-0.3-11.5-0.6-17.2c-0.1-1.3-0.1-3-1.8-3.4c-1.7-0.4-2.2,1.3-2.7,2.5
	c-1.1,2.3-2.6,4.3-4.5,5.9c-2,1.8-4.9,2.2-7.4,1.3c-2.7-1-3.1-3.6-3.1-6.3c0-0.9,0-1.9,0-3c-1.3,0.3-2.2,1.5-2.2,2.8
	c-0.2,3.3,0.3,6.4,3.3,8.2c3,1.8,6.2,1.6,9.3,0c2.7-1.4,4.3-3.9,6.8-6.8c0,6.1-0.2,11.3,0.1,16.5c0.4,3.4-0.9,6.7-3.5,9
	c-3.1,2.9-5.4,6.5-7.8,10c-5.2,8-5.6,16.6-3.6,25.5c0.6,2.8,1.9,5.4,3.8,7.6c3.7,4.2,9.7,3.2,11.8-2c1-2.7,1.5-5.5,1.7-8.4
	c1.1-10.6,0.5-21.2,0.5-31.8c0-2.5,0.6-4.3,2.7-5.7c2.3-1.5,4.5-4.5,7.2-3c2.4,1.3,2.2,4.8,2.2,7.5c0,8.2-0.1,16.5-0.1,24.7
	c0,1,0,2,0.1,3c0,0.8,0.6,1.5,1.3,1.6c0.8,0.2,1.7-0.3,2-1.1c0-0.1,0-0.1,0-0.2c0.2-1.2,0.3-2.5,0.3-3.7c0-7.7,0-15.5,0.1-23.2
	c0-1.3-0.2-2.6,0.6-3.9c3.7,4.1,7.5,4.2,11.5,0.7c3.8-3.3,5.6-7.9,7.8-12.1L253.2,52.4z M213,104c-0.4,2.1-0.7,4.7-3.6,5.1
	s-3.9-1.8-5-3.8c-3.1-5.6-3.4-11.9-2.2-17.9c1.5-7.8,6.5-13.7,12.4-20.2C214.2,80.2,215.2,92.2,213,104z M242.4,62.7
	c-1.4,1.2-3.3,1.8-4.8,0.6c-1.7-1.4-3.2-3.4-2.6-5.8c1.4-5.7,3.2-11.2,7-15.9c1.2-1.5,2.5-3,4.6-2.6c2.1,0.4,2.3,2.7,2.7,4.4
	c0.2,1.3,0.4,2.6,0.5,3.9C249.8,54.1,246.7,58.7,242.4,62.7L242.4,62.7z"/>
<path class="st3" d="M453.8,348.6c-2.2-8.2-2.6-16.9-1-25.3c1.6-9.1,3.3-18.2,4.7-27.3c1.2-7.1,1.8-14.4,1.7-21.6
	c-0.1-1.9-0.5-3.6-2.6-3.9s-3.1,1.2-3.5,3.1c-0.3,1.6-0.6,3.2-0.8,4.8c-1.6,14.4-3.3,28.7-4,44.3c-0.8-1.3-1-1.7-1.3-2.1
	c-3.5-6.3-8.9-8.8-15.9-8.2c-6.3,0.6-9.5,4.9-12,10c-2,4-2.3,8.4-2.1,12.8c0.3,6.6,4.7,11.8,11.7,13.9s12.1,0.3,16.3-5.7
	c1-1.5,1.9-3,3.3-5.1c0.2,1.9,0.2,3.1,0.4,4.3c0.7,5.5,2,10.8,5.7,15.2c2.5,2.9,4.5,3.1,7.7,1C457.5,356.8,455.1,353.1,453.8,348.6z
	 M442.2,340.8c-3,4.7-6.2,6-11.4,5c-5.4-1.1-9.4-4.8-10.1-9.7c-0.8-5,0.2-10.1,2.7-14.4c3.2-5.5,8-7.4,14-5.8
	c4.9,1.4,8.3,6.2,8.3,12.5C446.8,332.8,444.7,336.9,442.2,340.8z"/>
<path class="st2" d="M676.7,22c-3.5-0.2-6.2,3.2-6.7,8.1c-0.4,3.7,1.1,6.8,2.9,9.9c2.2,3.6,3.7,7.4,3.2,11.7c-0.4,2.9-1.8,5-4.7,5.5
	c-3,0.5-5-0.6-7-3.1c-2.3-2.8-0.6-4.5,1.6-6.9c-5.3,1.9-5.4,2.1-5.8,6.8c-0.1,0.8-0.1,1.3-1,1.6c-5.6,1.9-10.7-1.8-10.6-7.6
	c0-1.4,0.2-2.7,0.3-4.1c0.2-2.6,0.5-5.2,0.6-7.8c0-1-0.2-2.1-1.6-2.1c-1.3-0.1-1.6,1-1.9,1.9c-0.1,0.7-0.2,1.5-0.3,2.2
	c-0.8,4.9-0.7,10-3,14.6c-1.1,2.1-2,4.7-5.1,4.1c-3.1-0.6-4-3.1-4.1-5.9c-0.2-4.6,0.7-9.2,1.4-13.8c0.3-1.8,1.7-4.6-0.8-5.2
	c-2.7-0.5-2.2,2.7-2.6,4.4c-0.9,4.3-1.2,8.7-2.4,12.9c-1.6,5.7-6.5,7.4-11.6,4.4c-1.3-0.8-2-1.8-1.6-3.4c1.5-6.2,1.6-12.6,2.5-18.9
	c0.2-1.3,0.5-2.7-0.8-3.4c-1.9-0.9-1.9,1.5-2.9,2.1c-0.8-0.5-1.5-1-2.3-1.4c-5.8-3-9-1.7-10.6,4.5c-1.7,6.5-2.3,13.3-1.8,20
	c0.1,3.1,2.2,5.8,5.2,6.7c3,1,5.8,0.6,7.6-2.3c1.1-1.7,1.9-1.5,3.5-0.7c5,2.1,9.9,2.7,14-2c5.2,7.3,9.2,7.6,14.6,1.1
	c0.9-1.1,1.2-1.1,2.2-0.2c3.6,3.3,7.9,3.5,12.3,2.2c1.7-0.5,2.8-0.7,4.3,0.7c2.8,2.7,7.1,3.2,10.5,1.3c3.7-1.8,5.1-5.1,5.1-9.3
	c0-5.2-2.2-9.4-4.8-13.6c-1.8-2.9-2.2-6.5-1.2-9.7c0.3-1.8,1.9-3.1,3.7-3.1c1.9,0,2.5,1.4,3.1,2.8c0.5,1.2,1,2.5,1.5,3.9
	C681.8,25,680.2,22.1,676.7,22z M613.6,36.9c-1.4,4-0.8,8.5-3.4,12c-0.4,0.5,0.2,0.4,0.4,0.6c2,1.7,0.9,3.4,0,5.1
	c-0.8,1.4-1.8,2.3-3.6,2c-2-0.4-3.5-1.6-3.6-3.4c-0.6-7.5-0.5-15,1.9-22.2c0.3-1.2,1.6-2,2.8-1.7C612.8,29.6,615.1,32.7,613.6,36.9z
	"/>
<path class="st2" d="M866.3,57.7c-3.2-0.4-5-2-5-5.4c0-2.3,0-4.5-0.1-6.8c-0.1-1.7-0.1-3.6-2-4.5c-2.1-1-4,0-5.5,1.3
	c-3.4,2.8-5.1,6.7-6.9,10.6c-0.4,1-0.3,2.5-1.9,2.8c-0.3-3-0.5-5.9-0.8-8.7c-0.2-2.1-0.4-4.4-2.9-5.2s-4.3,0.6-5.9,2.4
	c-2.4,2.6-3.7,5.9-6.3,9.7c0-5,0.2-8.8,0-12.7c-0.5-7.1-4.3-10.8-11.3-10.6c-4.4,0.2-8.7,0.9-9.6-5.1c0-0.2-0.3-0.4-0.4-0.6
	c-1.8-2.3-4.8-3.1-7.5-2c-3,1.1-2.9,4-2.8,6.7c0.1,3,2.2,4,4.7,4.4c1.1,0.3,2.2,0.4,3.3,0.4c2-0.1,2.6,0.8,2.5,2.6
	c-0.1,5.9,0.3,11.7-1,17.5c-0.3,1.2-1.2,3.1,0.8,3.5s1.9-1.6,2.1-2.9c1.3-6,1.1-12.2,1.2-18.3c0-1-0.4-2.2,1-2.9
	c6.7-3.1,13.3,0.6,13.8,8c0.2,4.1,0.1,8.2-0.3,12.3c-0.1,1.9-0.3,4,2.1,4.6c2.2,0.5,3.5-1,4.5-2.6c1.5-2.6,3-5.2,4.6-7.7
	c0.8-1.3,1.5-2.9,3.6-3c0.2,1.6,0.4,3.1,0.6,4.6c0.3,2.7,0.5,5.5,0.9,8.2c0.1,1.7,1.4,3.1,3.1,3.3c2,0.3,3-1.1,3.7-2.6
	c1.3-2.8,2.4-5.7,3.8-8.6c1.1-2.7,3.1-4.9,5.6-6.3c0,3,0,5.4,0,7.7c0.1,5.2,1.8,7.8,5.7,9c6,1.8,11.3,0.4,14.3-4
	C874,57.8,870.2,58.1,866.3,57.7z M804.3,31.3c-1.7-0.5-4.3,0.1-4.1-3c0.1-1.4,0.2-2.8,2.2-2.7c2.8,0.2,3.7,2.3,4.1,4.5
	C806.7,31.8,805.2,31.1,804.3,31.3L804.3,31.3z"/>
<path class="st2" d="M351.3,323.5c-1.2-2.9-4-4.7-7.1-4.6c-8.1-0.1-13.9,4-18.5,10.2c-0.8,1-1.1,2.6-2.8,3.1c0.4-3.1,0.6-6.1,1-9
	c1.5-10,3-20,1.9-30.1c-0.1-1.1,0.2-2.6-1.5-2.5c-1.4,0.1-0.9,1.5-0.9,2.4c-0.2,5.1,0.2,10.2-0.6,15.3c-1.5,10.6-3.9,21.1-3.5,31.9
	c0,0.7-0.2,1.5-0.4,2.2c-3.3,10.4,2.8,17.4,13.6,16.5C345.6,358,357.2,336.4,351.3,323.5z M349,332c-0.6,8.2-3.9,15.1-10.2,20.4
	c-4.2,3.5-10.6,4-14,1.5c-1.2-0.9-2.5-1.6-1.2-3.6c0.9-1.4,0.3-3.2,0.4-4.8c0.4-8.5,3.8-15.4,10.9-20.3c0.4-0.3,0.9-0.6,1.4-0.8
	C344.9,320.4,349.5,322.3,349,332z"/>
<path class="st18" d="M275,563.3c-1.4,0.4-2.9,0.9-4.2,1.5c-6.2,2.1-8.6,0.7-10-5.3c-0.5-2.2-1.1-4.4-1.8-6.5
	c-0.8-2.3-2.3-4.2-4.3-5.6c-2.5-1.6-5.3-1-5.7,1.6c-1,6.2-1.3,12.4,4,17c1.9,1.6,2.9,4,2.5,6.5c-0.5,7.3-0.3,14.5,2.4,21.4
	c0.7,1.8,1.6,3.6,3.9,3.3s2.5-2.4,2.5-4.4c0.3-6.2-0.1-12.5-1.2-18.7c-0.6-3,0.2-3.6,3.1-3.5c5.8,0.3,10.4-1.9,13.3-7.8
	C278,562.9,276.5,563,275,563.3z M253.6,554.1c1.9,3.3,1.9,3.3,2,6.7C253.4,559.3,253.4,557.2,253.6,554.1z"/>
<path class="st4" d="M140.6,66.8c-5.3,1.7-8.7-0.1-10.1-5.6c-0.5-1.9-0.8-3.9-1.3-5.9c-0.9-3.4-3.4-4.1-6.1-1.9
	c-1.8,1.5-2.8,3.5-3.8,5.5c-1.4,2.6-2.2,5.7-4.6,8.2c-1.2-3.2-0.8-6.3-1.3-9.2c-0.3-1.9-0.1-4.3-2.6-4.9c-2.7-0.7-4.2,1.3-5.3,3.3
	c-1.4,2.6-2.6,5.3-3.9,8l-1.1-0.1c0-4,0.1-7.9,0-11.8c-0.4-10.7-3.7-13-13.6-8.8c-2.6,1.1-3.6,0.7-4.5-1.9c-0.8-2.4-3-2.7-5.3-2.6
	s-3.2,1.6-3.7,3.5c-1.3,4.4,0.3,6.8,4.8,6.3c3.8-0.4,4.7,1,4.6,4.4c-0.2,4.2-0.1,8.5,0,12.7c0,0.8-0.7,2,1,2.5c0.5-1,0.8-2,1-3.1
	c0.2-4.5,0.9-9.1,0.1-13.5c-0.8-4.7,1.5-5.9,5-6.8c0.7-0.2,1.4-0.5,2.2-0.6c2.9-0.6,4.7,0.1,5.1,3.5c0.7,5,0,10,0.4,15
	c0.2,2.6,0.4,5.4,3.5,5.9c2.9,0.5,3.4-2.4,4.3-4.3c1.3-2.6,1.7-5.6,4.2-7.8c1.3,3.5,0.3,7,1.3,10.2c0.6,1.9,1.3,3.5,3.6,3.8
	c2.1,0.2,3.3-0.9,4.1-2.6c1.4-2.8,2.7-5.6,4.1-8.4c0.8-1.4,1.3-3.2,3.2-3.7c0.5,2.5,0.9,4.9,1.6,7.1c1.6,5.7,5.8,8.4,11.6,7.4
	c2.8-0.5,4.8-1.8,4.9-5.1C142.7,66,141.7,66.4,140.6,66.8z M78.5,46.4c-2,0.3-2.9-0.4-2.8-2.2c0.1-1.3,0.2-2.8,2.1-2.9
	c2.3-0.1,3,1.6,3.2,3.3C81.4,46.7,79.3,46,78.5,46.4z"/>
<path class="st2" d="M392.4,898.4c-1.3-4.4-1.2-8.9-0.9-13.4c0.5-9-0.2-18,0-26.9c0-1.5,0.5-3.7-1.9-3.8c-2.3-0.1-1.6,2.1-1.8,3.5
	c-0.8,8-1.4,16.1-3.8,24.6c-2.5-4.2-6.9-7-11.7-7.3c-4-0.5-6.3,1.1-7.7,4.8c-1.9,5.2-2.7,10.7-2.1,16.2c0.4,4.1,3.6,7.4,7.7,8
	c5.4,0.9,8.7-2,11.6-5.9c2.4-3.2,3.6-6.9,5.3-10.5c-0.5,5.1,1,10,1.4,14.9c0.1,1.4,0.1,2.9,2,2.9c1.8,0,2.2-1.4,2.3-2.8
	C392.8,901.1,392.7,899.7,392.4,898.4z M380.8,892.5c-1.1,2.2-2.6,4.3-4.4,6c-2.1,2-4.4,2.8-7.1,1.6s-3.8-3.4-3.8-6.3v-2.6
	c-0.1-3.7,0.6-7.5,2-10.9c0.8-2.2,2.4-2.9,4.7-2.8C380.7,878.2,384.6,884.8,380.8,892.5z"/>
<path class="st2" d="M343.6,456.3c-0.5-4.2-2.6-6.6-6.1-7c-6.4-0.9-15.6,4.3-17.6,10.2c-2.9,8.4-6.8,16.8-5.3,24.4
	c0.1,7.8,0.4,13.7,2,19.6c0.5,1.6,0.7,3.8,3.1,3.6c2.6-0.2,2-2.5,1.9-4.1c-0.4-7.8,0.5-15.5,0.5-23.2c0-3.1,0.6-4.4,4.3-4.5
	C336,475,344.7,465.1,343.6,456.3z M318.6,490.4c-0.3-5.5-0.9-11,0.6-16.5C320.3,479.4,318.5,484.8,318.6,490.4L318.6,490.4z
	 M324.2,471.7c-1.1-0.2-1.8-0.5-2-1.7c-1.2-6.3,5.5-17.9,13.5-17.1c2.7-0.3,4,1.1,4.3,3.8C340.6,464.3,331.6,472.8,324.2,471.7z"/>
<path class="st4" d="M422,901.6c-3.3,0.6-2.9-2.2-3.4-3.5c-2-5.2-2.1-10.8-1.6-16.2c0.4-4.5-0.4-8.3-3.8-11.5
	c-4.6-4.4-9.6-3.4-11.5,2.7c-2.4,7.5-3.7,15.3-4,23.1c-0.1,2.5,0.3,4.9,3,5.9c2.6,1.1,5.6,0.6,7.6-1.4c1.9-1.8,3.2-4.1,4.8-6.6
	c0.5,3,1.4,5.9,2.8,8.6c0.6,1.4,1.6,2.6,2.9,3.3c1.3,0.6,2.8,0.6,3.5-1C422.9,903.7,422.7,901.4,422,901.6z M412.9,876.3
	c-1.1,4.4-1.2,9.1-2.5,13.5c-0.7,2.7-2.1,5.1-3.9,7.2c-1.1,1.1-2.3,2.2-3.9,1.5c-1.6-0.6-1-2.3-1.1-3.6c-0.1-0.6,0-1.2,0-2.4
	c0.5-6.3,1.6-12.5,3.2-18.6c0.7-2.4,2-4.3,4.8-3.2C411.6,871.7,413.8,872.4,412.9,876.3L412.9,876.3z"/>
<path class="st4" d="M548.5,892.6c-4.1,3.1-8.7,3.5-13,1.2c-4.2-2.2-4.7-6.8-5.1-11.1c-0.2-1.8,0.4-2.6,2.1-3.3
	c3.4-1.2,6.4-3.5,8.6-6.4c2.4-3.5,2-8.2-1.2-9.5c-6.4-2.5-12.3-2.3-13.3,6.3c-0.6,5.3-0.7,10.7-0.2,16.1c0.2,3.1,1.3,6.1,3.1,8.7
	c3.7,5.3,9.2,5.4,14.8,4.7c4.4-0.6,7.3-3.9,8.3-9.1C551.3,890.9,549.9,891.7,548.5,892.6z M530.5,870.1c0.4-4.2,3.3-5.7,7.1-3.8
	c2.5,1.2,1.6,3,0.8,4.8c-1,2.1-4.2,4.7-8,6.4C530.1,875,530.1,872.5,530.5,870.1L530.5,870.1z"/>
<path class="st5" d="M378.9,318.9c-1.6-4.2-5.3-6-10.6-6c-4.4,0-6.4,2.8-7.7,6.4c-1.8,4.7-2,9.7-2.2,14.7c0,2.1-0.1,4.3,0,6.4
	c0.5,6.3,3.8,9.9,9.5,10.5c6.5,0.7,11.1-2.1,12.6-8.4C382.4,334.6,381.8,326.3,378.9,318.9z M378,330.9c-0.4,5.2-0.2,8.7-1.6,12
	c-1.6,3.6-4.5,4.7-8.2,4.3c-3.7-0.4-5.9-2.6-6.2-5.9c-0.6-7-0.7-14,1.5-20.7c1.5-4.6,4.9-6,9.4-4.2c1.3,0.5,2.6,1.2,2.9,2.7
	C376.7,323.5,378.4,327.8,378,330.9L378,330.9z"/>
<path class="st7" d="M793.5,35.8c-3.8-2-7.1-1.5-9.5,2.1c-4,5.9-4.7,12.5-3.1,19.3c0.8,3.4,3.6,4.9,7,5.3s6-0.8,7.7-4
	c2.3-4.4,2.2-9.1,2.2-13.2C797.6,38,797.6,38,793.5,35.8z M792.9,56.3c-1,2.1-2.4,3.4-4.9,3s-4.3-1.8-4.6-4.2
	c-0.5-4.8-0.6-9.7,1.8-14.2c1.2-2.3,2.7-4.5,5.7-3.7c2.8,0.7,3.3,3,3.4,5.6c0,1.2,0.1,2.5,0.2,3.2C794.5,49.8,794.4,53.1,792.9,56.3
	z"/>
<path class="st2" d="M253.2,52.4L253.2,52.4L253.2,52.4L253.2,52.4z"/>
<path class="st2" d="M263.8,63.6c-3.1-0.7-5.5-2.5-6.2-5.8c-0.7-3-0.2-5.5,3-7.1c2.6-1.3,4.7-3.4,6-6c1.2-2.5,2.4-5.3-0.5-7.4
	c-2.5-1.8-6-0.7-8,2.3c-2.1,3.4-3.4,7.3-3.7,11.3c-0.1,0.9-0.1,0.9-1.2,1.5c1.2,2,0.9,4.4,1.3,6.6c1.4,7.5,12.5,11.2,19.3,6.5
	c1.6-1.1,3.1-2.3,3.2-5C272.7,63,268.5,64.6,263.8,63.6z M260.4,41c0.9-1.5,2.3-2.6,4.1-1.7c2.1,1.1,1,2.9,0.4,4.3
	c-1.5,3.1-4.1,5.2-7.2,7.2C257.7,47.3,258.6,43.9,260.4,41z"/>
<path class="st19" d="M71.8,53.9c-0.5-3.6-0.5-3.6-3.9-3.5c-0.5,0-0.9,0-1.4-0.1c-4.1-0.2-5.4,0.2-6.5,2.6c-2,4.1-2.5,8.8-1.2,13.1
	c1,3.1,3.5,4.7,6.9,4.7s4.5-2.4,5.1-5C71.9,61.9,72.2,57.8,71.8,53.9z M68,64.9c-0.3,1.5-0.9,3.3-3.1,3c-1.9-0.1-3.6-1.5-3.9-3.4
	c-0.6-3.1-0.5-6.2,0.3-9.3c0.6-2.8,2.6-3.7,5.4-3.3c3.3,0.4,2.3,2.9,2.5,5.6C68.9,59.5,68.6,62.2,68,64.9L68,64.9z"/>
</svg>
