<?xml version="1.0" encoding="utf-8"?>
<!-- Generator: Adobe Illustrator 24.1.1, SVG Export Plug-In . SVG Version: 6.00 Build 0)  -->
<svg version="1.1" id="Ebene_1" xmlns="http://www.w3.org/2000/svg" xmlns:xlink="http://www.w3.org/1999/xlink" x="0px" y="0px"
	 viewBox="0 0 115.1 60" style="enable-background:new 0 0 115.1 60;" xml:space="preserve">
<style type="text/css">
	.st0{fill:#50697D;}
	.st1{fill:#FFFFFF;}
</style>
<g>
	<rect x="0" y="0.1" class="st0" width="115" height="60"/>
	<g>
		<path class="st1" d="M56.9,34.9c0.6,0.4,1.5,0.7,2.5,0.7c1.4,0,2.3-0.8,2.3-1.8c0-1-0.6-1.6-2-2.1c-1.8-0.6-2.8-1.5-2.8-3.1
			c0-1.7,1.4-2.9,3.5-2.9c1.1,0,1.9,0.3,2.4,0.5l-0.4,1.1c-0.4-0.2-1.1-0.5-2-0.5c-1.5,0-2,0.9-2,1.6c0,1,0.7,1.5,2.1,2.1
			c1.8,0.7,2.8,1.6,2.8,3.2c0,1.7-1.2,3.1-3.8,3.1c-1,0-2.2-0.3-2.8-0.7L56.9,34.9z"/>
		<path class="st1" d="M66.5,26.7c0,0.5-0.3,0.9-0.9,0.9c-0.5,0-0.8-0.4-0.8-0.9c0-0.5,0.4-0.9,0.9-0.9
			C66.2,25.8,66.5,26.2,66.5,26.7z M65,36.6v-7.7h1.4v7.7H65z"/>
		<path class="st1" d="M75.4,28.8c0,0.6-0.1,1.2-0.1,2.1v4.5c0,1.8-0.4,2.9-1.1,3.5c-0.8,0.7-1.8,0.9-2.8,0.9c-0.9,0-2-0.2-2.6-0.6
			l0.4-1.1c0.5,0.3,1.3,0.6,2.3,0.6c1.4,0,2.5-0.8,2.5-2.7v-0.9h0c-0.4,0.7-1.3,1.3-2.5,1.3c-1.9,0-3.3-1.6-3.3-3.8
			c0-2.6,1.7-4.1,3.5-4.1c1.3,0,2.1,0.7,2.4,1.3h0l0.1-1.2H75.4z M73.9,31.9c0-0.2,0-0.4-0.1-0.6c-0.3-0.8-0.9-1.5-2-1.5
			c-1.3,0-2.3,1.1-2.3,2.9c0,1.5,0.8,2.8,2.3,2.8c0.9,0,1.6-0.5,2-1.4c0.1-0.2,0.1-0.5,0.1-0.8V31.9z"/>
		<path class="st1" d="M77.6,30.9c0-0.8,0-1.5-0.1-2.1h1.2l0.1,1.3h0c0.4-0.7,1.3-1.5,2.6-1.5c1.1,0,2.7,0.6,2.7,3.3v4.6h-1.4v-4.5
			c0-1.2-0.5-2.3-1.8-2.3c-0.9,0-1.6,0.7-1.9,1.4C79,31.4,79,31.7,79,31.9v4.7h-1.4V30.9z"/>
		<path class="st1" d="M91.3,25.8v10.8h-1.4V25.8H91.3z"/>
		<path class="st1" d="M93.8,30.9c0-0.8,0-1.5-0.1-2.1H95l0.1,1.3h0c0.4-0.7,1.3-1.5,2.6-1.5c1.1,0,2.7,0.6,2.7,3.3v4.6H99v-4.5
			c0-1.2-0.5-2.3-1.8-2.3c-0.9,0-1.6,0.7-1.9,1.4c-0.1,0.2-0.1,0.4-0.1,0.7v4.7h-1.4V30.9z"/>
	</g>
	<g>
		<path class="st1" d="M38.6,45.1c0,0.4-0.4,0.7-0.7,0.7H26.1V20.9c0-0.9-0.4-1.6-1-1.9l-8.5-3.6h21.2c0.4,0,0.7,0.4,0.7,0.7v9.3h1
			v-9.3c0-0.9-0.7-1.7-1.7-1.7H14.3c-0.9,0-1.7,0.7-1.7,1.7v28.9c0,0.5,1,2.6,1.5,2.7l10.5,2.9c0.8,0.3,1.6-0.6,1.6-1.9v-2H38
			c0.9,0,1.7-0.7,1.7-1.7v-9.2h-1.1V45.1z"/>
		<path class="st1" d="M42.9,30.1H31.6l4.8-4.9c0.2-0.2,0.2-0.5,0-0.7c-0.2-0.2-0.5-0.2-0.7,0l-6,6.1l6,6.1c0.1,0.1,0.3,0.2,0.4,0.2
			c0.1,0,0.3-0.1,0.4-0.2c0.2-0.2,0.2-0.5,0-0.7L31.6,31h11.3c0.3,0,0.5-0.2,0.5-0.5C43.4,30.1,43.2,30.1,42.9,30.1z"/>
	</g>
</g>
</svg>
