<?xml version="1.0" encoding="utf-8"?>
<!-- Generator: Adobe Illustrator 24.1.1, SVG Export Plug-In . SVG Version: 6.00 Build 0)  -->
<svg version="1.1" id="Ebene_1" xmlns="http://www.w3.org/2000/svg" xmlns:xlink="http://www.w3.org/1999/xlink" x="0px" y="0px"
	 viewBox="0 0 114.8 60" style="enable-background:new 0 0 114.8 60;" xml:space="preserve">
<style type="text/css">
	.st0{fill:#50697D;}
	.st1{fill:#FFFFFF;}
</style>
<g>
	<rect x="0" y="0.1" class="st0" width="115" height="60"/>
	<g>
		<polygon class="st1" points="58.5,25.8 57.1,25.8 57.1,36.6 63.1,36.6 63.1,35.4 58.5,35.4 		"/>
		<path class="st1" d="M67.7,28.7c-2.1,0-3.8,1.5-3.8,4.1c0,2.4,1.6,4,3.7,4c1.9,0,3.9-1.2,3.9-4.1C71.4,30.3,69.9,28.7,67.7,28.7z
			 M67.6,35.7c-1.4,0-2.4-1.3-2.4-3c0-1.5,0.7-3,2.4-3c1.7,0,2.3,1.7,2.3,3C70,34.4,69,35.7,67.6,35.7z"/>
		<path class="st1" d="M78.6,30L78.6,30c-0.4-0.6-1.1-1.3-2.4-1.3c-1.8,0-3.5,1.5-3.5,4.1c0,2.1,1.4,3.8,3.3,3.8
			c1.2,0,2-0.6,2.5-1.3h0v0.9c0,2-1.1,2.7-2.5,2.7c-1,0-1.8-0.3-2.3-0.6l-0.4,1.1c0.6,0.4,1.6,0.6,2.6,0.6c1,0,2.1-0.2,2.8-0.9
			c0.8-0.7,1.1-1.8,1.1-3.5V31c0-0.9,0-1.6,0.1-2.1h-1.2L78.6,30z M78.4,33.3c0,0.2,0,0.5-0.1,0.8c-0.3,0.9-1.1,1.4-2,1.4
			c-1.5,0-2.3-1.3-2.3-2.8c0-1.8,1-2.9,2.3-2.9c1,0,1.7,0.7,2,1.5c0.1,0.2,0.1,0.4,0.1,0.6V33.3z"/>
		<path class="st1" d="M85.4,28.7c-2.1,0-3.8,1.5-3.8,4.1c0,2.4,1.6,4,3.7,4c1.9,0,3.9-1.2,3.9-4.1C89.2,30.3,87.6,28.7,85.4,28.7z
			 M85.4,35.7c-1.4,0-2.4-1.3-2.4-3c0-1.5,0.7-3,2.4-3c1.7,0,2.3,1.7,2.3,3C87.7,34.4,86.7,35.7,85.4,35.7z"/>
		<path class="st1" d="M97.4,28.8H96v4.8c0,0.3,0,0.5-0.1,0.7c-0.3,0.6-0.9,1.3-1.9,1.3c-1.3,0-1.7-1-1.7-2.5v-4.3h-1.4v4.5
			c0,2.7,1.5,3.4,2.7,3.4c1.4,0,2.2-0.8,2.6-1.4h0l0.1,1.3h1.2c0-0.6-0.1-1.3-0.1-2.1V28.8z"/>
		<path class="st1" d="M103.5,29.9v-1.1h-2v-2.2l-1.4,0.4v1.9h-1.2v1.1h1.2v4.2c0,0.9,0.1,1.6,0.5,2c0.3,0.4,0.9,0.6,1.5,0.6
			c0.5,0,1-0.1,1.2-0.2l-0.1-1.1c-0.2,0-0.4,0.1-0.8,0.1c-0.8,0-1.1-0.5-1.1-1.5v-4.2H103.5z"/>
		<path class="st1" d="M38.6,45c0,0.4-0.3,0.7-0.7,0.7h-6.2V21c0-0.9-0.6-1.6-1.4-1.9l-12-3.5h19.6c0.4,0,0.7,0.3,0.7,0.7v9.2h1
			v-9.2c0-0.9-0.8-1.7-1.7-1.7H14.4c-0.9,0-1.7,0.8-1.7,1.7V45c0,0.5,0.2,1,0.6,1.3c0.2,0.7,0.7,1.3,1.4,1.4l14.8,2.9
			c1.2,0.3,2.3-0.6,2.3-1.9v-2h6.2c0.9,0,1.7-0.8,1.7-1.7v-9.2h-1V45z"/>
		<path class="st1" d="M42.9,24.6c-0.2,0.2-0.2,0.5,0,0.7l4.8,4.9c-0.1,0-0.1,0-0.2,0H35.5c-0.3,0-0.5,0.2-0.5,0.5s0.2,0.5,0.5,0.5
			h12.1c0.1,0,0.1,0,0.2,0L42.9,36c-0.2,0.2-0.2,0.5,0,0.7c0.1,0.1,0.2,0.1,0.4,0.1c0.1,0,0.3,0,0.4-0.2l6-6.1l-6-6.1
			C43.4,24.4,43.1,24.4,42.9,24.6z M48,30.8c0-0.1,0-0.1,0-0.2s0-0.1,0-0.2l0.2,0.2L48,30.8z"/>
	</g>
</g>
</svg>
