<?xml version="1.0" encoding="utf-8"?>
<!-- Generator: Adobe Illustrator 24.1.1, SVG Export Plug-In . SVG Version: 6.00 Build 0)  -->
<svg version="1.1" id="Ebene_1" xmlns="http://www.w3.org/2000/svg" xmlns:xlink="http://www.w3.org/1999/xlink" x="0px" y="0px"
	 viewBox="0 0 2919 1437" style="enable-background:new 0 0 2919 1437;" xml:space="preserve">
<style type="text/css">
	.st0{fill:#FCDB8A;}
	.st1{fill:#070303;}
	.st2{fill:#0A0A0A;}
	.st3{fill:#0C0C0C;}
	.st4{fill:#080808;}
	.st5{fill:#212121;}
	.st6{fill:#0D0D0D;}
	.st7{fill:#C5B594;}
	.st8{fill:#262626;}
	.st9{fill:#2E2E2E;}
	.st10{fill:#747474;}
	.st11{fill:#303030;}
	.st12{fill:#4F4F4F;}
	.st13{fill:#494949;}
	.st14{fill:#4A4A4A;}
	.st15{fill:#727272;}
	.st16{fill:#636363;}
	.st17{fill:#FBFAF7;}
	.st18{fill:#474747;}
	.st19{fill:#656565;}
	.st20{fill:#484848;}
	.st21{fill:#4C4C4C;}
	.st22{fill:#595959;}
	.st23{fill:#8E8E8E;}
	.st24{fill:#878787;}
	.st25{fill:#757575;}
	.st26{fill:#868686;}
	.st27{fill:#6F6F6F;}
	.st28{fill:#8C8C8C;}
	.st29{fill:#898989;}
	.st30{fill:#6C6C6C;}
	.st31{fill:#888888;}
	.st32{fill:#0F0704;}
	.st33{fill:#180D07;}
	.st34{fill:#150B05;}
	.st35{fill:#FBFBF8;}
	.st36{fill:#150A05;}
	.st37{fill:#1C0F07;}
	.st38{fill:#ECEBDD;}
	.st39{fill:#676767;}
	.st40{fill:#5B5B5B;}
	.st41{fill:#767676;}
	.st42{fill:#686868;}
	.st43{fill:#818181;}
	.st44{fill:#797979;}
	.st45{fill:#545454;}
	.st46{fill:#E8E6D8;}
	.st47{fill:#FAFAF8;}
	.st48{fill:#E0DECE;}
	.st49{fill:#FBFAEF;}
	.st50{fill:#ECE9DA;}
	.st51{fill:#FAFBF7;}
	.st52{fill:#FAF9F3;}
	.st53{fill:#020202;}
	.st54{fill:#FAF5DD;}
	.st55{fill:#7C7C7C;}
	.st56{fill:#50697D;}
	.st57{fill:#ACC66D;}
	.st58{fill:#E9A900;}
	.st59{fill:url(#SVGID_1_);}
</style>
<g>
	<path class="st0" d="M114.5,1321.8c5.8-1.9,11.8-0.2,17.6-1c2.4-2,5.4-0.8,7.4-1.2c-8.4-4.8-18.9-6.9-24.5-16.6
		c-0.3-0.5-1.2,0-1.9,1c-0.3-0.1-0.6-0.2-0.9-0.3c-1.9-1.8-1.7-4.3-1.7-6.6c0-40.8-0.7-81.6,0.3-122.4c0.4-14.8-0.8-29.6-0.4-44.4
		c0.2-6.5,0.6-13,0.7-19.4c0.2-14-0.1-28-1.6-41.9c-1-9-1.9-17.7,1.2-26.6c2.2-6.1,0.1-12.6-0.8-18.8c-1-7.1-1.5-14.2-1.5-21.4
		c0-22.6,0.4-45.3-1-67.9c-0.2-3-0.8-5.9-0.9-8.9c-0.3-6.8,1.5-8.4,8.2-9c10.1-0.9,20.4-0.2,30.4-1.7c18.6-3,37.4-3.9,56.1-5.9
		c23.3-2.6,46.8-4.2,70.3-3.3c7,0.3,14-0.3,20.9-1.8c9.5-2,19.2-2.2,28.8-3c6.3-0.6,8.4,1.5,8.5,8c0.4,20-0.7,39.9-1.7,59.9
		c-0.7,14.1-0.2,28.3-0.2,42.5c-0.1,28.3-2.3,56.5-2.7,84.8c-0.4,29.6-1.9,59.3,1.4,88.8c0.1,0.8,0.2,1.7,0.2,2.5
		c-0.4,20.3,1.7,40.6,1.1,60.9c-0.1,2.3,0.2,4.7-1.3,6.7c-3.3,0-2.8-2.6-2.9-4.4c-0.1-4,0-8,0-12c0-15.6,0-31.3,0-46.9
		c0,14.2,0.2,28.4-0.1,42.6c-0.3,16.5-0.6,32.9-1.5,49.4c-0.1,2.3,0.1,4.3,2.3,5.6c2,2.3,0.1,2.7-1.6,3.1c-1.7,0.4-3.3-0.4-5.2-0.6
		c1.7,0.4,3.4,0.4,3.7,2.3c-2.6,3.7-5.8,7.1-6.6,12c-0.5,3.3-3.4,4.8-6.5,5.2c-5.3,0.7-9.7,3-13,7.2c1.9-0.2,3.9,0.2,5.7,1.1
		c1.8,0.9,1.5,1.9-0.2,2.7c-3.8,1.2-7.6-0.4-11.4-0.3c-27.5,1-54.8-3.1-82.3-2.1c-16,0.6-31.8,2-47.7,3.5
		c-13.6,1.3-27.3,0.4-40.9,0.4C117,1323.4,115.5,1323.1,114.5,1321.8z"/>
	<path class="st1" d="M114.5,1321.8c20.3,1,40.5,0.1,60.7-1.9c25.5-2.6,51.1-3.1,76.7-0.7c16.6,1.5,33.2-0.3,49.8,1.6
		c2-1.6,4.4-1.3,6.7-1.4c3.9,0.2,7.9,0.7,11.6-1.2c2.2-0.9,2.6-3.1,3.4-5c0.9-2.8,1.7-5.6,1.4-8.6c0-4,0.8-8.4-3.7-10.9
		c-1.5-1.7-3.8-1.5-5.9-2.3c3.3-1.4,6.8,0.6,9.7-1.4c0-0.7-0.3-1.4-0.1-2c3-10.1,1.2-20.2,0.5-30.3c-0.1-1.2-0.1-2.3,0.8-3.3
		c-0.7-28.4-0.2-56.9-2.3-85.3c-1.7-24.2-0.8-48.6-0.2-72.9c0.8-27.5,2.8-54.9,2.4-82.4c-0.4-34.2,2.2-68.2,2.5-102.4
		c0-1,0.1-2,0.1-3c0-6.5-0.8-7.2-7.4-6.4c-27.1,3.2-54.3,5.1-81.6,5.2c-19.2,0.1-38.4,3.3-57.7,4.9c-23.2,1.9-46.2,6-69.5,6.1
		c-3.6,0-4.2,1.2-3.9,4.7c2,27.1,2.7,54.2,1.9,81.3c-0.3,9.6,1.4,18.9,2.4,28.3c1.1,10.3-4.3,20-2.3,30.4c2.7,14,2.3,28.2,2.3,42.3
		c-0.4,65.5,0.3,130.9-0.8,196.4c0,0.6,0.2,1.3,0.3,1.9c-1.1,4.5-2.3,9-3.5,13.5c-0.4,1.6-1.5,2.6-3.3,2.3c-2-0.3-2.2-1.8-2-3.4
		c4.9-36.3,1.7-72.8,2.4-109.3c0.8-38.6,0.7-77.3,0.8-115.9c0-17.2-2.8-34.2-1.9-51.4c0.8-14.2-0.7-28.3-0.7-42.4
		c0-11.8,2.5-23.6,1.4-35.4c-1.3-13.4-1-26.9-3-40.2c-1.2-8.1-0.5-8.6,7.6-9.2c12.4-0.9,25-0.7,37.4-2.5c2.9-0.4,4.2-1,3.2-4.3
		c-3.1-10.3-3.5-20.9-3.4-31.6c0.1-6.5,0.4-13-1.4-19.3c-0.8-2.7-0.3-5.5,3-5.7c10.3-0.5,20.1-4.9,30.6-4c4.9,0.4,9.9,0.1,15.2,0.1
		c-3.7-18.2-2.4-36.9-4.9-55.3c-0.2-1.5,0-3-0.2-4.5c-0.5-4.8,2-6.5,6.4-6.7c13.6-0.6,27.3-0.7,40.9-2.2c25.9-2.9,51.9-2.5,77.9-2.5
		c6,0,12-0.6,17.9-1.7c11.7-2.2,23.5-2.3,35.4-1.9c23.5,0.7,46.9-2,70.4-1.5c16.5,0.4,32.9,1,48.5,7.7c6.1,2.6,9.8,6.4,10.7,13
		c1.5,10.8,0.5,21.6-0.5,32.4c-0.1,1.5-0.1,3-0.1,4.5c-1.3,4,0.1,7.9,0.1,11.9c0,24.8-0.9,49.5-0.6,74.3c0.2,13.9,0,27.9,1,41.8
		c1.2,15.6,0.1,31.3-1.2,46.8c-1,11.4-1,22.8-2.3,34.1c-2.6,31.9-4.6,63.7-5.7,95.7c-0.9,24.4-0.8,48.9-4.2,73.2
		c-0.2,1.5-0.4,3-0.8,4.4c-2.4,9.1-3.4,9.5-12.9,10.6c-9.4,1.1-18.7,3.3-27.9,5.1c-10.5,2.1-21,3.9-31.6,1.1c-3-0.8-3.7,0.7-3.7,3.5
		c0.3,9.5-0.4,19-1.1,28.4c-0.2,3-0.4,6-1,8.9c-2.3,12.1-9.4,18.9-21.8,20.5c-16,2-31.4,7.4-47.5,9.1c-2.1,0.2-2.4,1.4-2.2,3
		c0.7,7.1-1.7,13.8-2.7,20.7c-0.5,3.5-2.5,5.6-6,6.6c-8.4,2.4-17,3.4-25.7,2.2c-5.5-0.7-10.9-1.3-16.4-1.1
		c-21.5,1-42.9-1.8-64.4-1.6c-20.7,0.2-41.2,2-61.8,3.8c-15.6,1.3-31.3,0.8-46.9-0.1c-6.5-0.4-8.1-2.1-14.7-12.6
		C101.9,1320.2,107.6,1323.6,114.5,1321.8z"/>
	<path class="st2" d="M1759.1,136c8.5,10.1,14.6,21.8,21.9,32.7c9.5,14,19.3,27.9,34.3,36.9c6,3.6,11.2,8.4,16.2,13.2
		c13.6,13.3,30,21.1,48,26.4c9.4,2.8,18.7,4.5,28.4,4.3c6.6-0.1,12.9-0.5,18.9-3.6c2.1-1.1,4.6-1.7,6.5,0.1c1.6,1.5,0.8,3.7,0.3,5.7
		c-3,12.1-4.8,24.4-5.5,36.9c-0.6,10.1-0.6,20.3-1.5,30.4c-0.3,3.3-1.7,5.8-4.4,9.3c-0.7-10.4,0.1-19.6,0.4-28.8
		c0.5-14.5,2-28.8,5-43c0.8-3.6,0.5-5.1-4.3-3.8c-11.7,3-23.9,3-35.6,0.2c-17.5-4.2-34.7-9.6-49.1-21c-6.4-5.1-12.4-10.6-18.6-15.9
		c-1.4-1.2-2.7-2.6-4.2-3.5c-19.3-11.4-31.5-29.1-42.7-47.8c-5.2-8.7-10.6-17.2-16.5-25.4c-0.6-1.6-1.8-2.9-3.1-4.1
		c-0.3-0.3-0.6-0.7-0.9-1c-1.5-2.5-3.5-4.6-5-7.1l0,0c-0.6-1.1-1.2-2.8-2.7-2.3c-3.2,1-2.7-1.1-2.7-2.8c0-2.7,1.3-3,3.4-2
		c3,3.7,6,7.4,9,11.1C1756.2,132.9,1757.7,134.4,1759.1,136z"/>
	<path class="st3" d="M816.9,199.7c0.3-0.3,0.6-0.5,0.9-0.8c1.6-0.2,2.4-1.6,3.4-2.6c1.3-0.5,2.6-0.5,3.9,0c1.2,1.7,0.3,2.9-0.9,4
		c-10.2,9.5-20.5,19-30.7,28.5c-1.6,1.5-3.3,2.8-4.8,4.4c-16.7,17.5-37.7,27.5-60.3,34.5c-8.6,2.6-16.7,6.6-25.4,8.9
		c-10.5,2.9-21.4,2.9-32.2,3.4c-10.1,0.5-20,0.1-30.2,2.4c-9.2,2-19.2,0.4-28.9,0.1c-2.3-0.1-6.4,1.8-6.7-1.5
		c-0.2-2,4.2-1.4,6.6-1.7c7.5-0.8,14.9-1,22.5-0.7c3.2,0.1,6.2-0.3,9.3-1.4c4.4-1.6,9-2,13.7-1.9c14,0.3,28.4,0.8,41.6-3.3
		c22.9-7.1,46.2-13.9,66.9-26.8c9.8-6.1,17.4-14.9,26-22.5c5.5-4.8,11-9.7,16.5-14.5C811.4,205.7,814,202.6,816.9,199.7z"/>
	<path class="st2" d="M1715.1,274c8.7,5.8,16.6,12.8,25.2,18.7c20.9,14.4,43.6,24.7,68,31.3c9.1,2.5,18.4,4.4,27.8,5.4
		c8.7,0.9,17.4,2.8,25.6,6.2c4.2,1.7,8.5,2.8,13.1,2.9c13.1,0.2,26.3,0.5,39.3-1.7c4.3-0.7,7.8-3.4,12.6-4.4
		c-2.8,7.2-8.4,9.5-14.8,10.4c-12.1,1.6-24.3,1.7-36.4,1.4c-5.9-0.1-11.5-1.7-16.9-3.9c-9-3.8-18.5-5-28.1-6.4
		c-26.6-3.9-51.4-12.9-74.9-25.9c-17-9.4-31.4-22.2-46.8-33.7c-1.1-1.2-2.8-1.1-3.9-2.2c-2.7-1.9-5.4-3.9-8.1-5.8
		c-1.1-1.3-2.5-2.3-4-3.1c-1.7-1.3-3.4-2.6-5.1-3.8c-0.3-0.8-1.5-1.3-0.6-2.3c0.5-0.6,1.1-0.3,1.5,0.2c1.7,1,3.4,2.1,5.1,3.1
		c1.6,0.6,2.6,1.9,3.9,2.9c1.4,1,2.8,1.9,4.2,2.9c2.7,1.7,5.2,3.6,8.1,4.9l0,0C1711.4,272.5,1713.4,272.9,1715.1,274z"/>
	<path class="st4" d="M601.6,296.5c0.2-3.5,0.3-6.5,0.4-9.5c0.1-1.2,0.5-2.4,2-2.4c1.4,0,2.1,1,2.4,2.2c0.2,0.9,0.3,2,0.2,3
		c-0.9,14.2,3.6,27.2,8.4,40.2c4,11.1,8.1,22.2,12.7,33c3.5,8.3,8,16,14.3,22.7c4.4,4.7,8.6,9.7,13,14.5c1.4,1.6,1.9,3.3,0.8,5
		c-1.2,1.8-3.3,1.4-5,0.6c-1.2-0.5-2.3-1.4-3.1-2.4c-11.9-13.6-23.6-27.2-29.3-45.2c-5-15.6-12.1-30.6-15.6-46.8
		C601.6,306.3,601,301.2,601.6,296.5z"/>
	<path class="st5" d="M1238.5,183.6c0.7,2.3,3.2,1.1,5.1,2.6c-9.8,0.4-17.6-3.6-25.5-8c3.1,0.3,6.4,0,9.1,1.2
		c6.5,2.8,12.4,0.1,18.4-1.1c17.5-3.7,31.9-13.9,46.4-23.4c11.3-7.4,22.4-14.9,34.3-21.1c1.3-0.7,2.4-1.8,3.8-2.4
		c3.8-1.9,3.7-3.9,1-7.1c-7.9-9.4-11.8-21.1-17.9-31.6c-1.3-2.3-3.3-4.2-3.9-7.4c2.2,0.5,2.9,2.1,3.9,3.5
		c7.2,10,11.3,21.9,19.1,31.5c1.7,2.1,2.4,5.9,6.6,4.8c1-0.2,1,0.8,0.8,1.3c-1.4,3.1,1.4,5.7,1.1,9.4c-3-5.1-5.5-3.2-9.4-1.1
		c-23,12.7-43.5,29.4-67.3,40.7c-7.4,3.5-15.2,5.8-23.3,6.9C1239.9,182.4,1238.9,182.4,1238.5,183.6z"/>
	<path class="st6" d="M1730.1,192.3c-7.4,16.2-16.7,31.3-26.4,46.2c-3.4,5.3-8.9,8.3-14.6,10.7c-2.1,0.5-4.3,0.7-6.1,1.9
		c-1.3,0-2.7,0-4-0.1c-1-0.9-3.5-0.6-2.9-2.7c0.4-1.5,2.3-0.6,3.5-0.8c1.1-0.2,2.3,0.3,3.4-0.5c9.7-3.3,17-9.5,21.7-18.7
		c7.5-14.4,17.1-27.7,23.2-42.8c1.9-4.8,3.4-9.7,5.1-14.5c1.4-3.9,1.8-8.2,2.9-12.2c0.1-0.9,0.1-1.9,0.2-2.8
		c0.7-1.8,1.6-3.6,1.5-5.7c0-1.3,0.6-2.5,2-2.3c1.3,0.2,0.9,1.5,0.9,2.4c0.1,4.6,0.3,9.2-1.4,13.7c0.1,0.3,0.1,0.6-0.1,0.9
		c-1.5,3.6-1.4,7.6-2.9,11.2c0.1,0.3,0,0.6-0.1,0.8c-1.6,2.5-1.3,5.7-2.8,8.2c0.1,0.3,0,0.5-0.2,0.7
		C1731.5,187.9,1731.3,190.3,1730.1,192.3z"/>
	<path class="st7" d="M494,1034.8c0.4-14.4,0.3-28.9,1.2-43.3c1-16,0.6-31.9,0.7-47.9c0.1-36.9,0.1-73.9,0.2-110.8
		c0-2.3-0.5-4.7,0.9-6.8c1.7,14.8,0.7,29.5,0.6,44.3c-0.3,25.6-2.6,51.4,1,76.8c1.4,10.1,2.6,20,2.4,30c-0.2,9.3-2.2,18.5-4.1,27.6
		c-1.6,7.7-1.2,15.9-1.8,23.8C494.9,1030.7,495.7,1033,494,1034.8z"/>
	<path class="st8" d="M544.8,639.7c0.1,2-0.4,3.7-2.3,4.6c-10.4,4.9-18.3,13-26.5,20.8c-14.3,13.7-28.6,27.3-42.9,41
		c-1,0.9-1.8,1.9-2.7,2.9c-1.1,1.3-2.1,3.8-4.1,2c-1.8-1.6,0.5-3,1.5-4c19.4-19.8,39.3-39.3,59.7-58.1
		C532.3,644.5,538,641.3,544.8,639.7z"/>
	<path class="st9" d="M824.1,200.2c0.3-1.3,0.6-2.7,0.9-4c2.9,0.2,4.5,1.4,3.6,4.7c-0.6,2.2,0.8,4.2,1.4,6.2
		c4,13.3,8.1,26.6,12.1,40c3.6,12.1,10.2,21.5,22.7,25.8c3.2,1.1,6.2,3,9.8,4.7c-22-1.8-30.7-9.2-37-31.5c-4.1-14.7-8-29.4-12-44.1
		C825.3,201.3,824.9,200.7,824.1,200.2z"/>
	<path class="st10" d="M1713.2,344.5c5.2-1.3,9.9,1.4,14.6,3.5c26.8,12.1,52.6,26.1,78.5,39.9c4.9,2.6,9.7,5.3,14.3,8.3
		C1784,380.5,1749.4,360.6,1713.2,344.5z"/>
	<path class="st11" d="M1211.8,271.6c31.7-12,64.7-13.6,99.2-12.4C1277.1,263.3,1244,264.6,1211.8,271.6z"/>
	<path class="st12" d="M964.6,337.7c26.9-22.2,58.3-35.3,91.6-44.3C1025,306.8,993.3,319.2,964.6,337.7z"/>
	<path class="st13" d="M850.3,389.3c-10.9,6.7-21.4,11.7-32,16.6c-14.3,6.5-27.8,14.2-36.7,27.9c-1.3,2.1-2.8,4-3.3,7.1
		c-1.2-4.8,0.8-8,2.9-11.2c6.1-9.5,14.6-16.2,24.4-21.4c13.5-7.2,27.6-12.8,41.7-18.7C847.9,389.3,848.6,389.5,850.3,389.3z"/>
	<path class="st14" d="M610.8,559.7c11.3-26,31.3-42.7,56.4-54.1C645.9,521,624.8,536.7,610.8,559.7z"/>
	<path class="st15" d="M2057.1,576.4c-23.1-14.9-48.3-26.5-68.8-45.4C2011.5,545.8,2035.7,559,2057.1,576.4z"/>
	<path class="st16" d="M1537,280.1c-8.9-1.7-17.9-3.2-26.7-5.2c-15.9-3.8-31.9-2.3-48.2-2.2c-0.3-1.7,1.2-1.9,2.7-2.2
		c11.5-2.6,23.2-2,34.7-0.8c12.3,1.3,24.1,5.5,36.1,8.7C1536.5,278.6,1536.9,279.2,1537,280.1L1537,280.1z"/>
	<path class="st17" d="M113.1,1304c0.1-1.4,0.2-2.8,0.4-4.4c3,0.9,2.7,3.9,4.3,5.5c6.4,6.6,14.5,10,23,12.8c1.2,0.4,3,0.2,2.8,2
		c-0.2,1.5-1.9,1-2.9,1c-2.8,0.1-5.6,0-8.4-0.1c-3.5-3.8-8.7-2.4-12.9-3.9c-1-0.4-2.9,0-2.7-1.4C117,1311.1,113.6,1308,113.1,1304z"
		/>
	<path class="st18" d="M884.8,289.3c-2-1.9-3.6,0.8-4.8,2.1c-12.9,15-29.3,26-44.6,38.2c-14.7,11.8-32.2,19.2-47.2,30.5
		c-9.2,6.9-19.6,11-30.5,14.2c-11.3,3.3-22.5,7-33.7,10.6c-3.1,2-6.7,2.1-10.1,3.1c-0.3-0.1-0.6-0.1-0.8,0.2
		c-6.4,1.6-12.8,3.1-19.1,4.9c-10.5,2.9-20.9,5.2-31.8,2.4c-0.7-0.2-1.7-0.3-2.1,1.7c3.5,1.4,7.1,2.3,11,2.7
		c7.4,0.8,14.5-1.1,21.5-2.9c9.6-2.5,19.4-4.1,28.6-7.8l0.5,0l0.4-0.2c2.4-1.8,5.6-1.7,8.2-2.8c5.4-1.5,10.9-2.8,16.3-4.4
		c12.7-3.9,26-6.3,37.3-13.6c27.6-17.8,56.4-33.9,81.5-55.3c6.5-5.5,12.5-11.5,18-18C884.7,293.4,886.8,291.1,884.8,289.3z"/>
	<path class="st3" d="M1303.9,80.2c-0.8-0.4-1.4,0.3-2,0.8c-6.2,7.3-11.3,15.5-17,23.2c-11.5,15.6-25.2,29.1-39.9,41.7
		c-1.4,1.7-3.4,1.7-5.4,1.7c-4.9,0.2-9.7-0.6-14.6,0.4c0,0,0,0,0,0l0,0c0,0,0,0,0,0c-10.2,3.2-20.9,4.7-31.2,7.5
		c-5.5,1.5-10.9,2.6-16.6,2.5c-6.3-0.2-13.1-1.3-18.8,0.6c-8,2.6-15.6,2.6-23.4,0.7c-3.1-0.7-6.2-0.9-9.4-0.8
		c-8.4,0.5-16.5-1.8-24.8-2.1c-2.7-0.1-5.1-0.9-6-4.1c-2.7,2.4-2.2,4.6-0.9,7c1.1,8,2,16.1,3.2,24.1c1.2,7.5,2.8,14.9,4.1,22.4
		c0.2,1.1,0.5,2,1.7,2c1.5,0,1.9-1.1,1.9-2.4c0-1,0-2-0.2-3c-3.5-12.9-4.6-26.4-7.7-39.4c0,0,0,0,0,0c0.1-1.8,0.2-3.6,0.3-5.3
		c9.3,2.4,18.6,3.8,28.1,3.6c3.3,0,6.6,0.4,9.9,1c5.3,0.9,10.9,3.3,16.2,1.3c7.3-2.7,14.7-2.7,22.1-2.5c15.8,0.4,30.6-4.4,45.6-8.4
		c5.9-1.6,11.7-3.3,17.8-0.7l0.1,0c-2.1,1.6-3.7,3.6-5.9,5.1c-10.8,9.9-21.5,19.8-34.7,26.6c-12.8,6.5-26.6,10.4-39.5,16.6
		c-14.9,7.3-30.2,8.1-45.9,2.7c-0.9-0.3-2-1.6-3.1,0.1c0.3,0.4,0.4,0.9,0.8,1.1c13.4,6.3,27.3,7,41.2,2.6
		c10.3-3.3,20.1-7.9,30.2-11.6c13.8-5.1,26.9-11.4,38.3-20.8c8.8-7.2,16.4-15.6,25.6-22.3c1.1-1.2,2.6-1.5,4.1-1.9
		c1.3-0.4,2.5-0.8,3.8-1.3c1.2-1.1,3.1-1,4.3-2.4c-3.9-1.2-1.3-2.6-0.3-3.9c0.8-1.1,2-1.8,2.9-2.7c16.3-15.1,30.3-32.1,42.1-50.9
		c1.1-1.1,1.4-2.6,1.9-4c0.4-1,0.8-1.9,1.2-2.9C1304.6,81.4,1304.6,80.6,1303.9,80.2z M1094.2,155.3c-0.5,0.4-0.2-0.8-0.2-0.4
		C1094.1,155,1094.2,155.2,1094.2,155.3c0.1,0.1,0.1,0.1,0.1,0.2C1094.2,155.4,1094.2,155.3,1094.2,155.3z"/>
	<path class="st19" d="M2213.1,735.5c-13.9-12.1-27.3-24.9-39.2-39.6c3-1.6,4.1,0.7,5.4,2C2191.3,709.8,2202.3,722.5,2213.1,735.5z"
		/>
	<path class="st20" d="M1739.1,164.2c0.1-5,1.9-10,0.2-15.7c-1.9,2.5-0.8,6-3.3,7.6c1.9-9.7,2.8-19.6,5.4-29.2
		c0.5-1.7,0.2-3.6,0.5-5.4c0.4-3,1.8-3.6,4.1-1.4c-2-0.1-3.1,0.6-2.9,2.8c0.2,2.5,1.5,0.5,2.3,0.7c1.8,0.4,2.7,1.7,2.6,3.6
		c-1.2-0.3-2.6-2.9-3.3,0.5c-1.5,8.3-4.8,16.2-3.5,24.9C1741.7,156.5,1741.4,160.6,1739.1,164.2z"/>
	<path class="st21" d="M819.4,313.8c-3.4,0.7-5.9-0.9-6.7-3.7c-2.8-9.8-7-19.4-4.2-30.4C810.2,291.9,813.7,303.1,819.4,313.8z"/>
	<path class="st13" d="M781.6,312.7c-0.5,5.7,1.7,9.8,5.8,13.5c2.2,2,2.5,5.3,3.7,8c0.3,0.7,0.8,1.6-0.2,2.1c-0.8,0.4-1.8,0-2.1-0.7
		c-1.9-4.9-6-8.2-9-12.3C777.4,320.1,779.5,316.3,781.6,312.7z"/>
	<path class="st22" d="M795.1,251.1c-4.1,10.6,7.2,13.3,9.5,20.7c-5.5-4-12.5-6.5-13.5-14.5C790.8,254.8,791.1,252.3,795.1,251.1z"
		/>
	<path class="st23" d="M711.7,329.1c-6-3.9-8.2-9.4-6.7-16.5C707.2,318.1,709.4,323.6,711.7,329.1z"/>
	<path class="st24" d="M753.1,349.1c0.2,2.4-1,4.1,0.2,6.2c0.9,1.5-0.9,3.3-2.6,4.2c-1.1,0.6-2.4,0.6-3.2-0.4
		c-1.4-1.6-0.5-3.2,0.6-4.4C749.7,353,750.5,350.7,753.1,349.1z"/>
	<path class="st25" d="M739.3,329.4c-2.3-0.3-5,0.9-5.5-2.2c-0.7-4.6,2.8-6.9,5.8-9.8C740.9,321.6,733.2,325.1,739.3,329.4z"/>
	<path class="st26" d="M1252,149c-1.1-1.3,5-1.5,0.5-3.4c1.7-2.4,3.6-4.5,6.4-5.7c-0.8,1.2-1.6,2.4-2.6,3.8c2.8,0.8,4.8-1.6,7.9-1.6
		C1260.4,145.9,1256.6,148.3,1252,149z"/>
	<path class="st27" d="M675,365.3c-4.5,3.1-6.8-0.4-9.7-0.2c-0.9,0.1-0.6-1.8,0-2.5c1.1-1.2,2.5-2.1,4-3.4
		C671.3,361.1,669.7,365.4,675,365.3z"/>
	<path class="st28" d="M1192.7,173.3c-0.2,2.9-5.1,3.7-2.1,7c0.1,0.1-0.6,1.1-1.1,1.4c-1.2,0.6-2.3,0.2-3.1-0.8
		c-0.8-1-1-2.1-0.4-3.2C1187.5,175.1,1189.6,173.8,1192.7,173.3z"/>
	<path class="st29" d="M1280.5,140.9c-3.1,1.3-6,1.8-7.5-1.5c-1.3-3,0.9-4.3,4.8-6.4C1274.8,138.3,1276.8,140,1280.5,140.9z"/>
	<path class="st30" d="M695.9,335.4c-0.8,1.9-1.4,3.1-1.8,4.3c-0.3,1,2.1,2.4-0.3,3c-1.6,0.4-3-0.2-3.6-1.8c-0.6-1.6,0-3,1.4-3.8
		C692.6,336.4,693.9,336.2,695.9,335.4z"/>
	<path class="st15" d="M706.8,358.4c0.4,3.8,1.4,6.1-0.7,8.2c-0.9,0.8-1.8,1.5-3,0.7c-1.3-0.9-0.9-2.2-0.1-3
		C704.3,363,705.3,361.5,706.8,358.4z"/>
	<path class="st12" d="M1688.8,257.2c-1.8,0.1-0.7,1.4-1,2.2c-2.9-1.1-5.4-2.8-6.8-6.4C1684.6,253.2,1687,254.5,1688.8,257.2z"/>
	<path class="st21" d="M1244.9,145.9c-0.6,1.9-2.2,2.3-3.9,2.3c-5.4,0-10.7-0.1-16.1-0.2c3.9-1.2,7.9-0.5,11.8-0.5
		C1239.6,147.4,1242.4,147.2,1244.9,145.9z"/>
	<path class="st9" d="M816.9,199.7c-2.1,3.7-4.8,6.7-8.8,8.4C810.4,204.7,813.4,202,816.9,199.7z"/>
	<path class="st12" d="M1683,247.1c-1.6,2.2-4.2,0.4-6.8,2c1,0.8,1.9,1.4,2.8,2c-2.3,0.5-4.3-0.5-4.3-2.7c0-2.5,2.5-1.2,3.9-1.4
		C1680,246.8,1681.5,247,1683,247.1z"/>
	<path class="st31" d="M1304.1,82.2c-0.2-1.5-1.2-1.3-2.2-1.2c0.9-1.5,1.8-3.1,3-5.1C1306.3,78.6,1306.1,80.5,1304.1,82.2z"/>
	<path class="st20" d="M1735.8,158.9c-0.3,4.2-0.4,8.5-2.9,12.2C1733.2,166.9,1733.9,162.7,1735.8,158.9z"/>
	<path class="st20" d="M1736.1,176.3c0.4-3.9,0.5-7.8,2.9-11.2C1738.8,169,1738.2,172.8,1736.1,176.3z"/>
	<path class="st12" d="M1710.1,270.9c-3.4-0.5-6-2.3-8.1-4.9C1705.3,266.7,1707.7,268.7,1710.1,270.9z"/>
	<path class="st18" d="M724,384.9c-2.8,2.8-6.4,3.1-10.1,3.1C717.1,386.3,720.5,385.5,724,384.9z"/>
	<path class="st20" d="M1747.9,127.2c2.4,1.8,4.5,3.9,5,7.1C1750.7,132.2,1748.4,130.3,1747.9,127.2z"/>
	<path class="st18" d="M722.1,389c2.1-2.7,5.2-2.6,8.2-2.8C727.9,388.1,724.9,388.5,722.1,389z"/>
	<path class="st21" d="M1237,152c-1.4,2.4-3.1,4.4-5.9,5.1C1232.6,154.9,1234.5,153.1,1237,152z"/>
	<path class="st20" d="M1733.2,185.3c0.4-2.9,0.6-5.9,2.8-8.2C1735.9,180.1,1735.2,183,1733.2,185.3z"/>
	<path class="st10" d="M1821.2,397.1c3.2-0.2,4,1.2,5,2.4C1824.9,398.9,1823.6,398.2,1821.2,397.1z"/>
	<path class="st20" d="M1759.1,136c-2.2-0.9-3.7-2.5-4.2-4.8C1757.3,132,1758.3,133.9,1759.1,136z"/>
	<path class="st20" d="M1730.1,192.3c0.3-2.4,0.4-4.8,2.8-6.2C1732.6,188.4,1731.9,190.6,1730.1,192.3z"/>
	<path class="st12" d="M1715.1,274c-2.3,0-4-0.9-5-3C1712.2,271.2,1713.8,272.3,1715.1,274z"/>
	<path class="st16" d="M1543.6,281.6c1.1-0.3,2.1-0.5,2.9,0.2c0.1,0.1-0.2,0.7-0.4,0.7C1545.1,282.8,1544.2,282.8,1543.6,281.6z"/>
	<path class="st12" d="M1683,251.1c1.7-1.7,3.7-2.4,6.1-1.9C1687.2,250.2,1685.4,251.7,1683,251.1z"/>
	<path class="st12" d="M1692.9,263.2c2.2-0.1,3.4,1.1,4,3.1C1695.2,265.6,1693.8,264.7,1692.9,263.2z"/>
	<path class="st12" d="M1697.8,263.1c-1.8-0.2-3.2-1.2-3.9-2.9C1695.8,260.5,1697.2,261.3,1697.8,263.1z"/>
	<path class="st20" d="M1753.8,135.2c2.2,0.5,3.2,1.9,3.1,4.1C1755.3,138.3,1754.4,136.9,1753.8,135.2z"/>
	<path class="st16" d="M1536.9,280.2c1.6-0.5,3.1-0.6,4.9,0.3C1539.9,281.5,1538.4,281.6,1536.9,280.2
		C1537,280.1,1536.9,280.2,1536.9,280.2z"/>
	<path class="st26" d="M1244.1,152.1c0.9-1.7,2.2-2.4,4.1-1.9C1246.9,151.2,1245.6,152,1244.1,152.1z"/>
	<path class="st9" d="M821.1,196.3c-0.3,1.9-1.3,3-3.4,2.6C818.7,197.8,819.4,196.4,821.1,196.3z"/>
	<path class="st31" d="M1301,89.1c0-1.7,0.9-2.9,1.9-4C1303.4,86.9,1302.4,88.1,1301,89.1z"/>
	<path class="st12" d="M1704.9,272.1c1.8-0.2,3.2,0.4,3.9,2.2C1707.2,274.2,1705.9,273.4,1704.9,272.1z"/>
	<path class="st32" d="M238.3,1103c-2.2,4.8-4.3,9.7-6.8,14.4c-1.5,2.8-3.5,5.5-7.3,5.1c-3.7-0.4-6.1-2.9-6.9-6.3
		c-1.5-6.1-2.5-12.4-4.1-18.5c-0.6-2.5-0.3-7-3.8-6.6c-3.1,0.4-1.6,4.5-1.6,7c-0.2,13.3,0.3,26.7-1.7,39.9c-0.4,2.8-0.4,6.2-4.2,6.2
		c-3.9,0-4.9-3.2-4.9-6.3c0-15.7,0.2-31.3,0.5-47c0-2.3,0.1-5.7,4.3-3.5c1.2,0.7,1.7-0.7,2.4-1.2c6-4.1,11.7-2.5,13.8,4.3
		c2,6.5,3.2,13.2,4.7,19.9c0.3,1.3,0.3,3.1,1.8,3.2c1.3,0.1,1.9-1.5,2.5-2.8c2.8-6.9,5.7-13.8,8.6-20.7c0.7-1.7,1.6-3.3,2.6-4.8
		c1.1-1.8,2.9-2,4.9-1.8c2.1,0.3,2.6,1.9,3,3.5c0.3,1.4,0.4,3,0.4,4.5c0.2,16.7,0.3,33.3,0.4,50c0,2.1,0,4.1-2.8,4.4
		c-2.5,0.2-3.6-1.3-4.1-3.4c-0.8-3.3-0.6-6.6-0.6-9.9c0-9.8,0-19.5,0-29.3C239,1103,238.7,1103,238.3,1103z"/>
	<path class="st33" d="M194.3,1084.3c-6.7,10-8.4,21.6-13.2,32c-1,2.1,1.2,4,2.5,5.7c3.6,4.5,6.7,9.1,7.3,15
		c0.2,2.3,0.7,5.3-2.3,5.9c-3.1,0.6-3.5-2.3-3.7-4.7c-0.1-1-0.4-2-0.7-2.9c-1.4-3.5-2.7-8.6-6.2-8.9c-2.8-0.2-3.4,5.3-4.8,8.3
		c-1,2.1-1.9,4.2-3,6.3c-0.7,1.3-1.9,2.6-3.6,1.8c-1.7-0.8-1.5-2.6-0.9-4c2-4.9,4-9.9,6.4-14.6c1.7-3.3,1.7-6-0.2-9.3
		c-3.4-5.7-5.4-12.1-7.7-18.3c-1-2.8-1.8-5.7-4.3-7.7c-0.9-0.7-1.8-1.7-0.8-3c0.9-1.2,2.3-1.3,3.6-0.8c2.2,0.8,3.3,2.8,4.2,4.8
		c2.8,6,5.3,12.2,8.1,18.2c0.5,1.1,0.8,2.8,2.5,2.6c1.3-0.1,1.5-1.6,1.9-2.7c2.7-6.1,5.4-12.1,8.1-18.2
		C188.7,1087,190.5,1084.8,194.3,1084.3z"/>
	<path class="st34" d="M147.8,1089.8c2.3,1.3,0.9,2.9,0.1,4.4c-4.7,9.5-9.2,19.2-14.3,28.5c-2.6,4.7-2.5,7.9,2.1,11.3
		c8,5.9,12.3,15.3,19.8,21.6c1.3,1.1,1.3,2.5,0.5,3.6c-1.3,1.8-3.4,1.5-5,0.6c-3.1-1.8-5.4-4.4-7.5-7.3c-4.3-6.1-9.1-11.9-15-16.6
		c-3.2-2.5-4.3-5.7-2.6-9.8c5-12,11.9-23,18.5-34.1C145.2,1091,146,1089.9,147.8,1089.8z"/>
	<path class="st35" d="M324.3,1313.6c-0.7,2.2,0.1,5.3-3.5,5.6c-3.7,1-7.5,1-11.3,1.7c-2.6,0.4-5.3,0.5-7.9-0.1
		c-2.6-1.4-5.6-1.5-8.5-2.1c3.8-4.9,8.2-8.7,15-9c3.6-0.2,5.7-2.7,6.1-6.6c0.4-4.2,3-7.3,6.8-9.2c4.4-0.5,5.3,2.1,5.4,5.7
		c0,2,0.3,4-0.4,5.9C325.6,1308.1,324.5,1310.8,324.3,1313.6z"/>
	<path class="st36" d="M285.9,1138.5c-7.8,4.1-15.7,3-23.4,2.1c-3.4-0.4-4.2-3.8-4.1-7.1c0.4-11,0.6-22,0.9-33c0.1-3,0.7-6,0-9
		c-0.2-1-0.4-2.1,0.8-2.5c1.4-0.5,2.2,0.6,2.6,1.7c0.4,1.2,0.4,2.6,0.5,3.9c0.7,11.6,1.5,23.3,1.1,35c-0.2,4.2,1.4,5.5,5.4,5.3
		C275.1,1134.7,280.7,1134.3,285.9,1138.5z"/>
	<path class="st37" d="M307.8,1111c0.1,3.2-0.4,6.3-1.9,9.2c-3.7,6.7-8.9,12.4-14.1,18c-0.6,0.7-1.4,1.7-2.5,1.2
		c-1-0.4-0.9-1.7-1-2.6c-0.3-2.5,0.9-4.5,2.4-6.4c2.4-3,5-5.8,7.4-8.8c1.7-2.2,3.6-4.3,4-7.3c1-7.1,0.5-7.8-6.5-9.4
		c-3.8-0.8-7.2-2.6-10.2-5c-1.2-1-2.3-2.3-1.2-3.8c1.2-1.6,3.1-0.8,4,0.1c3.3,3.2,7.5,3.9,11.7,4.8
		C306.9,1102.3,307.8,1103.6,307.8,1111z"/>
	<path class="st38" d="M325.9,1254.5c2,11.2,3.1,22.4,0.1,33.6c-0.2,0.8-0.3,1.6-1.2,2c-4.2,0.6-5.3-1.7-4.6-5.3
		c1.9-9.7-0.1-19.7,1.2-29.3c3-22,1.2-44.1,1.8-66.2c0-0.4,0.3-0.8,1-1.2c0,14.4,0,28.9,0,43.3
		C324.1,1239.1,324.3,1246.9,325.9,1254.5z"/>
	<path class="st39" d="M1752.3,208.9c0,9.4-1.4,17-7.7,23c-2.6,2.4-4.6,5.4-5.5,8.8c-1.8,6.9-6.4,11.9-10.8,17
		c-0.7,0.8-1.4,2.3-2.7,1c-1-0.9-0.6-2.2,0.2-3.1c1.3-1.5,2.6-3,4-4.5c3-3.1,5.6-6.5,6.6-10.9c1.7-7.3,8.2-11.9,10.5-19
		C1748.2,217.4,1748.9,213.2,1752.3,208.9z"/>
	<path class="st40" d="M1782.1,218.8c-6.3,9.6-1.1,20.8-3.9,31.7C1772.2,240.2,1774.2,224.2,1782.1,218.8z"/>
	<path class="st41" d="M1831.6,259.8c-1.8,3.5-3.5,7-5.4,10.4c-1.6,2.9-2.4,5.9-1.4,9c0.6,1.9,0.2,3-1.4,3.4c-1.8,0.4-2-1.2-2.2-2.5
		c-1.4-6.2,1-11.3,5-15.8c1.5-1.7,3.1-3.3,4.7-5C1831,259.4,1831.3,259.6,1831.6,259.8z"/>
	<path class="st42" d="M1872.9,304.5c3.4,5.5,6.3,4.5,9.4,1.6c1.2-1.1,2.8-2.2,4.8-2.1c-1.9,5.4-6.5,9.5-9.7,8.8
		C1873.5,312,1873.7,308.8,1872.9,304.5z"/>
	<path class="st43" d="M1814.1,278c-2,4.9-4,9.9-6,14.8c-0.3,0.8-0.9,1.4-1.8,0.9c-1-0.5-1.2-1.4-0.9-2.5
		C1806.4,285.7,1809.6,281.5,1814.1,278z"/>
	<path class="st44" d="M1860,298.8c-0.4,4.2-2.1,7.7-5,10.6c-1.1,1.1-2.5,1.7-4,1.1c-1.3-0.5-1.5-1.6-1.3-2.9
		c0.1-0.5,0.3-1.4,0.4-1.3C1856.2,307.4,1855.8,300.3,1860,298.8z"/>
	<path class="st45" d="M1759.7,194.6c0.9,3.5-0.6,6.5-0.5,9.6c0,1-0.6,1.9-1.8,1.9c-1.3,0-1.7-0.9-1.8-2
		C1754.9,200.2,1756.3,197.2,1759.7,194.6z"/>
	<path class="st26" d="M1772.4,265.1c0,4-1.4,7.2-3.1,10.4c-0.6,1.2-0.8,2.9-2.5,2.1c-1.7-0.8-1.5-2.7-0.7-3.9
		C1768,270.8,1770.3,268,1772.4,265.1z"/>
	<path class="st0" d="M447.4,775.2c13.2,0.3,26.1,2.2,38.4,7.5c3.2,1.4,4.9,3.7,5.4,7.2c0.9,6.3,0.9,12.7,0.1,19
		c-2.9,23.9-1.8,47.9-2,71.9c-0.2,31.2,0.3,62.3-0.5,93.5c-0.8,33.1-2.2,66.2-4.8,99.3c-2.5,31.6-2.7,63.2-4,94.9
		c-0.2,3.8,0.5,7.6-0.8,11.3c-3.1-5.1-1.3-10.6-1.4-16c-0.3-11.9,2.8-23.7,1.9-32.6c-1.7,16.6-0.9,36.4-4.1,56
		c-0.4,2.7-1.2,5.2-2.9,7.3c-1.9,2.6-3.2,5.4-4.2,8.4c-2.1,5.9-5.7,8.3-12.1,8.5c-9.6,0.3-18.7-0.7-27.6-5c-4.2-2.1-9-3.2-13.3-5.3
		c-1.7-0.8-4.6-1.9-4.6,1.3c0,6.6-2.3,13.2-0.1,19.8c-2.9,2-3.7,0.6-3.6-2.3c0.7-19.3,1-38.6,2.1-57.9c0.6-10.6,1.4-21.3,1.5-31.9
		c0.5-58.8,1-117.6,1.6-176.4c0.2-19,1.9-37.9,4.1-56.8c1.6-13.3,1.5-26.6,1.2-39.9c-0.2-8.7-4.5-12.6-13-13
		c-43.1-1.8-86.3,0-129.4-0.4c-9.8-0.1-19.4,3-29.3,2.7c-14.1-0.5-28.3-0.7-42.4-0.9c-3.2,0-4.5-1.4-4.9-4.3
		c-1.9-12.9-1.8-25.8-2.5-38.8c1.8,1,1.8,1,2.9,6c7-10.1,15.9-16.9,26.1-22c8.7-1.8,17.3-4,25.4,1.8c2.1,1.5,4.6,0.7,6.8,0.1
		c19.9-5.3,40.3-6.6,60.8-5.9c12.4,0.5,24.6-0.9,36.8-2.4c3.3-0.4,6.6-0.6,9.9-0.6c22.3,0,44.6,0,66.9,0
		C437.4,779.4,442.6,778.2,447.4,775.2z"/>
	<path class="st0" d="M339.6,1288c-3.1,1.9-5.1,2.3-4.8-2.6c0.7-11.5-0.4-22.9-1.5-34.2c1.4-1.6,0.7-3.5,0.7-5.3
		c-0.1-31.8-0.6-63.5-0.7-95.3c0-10.5,1.9-21,0.9-31.4c-1.1-11.6-0.8-23.3-0.7-34.9c0.1-7.5-0.6-14.9-1.3-22.3c0-7-0.2-14,0-21
		c0.6-21.5,0.9-42.9,0.8-64.4c0-3.5,0.5-6.9,0.8-10.4c3.2,4.5,1.8,9.7,1.5,14.5c-1,15.6-0.8,31.3-0.9,46.9c0,0.8,0.1,1.7,0.1,1.6
		c-0.5-23.4-0.2-47.7,2.2-71.9c1.6-16.1,2.6-32.1,2.7-48.2c0-3.5-0.5-6.3-4.5-7.1c-3.3-6.7-5.8-7.8-14.6-6.8
		c-11.2,1.3-22.4,2.4-33.7,3.9c-16.8,2.3-34,0.4-50.9,1.7c-25.4,2-50.8,3.6-76,7.3c-5.4,0.8-5.7-2.4-6.1-5.9
		c-1.6-12.9-1.7-25.9-1.6-38.9c0-1.2,0.2-2.4-0.1-3.5c-1.2-5,1.3-6.2,5.6-5.6c-2.3,3.3-4.4,6.6-2.5,11.4c3.9-2,7.6-4.3,11.7-5.9
		c1.7-0.7,3.3-1.9,5.2-1.8c8.6,0.5,16.8-2.2,26.1-3.9c-8.9-0.8-16.8-0.3-24.7-0.5c-2.4-0.1-5.1,0.7-7-1.5c6.2-1.9,12.5-1.2,18.8-1.1
		c19,0.5,38,2.7,56.9,1.5c29.4-1.8,58.8-2.6,88.2-2.7c24.8,0,49.6-0.5,74.4,0.9c5.2,0.3,6.5,3.1,6.6,7.4c0.4,14.2,0.1,28.4-1.8,42.4
		c-3.4,25-4.3,50.1-4.5,75.2c-0.5,53.8-0.7,107.6-1.3,161.4c-0.2,18-3,35.8-2.8,53.8c-2.7,0.2-2.2-3.1-4.5-4.1
		c1,10.5-2,20.5-2.2,30.8c-0.3,12,0.4,24.3-2.4,36.2c-0.5,2.1-0.4,4.3-0.3,6.5c0.3,4.5-0.4,8.7-3.2,12.3c-1.8,2.4-1.3,3.7,1.3,4.7
		c-7.6,2.6-15.5,3.9-23.4,4.8c-8.6-4.3-17.8-6.9-26.2-11.6c-1.2-0.7-2.6-0.6-2.5,1C338,1276.8,335.6,1282.8,339.6,1288z"/>
	<path class="st46" d="M447.4,775.2c0.3,0.9,3,1.9,0,2.7c-6,1.6-12,3.3-18.5,3.2c-21.5-0.4-43-0.2-64.5-0.1
		c-8.3,0-16.5,1.2-24.7,2.5c-1.8,0.3-3.6,0.4-5.5,0.4c-12,0-24,0.2-36,0c-10.7-0.2-21,3.3-31.6,3.2c-1.9,0-3.5,1.6-5.5,2
		c-5.1,1.1-9.4,2.4-14.7-1.5c-5.8-4.3-13.5-1.4-20.3-0.1c-0.7,0.1-1.3,0.3-1.9,0.4c-0.5-2.2,0.6-3.5,2.4-4.4
		c2.8-0.3,5.6,0.5,8.4-0.5l0.3-0.3l0.4,0.2c2.7-1.1,5.5,0,8.2-0.6c9.3-1.8,18.8-2.1,28.3-2.3c18.1-0.3,36.4,1.8,54.3-1
		c20.6-3.2,41.1-2.8,61.7-2.8c17.1,0,34.2-2.4,51.3-1.5C442.1,774.9,444.7,775.1,447.4,775.2z"/>
	<path class="st47" d="M410.9,1222.2c-2.4-0.2-2.8-1.8-2.7-3.8c0.4-5.8,0.7-11.6,0.9-17.4c0.1-2.8,1.4-3.5,3.9-2.5
		c1.7,0.7,3.4,1.3,5.1,2c12.6,5.9,25.3,10.8,39.7,9.6c5.2-0.4,7.8-2.9,9.3-7.3c1-3.2,2.3-6.1,4.3-8.8c4.2-5.6,4.5-12.5,4.5-18.9
		c0.2-16.7,4.1-33.1,3.7-49.9c0.1,8.3,0.5,16.5-0.2,24.8c-0.9,9.9-0.6,19.9-0.1,29.9c-0.1,0.9-0.2,1.7-0.2,2.6
		c-0.7,6-1.3,12.1-1.8,18.1c0,0.2,0,0.3,0,0.5c-0.3,8.5-5,10.8-13.1,11.8c-14.9,1.9-29.6,5.6-44.4,8.5
		C416.8,1221.8,413.8,1221.8,410.9,1222.2z"/>
	<path class="st48" d="M332.3,1061.9c1.3,5.8,2.9,11.5,2.9,17.5c-0.2,16,1.4,31.9,0.7,47.8c-1.2,30.8-0.2,61.5-0.7,92.3
		c-0.2,11.1,0,22.2,0,33.9c-0.8-1.1-1.3-1.7-1.7-2.3c-1-3.1-0.7-6.3-0.7-9.4c-0.2-19,0.6-38-0.8-56.9c-2.4-32.6-1-65.2-0.8-97.8
		c0-1.8,0.4-3.6,0.6-5.4c0.3-3.3-0.3-6.5,0.4-9.8C332,1068.5,332.2,1065.2,332.3,1061.9z"/>
	<path class="st49" d="M389.7,1277c-4.3-0.4-5.4-1.9-2.7-5.3c3.1-3.9,2.8-8.2,3.3-12.6c1.8-18,2.1-36,3.3-54
		c0.5-7.3,1.1-14.8,1.7-22.6c3.8,1.7,4,5.5,5.7,8.2c0.7,8.8-0.3,17.6-0.6,26.4c-0.4,13.1-0.8,26.3-1.2,39.4
		c-0.2,5.2-1.3,10.2-3.5,14.9C394.4,1274.2,392.7,1276.2,389.7,1277z"/>
	<path class="st50" d="M335,901.9c5.4-1.9,6-1.4,6.2,4c0.7,14.3,0.2,28.7-1.5,42.8c-3.3,27.7-4.8,55.4-4.7,83.3
		c0,0.3-0.3,0.6-1.1,2.2c0-23.6,0-45.9,0-68.1c-0.3-17.1,1.8-34.2,1.2-51.3C335,910.5,335,906.2,335,901.9z"/>
	<path class="st51" d="M225.9,784.2c0.3,1.7-1.4,2.4-1.8,3.8c-3,2.6-6.5,4.4-9.9,6.4c-6.5,3.9-10.2,10.5-15.4,15.9
		c-3-2-0.4-5.8-2.7-7.9c-0.2-4.8-0.5-9.5-0.8-14.3c-0.1-2.4,0.6-3.6,3.3-3.7c5.3-0.1,10.5-0.4,15.8-0.6
		C218.4,783.6,222.2,782.9,225.9,784.2z"/>
	<path class="st52" d="M166.5,851.8c11.5,0.4,23.1-0.9,34.7,1.8c-7.2,2.3-14.3,5.6-22.1,5.2c-8.7-0.4-15.5,3.4-22.3,8
		c-0.9,0.6-1.5,2.1-2.8,1.6c-1.4-0.5-0.8-2-0.9-3.1c-0.1-1.3,0.2-2.7-0.1-4c-0.8-4,0.6-6.4,4.6-7.3
		C160.3,851.9,163.8,853.5,166.5,851.8z"/>
	<path class="st47" d="M339.6,1288c-1.8-0.2-3.7,0-3.6-2.8c0.1-5.2,0.1-10.3,0.1-15.5c0-2.5,1.1-2.8,3.1-1.7
		c8.3,4.6,16.8,8.6,26,11.1c1.6,0.4,1.4,1.6,1.1,2.7c-1.6,1.4-3.6,1.5-5.6,1.3c-2.8,0.3-5.5,1.2-8.2,1.7
		C348.4,1286.6,344.1,1287.6,339.6,1288z"/>
	<path class="st0" d="M477.2,1200.4c-0.3-6.1,0-12.2,1.8-18.1C479.1,1188.4,478.9,1194.5,477.2,1200.4z"/>
	<path class="st0" d="M225.9,784.2c-3.8-0.1-7.6-0.3-11.4-0.4c6.8-1.3,13.6-0.7,20.4-0.7C232.1,785.1,228.9,783.3,225.9,784.2z"/>
	<path class="st0" d="M309.5,1320.9c3.7-1.2,7.4-1.9,11.3-1.7C317.2,1321.1,313.4,1321.2,309.5,1320.9z"/>
	<path class="st0" d="M331.9,1071.8c0.1,3.3,0.6,6.6-0.4,9.8C331,1078.3,331.1,1075,331.9,1071.8z"/>
	<path class="st0" d="M352.5,1284.8c2.6-1.4,5.2-2.2,8.2-1.7C358.1,1284.6,355.4,1284.9,352.5,1284.8z"/>
	<path class="st0" d="M324.3,1313.6c-0.6-2.9,0.4-5.6,1.6-8.2C326.4,1308.3,325.7,1311,324.3,1313.6z"/>
	<path class="st0" d="M243.7,782.4c-2.7,1.1-5.5,0.5-8.2,0.6C238.2,781.9,241,782.2,243.7,782.4z"/>
	<path class="st53" d="M2276.6,805.6c-2.7-6.4-5.1-13-8.4-19.2c-4.3-8.3-7.8-17.1-8.5-26.4c-0.7-9.3-2.7-18-7.2-26.2
		c-1.2-2.2-2.2-4.5-2.1-7.1c0.1-5-3.4-8.5-5.9-12.2c-1.5-2.3-4.5-1.8-6.9-0.7c-1.5,0.7-2.6,2.5-1.6,3.7c3.3,4-0.7,5-2.4,7.2
		c-3.1,3.9-4.2,9-8.2,12.6c-12.6,11.4-23.9,24.1-35,36.9c-1.4,1.6-3.1,3.2-3.3,5.5c-0.2,2.2-0.7,3.7-3.3,4.1c-2.4,0.4-3.2,3.1-1.8,4
		c4.1,2.7,5.7,8.2,11,9.4c5.2,1.2,10.3,2.5,15.6,3.3c14.1,2,28.4,2.3,41.4,9.7c5.1,2.9,11.9,5.4,18.3,1c0.6-0.4,1.6-0.1,2.4-0.1
		C2276.5,811.3,2278.3,809.7,2276.6,805.6z M2203.8,792.5c-0.4,1.8-1.8,0.7-2.8,0.7c-2.7-0.1-5.1-1-8.1-2.8c3.4-0.9,6-0.7,8.5-0.3
		C2202.8,790.2,2204.2,790.7,2203.8,792.5z M2196.8,781.5c-1,1.3-2.5,3-4.1,1.9c-2-1.5,0.3-3,1.2-4c6.5-7.6,13.2-15,21.4-21.5
		C2209.1,765.7,2203,773.6,2196.8,781.5z M2229.7,760.8c-0.7-0.9,0.2-1.9,0.9-2.6c4.3-4.1,8.6-8.1,13-12.3c1.9,2.4,0.6,4-0.9,5.4
		c-3.3,3-6.8,5.9-10.2,8.8C2231.7,760.8,2230.8,762.3,2229.7,760.8z M2234,772.8c-0.5-1.1,0.2-1.9,0.9-2.6c3.1-3,6.2-6,9.3-9
		c0.6-0.6,1.2-1.3,2.1-0.7c0.9,0.6,1,1.7,0.9,2.7c-0.1,1.8-10.4,10.5-12.3,10.3C2234.7,773.4,2234.2,773.2,2234,772.8z
		 M2250.6,791.3c-2.2-1.1-8.5,0.7-4.2-5.6c1.3-1.9-0.3-3.5-2.5-3.7c-1.8-0.1-3.6,0-5.3,0c-0.1-0.4-0.3-0.8-0.4-1.2
		c2.8-2.3,5.6-4.5,8.4-6.8c1.7-1.5,2.8-0.7,3.3,0.9c1.4,4.6,2.5,9.2,3.7,13.9C2254.2,791.6,2252.8,792.4,2250.6,791.3z M2260,784.6
		c3.6,6,7.5,11.8,8.4,19C2262.7,798.5,2260.6,791.9,2260,784.6z"/>
	<path class="st54" d="M400.5,1003.8c1.1,5.5,0.3,10.3,0.7,15c0.6,8.7-1.7,17.6,1.7,26.1c-3.7,10.1-1,20.7-1.6,31
		c-0.2,3.8,1,7.6,0.7,11.4c-0.9,11.9-2.7,23.7-1.9,35.7c0,0.2,0,0.3-0.1,0.5c-0.7,1.8-0.5,5-2.6,4.8c-2.5-0.2-1.3-3.3-1.3-5
		c0.3-21.6-1.6-43.1-1.3-64.7c0.2-11,0.8-21.9,1.5-32.8c0.4-6,1.8-12.1,1.8-18.2C398.2,1006.3,398.9,1005.3,400.5,1003.8z"/>
</g>
<g>
	<g>
		<path class="st55" d="M1661.9,1276.7c2.7-0.4,6.1-0.8,10.5-0.8c5.4,0,9.4,1.3,11.9,3.5c2.3,2,3.7,5.1,3.7,8.9
			c0,3.9-1.1,6.9-3.3,9.1c-2.9,3.1-7.6,4.7-13,4.7c-1.6,0-3.2-0.1-4.4-0.4v17h-5.5V1276.7z M1667.4,1297.3c1.2,0.3,2.7,0.4,4.5,0.4
			c6.6,0,10.7-3.2,10.7-9.1c0-5.6-4-8.3-10-8.3c-2.4,0-4.2,0.2-5.2,0.4V1297.3z"/>
		<path class="st55" d="M1719.9,1310.5c0,3.2,0.1,5.9,0.3,8.3h-4.9l-0.3-5h-0.1c-1.5,2.5-4.7,5.7-10.1,5.7
			c-4.8,0-10.5-2.7-10.5-13.4v-17.9h5.6v16.9c0,5.8,1.8,9.7,6.8,9.7c3.7,0,6.3-2.6,7.3-5.1c0.3-0.8,0.5-1.8,0.5-2.8v-18.8h5.6
			V1310.5z"/>
		<path class="st55" d="M1728.9,1318.8c0.1-2.1,0.3-5.2,0.3-7.9V1274h5.5v19.2h0.1c2-3.4,5.5-5.6,10.4-5.6c7.6,0,12.9,6.3,12.9,15.6
			c0,10.9-6.9,16.4-13.7,16.4c-4.4,0-8-1.7-10.2-5.7h-0.2l-0.3,5.1H1728.9z M1734.6,1306.5c0,0.7,0.1,1.4,0.3,2
			c1.1,3.8,4.3,6.5,8.3,6.5c5.8,0,9.3-4.7,9.3-11.7c0-6.1-3.2-11.4-9.1-11.4c-3.8,0-7.3,2.6-8.5,6.8c-0.1,0.6-0.3,1.4-0.3,2.3
			V1306.5z"/>
		<path class="st55" d="M1765,1274h5.6v44.8h-5.6V1274z"/>
		<path class="st55" d="M1786.1,1279.6c0.1,1.9-1.3,3.4-3.5,3.4c-2,0-3.3-1.5-3.3-3.4c0-2,1.5-3.5,3.5-3.5
			C1784.8,1276.2,1786.1,1277.7,1786.1,1279.6z M1779.9,1318.8v-30.6h5.6v30.6H1779.9z"/>
		<path class="st55" d="M1816.5,1317.7c-1.5,0.8-4.7,1.8-8.8,1.8c-9.2,0-15.2-6.2-15.2-15.6c0-9.4,6.4-16.2,16.4-16.2
			c3.3,0,6.2,0.8,7.7,1.6l-1.3,4.3c-1.3-0.8-3.4-1.5-6.4-1.5c-7,0-10.8,5.2-10.8,11.6c0,7.1,4.5,11.4,10.6,11.4
			c3.2,0,5.2-0.8,6.8-1.5L1816.5,1317.7z"/>
		<path class="st55" d="M1839.9,1318.8l-0.4-3.9h-0.2c-1.7,2.4-5,4.5-9.3,4.5c-6.2,0-9.3-4.4-9.3-8.8c0-7.4,6.6-11.4,18.4-11.4v-0.6
			c0-2.5-0.7-7.1-6.9-7.1c-2.8,0-5.8,0.9-8,2.3l-1.3-3.7c2.5-1.6,6.2-2.7,10-2.7c9.3,0,11.6,6.4,11.6,12.5v11.4
			c0,2.7,0.1,5.2,0.5,7.3H1839.9z M1839.1,1303.2c-6.1-0.1-12.9,0.9-12.9,6.9c0,3.6,2.4,5.3,5.2,5.3c4,0,6.5-2.5,7.4-5.1
			c0.2-0.6,0.3-1.2,0.3-1.8V1303.2z"/>
		<path class="st55" d="M1859.9,1279.5v8.8h8v4.2h-8v16.5c0,3.8,1.1,5.9,4.2,5.9c1.5,0,2.5-0.2,3.2-0.4l0.3,4.2
			c-1.1,0.4-2.8,0.8-4.9,0.8c-2.6,0-4.7-0.8-6-2.3c-1.6-1.6-2.1-4.4-2.1-8v-16.7h-4.7v-4.2h4.7v-7.3L1859.9,1279.5z"/>
		<path class="st55" d="M1880.3,1279.6c0.1,1.9-1.3,3.4-3.5,3.4c-2,0-3.3-1.5-3.3-3.4c0-2,1.5-3.5,3.5-3.5
			C1878.9,1276.2,1880.3,1277.7,1880.3,1279.6z M1874.1,1318.8v-30.6h5.6v30.6H1874.1z"/>
		<path class="st55" d="M1916.5,1303.3c0,11.3-7.8,16.2-15.2,16.2c-8.3,0-14.6-6.1-14.6-15.7c0-10.2,6.7-16.2,15.2-16.2
			C1910.6,1287.5,1916.5,1293.9,1916.5,1303.3z M1892.2,1303.6c0,6.7,3.9,11.7,9.3,11.7c5.3,0,9.3-5,9.3-11.9
			c0-5.2-2.6-11.7-9.2-11.7C1895.1,1291.7,1892.2,1297.8,1892.2,1303.6z"/>
		<path class="st55" d="M1923.5,1296.5c0-3.2-0.1-5.7-0.3-8.3h4.9l0.3,5.1h0.1c1.5-2.9,5-5.7,10.1-5.7c4.2,0,10.8,2.5,10.8,13v18.2
			h-5.6v-17.6c0-4.9-1.8-9-7.1-9c-3.7,0-6.5,2.6-7.4,5.7c-0.3,0.7-0.4,1.6-0.4,2.6v18.4h-5.6V1296.5z"/>
		<path class="st55" d="M1971.4,1312.1c2.5,1.5,6.1,2.8,9.8,2.8c5.6,0,8.9-3,8.9-7.3c0-4-2.3-6.2-8-8.5c-6.9-2.5-11.2-6.1-11.2-12.1
			c0-6.6,5.5-11.6,13.8-11.6c4.4,0,7.5,1,9.4,2.1l-1.5,4.5c-1.4-0.8-4.2-2-8.1-2c-5.8,0-8,3.5-8,6.4c0,4,2.6,5.9,8.5,8.2
			c7.2,2.8,10.9,6.2,10.9,12.5c0,6.6-4.9,12.2-14.9,12.2c-4.1,0-8.6-1.2-10.9-2.7L1971.4,1312.1z"/>
		<path class="st55" d="M2031.1,1303.3c0,11.3-7.8,16.2-15.2,16.2c-8.3,0-14.6-6.1-14.6-15.7c0-10.2,6.7-16.2,15.2-16.2
			C2025.1,1287.5,2031.1,1293.9,2031.1,1303.3z M2006.8,1303.6c0,6.7,3.9,11.7,9.3,11.7c5.3,0,9.3-5,9.3-11.9
			c0-5.2-2.6-11.7-9.2-11.7C2009.7,1291.7,2006.8,1297.8,2006.8,1303.6z"/>
		<path class="st55" d="M2038.7,1318.8v-26.3h-4.3v-4.2h4.3v-1.5c0-4.3,0.9-8.2,3.5-10.7c2.1-2,4.9-2.8,7.4-2.8c2,0,3.7,0.4,4.7,0.9
			l-0.8,4.3c-0.8-0.4-2-0.7-3.5-0.7c-4.7,0-5.9,4.2-5.9,8.8v1.6h7.4v4.2h-7.4v26.3H2038.7z"/>
		<path class="st55" d="M2063.9,1279.5v8.8h8v4.2h-8v16.5c0,3.8,1.1,5.9,4.2,5.9c1.5,0,2.5-0.2,3.2-0.4l0.3,4.2
			c-1.1,0.4-2.8,0.8-4.9,0.8c-2.6,0-4.7-0.8-6-2.3c-1.6-1.6-2.1-4.4-2.1-8v-16.7h-4.7v-4.2h4.7v-7.3L2063.9,1279.5z"/>
		<path class="st55" d="M2080.9,1288.2l4,15.5c0.9,3.4,1.7,6.6,2.3,9.7h0.2c0.7-3.1,1.7-6.4,2.7-9.7l5-15.6h4.7l4.7,15.3
			c1.1,3.7,2,6.9,2.7,10h0.2c0.5-3.1,1.3-6.3,2.3-9.9l4.4-15.3h5.5l-9.8,30.6h-5l-4.7-14.6c-1.1-3.4-2-6.4-2.7-10h-0.1
			c-0.8,3.7-1.7,6.8-2.8,10.1l-4.9,14.5h-5l-9.2-30.6H2080.9z"/>
		<path class="st55" d="M2141.8,1318.8l-0.4-3.9h-0.2c-1.7,2.4-5,4.5-9.3,4.5c-6.2,0-9.3-4.4-9.3-8.8c0-7.4,6.6-11.4,18.4-11.4v-0.6
			c0-2.5-0.7-7.1-6.9-7.1c-2.8,0-5.8,0.9-8,2.3l-1.3-3.7c2.5-1.6,6.2-2.7,10-2.7c9.3,0,11.6,6.4,11.6,12.5v11.4
			c0,2.7,0.1,5.2,0.5,7.3H2141.8z M2141,1303.2c-6.1-0.1-12.9,0.9-12.9,6.9c0,3.6,2.4,5.3,5.2,5.3c4,0,6.5-2.5,7.4-5.1
			c0.2-0.6,0.3-1.2,0.3-1.8V1303.2z"/>
		<path class="st55" d="M2155.3,1297.8c0-3.6-0.1-6.7-0.3-9.5h4.9l0.2,6h0.3c1.4-4.1,4.7-6.7,8.5-6.7c0.6,0,1.1,0.1,1.6,0.2v5.2
			c-0.6-0.1-1.1-0.2-1.9-0.2c-3.9,0-6.7,3-7.4,7.1c-0.1,0.8-0.3,1.6-0.3,2.6v16.3h-5.5V1297.8z"/>
		<path class="st55" d="M2178.4,1304.5c0.1,7.5,4.9,10.6,10.5,10.6c4,0,6.4-0.7,8.5-1.6l0.9,4c-2,0.9-5.3,1.9-10.2,1.9
			c-9.4,0-15-6.2-15-15.4c0-9.2,5.4-16.5,14.3-16.5c10,0,12.6,8.8,12.6,14.4c0,1.1-0.1,2-0.2,2.6H2178.4z M2194.7,1300.5
			c0.1-3.5-1.5-9-7.7-9c-5.6,0-8.1,5.2-8.5,9H2194.7z"/>
		<path class="st55" d="M2220.9,1318.8v-26.3h-4.3v-4.2h4.3v-1.5c0-4.3,0.9-8.2,3.5-10.7c2.1-2,4.9-2.8,7.4-2.8c2,0,3.7,0.4,4.7,0.9
			l-0.8,4.3c-0.8-0.4-2-0.7-3.5-0.7c-4.7,0-5.9,4.2-5.9,8.8v1.6h7.4v4.2h-7.4v26.3H2220.9z"/>
		<path class="st55" d="M2265.6,1303.3c0,11.3-7.8,16.2-15.2,16.2c-8.3,0-14.6-6.1-14.6-15.7c0-10.2,6.7-16.2,15.2-16.2
			C2259.7,1287.5,2265.6,1293.9,2265.6,1303.3z M2241.4,1303.6c0,6.7,3.9,11.7,9.3,11.7c5.3,0,9.3-5,9.3-11.9
			c0-5.2-2.6-11.7-9.2-11.7C2244.2,1291.7,2241.4,1297.8,2241.4,1303.6z"/>
		<path class="st55" d="M2272.6,1297.8c0-3.6-0.1-6.7-0.3-9.5h4.9l0.2,6h0.3c1.4-4.1,4.7-6.7,8.5-6.7c0.6,0,1.1,0.1,1.6,0.2v5.2
			c-0.6-0.1-1.1-0.2-1.9-0.2c-3.9,0-6.7,3-7.4,7.1c-0.1,0.8-0.3,1.6-0.3,2.6v16.3h-5.5V1297.8z"/>
		<path class="st55" d="M2306.7,1274h5.6v44.8h-5.6V1274z"/>
		<path class="st55" d="M2324.7,1304.5c0.1,7.5,4.9,10.6,10.5,10.6c4,0,6.4-0.7,8.5-1.6l0.9,4c-2,0.9-5.3,1.9-10.2,1.9
			c-9.4,0-15-6.2-15-15.4c0-9.2,5.4-16.5,14.3-16.5c10,0,12.6,8.8,12.6,14.4c0,1.1-0.1,2-0.2,2.6H2324.7z M2340.9,1300.5
			c0.1-3.5-1.5-9-7.7-9c-5.6,0-8.1,5.2-8.5,9H2340.9z"/>
		<path class="st55" d="M2355.6,1288.2l4.4,6.6c1.1,1.7,2.1,3.3,3.1,5h0.2c1-1.8,2-3.4,3-5.1l4.3-6.5h6l-10.4,14.8l10.7,15.8h-6.3
			l-4.5-6.9c-1.2-1.8-2.2-3.5-3.3-5.3h-0.1c-1,1.8-2.1,3.5-3.2,5.3l-4.4,6.9h-6.1l10.9-15.6l-10.4-15H2355.6z"/>
		<path class="st55" d="M2388.4,1279.6c0.1,1.9-1.3,3.4-3.5,3.4c-2,0-3.3-1.5-3.3-3.4c0-2,1.5-3.5,3.5-3.5
			C2387.1,1276.2,2388.4,1277.7,2388.4,1279.6z M2382.2,1318.8v-30.6h5.6v30.6H2382.2z"/>
		<path class="st55" d="M2418.8,1317.7c-1.5,0.8-4.7,1.8-8.8,1.8c-9.2,0-15.2-6.2-15.2-15.6c0-9.4,6.4-16.2,16.4-16.2
			c3.3,0,6.2,0.8,7.7,1.6l-1.3,4.3c-1.3-0.8-3.4-1.5-6.4-1.5c-7,0-10.8,5.2-10.8,11.6c0,7.1,4.5,11.4,10.6,11.4
			c3.2,0,5.2-0.8,6.8-1.5L2418.8,1317.7z"/>
		<path class="st55" d="M2452.6,1303.3c0,11.3-7.8,16.2-15.2,16.2c-8.3,0-14.6-6.1-14.6-15.7c0-10.2,6.7-16.2,15.2-16.2
			C2446.6,1287.5,2452.6,1293.9,2452.6,1303.3z M2428.3,1303.6c0,6.7,3.8,11.7,9.3,11.7c5.3,0,9.3-5,9.3-11.9
			c0-5.2-2.6-11.7-9.2-11.7C2431.2,1291.7,2428.3,1297.8,2428.3,1303.6z"/>
		<path class="st55" d="M2485.9,1288.2c-0.1,2.2-0.3,4.7-0.3,8.4v17.7c0,7-1.4,11.3-4.4,14c-3,2.8-7.3,3.7-11.1,3.7
			c-3.7,0-7.7-0.9-10.2-2.5l1.4-4.2c2,1.3,5.2,2.4,9,2.4c5.7,0,9.8-3,9.8-10.7v-3.4h-0.1c-1.7,2.8-5,5.1-9.7,5.1
			c-7.6,0-13-6.4-13-14.9c0-10.4,6.8-16.2,13.8-16.2c5.3,0,8.2,2.8,9.5,5.3h0.1l0.3-4.6H2485.9z M2480.2,1300.3
			c0-0.9-0.1-1.8-0.3-2.5c-1-3.2-3.7-5.9-7.8-5.9c-5.3,0-9.1,4.5-9.1,11.6c0,6,3,11,9,11c3.4,0,6.5-2.1,7.7-5.7c0.3-0.9,0.4-2,0.4-3
			V1300.3z"/>
		<path class="st55" d="M2494.5,1297.8c0-3.6-0.1-6.7-0.3-9.5h4.9l0.2,6h0.3c1.4-4.1,4.7-6.7,8.5-6.7c0.6,0,1.1,0.1,1.6,0.2v5.2
			c-0.6-0.1-1.1-0.2-1.9-0.2c-3.9,0-6.7,3-7.5,7.1c-0.1,0.8-0.3,1.6-0.3,2.6v16.3h-5.5V1297.8z"/>
		<path class="st55" d="M2531.7,1318.8l-0.4-3.9h-0.2c-1.7,2.4-5,4.5-9.3,4.5c-6.2,0-9.3-4.4-9.3-8.8c0-7.4,6.6-11.4,18.4-11.4v-0.6
			c0-2.5-0.7-7.1-6.9-7.1c-2.8,0-5.8,0.9-8,2.3l-1.3-3.7c2.5-1.6,6.2-2.7,10-2.7c9.3,0,11.6,6.4,11.6,12.5v11.4
			c0,2.7,0.1,5.2,0.5,7.3H2531.7z M2530.9,1303.2c-6.1-0.1-12.9,0.9-12.9,6.9c0,3.6,2.4,5.3,5.2,5.3c4,0,6.5-2.5,7.4-5.1
			c0.2-0.6,0.3-1.2,0.3-1.8V1303.2z"/>
		<path class="st55" d="M2545.3,1298.2c0-3.9-0.1-7.1-0.3-10h5l0.3,5.2h0.1c2.3-3.7,5.9-5.9,10.9-5.9c7.4,0,12.9,6.2,12.9,15.5
			c0,11-6.7,16.4-13.9,16.4c-4,0-7.6-1.8-9.4-4.8h-0.1v16.6h-5.5V1298.2z M2550.7,1306.4c0,0.8,0.1,1.6,0.3,2.3
			c1,3.9,4.4,6.5,8.3,6.5c5.9,0,9.3-4.8,9.3-11.8c0-6.1-3.2-11.4-9.1-11.4c-3.8,0-7.3,2.7-8.4,6.9c-0.2,0.7-0.4,1.5-0.4,2.3V1306.4z
			"/>
		<path class="st55" d="M2581.2,1274h5.6v19.1h0.1c0.9-1.6,2.3-3,4-3.9c1.6-0.9,3.6-1.6,5.7-1.6c4.1,0,10.7,2.5,10.7,13.1v18.2h-5.6
			v-17.5c0-4.9-1.8-9.1-7.1-9.1c-3.6,0-6.4,2.5-7.4,5.6c-0.3,0.8-0.4,1.6-0.4,2.7v18.4h-5.6V1274z"/>
		<path class="st55" d="M2622.4,1279.6c0.1,1.9-1.3,3.4-3.5,3.4c-2,0-3.3-1.5-3.3-3.4c0-2,1.5-3.5,3.5-3.5
			C2621.1,1276.2,2622.4,1277.7,2622.4,1279.6z M2616.2,1318.8v-30.6h5.6v30.6H2616.2z"/>
		<path class="st55" d="M2652.8,1317.7c-1.5,0.8-4.7,1.8-8.8,1.8c-9.2,0-15.2-6.2-15.2-15.6c0-9.4,6.4-16.2,16.4-16.2
			c3.3,0,6.2,0.8,7.7,1.6l-1.3,4.3c-1.3-0.8-3.4-1.5-6.4-1.5c-7,0-10.8,5.2-10.8,11.6c0,7.1,4.5,11.4,10.6,11.4
			c3.2,0,5.2-0.8,6.8-1.5L2652.8,1317.7z"/>
		<path class="st55" d="M2676.2,1318.8l-0.4-3.9h-0.2c-1.7,2.4-5,4.5-9.3,4.5c-6.2,0-9.3-4.4-9.3-8.8c0-7.4,6.6-11.4,18.4-11.4v-0.6
			c0-2.5-0.7-7.1-6.9-7.1c-2.8,0-5.8,0.9-8,2.3l-1.3-3.7c2.5-1.6,6.2-2.7,10-2.7c9.3,0,11.6,6.4,11.6,12.5v11.4
			c0,2.7,0.1,5.2,0.5,7.3H2676.2z M2675.4,1303.2c-6.1-0.1-12.9,0.9-12.9,6.9c0,3.6,2.4,5.3,5.2,5.3c4,0,6.5-2.5,7.4-5.1
			c0.2-0.6,0.3-1.2,0.3-1.8V1303.2z"/>
		<path class="st55" d="M2689.7,1274h5.6v44.8h-5.6V1274z"/>
		<path class="st55" d="M2718.2,1276.8c3.3-0.5,7.3-0.9,11.7-0.9c7.9,0,13.5,1.8,17.2,5.3c3.8,3.5,6,8.4,6,15.3
			c0,6.9-2.1,12.6-6.1,16.5c-4,4-10.5,6.1-18.8,6.1c-3.9,0-7.2-0.2-10-0.5V1276.8z M2723.7,1314.4c1.4,0.3,3.4,0.3,5.6,0.3
			c11.7,0,18.1-6.6,18.1-18.1c0.1-10-5.6-16.4-17.2-16.4c-2.8,0-5,0.3-6.4,0.6V1314.4z"/>
		<path class="st55" d="M2777,1318.8l-0.4-3.9h-0.2c-1.7,2.4-5,4.5-9.3,4.5c-6.2,0-9.3-4.4-9.3-8.8c0-7.4,6.6-11.4,18.4-11.4v-0.6
			c0-2.5-0.7-7.1-6.9-7.1c-2.8,0-5.8,0.9-8,2.3l-1.3-3.7c2.5-1.6,6.2-2.7,10-2.7c9.3,0,11.6,6.4,11.6,12.5v11.4
			c0,2.7,0.1,5.2,0.5,7.3H2777z M2776.1,1303.2c-6.1-0.1-12.9,0.9-12.9,6.9c0,3.6,2.4,5.3,5.2,5.3c4,0,6.5-2.5,7.4-5.1
			c0.2-0.6,0.3-1.2,0.3-1.8V1303.2z"/>
		<path class="st55" d="M2796.9,1279.5v8.8h8v4.2h-8v16.5c0,3.8,1.1,5.9,4.2,5.9c1.5,0,2.5-0.2,3.2-0.4l0.3,4.2
			c-1.1,0.4-2.8,0.8-4.9,0.8c-2.6,0-4.7-0.8-6-2.3c-1.6-1.6-2.1-4.4-2.1-8v-16.7h-4.7v-4.2h4.7v-7.3L2796.9,1279.5z"/>
		<path class="st55" d="M2828,1318.8l-0.4-3.9h-0.2c-1.7,2.4-5,4.5-9.3,4.5c-6.2,0-9.3-4.4-9.3-8.8c0-7.4,6.6-11.4,18.4-11.4v-0.6
			c0-2.5-0.7-7.1-6.9-7.1c-2.8,0-5.8,0.9-8,2.3l-1.3-3.7c2.5-1.6,6.2-2.7,10-2.7c9.3,0,11.6,6.4,11.6,12.5v11.4
			c0,2.7,0.1,5.2,0.5,7.3H2828z M2827.2,1303.2c-6.1-0.1-12.9,0.9-12.9,6.9c0,3.6,2.4,5.3,5.2,5.3c4,0,6.5-2.5,7.4-5.1
			c0.2-0.6,0.3-1.2,0.3-1.8V1303.2z"/>
	</g>
	<g>
		<path class="st56" d="M2209.5,1065.6v152.5h-19.7v-27.8c-5.4,9.3-12.9,16.5-22.3,21.6c-9.5,5.1-20.3,7.7-32.5,7.7
			c-19.9,0-35.6-5.6-47.1-16.7c-11.5-11.1-17.2-27.4-17.2-48.8v-88.4h20.6v86.4c0,16,4,28.2,11.9,36.5c7.9,8.3,19.2,12.5,33.9,12.5
			c16,0,28.7-4.9,38-14.6c9.3-9.8,13.9-23.3,13.9-40.7v-80H2209.5z"/>
		<path class="st56" d="M2384.6,1074.2c11.6,6.5,20.7,15.6,27.3,27.4c6.6,11.8,9.9,25.2,9.9,40.3c0,15.1-3.3,28.5-9.9,40.3
			c-6.6,11.8-15.7,21-27.3,27.5s-24.5,9.9-38.8,9.9c-12.8,0-24.2-2.7-34.4-8.1c-10.1-5.4-18.3-13.2-24.5-23.5v30.2h-19.7V1003h20.6
			v91.6c6.4-9.9,14.5-17.3,24.5-22.5c10-5.1,21.1-7.7,33.5-7.7C2360.1,1064.5,2373,1067.7,2384.6,1074.2z M2373.3,1193.9
			c8.7-4.9,15.5-11.9,20.4-21c4.9-9.1,7.4-19.4,7.4-31c0-11.6-2.5-21.9-7.4-31c-4.9-9.1-11.7-16.1-20.4-21c-8.7-4.9-18.4-7.4-29-7.4
			c-10.8,0-20.5,2.5-29.1,7.4c-8.6,4.9-15.4,11.9-20.3,21c-4.9,9.1-7.4,19.4-7.4,31c0,11.6,2.5,21.9,7.4,31
			c4.9,9.1,11.7,16.1,20.3,21c8.6,4.9,18.3,7.4,29.1,7.4C2354.9,1201.3,2364.6,1198.8,2373.3,1193.9z"/>
		<path class="st56" d="M2463.8,1003h20.6v215.1h-20.6V1003z"/>
		<path class="st56" d="M2674.5,1148.2H2547c1.2,15.8,7.2,28.7,18.3,38.4s24.9,14.6,41.7,14.6c9.5,0,18.2-1.7,26.1-5.1
			c7.9-3.4,14.8-8.4,20.6-14.9l11.6,13.3c-6.8,8.1-15.2,14.3-25.4,18.6c-10.1,4.3-21.3,6.4-33.5,6.4c-15.7,0-29.5-3.3-41.6-10
			c-12.1-6.7-21.5-15.9-28.3-27.7c-6.8-11.8-10.1-25.1-10.1-40c0-14.9,3.2-28.2,9.7-40c6.5-11.8,15.4-21,26.7-27.5
			c11.3-6.6,24-9.9,38.1-9.9c14.1,0,26.8,3.3,38,9.9c11.2,6.6,20,15.7,26.4,27.4c6.4,11.7,9.6,25.1,9.6,40.2L2674.5,1148.2z
			 M2563.9,1096.2c-10,9.4-15.6,21.6-17,36.7h108.1c-1.4-15.1-7-27.3-17-36.7c-10-9.4-22.4-14.1-37.3-14.1
			C2586.2,1082.1,2573.9,1086.8,2563.9,1096.2z"/>
		<rect x="1868.3" y="1015.2" class="st57" width="21.5" height="21.5"/>
		<rect x="1868.3" y="1058.1" class="st57" width="21.5" height="21.5"/>
		<rect x="1911.3" y="1015.2" class="st57" width="21.5" height="21.5"/>
		<path class="st56" d="M2005.1,1033.7c-12.8-10.7-29.8-16.8-51-18.2v18.7c15,1.3,26.9,5.5,35.6,12.7c10.6,8.8,15.9,21.4,15.9,37.8
			c0,16-5.3,28.5-15.9,37.3c-10.6,8.8-26,13.2-46.1,13.2h-53.9V1101h-21.5v117.1h21.5V1154h54.5c25.9,0,46.2-6.1,60.9-18.4
			c14.7-12.3,22-29.2,22-50.9C2027.2,1063.1,2019.8,1046.1,2005.1,1033.7z"/>
		<polygon class="st58" points="2831.8,1218.1 2810.4,1218.1 2794,1196.7 2815.4,1196.7 		"/>
		<g>
			<polygon class="st56" points="2798.7,1173.9 2772.2,1139.8 2829.6,1065.6 2807,1065.6 2761.2,1125.3 2715.4,1065.6 
				2692.2,1065.6 2749.6,1139.8 2689.3,1218.1 2712.5,1218.1 2761.2,1154.3 2776.1,1173.9 			"/>
			<polygon class="st57" points="2816.4,1196.7 2793.3,1196.7 2809.6,1218.1 2833.1,1218.1 			"/>
		</g>
	</g>
	<g>
		<polygon class="st57" points="1814.5,1031.7 1814.5,1031 1793.5,1031 1793.5,1031.7 1793.3,1031.7 1793.3,1053.1 1814.8,1053.1 
			1814.8,1031.7 		"/>
		<linearGradient id="SVGID_1_" gradientUnits="userSpaceOnUse" x1="1661.6824" y1="1137.7434" x2="1814.5315" y2="1137.7434">
			<stop  offset="0" style="stop-color:#50697D"/>
			<stop  offset="0.1572" style="stop-color:#5E8491"/>
			<stop  offset="0.3207" style="stop-color:#6999A1"/>
			<stop  offset="0.4274" style="stop-color:#6DA1A7"/>
			<stop  offset="0.695" style="stop-color:#88B18E"/>
			<stop  offset="1" style="stop-color:#ACC66D"/>
		</linearGradient>
		<path class="st59" d="M1793.5,1200.8c-2.1-0.1-27.4-1.6-56.2,9.1h0c-5.2,1.9-10.5,4.2-15.8,7l-34.3,15.2c19.2-18.8,49.8-45,93-45
			l0.3-15.8c-4.5,0.2-18.5,0.9-21.7,3c0-14.6,0-11,0-18.5c4.8-2.8,17.5-3,21.7-3.1v-58.1c0,0-15.4,1.3-21.3,3.2c0,8.1,0,20.8,0,20.8
			s-17.6,2.2-21.5,4.9c0-15.2,0-13.6,0-21.5c5.8-3.4,21-4.8,21.4-4.9v-18.3c0,0,19.2-4.6,21.1-3.2c0-8.8,0-21.5,0-21.5
			s-7.8,0-21.5,3.2c0,7.3,0,21.2,0,21.2c-4.5,0.6-16.6,2.5-19.8,4.6c0-15.2,0-13.6,0-21.5c4.8-2.9,16.3-4.3,20.1-4.7v-0.1
			c0,0,0-8.6,0-20.1c8.6-2.9,21-3.2,21-3.2v-17.1c-82.3,0-118.5,69.7-118.5,69.7s0,104.4,0,172.9c31.4-18.1,109.5-55.4,145.6-37.7
			l7.2,3.7v-107.9h-21.1V1200.8z M1688.1,1217.6c0-0.2,0-0.4,0-0.6h0.4C1688.4,1217.2,1688.2,1217.4,1688.1,1217.6z M1737.8,1139
			c5.8-3.3,21.5-4.7,21.5-4.7v20.6c0,0-17.6,2.2-21.5,4.7C1737.8,1145,1737.8,1146.6,1737.8,1139z M1705.4,1116.5
			c5.5-6.4,19.8-11.3,19.8-11.3v21.5c0,0-12.7,4.5-19.8,11.3C1705.4,1122.7,1705.4,1124.4,1705.4,1116.5z M1685.2,1170.4
			c3-10.5,12.8-13.4,12.8-13.4v20c0,0-7.7,4-12.8,13.4C1685.2,1176.2,1685.2,1177.7,1685.2,1170.4z M1685.2,1200.5
			c3-10.5,12.8-13.4,12.8-13.4v20c0,0-7.7,4-12.8,13.4C1685.2,1206.4,1685.2,1207.9,1685.2,1200.5z"/>
		<polygon class="st57" points="1814.5,1074.2 1793.5,1074.2 1793.5,1074.6 1793.3,1074.6 1793.3,1096.1 1814.8,1096.1 
			1814.8,1074.6 1814.5,1074.6 		"/>
	</g>
</g>
</svg>
