<?xml version="1.0" encoding="UTF-8" standalone="no"?>
<!-- Created with Inkscape (http://www.inkscape.org/) -->

<svg
   version="1.1"
   id="svg2"
   width="226.772"
   height="226.772"
   viewBox="0 0 226.772 226.772"
   sodipodi:docname="CLS INFRA_Icon Square Logo Col.ai"
   xmlns:inkscape="http://www.inkscape.org/namespaces/inkscape"
   xmlns:sodipodi="http://sodipodi.sourceforge.net/DTD/sodipodi-0.dtd"
   xmlns="http://www.w3.org/2000/svg"
   xmlns:svg="http://www.w3.org/2000/svg">
  <defs
     id="defs6" />
  <sodipodi:namedview
     id="namedview4"
     pagecolor="#ffffff"
     bordercolor="#000000"
     borderopacity="0.25"
     inkscape:showpageshadow="2"
     inkscape:pageopacity="0.0"
     inkscape:pagecheckerboard="0"
     inkscape:deskcolor="#d1d1d1"
     showgrid="false" />
  <g
     id="g10"
     inkscape:groupmode="layer"
     inkscape:label="Page 1"
     transform="matrix(1.3333333,0,0,-1.3333333,0,226.772)">
    <g
       id="g194"
       transform="translate(-4.5493641e-5,-3.0025438e-4)">
      <g
         id="g12"
         transform="translate(147.3911,79.5902)">
        <path
           d="m 0,0 -16.949,8.918 -12.652,6.655 V 5.808 L -10.129,-4.436 -29.601,-14.68 v -9.765 l 12.652,6.656 L 0,-8.872 Z"
           style="fill:#32236c;fill-opacity:1;fill-rule:evenodd;stroke:none"
           id="path14" />
      </g>
      <g
         id="g16"
         transform="translate(52.289,85.3984)">
        <path
           d="M 0,0 V 9.765 L -12.652,3.109 -29.601,-5.808 V -14.68 L -12.652,-23.597 0,-30.253 v 9.765 l -19.472,10.244 z"
           style="fill:#32236c;fill-opacity:1;fill-rule:evenodd;stroke:none"
           id="path18" />
      </g>
      <path
         d="m 69.727,55.146 h -9.22 v 60.803 h 9.22 z"
         style="fill:#01ecb5;fill-opacity:1;fill-rule:evenodd;stroke:none"
         id="path20" />
      <path
         d="m 84.526,55.146 h -9.22 v 51.847 h 9.22 z"
         style="fill:#01ecb5;fill-opacity:1;fill-rule:evenodd;stroke:none"
         id="path22" />
      <g
         id="g24"
         transform="translate(99.5459,54.1306)">
        <path
           d="m 0,0 -9.441,3.204 19.614,57.802 9.441,-3.203 z"
           style="fill:#01ecb5;fill-opacity:1;fill-rule:evenodd;stroke:none"
           id="path26" />
      </g>
    </g>
  </g>
</svg>
